<svg width="864" height="1630" viewBox="0 0 864 1630" fill="none" xmlns="http://www.w3.org/2000/svg">
<mask id="mask0_925_630" style="mask-type:alpha" maskUnits="userSpaceOnUse" x="0" y="0" width="864" height="1630">
<rect width="864" height="1630" fill="white"/>
</mask>
<g mask="url(#mask0_925_630)">
<path d="M102.076 821.648C101.5 821.648 101.176 821.144 100.744 820.244L99.376 817.22C98.44 815.204 98.08 814.736 98.08 814.124C98.08 813.62 98.476 813.296 98.836 813.296C99.34 813.296 99.844 813.872 100.132 814.16C102.868 817.112 106.072 819.416 110.356 819.416C114.208 819.416 116.296 817.58 116.296 814.772C116.296 811.424 113.38 810.38 108.808 809.012C104.128 807.608 99.088 806.132 99.088 801.164C99.088 797.744 102.076 795.008 106.36 795.008C109.312 795.008 110.86 795.908 111.652 795.908C112.516 795.908 112.444 794.864 113.272 794.864C113.92 794.864 114.28 795.548 115 796.736L116.008 798.428C117.16 800.372 117.412 801.056 117.412 801.488C117.412 801.812 117.124 802.136 116.764 802.136C116.296 802.136 115.9 801.74 115.432 801.272C112.84 798.608 110.068 797.096 106.72 797.096C104.128 797.096 102.436 798.428 102.436 800.516C102.436 803.252 105.172 804.08 109.816 805.484C114.748 806.96 119.716 808.616 119.716 814.196C119.716 818.732 116.008 821.504 110.68 821.504C107.08 821.504 104.812 820.388 103.948 820.388C103.048 820.388 102.904 821.648 102.076 821.648ZM130.632 821.648C125.952 821.648 121.92 818.372 121.92 812.396C121.92 806.6 125.988 802.676 130.956 802.676C134.592 802.676 137.58 804.836 137.58 806.312C137.58 806.996 137.22 808.112 136.104 809.48C135.744 809.876 135.492 810.128 135.132 810.128C134.664 810.128 134.412 809.732 134.304 809.048C133.836 806.456 132.936 804.476 130.308 804.476C127.464 804.476 125.376 807.176 125.376 811.28C125.376 815.852 128.292 819.164 131.928 819.164C133.8 819.164 135.42 818.372 136.608 816.86C136.932 816.464 137.184 816.32 137.472 816.32C137.868 816.32 138.156 816.608 138.156 817.112C138.156 817.4 138.012 817.724 137.832 818.048C136.752 819.956 133.908 821.648 130.632 821.648ZM157.807 816.788C158.275 820.172 160.435 818.984 160.435 820.424C160.435 820.892 160.003 821.108 159.463 821.108C158.491 821.108 157.771 821 156.331 821C154.819 821 154.207 821.108 153.235 821.108C152.587 821.108 152.191 820.784 152.191 820.352C152.191 819.056 154.603 819.92 154.603 817.724C154.603 817.436 154.567 817.076 154.531 816.788L153.667 810.524C153.379 808.688 152.695 805.664 149.887 805.664C147.727 805.664 145.387 807.392 145.387 811.064V817.148C145.387 820.064 147.691 819.02 147.691 820.388C147.691 820.712 147.475 821.108 146.935 821.108C146.143 821.108 145.063 821 143.767 821C142.507 821 141.499 821.108 140.707 821.108C140.131 821.108 139.879 820.712 139.879 820.388C139.879 819.02 142.147 820.064 142.147 817.148V799.076C142.147 796.844 139.591 798.068 139.591 796.664C139.591 796.088 140.203 795.656 142.111 794.756C143.947 793.892 144.307 793.784 144.703 793.784C145.207 793.784 145.387 794.216 145.387 794.72V806.42C146.539 804.548 148.411 802.928 151.147 802.928C155.503 802.928 156.511 807.104 156.907 810.056L157.807 816.788ZM173.67 802.892C175.182 802.892 176.226 803.648 176.226 804.548C176.226 805.088 176.01 805.988 175.578 807.572C175.398 808.184 175.11 808.544 174.606 808.544C174.138 808.544 173.922 808.148 173.706 807.572C173.238 806.456 172.77 805.916 172.014 805.916C170.286 805.916 167.298 808.688 167.298 813.728V817.148C167.298 820.064 170.106 818.912 170.106 820.388C170.106 820.712 169.854 821.108 169.314 821.108C168.414 821.108 167.154 821 165.678 821C164.418 821 163.41 821.108 162.654 821.108C162.042 821.108 161.79 820.712 161.79 820.388C161.79 819.02 164.058 820.064 164.058 817.148V808.328C164.058 806.096 161.502 807.32 161.502 805.916C161.502 805.34 162.15 804.944 164.022 804.044C165.858 803.144 166.254 803.036 166.542 803.036C167.118 803.036 167.298 803.504 167.298 804.296V808.004C168.486 804.944 171.114 802.892 173.67 802.892ZM180.807 799.184C179.835 799.184 178.899 798.536 178.899 797.348C178.899 795.98 180.267 794.468 182.067 794.468C183.147 794.468 184.083 795.152 184.083 796.304C184.083 797.672 182.607 799.184 180.807 799.184ZM178.791 821.108C178.179 821.108 177.927 820.712 177.927 820.388C177.927 819.02 180.195 820.064 180.195 817.148V808.328C180.195 806.096 177.639 807.32 177.639 805.916C177.639 805.34 178.287 804.944 180.159 804.044C181.995 803.144 182.391 803.036 182.679 803.036C183.255 803.036 183.435 803.504 183.435 804.296V817.148C183.435 820.064 185.775 819.02 185.775 820.388C185.775 820.712 185.523 821.108 184.983 821.108C184.191 821.108 183.111 821 181.815 821C180.555 821 179.547 821.108 178.791 821.108ZM194.387 795.476C193.235 795.476 192.263 796.376 192.263 797.924C192.263 799.724 193.271 801.236 193.631 803.324H197.879C198.311 803.324 198.527 803.504 198.527 803.828C198.527 804.08 198.455 804.44 198.419 804.656C198.311 805.052 198.131 805.232 197.735 805.232H193.775V817.148C193.775 820.064 196.727 818.912 196.727 820.388C196.727 820.712 196.475 821.108 195.935 821.108C194.999 821.108 193.739 821 192.263 821C190.931 821 189.887 821.108 189.095 821.108C188.519 821.108 188.267 820.712 188.267 820.388C188.267 819.02 190.535 820.064 190.535 817.148V805.232H188.159C187.799 805.232 187.583 805.052 187.511 804.656C187.475 804.44 187.403 804.08 187.403 803.828C187.403 803.504 187.619 803.324 188.015 803.324H190.427C190.139 801.632 189.383 800.372 189.383 798.5C189.383 795.368 191.723 793.604 194.639 793.604C196.943 793.604 199.499 794.72 199.499 796.268C199.499 797.132 199.103 797.924 198.527 799.04C198.311 799.472 197.987 799.832 197.591 799.832C197.123 799.832 196.835 799.508 196.763 798.968C196.403 796.592 195.719 795.476 194.387 795.476ZM211.989 817.184C212.421 817.184 212.709 817.544 212.709 817.976C212.709 818.408 212.457 818.876 211.989 819.38C210.693 820.748 208.929 821.396 206.985 821.396C204.213 821.396 202.269 819.848 202.269 818.012C202.269 817.256 202.341 814.484 202.341 812V805.232H200.001C199.353 805.232 198.957 804.944 198.957 804.404C198.957 803.936 199.317 803.648 199.893 803.396C202.053 802.496 203.025 801.2 203.853 797.924C204.177 796.988 204.393 796.556 204.933 796.556C205.329 796.556 205.581 796.844 205.581 797.492V803.324H211.737C212.133 803.324 212.349 803.504 212.349 803.828C212.349 804.08 212.277 804.44 212.241 804.656C212.169 805.052 211.953 805.232 211.593 805.232H205.581V815.672C205.581 818.336 206.625 819.128 208.101 819.128C209.577 819.128 210.405 818.264 211.125 817.652C211.341 817.436 211.665 817.184 211.989 817.184ZM232.493 818.984C232.889 819.056 233.069 819.236 233.069 819.524C233.069 820.208 231.701 821.288 230.009 821.288C228.533 821.288 227.237 820.424 226.697 818.552C225.293 820.208 222.953 821.396 220.109 821.396C216.401 821.396 213.989 819.2 213.989 816.032C213.989 812.9 216.725 810.38 221.297 810.38C222.881 810.38 224.249 810.668 225.581 811.064L225.509 810.596C224.969 806.6 223.565 805.376 221.189 805.376C219.569 805.376 218.093 806.24 216.797 807.428C216.437 807.716 216.149 807.86 215.897 807.86C215.537 807.86 215.177 807.572 215.177 807.14C215.177 806.78 215.393 806.456 215.753 805.988C216.941 804.332 219.569 802.892 222.269 802.892C226.913 802.892 228.065 806.096 228.569 809.588L229.469 815.636C229.829 818.336 230.621 818.624 232.493 818.984ZM221.189 819.236C223.313 819.236 225.293 817.94 226.337 816.5L225.833 812.936C224.609 812.468 223.277 812.216 222.017 812.216C218.993 812.216 217.409 813.584 217.409 815.744C217.409 817.796 218.957 819.236 221.189 819.236ZM245.916 802.892C247.428 802.892 248.472 803.648 248.472 804.548C248.472 805.088 248.256 805.988 247.824 807.572C247.644 808.184 247.356 808.544 246.852 808.544C246.384 808.544 246.168 808.148 245.952 807.572C245.484 806.456 245.016 805.916 244.26 805.916C242.532 805.916 239.544 808.688 239.544 813.728V817.148C239.544 820.064 242.352 818.912 242.352 820.388C242.352 820.712 242.1 821.108 241.56 821.108C240.66 821.108 239.4 821 237.924 821C236.664 821 235.656 821.108 234.9 821.108C234.288 821.108 234.036 820.712 234.036 820.388C234.036 819.02 236.304 820.064 236.304 817.148V808.328C236.304 806.096 233.748 807.32 233.748 805.916C233.748 805.34 234.396 804.944 236.268 804.044C238.104 803.144 238.5 803.036 238.788 803.036C239.364 803.036 239.544 803.504 239.544 804.296V808.004C240.732 804.944 243.36 802.892 245.916 802.892ZM262.122 817.184C262.554 817.184 262.842 817.544 262.842 817.976C262.842 818.408 262.59 818.876 262.122 819.38C260.826 820.748 259.062 821.396 257.118 821.396C254.346 821.396 252.402 819.848 252.402 818.012C252.402 817.256 252.474 814.484 252.474 812V805.232H250.134C249.486 805.232 249.09 804.944 249.09 804.404C249.09 803.936 249.45 803.648 250.026 803.396C252.186 802.496 253.158 801.2 253.986 797.924C254.31 796.988 254.526 796.556 255.066 796.556C255.462 796.556 255.714 796.844 255.714 797.492V803.324H261.87C262.266 803.324 262.482 803.504 262.482 803.828C262.482 804.08 262.41 804.44 262.374 804.656C262.302 805.052 262.086 805.232 261.726 805.232H255.714V815.672C255.714 818.336 256.758 819.128 258.234 819.128C259.71 819.128 260.538 818.264 261.258 817.652C261.474 817.436 261.798 817.184 262.122 817.184ZM267.83 805.484C269.234 805.484 270.206 806.204 270.206 807.536C270.206 808.796 269.054 809.804 267.506 809.804C266.102 809.804 265.13 809.048 265.13 807.716C265.13 806.42 266.282 805.484 267.83 805.484ZM267.83 816.968C269.234 816.968 270.206 817.724 270.206 819.056C270.206 820.316 269.054 821.288 267.506 821.288C266.102 821.288 265.13 820.568 265.13 819.236C265.13 817.94 266.282 816.968 267.83 816.968ZM283.704 821.108C283.092 821.108 282.804 820.784 282.804 820.388C282.804 818.984 285.216 819.884 285.216 817.472V799.076C285.216 796.664 282.804 797.528 282.804 796.124C282.804 795.764 283.092 795.404 283.74 795.404C284.568 795.404 285.612 795.512 286.98 795.512C288.348 795.512 289.5 795.404 290.292 795.404C290.94 795.404 291.192 795.764 291.192 796.124C291.192 797.528 288.816 796.664 288.816 799.076V817.472C288.816 819.884 291.192 818.984 291.192 820.388C291.192 820.784 290.94 821.108 290.292 821.108C289.5 821.108 288.348 821 286.98 821C285.612 821 284.532 821.108 283.704 821.108ZM312.152 816.788C312.584 820.172 314.78 818.984 314.78 820.388C314.78 820.892 314.348 821.108 313.772 821.108C312.836 821.108 312.08 821 310.64 821C309.164 821 308.516 821.108 307.544 821.108C306.896 821.108 306.536 820.784 306.536 820.352C306.536 819.056 308.948 819.92 308.948 817.688C308.948 817.4 308.876 816.968 308.84 816.608L307.976 810.524C307.688 808.688 307.04 805.664 304.196 805.664C302.036 805.664 299.696 807.392 299.696 811.064V817.148C299.696 820.064 302.036 819.02 302.036 820.388C302.036 820.712 301.784 821.108 301.244 821.108C300.452 821.108 299.372 821 298.076 821C296.816 821 295.808 821.108 295.052 821.108C294.44 821.108 294.188 820.712 294.188 820.388C294.188 819.02 296.456 820.064 296.456 817.148V808.328C296.456 806.096 293.9 807.32 293.9 805.916C293.9 805.34 294.548 804.944 296.42 804.044C298.256 803.144 298.652 803.036 298.94 803.036C299.516 803.036 299.696 803.504 299.696 804.296V806.42C300.848 804.548 302.72 802.928 305.492 802.928C309.776 802.928 310.82 807.104 311.216 810.056L312.152 816.788ZM322.678 793.604C324.982 793.604 327.538 794.72 327.538 796.268C327.538 797.132 327.142 797.924 326.566 799.04C326.35 799.472 326.026 799.832 325.63 799.832C325.162 799.832 324.874 799.508 324.802 798.968C324.442 796.592 323.758 795.476 322.426 795.476C321.274 795.476 320.302 796.376 320.302 797.924C320.302 799.724 321.31 801.236 321.67 803.324H325.918C326.35 803.324 326.566 803.504 326.566 803.828C326.566 804.08 326.494 804.44 326.458 804.656C326.35 805.052 326.17 805.232 325.774 805.232H321.814V817.148C321.814 820.064 324.766 818.912 324.766 820.388C324.766 820.712 324.514 821.108 323.974 821.108C323.038 821.108 321.778 821 320.302 821C318.97 821 317.926 821.108 317.134 821.108C316.558 821.108 316.306 820.712 316.306 820.388C316.306 819.02 318.574 820.064 318.574 817.148V805.232H316.198C315.838 805.232 315.622 805.052 315.55 804.656C315.514 804.44 315.442 804.08 315.442 803.828C315.442 803.504 315.658 803.324 316.054 803.324H318.466C318.178 801.632 317.422 800.372 317.422 798.5C317.422 795.368 319.762 793.604 322.678 793.604ZM330.994 799.184C330.022 799.184 329.086 798.536 329.086 797.348C329.086 795.98 330.454 794.468 332.254 794.468C333.334 794.468 334.27 795.152 334.27 796.304C334.27 797.672 332.794 799.184 330.994 799.184ZM333.622 817.148C333.622 820.064 335.962 819.02 335.962 820.388C335.962 820.712 335.71 821.108 335.17 821.108C334.378 821.108 333.298 821 332.002 821C330.742 821 329.734 821.108 328.978 821.108C328.366 821.108 328.114 820.712 328.114 820.388C328.114 819.02 330.382 820.064 330.382 817.148V808.328C330.382 806.096 327.826 807.32 327.826 805.916C327.826 805.34 328.474 804.944 330.346 804.044C332.182 803.144 332.578 803.036 332.866 803.036C333.442 803.036 333.622 803.504 333.622 804.296V817.148ZM356.238 816.788C356.67 820.172 358.866 818.984 358.866 820.388C358.866 820.892 358.434 821.108 357.858 821.108C356.922 821.108 356.166 821 354.726 821C353.25 821 352.602 821.108 351.63 821.108C350.982 821.108 350.622 820.784 350.622 820.352C350.622 819.056 353.034 819.92 353.034 817.688C353.034 817.4 352.962 816.968 352.926 816.608L352.062 810.524C351.774 808.688 351.126 805.664 348.282 805.664C346.122 805.664 343.782 807.392 343.782 811.064V817.148C343.782 820.064 346.122 819.02 346.122 820.388C346.122 820.712 345.87 821.108 345.33 821.108C344.538 821.108 343.458 821 342.162 821C340.902 821 339.894 821.108 339.138 821.108C338.526 821.108 338.274 820.712 338.274 820.388C338.274 819.02 340.542 820.064 340.542 817.148V808.328C340.542 806.096 337.986 807.32 337.986 805.916C337.986 805.34 338.634 804.944 340.506 804.044C342.342 803.144 342.738 803.036 343.026 803.036C343.602 803.036 343.782 803.504 343.782 804.296V806.42C344.934 804.548 346.806 802.928 349.578 802.928C353.862 802.928 354.906 807.104 355.302 810.056L356.238 816.788ZM363.092 799.184C362.12 799.184 361.184 798.536 361.184 797.348C361.184 795.98 362.552 794.468 364.352 794.468C365.432 794.468 366.368 795.152 366.368 796.304C366.368 797.672 364.892 799.184 363.092 799.184ZM361.076 821.108C360.464 821.108 360.212 820.712 360.212 820.388C360.212 819.02 362.48 820.064 362.48 817.148V808.328C362.48 806.096 359.924 807.32 359.924 805.916C359.924 805.34 360.572 804.944 362.444 804.044C364.28 803.144 364.676 803.036 364.964 803.036C365.54 803.036 365.72 803.504 365.72 804.296V817.148C365.72 820.064 368.06 819.02 368.06 820.388C368.06 820.712 367.808 821.108 367.268 821.108C366.476 821.108 365.396 821 364.1 821C362.84 821 361.832 821.108 361.076 821.108ZM102.076 1168.65C101.5 1168.65 101.176 1168.14 100.744 1167.24L99.376 1164.22C98.44 1162.2 98.08 1161.74 98.08 1161.12C98.08 1160.62 98.476 1160.3 98.836 1160.3C99.34 1160.3 99.844 1160.87 100.132 1161.16C102.868 1164.11 106.072 1166.42 110.356 1166.42C114.208 1166.42 116.296 1164.58 116.296 1161.77C116.296 1158.42 113.38 1157.38 108.808 1156.01C104.128 1154.61 99.088 1153.13 99.088 1148.16C99.088 1144.74 102.076 1142.01 106.36 1142.01C109.312 1142.01 110.86 1142.91 111.652 1142.91C112.516 1142.91 112.444 1141.86 113.272 1141.86C113.92 1141.86 114.28 1142.55 115 1143.74L116.008 1145.43C117.16 1147.37 117.412 1148.06 117.412 1148.49C117.412 1148.81 117.124 1149.14 116.764 1149.14C116.296 1149.14 115.9 1148.74 115.432 1148.27C112.84 1145.61 110.068 1144.1 106.72 1144.1C104.128 1144.1 102.436 1145.43 102.436 1147.52C102.436 1150.25 105.172 1151.08 109.816 1152.48C114.748 1153.96 119.716 1155.62 119.716 1161.2C119.716 1165.73 116.008 1168.5 110.68 1168.5C107.08 1168.5 104.812 1167.39 103.948 1167.39C103.048 1167.39 102.904 1168.65 102.076 1168.65ZM130.632 1168.65C125.952 1168.65 121.92 1165.37 121.92 1159.4C121.92 1153.6 125.988 1149.68 130.956 1149.68C134.592 1149.68 137.58 1151.84 137.58 1153.31C137.58 1154 137.22 1155.11 136.104 1156.48C135.744 1156.88 135.492 1157.13 135.132 1157.13C134.664 1157.13 134.412 1156.73 134.304 1156.05C133.836 1153.46 132.936 1151.48 130.308 1151.48C127.464 1151.48 125.376 1154.18 125.376 1158.28C125.376 1162.85 128.292 1166.16 131.928 1166.16C133.8 1166.16 135.42 1165.37 136.608 1163.86C136.932 1163.46 137.184 1163.32 137.472 1163.32C137.868 1163.32 138.156 1163.61 138.156 1164.11C138.156 1164.4 138.012 1164.72 137.832 1165.05C136.752 1166.96 133.908 1168.65 130.632 1168.65ZM157.807 1163.79C158.275 1167.17 160.435 1165.98 160.435 1167.42C160.435 1167.89 160.003 1168.11 159.463 1168.11C158.491 1168.11 157.771 1168 156.331 1168C154.819 1168 154.207 1168.11 153.235 1168.11C152.587 1168.11 152.191 1167.78 152.191 1167.35C152.191 1166.06 154.603 1166.92 154.603 1164.72C154.603 1164.44 154.567 1164.08 154.531 1163.79L153.667 1157.52C153.379 1155.69 152.695 1152.66 149.887 1152.66C147.727 1152.66 145.387 1154.39 145.387 1158.06V1164.15C145.387 1167.06 147.691 1166.02 147.691 1167.39C147.691 1167.71 147.475 1168.11 146.935 1168.11C146.143 1168.11 145.063 1168 143.767 1168C142.507 1168 141.499 1168.11 140.707 1168.11C140.131 1168.11 139.879 1167.71 139.879 1167.39C139.879 1166.02 142.147 1167.06 142.147 1164.15V1146.08C142.147 1143.84 139.591 1145.07 139.591 1143.66C139.591 1143.09 140.203 1142.66 142.111 1141.76C143.947 1140.89 144.307 1140.78 144.703 1140.78C145.207 1140.78 145.387 1141.22 145.387 1141.72V1153.42C146.539 1151.55 148.411 1149.93 151.147 1149.93C155.503 1149.93 156.511 1154.1 156.907 1157.06L157.807 1163.79ZM173.67 1149.89C175.182 1149.89 176.226 1150.65 176.226 1151.55C176.226 1152.09 176.01 1152.99 175.578 1154.57C175.398 1155.18 175.11 1155.54 174.606 1155.54C174.138 1155.54 173.922 1155.15 173.706 1154.57C173.238 1153.46 172.77 1152.92 172.014 1152.92C170.286 1152.92 167.298 1155.69 167.298 1160.73V1164.15C167.298 1167.06 170.106 1165.91 170.106 1167.39C170.106 1167.71 169.854 1168.11 169.314 1168.11C168.414 1168.11 167.154 1168 165.678 1168C164.418 1168 163.41 1168.11 162.654 1168.11C162.042 1168.11 161.79 1167.71 161.79 1167.39C161.79 1166.02 164.058 1167.06 164.058 1164.15V1155.33C164.058 1153.1 161.502 1154.32 161.502 1152.92C161.502 1152.34 162.15 1151.94 164.022 1151.04C165.858 1150.14 166.254 1150.04 166.542 1150.04C167.118 1150.04 167.298 1150.5 167.298 1151.3V1155C168.486 1151.94 171.114 1149.89 173.67 1149.89ZM180.807 1146.18C179.835 1146.18 178.899 1145.54 178.899 1144.35C178.899 1142.98 180.267 1141.47 182.067 1141.47C183.147 1141.47 184.083 1142.15 184.083 1143.3C184.083 1144.67 182.607 1146.18 180.807 1146.18ZM178.791 1168.11C178.179 1168.11 177.927 1167.71 177.927 1167.39C177.927 1166.02 180.195 1167.06 180.195 1164.15V1155.33C180.195 1153.1 177.639 1154.32 177.639 1152.92C177.639 1152.34 178.287 1151.94 180.159 1151.04C181.995 1150.14 182.391 1150.04 182.679 1150.04C183.255 1150.04 183.435 1150.5 183.435 1151.3V1164.15C183.435 1167.06 185.775 1166.02 185.775 1167.39C185.775 1167.71 185.523 1168.11 184.983 1168.11C184.191 1168.11 183.111 1168 181.815 1168C180.555 1168 179.547 1168.11 178.791 1168.11ZM194.387 1142.48C193.235 1142.48 192.263 1143.38 192.263 1144.92C192.263 1146.72 193.271 1148.24 193.631 1150.32H197.879C198.311 1150.32 198.527 1150.5 198.527 1150.83C198.527 1151.08 198.455 1151.44 198.419 1151.66C198.311 1152.05 198.131 1152.23 197.735 1152.23H193.775V1164.15C193.775 1167.06 196.727 1165.91 196.727 1167.39C196.727 1167.71 196.475 1168.11 195.935 1168.11C194.999 1168.11 193.739 1168 192.263 1168C190.931 1168 189.887 1168.11 189.095 1168.11C188.519 1168.11 188.267 1167.71 188.267 1167.39C188.267 1166.02 190.535 1167.06 190.535 1164.15V1152.23H188.159C187.799 1152.23 187.583 1152.05 187.511 1151.66C187.475 1151.44 187.403 1151.08 187.403 1150.83C187.403 1150.5 187.619 1150.32 188.015 1150.32H190.427C190.139 1148.63 189.383 1147.37 189.383 1145.5C189.383 1142.37 191.723 1140.6 194.639 1140.6C196.943 1140.6 199.499 1141.72 199.499 1143.27C199.499 1144.13 199.103 1144.92 198.527 1146.04C198.311 1146.47 197.987 1146.83 197.591 1146.83C197.123 1146.83 196.835 1146.51 196.763 1145.97C196.403 1143.59 195.719 1142.48 194.387 1142.48ZM211.989 1164.18C212.421 1164.18 212.709 1164.54 212.709 1164.98C212.709 1165.41 212.457 1165.88 211.989 1166.38C210.693 1167.75 208.929 1168.4 206.985 1168.4C204.213 1168.4 202.269 1166.85 202.269 1165.01C202.269 1164.26 202.341 1161.48 202.341 1159V1152.23H200.001C199.353 1152.23 198.957 1151.94 198.957 1151.4C198.957 1150.94 199.317 1150.65 199.893 1150.4C202.053 1149.5 203.025 1148.2 203.853 1144.92C204.177 1143.99 204.393 1143.56 204.933 1143.56C205.329 1143.56 205.581 1143.84 205.581 1144.49V1150.32H211.737C212.133 1150.32 212.349 1150.5 212.349 1150.83C212.349 1151.08 212.277 1151.44 212.241 1151.66C212.169 1152.05 211.953 1152.23 211.593 1152.23H205.581V1162.67C205.581 1165.34 206.625 1166.13 208.101 1166.13C209.577 1166.13 210.405 1165.26 211.125 1164.65C211.341 1164.44 211.665 1164.18 211.989 1164.18ZM232.493 1165.98C232.889 1166.06 233.069 1166.24 233.069 1166.52C233.069 1167.21 231.701 1168.29 230.009 1168.29C228.533 1168.29 227.237 1167.42 226.697 1165.55C225.293 1167.21 222.953 1168.4 220.109 1168.4C216.401 1168.4 213.989 1166.2 213.989 1163.03C213.989 1159.9 216.725 1157.38 221.297 1157.38C222.881 1157.38 224.249 1157.67 225.581 1158.06L225.509 1157.6C224.969 1153.6 223.565 1152.38 221.189 1152.38C219.569 1152.38 218.093 1153.24 216.797 1154.43C216.437 1154.72 216.149 1154.86 215.897 1154.86C215.537 1154.86 215.177 1154.57 215.177 1154.14C215.177 1153.78 215.393 1153.46 215.753 1152.99C216.941 1151.33 219.569 1149.89 222.269 1149.89C226.913 1149.89 228.065 1153.1 228.569 1156.59L229.469 1162.64C229.829 1165.34 230.621 1165.62 232.493 1165.98ZM221.189 1166.24C223.313 1166.24 225.293 1164.94 226.337 1163.5L225.833 1159.94C224.609 1159.47 223.277 1159.22 222.017 1159.22C218.993 1159.22 217.409 1160.58 217.409 1162.74C217.409 1164.8 218.957 1166.24 221.189 1166.24ZM245.916 1149.89C247.428 1149.89 248.472 1150.65 248.472 1151.55C248.472 1152.09 248.256 1152.99 247.824 1154.57C247.644 1155.18 247.356 1155.54 246.852 1155.54C246.384 1155.54 246.168 1155.15 245.952 1154.57C245.484 1153.46 245.016 1152.92 244.26 1152.92C242.532 1152.92 239.544 1155.69 239.544 1160.73V1164.15C239.544 1167.06 242.352 1165.91 242.352 1167.39C242.352 1167.71 242.1 1168.11 241.56 1168.11C240.66 1168.11 239.4 1168 237.924 1168C236.664 1168 235.656 1168.11 234.9 1168.11C234.288 1168.11 234.036 1167.71 234.036 1167.39C234.036 1166.02 236.304 1167.06 236.304 1164.15V1155.33C236.304 1153.1 233.748 1154.32 233.748 1152.92C233.748 1152.34 234.396 1151.94 236.268 1151.04C238.104 1150.14 238.5 1150.04 238.788 1150.04C239.364 1150.04 239.544 1150.5 239.544 1151.3V1155C240.732 1151.94 243.36 1149.89 245.916 1149.89ZM262.122 1164.18C262.554 1164.18 262.842 1164.54 262.842 1164.98C262.842 1165.41 262.59 1165.88 262.122 1166.38C260.826 1167.75 259.062 1168.4 257.118 1168.4C254.346 1168.4 252.402 1166.85 252.402 1165.01C252.402 1164.26 252.474 1161.48 252.474 1159V1152.23H250.134C249.486 1152.23 249.09 1151.94 249.09 1151.4C249.09 1150.94 249.45 1150.65 250.026 1150.4C252.186 1149.5 253.158 1148.2 253.986 1144.92C254.31 1143.99 254.526 1143.56 255.066 1143.56C255.462 1143.56 255.714 1143.84 255.714 1144.49V1150.32H261.87C262.266 1150.32 262.482 1150.5 262.482 1150.83C262.482 1151.08 262.41 1151.44 262.374 1151.66C262.302 1152.05 262.086 1152.23 261.726 1152.23H255.714V1162.67C255.714 1165.34 256.758 1166.13 258.234 1166.13C259.71 1166.13 260.538 1165.26 261.258 1164.65C261.474 1164.44 261.798 1164.18 262.122 1164.18ZM267.83 1152.48C269.234 1152.48 270.206 1153.2 270.206 1154.54C270.206 1155.8 269.054 1156.8 267.506 1156.8C266.102 1156.8 265.13 1156.05 265.13 1154.72C265.13 1153.42 266.282 1152.48 267.83 1152.48ZM267.83 1163.97C269.234 1163.97 270.206 1164.72 270.206 1166.06C270.206 1167.32 269.054 1168.29 267.506 1168.29C266.102 1168.29 265.13 1167.57 265.13 1166.24C265.13 1164.94 266.282 1163.97 267.83 1163.97ZM302.46 1146.18C303.144 1147.55 303.396 1148.16 303.396 1148.63C303.396 1149.14 303 1149.39 302.676 1149.39C302.208 1149.39 301.92 1149.1 301.416 1148.56C298.932 1145.9 297.564 1144.46 294.648 1144.46H291.66C289.068 1144.46 288.816 1144.92 288.816 1146.22V1153.53C288.816 1154.1 288.996 1154.32 289.824 1154.32H294.612C296.916 1154.32 296.7 1151.58 297.96 1151.58C298.392 1151.58 298.716 1151.84 298.716 1152.59C298.716 1153.46 298.608 1154.36 298.608 1155.29C298.608 1156.23 298.716 1157.16 298.716 1157.99C298.716 1158.75 298.392 1159 297.96 1159C296.7 1159 296.916 1156.26 294.612 1156.26H289.824C288.996 1156.26 288.816 1156.48 288.816 1157.06V1164.47C288.816 1166.88 291.732 1165.98 291.732 1167.39C291.732 1167.78 291.48 1168.11 290.832 1168.11C289.896 1168.11 288.528 1168 287.016 1168C285.612 1168 284.532 1168.11 283.704 1168.11C283.092 1168.11 282.804 1167.78 282.804 1167.39C282.804 1165.98 285.216 1166.88 285.216 1164.47V1146.08C285.216 1143.66 282.804 1144.53 282.804 1143.16C282.804 1142.73 283.092 1142.4 283.812 1142.4C284.388 1142.4 285.684 1142.51 286.98 1142.51H297.672C298.716 1142.51 298.752 1141.76 299.544 1141.76C300.192 1141.76 300.552 1142.22 301.2 1143.52L302.46 1146.18ZM321.946 1163.36C321.946 1165.55 324.898 1165.01 324.898 1166.2C324.898 1166.88 324.25 1167.24 321.982 1167.78C320.398 1168.18 319.822 1168.29 319.462 1168.29C318.814 1168.29 318.706 1167.64 318.706 1167.06V1164.98C317.554 1166.85 315.718 1168.43 312.622 1168.43C308.554 1168.43 306.61 1165.7 306.61 1161.45V1155.22C306.61 1153.06 303.73 1153.89 303.73 1152.59C303.73 1151.94 304.342 1151.58 306.466 1150.79C308.302 1150.11 308.77 1150.04 309.022 1150.04C309.778 1150.04 309.85 1150.76 309.85 1151.33V1160.94C309.85 1163.82 310.642 1165.8 313.702 1165.8C316.186 1165.8 318.706 1163.97 318.706 1160.33V1155.22C318.706 1153.06 315.538 1153.96 315.538 1152.59C315.538 1151.98 316.186 1151.62 318.562 1150.76C320.29 1150.14 320.902 1150.04 321.19 1150.04C321.838 1150.04 321.946 1150.68 321.946 1151.33V1163.36ZM338.763 1164.18C339.195 1164.18 339.483 1164.54 339.483 1164.98C339.483 1165.41 339.231 1165.88 338.763 1166.38C337.467 1167.75 335.703 1168.4 333.759 1168.4C330.987 1168.4 329.043 1166.85 329.043 1165.01C329.043 1164.26 329.115 1161.48 329.115 1159V1152.23H326.775C326.127 1152.23 325.731 1151.94 325.731 1151.4C325.731 1150.94 326.091 1150.65 326.667 1150.4C328.827 1149.5 329.799 1148.2 330.627 1144.92C330.951 1143.99 331.167 1143.56 331.707 1143.56C332.103 1143.56 332.355 1143.84 332.355 1144.49V1150.32H338.511C338.907 1150.32 339.123 1150.5 339.123 1150.83C339.123 1151.08 339.051 1151.44 339.015 1151.66C338.943 1152.05 338.727 1152.23 338.367 1152.23H332.355V1162.67C332.355 1165.34 333.399 1166.13 334.875 1166.13C336.351 1166.13 337.179 1165.26 337.899 1164.65C338.115 1164.44 338.439 1164.18 338.763 1164.18ZM358.403 1163.36C358.403 1165.55 361.355 1165.01 361.355 1166.2C361.355 1166.88 360.707 1167.24 358.439 1167.78C356.855 1168.18 356.279 1168.29 355.919 1168.29C355.271 1168.29 355.163 1167.64 355.163 1167.06V1164.98C354.011 1166.85 352.175 1168.43 349.079 1168.43C345.011 1168.43 343.067 1165.7 343.067 1161.45V1155.22C343.067 1153.06 340.187 1153.89 340.187 1152.59C340.187 1151.94 340.799 1151.58 342.923 1150.79C344.759 1150.11 345.227 1150.04 345.479 1150.04C346.235 1150.04 346.307 1150.76 346.307 1151.33V1160.94C346.307 1163.82 347.099 1165.8 350.159 1165.8C352.643 1165.8 355.163 1163.97 355.163 1160.33V1155.22C355.163 1153.06 351.995 1153.96 351.995 1152.59C351.995 1151.98 352.643 1151.62 355.019 1150.76C356.747 1150.14 357.359 1150.04 357.647 1150.04C358.295 1150.04 358.403 1150.68 358.403 1151.33V1163.36ZM375.256 1149.89C376.768 1149.89 377.812 1150.65 377.812 1151.55C377.812 1152.09 377.596 1152.99 377.164 1154.57C376.984 1155.18 376.696 1155.54 376.192 1155.54C375.724 1155.54 375.508 1155.15 375.292 1154.57C374.824 1153.46 374.356 1152.92 373.6 1152.92C371.872 1152.92 368.884 1155.69 368.884 1160.73V1164.15C368.884 1167.06 371.692 1165.91 371.692 1167.39C371.692 1167.71 371.44 1168.11 370.9 1168.11C370 1168.11 368.74 1168 367.264 1168C366.004 1168 364.996 1168.11 364.24 1168.11C363.628 1168.11 363.376 1167.71 363.376 1167.39C363.376 1166.02 365.644 1167.06 365.644 1164.15V1155.33C365.644 1153.1 363.088 1154.32 363.088 1152.92C363.088 1152.34 363.736 1151.94 365.608 1151.04C367.444 1150.14 367.84 1150.04 368.128 1150.04C368.704 1150.04 368.884 1150.5 368.884 1151.3V1155C370.072 1151.94 372.7 1149.89 375.256 1149.89ZM397.271 1165.98C397.667 1166.06 397.847 1166.24 397.847 1166.52C397.847 1167.21 396.479 1168.29 394.787 1168.29C393.311 1168.29 392.015 1167.42 391.475 1165.55C390.071 1167.21 387.731 1168.4 384.887 1168.4C381.179 1168.4 378.767 1166.2 378.767 1163.03C378.767 1159.9 381.503 1157.38 386.075 1157.38C387.659 1157.38 389.027 1157.67 390.359 1158.06L390.287 1157.6C389.747 1153.6 388.343 1152.38 385.967 1152.38C384.347 1152.38 382.871 1153.24 381.575 1154.43C381.215 1154.72 380.927 1154.86 380.675 1154.86C380.315 1154.86 379.955 1154.57 379.955 1154.14C379.955 1153.78 380.171 1153.46 380.531 1152.99C381.719 1151.33 384.347 1149.89 387.047 1149.89C391.691 1149.89 392.843 1153.1 393.347 1156.59L394.247 1162.64C394.607 1165.34 395.399 1165.62 397.271 1165.98ZM385.967 1166.24C388.091 1166.24 390.071 1164.94 391.115 1163.5L390.611 1159.94C389.387 1159.47 388.055 1159.22 386.795 1159.22C383.771 1159.22 382.187 1160.58 382.187 1162.74C382.187 1164.8 383.735 1166.24 385.967 1166.24Z" fill="#FF2E00"/>
<path d="M126.952 866.36C132.584 866.36 137.832 867.512 141.032 868.6L142.312 877.688H142.184C138.024 874.744 133.672 872.696 125.672 872.696C118.312 872.696 107.816 876.984 107.816 889.976C107.816 902.072 115.304 910.2 127.528 910.2C130.216 910.2 133.992 909.368 136.296 908.216L135.208 891.64V891.512H143.464L142.312 910.776C139.688 912.824 134.184 915.64 126.696 915.64C112.04 915.64 101.16 906.808 101.16 890.808C101.16 875.512 110.696 866.36 126.952 866.36ZM152.768 915L153.728 889.784L152.768 867H160.512L159.424 910.968L179.968 906.936H180.096L178.816 915H152.768ZM197.91 854.264C200.15 854.264 201.942 855.608 201.942 857.912C201.942 860.344 200.15 861.816 197.91 861.816C195.798 861.816 193.942 860.344 193.942 857.912C193.942 855.608 195.798 854.264 197.91 854.264ZM213.014 854.264C215.254 854.264 217.046 855.608 217.046 857.912C217.046 860.344 215.254 861.816 213.014 861.816C210.902 861.816 209.046 860.344 209.046 857.912C209.046 855.608 210.902 854.264 213.014 854.264ZM205.462 910.136C213.014 910.136 218.006 905.016 218.006 894.648L216.854 867H224.598L223.83 894.648C223.83 907.64 217.302 915.64 205.462 915.64C193.686 915.64 186.966 907.64 186.966 894.648L186.198 867H193.942L192.79 894.648C192.79 905.016 198.038 910.136 205.462 910.136ZM273.255 912.184C271.015 913.528 265.319 915.64 259.431 915.64C245.415 915.64 234.535 906.488 234.535 890.808C234.535 875.512 244.391 866.36 259.815 866.36C265.703 866.36 271.079 867.768 273.703 868.6L274.983 877.688H274.855C270.503 874.616 265.831 872.696 258.471 872.696C251.367 872.696 241.255 876.984 241.255 889.976C241.255 902.008 247.719 910.2 259.559 910.2C264.615 910.2 269.735 908.152 274.407 904.824H274.535L273.255 912.184ZM321.644 915H312.236L294.316 889.72V887.16L306.796 867H315.948V867.128L299.692 887.544L321.644 914.872V915ZM284.268 915L285.228 889.784L284.268 867H292.012L291.052 889.784L292.012 915H284.268ZM334.793 891.192C328.329 886.904 326.729 882.552 326.729 878.776C326.729 871.736 331.657 866.36 341.385 866.36C345.481 866.36 349.833 867.064 351.817 867.64L353.097 876.472H352.969C348.745 873.72 344.905 871.928 340.105 871.928C336.393 871.928 333.513 873.912 333.513 877.688C333.513 880.888 334.921 882.68 339.337 885.688L343.497 888.504C349.385 892.472 353.545 896.44 353.545 902.456C353.545 908.472 349.705 915.64 338.825 915.64C335.177 915.64 330.633 914.552 327.433 913.464L326.153 904.76H326.281C331.657 908.408 335.113 910.456 339.849 910.456C344.393 910.456 346.761 907.512 346.761 903.864C346.761 900.408 345.033 897.912 341.128 895.352L334.793 891.192ZM399.352 874.744L381.56 871.608L382.712 915H375.032L376.184 871.608L358.456 874.744H358.328L359.672 867H398.136L399.48 874.744H399.352ZM425.208 896.76L417.528 875.896L410.04 896.76H425.208ZM431.992 915L426.808 901.048H408.504L403.512 915H395.32V914.872L417.144 865.4H419.384L439.928 914.872V915H431.992ZM446.33 915L447.29 889.784L446.33 867H454.074L452.986 910.968L473.53 906.936H473.658L472.378 915H446.33ZM482.643 915L483.603 889.784L482.643 867H507.539L508.819 873.656H508.691L490.195 870.968L489.491 887.736L506.451 887.16L505.811 893.112L489.491 891.256L490.259 911.224L509.331 907.64H509.458L508.115 915H482.643ZM525.864 889.784L526.824 915H519.08L520.04 889.784L519.08 867H532.008C541.16 867 546.408 871.928 546.408 878.84C546.408 884.92 543.336 889.656 536.36 891.576L551.784 914.872V915H542.568L531.112 892.408V888.824C536.552 888.184 539.816 885.368 539.816 880.376C539.816 876.216 536.872 872.76 530.6 872.76H526.568L525.864 889.784ZM126.696 988.264L109.992 986.408L110.824 1009H103.08L104.04 983.784L103.08 961H128.68L130.024 967.4H129.896L110.632 964.84L109.928 982.952L127.336 982.312L126.696 988.264ZM146.114 983.784L147.074 1009H139.33L140.29 983.784L139.33 961H152.258C161.41 961 166.658 965.928 166.658 972.84C166.658 978.92 163.586 983.656 156.61 985.576L172.034 1008.87V1009H162.818L151.362 986.408V982.824C156.802 982.184 160.066 979.368 160.066 974.376C160.066 970.216 157.122 966.76 150.85 966.76H146.818L146.114 983.784ZM179.705 1009L180.665 983.784L179.705 961H204.601L205.881 967.656H205.753L187.257 964.968L186.553 981.736L203.513 981.16L202.873 987.112L186.553 985.256L187.321 1005.22L206.393 1001.64H206.521L205.177 1009H179.705ZM235.087 1004.14C242.639 1004.14 247.631 999.016 247.631 988.648L246.479 961H254.223L253.455 988.648C253.455 1001.64 246.927 1009.64 235.087 1009.64C223.311 1009.64 216.591 1001.64 216.591 988.648L215.823 961H223.567L222.415 988.648C222.415 999.016 227.663 1004.14 235.087 1004.14ZM272.864 983.784L273.632 1003.62H281.056C291.36 1003.62 298.656 996.584 298.656 983.784C298.592 973.096 291.552 966.76 282.208 966.76H273.568L272.864 983.784ZM266.08 1009L267.04 983.784L266.08 961H282.144C295.2 961 305.44 968.808 305.44 984.104C305.44 998.248 295.84 1009 281.056 1009H266.08ZM315.705 1009L316.665 983.784L315.705 961H340.601L341.881 967.656H341.753L323.257 964.968L322.553 981.736L339.513 981.16L338.873 987.112L322.553 985.256L323.321 1005.22L342.393 1001.64H342.521L341.177 1009H315.705ZM387.087 1009L357.327 973.352L358.927 1009H351.503L353.167 961H355.151L385.103 997.032L383.823 961H391.247L389.071 1009H387.087ZM409.168 985.192C402.704 980.904 401.104 976.552 401.104 972.776C401.104 965.736 406.032 960.36 415.76 960.36C419.856 960.36 424.208 961.064 426.192 961.64L427.472 970.472H427.344C423.12 967.72 419.28 965.928 414.48 965.928C410.768 965.928 407.888 967.912 407.888 971.688C407.888 974.888 409.296 976.68 413.712 979.688L417.872 982.504C423.76 986.472 427.92 990.44 427.92 996.456C427.92 1002.47 424.08 1009.64 413.2 1009.64C409.552 1009.64 405.008 1008.55 401.808 1007.46L400.528 998.76H400.656C406.032 1002.41 409.488 1004.46 414.224 1004.46C418.768 1004.46 421.136 1001.51 421.136 997.864C421.136 994.408 419.408 991.912 415.503 989.352L409.168 985.192ZM474.943 1006.18C472.703 1007.53 467.007 1009.64 461.119 1009.64C447.103 1009.64 436.223 1000.49 436.223 984.808C436.223 969.512 446.079 960.36 461.503 960.36C467.391 960.36 472.767 961.768 475.391 962.6L476.671 971.688H476.543C472.191 968.616 467.519 966.696 460.159 966.696C453.055 966.696 442.943 970.984 442.943 983.976C442.943 996.008 449.407 1004.2 461.247 1004.2C466.303 1004.2 471.423 1002.15 476.095 998.824H476.223L474.943 1006.18ZM517.635 1009L518.467 986.408H492.867L493.699 1009H485.955L486.915 983.784L485.955 961H493.699L492.803 981.608H518.531L517.635 961H525.379L524.419 983.784L525.379 1009H517.635ZM572.462 1009L542.702 973.352L544.302 1009H536.878L538.542 961H540.526L570.478 997.032L569.198 961H576.622L574.446 1009H572.462ZM588.143 1009L589.103 983.784L588.143 961H595.887L594.927 983.784L595.887 1009H588.143ZM614.802 983.784L615.762 1009H608.018L608.978 983.784L608.018 961H620.882C631.25 961 637.01 966.504 637.01 974.12C637.01 982.952 632.018 989.352 620.05 989.736V985.768C626.002 985.384 630.418 982.44 630.418 975.848C630.418 970.216 627.41 966.696 619.154 966.696H615.506L614.802 983.784ZM652.355 985.192C645.891 980.904 644.291 976.552 644.291 972.776C644.291 965.736 649.219 960.36 658.947 960.36C663.043 960.36 667.395 961.064 669.379 961.64L670.659 970.472H670.531C666.307 967.72 662.467 965.928 657.667 965.928C653.955 965.928 651.075 967.912 651.075 971.688C651.075 974.888 652.483 976.68 656.899 979.688L661.059 982.504C666.947 986.472 671.107 990.44 671.107 996.456C671.107 1002.47 667.267 1009.64 656.387 1009.64C652.739 1009.64 648.195 1008.55 644.995 1007.46L643.715 998.76H643.843C649.219 1002.41 652.675 1004.46 657.411 1004.46C661.955 1004.46 664.323 1001.51 664.323 997.864C664.323 994.408 662.595 991.912 658.691 989.352L652.355 985.192ZM681.33 1009L682.29 983.784L681.33 961H706.226L707.506 967.656H707.378L688.882 964.968L688.178 981.736L705.138 981.16L704.498 987.112L688.178 985.256L688.946 1005.22L708.018 1001.64H708.146L706.802 1009H681.33ZM717.768 1009L718.728 983.784L717.768 961H725.512L724.424 1004.97L744.968 1000.94H745.096L743.816 1009H717.768ZM103.08 1103L104.04 1077.78L103.08 1055H110.824L109.736 1098.97L130.28 1094.94H130.408L129.128 1103H103.08ZM139.393 1103L140.353 1077.78L139.393 1055H147.137L146.177 1077.78L147.137 1103H139.393ZM159.268 1103L160.228 1077.78L159.268 1055H184.164L185.444 1061.66H185.316L166.82 1058.97L166.116 1075.74L183.076 1075.16L182.436 1081.11L166.116 1079.26L166.884 1099.22L185.956 1095.64H186.083L184.74 1103H159.268ZM195.705 1055H208.057C218.233 1055 223.481 1059.61 223.481 1065.94C223.481 1071.32 220.217 1075.61 214.649 1077.08V1077.14C221.945 1078.81 224.825 1083.48 224.825 1088.54C224.825 1095.7 219.385 1103 205.881 1103H195.705L196.665 1077.78L195.705 1055ZM202.489 1077.78L203.257 1097.62H207.545C214.137 1097.62 218.041 1094.42 218.041 1088.02C218.041 1083.03 213.881 1079.9 208.377 1079.58V1075.03C213.689 1074.33 217.081 1072.09 217.081 1067.42C217.081 1063.58 214.201 1060.7 206.969 1060.7H203.193L202.489 1077.78ZM234.455 1103L235.415 1077.78L234.455 1055H242.199L241.111 1098.97L261.655 1094.94H261.783L260.503 1103H234.455ZM270.768 1103L271.728 1077.78L270.768 1055H278.512L277.552 1077.78L278.512 1103H270.768ZM325.587 1103L295.827 1067.35L297.427 1103H290.003L291.667 1055H293.651L323.603 1091.03L322.323 1055H329.747L327.571 1103H325.587ZM365.14 1054.36C370.772 1054.36 376.02 1055.51 379.22 1056.6L380.5 1065.69H380.372C376.212 1062.74 371.86 1060.7 363.86 1060.7C356.5 1060.7 346.004 1064.98 346.004 1077.98C346.004 1090.07 353.492 1098.2 365.716 1098.2C368.404 1098.2 372.18 1097.37 374.484 1096.22L373.396 1079.64V1079.51H381.652L380.5 1098.78C377.876 1100.82 372.372 1103.64 364.884 1103.64C350.228 1103.64 339.348 1094.81 339.348 1078.81C339.348 1063.51 348.884 1054.36 365.14 1054.36ZM397.355 1079.19C390.891 1074.9 389.291 1070.55 389.291 1066.78C389.291 1059.74 394.219 1054.36 403.947 1054.36C408.043 1054.36 412.395 1055.06 414.379 1055.64L415.659 1064.47H415.531C411.307 1061.72 407.467 1059.93 402.667 1059.93C398.955 1059.93 396.075 1061.91 396.075 1065.69C396.075 1068.89 397.483 1070.68 401.899 1073.69L406.059 1076.5C411.947 1080.47 416.107 1084.44 416.107 1090.46C416.107 1096.47 412.267 1103.64 401.387 1103.64C397.739 1103.64 393.195 1102.55 389.995 1101.46L388.715 1092.76H388.843C394.219 1096.41 397.675 1098.46 402.411 1098.46C406.955 1098.46 409.323 1095.51 409.323 1091.86C409.323 1088.41 407.595 1085.91 403.691 1083.35L397.355 1079.19ZM461.914 1062.74L444.122 1059.61L445.274 1103H437.594L438.746 1059.61L421.018 1062.74H420.89L422.234 1055H460.698L462.042 1062.74H461.914ZM468.768 1103L469.728 1077.78L468.768 1055H493.664L494.944 1061.66H494.816L476.32 1058.97L475.616 1075.74L492.576 1075.16L491.936 1081.11L475.616 1079.26L476.384 1099.22L495.456 1095.64H495.583L494.24 1103H468.768ZM505.205 1103L506.165 1077.78L505.205 1055H512.949L511.989 1077.78L512.949 1103H505.205ZM525.08 1103L526.04 1077.78L525.08 1055H532.824L531.736 1098.97L552.28 1094.94H552.408L551.128 1103H525.08ZM126.632 1237.74H146.728C146.856 1244.27 146.152 1249.65 141.736 1254.77C137.32 1259.89 130.6 1262.83 123.88 1262.83C110.312 1262.83 99.048 1251.57 99.048 1238C99.048 1224.18 110.312 1212.91 124.2 1212.91C132.648 1212.91 139.496 1216.69 144.616 1223.34L140.712 1226.99C136.68 1221.3 131.24 1217.9 124.136 1217.9C113.128 1217.9 104.424 1227.18 104.424 1238.06C104.424 1243.18 106.472 1248.05 110.056 1251.7C113.576 1255.22 118.696 1257.84 123.752 1257.84C132.136 1257.84 140.968 1251.7 140.968 1242.74H126.632V1237.74ZM158.076 1209.2V1262H152.956V1209.2H158.076ZM171.04 1231.92V1248.69C171.04 1253.74 171.616 1258.1 177.824 1258.1C184.032 1258.1 184.608 1253.74 184.608 1248.69V1231.92H189.728V1249.26C189.728 1257.26 186.72 1262.83 177.824 1262.83C168.928 1262.83 165.92 1257.26 165.92 1249.26V1231.92H171.04ZM171.552 1216.88C173.472 1216.88 175.008 1218.42 175.008 1220.34C175.008 1222.26 173.472 1223.79 171.552 1223.79C169.632 1223.79 168.096 1222.26 168.096 1220.34C168.096 1218.42 169.632 1216.88 171.552 1216.88ZM184.16 1216.88C186.08 1216.88 187.616 1218.42 187.616 1220.34C187.616 1222.26 186.08 1223.79 184.16 1223.79C182.24 1223.79 180.704 1222.26 180.704 1220.34C180.704 1218.42 182.24 1216.88 184.16 1216.88ZM220.11 1234.1V1240.88H219.982C217.614 1237.87 214.67 1235.82 210.638 1235.82C204.43 1235.82 200.014 1240.94 200.014 1246.96C200.014 1252.91 204.11 1258.1 210.382 1258.1C214.67 1258.1 217.678 1256.18 220.174 1252.91H220.302V1259.76C217.358 1261.74 214.35 1262.83 210.766 1262.83C201.678 1262.83 194.766 1256.05 194.766 1246.96C194.766 1238 201.998 1231.09 210.83 1231.09C214.094 1231.09 217.422 1232.18 220.11 1234.1ZM231.795 1209.2V1243.06L242.739 1231.92H249.587L236.723 1244.72L252.019 1262H245.235L233.139 1248.3L231.795 1249.65V1262H226.675V1209.2H231.795ZM272.162 1236.66L267.874 1238.9C267.17 1237.3 265.634 1235.82 263.778 1235.82C261.986 1235.82 260.066 1237.23 260.066 1239.15C260.066 1241.9 263.522 1242.93 267.042 1244.4C270.562 1245.87 274.018 1247.98 274.018 1253.04C274.018 1258.74 269.41 1262.83 263.842 1262.83C258.786 1262.83 254.818 1259.95 253.218 1255.22L257.762 1253.3C259.042 1256.11 260.514 1258.1 263.906 1258.1C266.658 1258.1 268.77 1256.24 268.77 1253.49C268.77 1246.77 255.202 1249.07 255.202 1239.6C255.202 1234.54 259.298 1231.09 264.162 1231.09C267.618 1231.09 270.818 1233.52 272.162 1236.66ZM281.149 1231.92L290.045 1252.27L299.389 1229.62L308.797 1252.27L317.757 1231.92H323.581L308.669 1264.11L299.389 1241.71L290.109 1264.11L275.325 1231.92H281.149ZM339.821 1235.82C333.869 1235.82 330.029 1241.01 330.029 1246.64C330.029 1252.53 333.485 1258.1 339.885 1258.1C346.477 1258.1 349.933 1252.78 349.933 1246.7C349.933 1240.69 346.157 1235.82 339.821 1235.82ZM354.797 1231.92V1262H349.677V1257.84H349.549C346.925 1261.17 343.405 1262.83 339.181 1262.83C330.349 1262.83 324.781 1255.34 324.781 1247.02C324.781 1238.45 330.221 1231.09 339.245 1231.09C343.341 1231.09 347.053 1233.01 349.549 1236.21H349.677V1231.92H354.797ZM367.863 1231.92V1235.18H367.991C369.783 1232.82 371.319 1231.09 374.647 1231.09C376.375 1231.09 377.783 1231.66 379.255 1232.5L376.823 1237.17C375.799 1236.46 375.095 1235.82 373.751 1235.82C368.119 1235.82 367.863 1243.06 367.863 1246.96V1262H362.743V1231.92H367.863ZM409.333 1248.05H385.717C385.781 1253.62 389.749 1258.1 395.573 1258.1C399.925 1258.1 402.741 1255.47 404.725 1251.89L409.077 1254.38C406.197 1259.76 401.333 1262.83 395.189 1262.83C386.229 1262.83 380.469 1255.98 380.469 1247.34C380.469 1238.45 385.653 1231.09 395.061 1231.09C404.725 1231.09 409.845 1239.09 409.333 1248.05ZM385.973 1243.7H403.957C403.253 1239.34 399.605 1235.82 395.125 1235.82C390.709 1235.82 386.613 1239.34 385.973 1243.7ZM420.184 1231.92V1235.57H420.312C422.424 1232.69 425.176 1231.09 428.888 1231.09C437.208 1231.09 439.128 1237.1 439.128 1244.14V1262H434.008V1245.04C434.008 1240.18 433.624 1235.82 427.672 1235.82C420.632 1235.82 420.184 1242.35 420.184 1247.73V1262H415.064V1231.92H420.184ZM447.597 1209.2H452.717V1235.44L452.845 1235.57C454.957 1232.69 457.709 1231.09 461.421 1231.09C469.741 1231.09 471.661 1237.1 471.661 1244.14V1262H466.541V1245.04C466.541 1240.18 466.157 1235.82 460.205 1235.82C453.165 1235.82 452.717 1242.35 452.717 1247.73V1262H447.597V1209.2ZM492.609 1235.82C486.657 1235.82 482.817 1241.01 482.817 1246.64C482.817 1252.53 486.273 1258.1 492.673 1258.1C499.265 1258.1 502.721 1252.78 502.721 1246.7C502.721 1240.69 498.945 1235.82 492.609 1235.82ZM507.585 1231.92V1262H502.465V1257.84H502.337C499.713 1261.17 496.193 1262.83 491.969 1262.83C483.137 1262.83 477.569 1255.34 477.569 1247.02C477.569 1238.45 483.009 1231.09 492.033 1231.09C496.129 1231.09 499.841 1233.01 502.337 1236.21H502.465V1231.92H507.585ZM520.522 1231.92V1248.69C520.522 1253.74 521.098 1258.1 527.306 1258.1C533.514 1258.1 534.09 1253.74 534.09 1248.69V1231.92H539.21V1249.26C539.21 1257.26 536.202 1262.83 527.306 1262.83C518.41 1262.83 515.402 1257.26 515.402 1249.26V1231.92H520.522ZM563.704 1236.66L559.416 1238.9C558.712 1237.3 557.176 1235.82 555.32 1235.82C553.528 1235.82 551.608 1237.23 551.608 1239.15C551.608 1241.9 555.064 1242.93 558.584 1244.4C562.104 1245.87 565.56 1247.98 565.56 1253.04C565.56 1258.74 560.952 1262.83 555.384 1262.83C550.328 1262.83 546.36 1259.95 544.76 1255.22L549.304 1253.3C550.584 1256.11 552.056 1258.1 555.448 1258.1C558.2 1258.1 560.312 1256.24 560.312 1253.49C560.312 1246.77 546.744 1249.07 546.744 1239.6C546.744 1234.54 550.84 1231.09 555.704 1231.09C559.16 1231.09 562.36 1233.52 563.704 1236.66ZM126.632 1331.74H146.728C146.856 1338.27 146.152 1343.65 141.736 1348.77C137.32 1353.89 130.6 1356.83 123.88 1356.83C110.312 1356.83 99.048 1345.57 99.048 1332C99.048 1318.18 110.312 1306.91 124.2 1306.91C132.648 1306.91 139.496 1310.69 144.616 1317.34L140.712 1320.99C136.68 1315.3 131.24 1311.9 124.136 1311.9C113.128 1311.9 104.424 1321.18 104.424 1332.06C104.424 1337.18 106.472 1342.05 110.056 1345.7C113.576 1349.22 118.696 1351.84 123.752 1351.84C132.136 1351.84 140.968 1345.7 140.968 1336.74H126.632V1331.74ZM158.076 1303.2V1356H152.956V1303.2H158.076ZM178.784 1329.82C172.832 1329.82 168.992 1335.01 168.992 1340.64C168.992 1346.53 172.448 1352.1 178.848 1352.1C185.44 1352.1 188.896 1346.78 188.896 1340.7C188.896 1334.69 185.12 1329.82 178.784 1329.82ZM193.76 1325.92V1356H188.64V1351.84H188.512C185.888 1355.17 182.368 1356.83 178.144 1356.83C169.312 1356.83 163.744 1349.34 163.744 1341.02C163.744 1332.45 169.184 1325.09 178.208 1325.09C182.304 1325.09 186.016 1327.01 188.512 1330.21H188.64V1325.92H193.76ZM207.082 1325.92V1329.57H207.21C209.322 1326.69 212.074 1325.09 215.786 1325.09C224.106 1325.09 226.026 1331.1 226.026 1338.14V1356H220.906V1339.04C220.906 1334.18 220.522 1329.82 214.57 1329.82C207.53 1329.82 207.082 1336.35 207.082 1341.73V1356H201.962V1325.92H207.082ZM240.638 1351.26H261.374V1356H230.27L251.966 1330.66H234.302V1325.92H262.27L240.638 1351.26ZM282.85 1330.66L278.562 1332.9C277.858 1331.3 276.322 1329.82 274.466 1329.82C272.674 1329.82 270.754 1331.23 270.754 1333.15C270.754 1335.9 274.21 1336.93 277.73 1338.4C281.25 1339.87 284.706 1341.98 284.706 1347.04C284.706 1352.74 280.098 1356.83 274.53 1356.83C269.474 1356.83 265.506 1353.95 263.906 1349.22L268.45 1347.3C269.73 1350.11 271.202 1352.1 274.594 1352.1C277.346 1352.1 279.458 1350.24 279.458 1347.49C279.458 1340.77 265.89 1343.07 265.89 1333.6C265.89 1328.54 269.986 1325.09 274.85 1325.09C278.306 1325.09 281.506 1327.52 282.85 1330.66ZM296.06 1330.66V1356H290.94V1330.66H287.804V1325.92H290.94V1315.1H296.06V1325.92H301.436V1330.66H296.06ZM309.515 1325.92V1342.69C309.515 1347.74 310.091 1352.1 316.299 1352.1C322.507 1352.1 323.083 1347.74 323.083 1342.69V1325.92H328.203V1343.26C328.203 1351.26 325.195 1356.83 316.299 1356.83C307.403 1356.83 304.395 1351.26 304.395 1343.26V1325.92H309.515ZM310.027 1310.88C311.947 1310.88 313.483 1312.42 313.483 1314.34C313.483 1316.26 311.947 1317.79 310.027 1317.79C308.107 1317.79 306.571 1316.26 306.571 1314.34C306.571 1312.42 308.107 1310.88 310.027 1310.88ZM322.635 1310.88C324.555 1310.88 326.091 1312.42 326.091 1314.34C326.091 1316.26 324.555 1317.79 322.635 1317.79C320.715 1317.79 319.179 1316.26 319.179 1314.34C319.179 1312.42 320.715 1310.88 322.635 1310.88ZM358.585 1328.1V1334.88H358.457C356.089 1331.87 353.145 1329.82 349.113 1329.82C342.905 1329.82 338.489 1334.94 338.489 1340.96C338.489 1346.91 342.585 1352.1 348.857 1352.1C353.145 1352.1 356.153 1350.18 358.649 1346.91H358.777V1353.76C355.833 1355.74 352.825 1356.83 349.241 1356.83C340.153 1356.83 333.241 1350.05 333.241 1340.96C333.241 1332 340.473 1325.09 349.305 1325.09C352.569 1325.09 355.897 1326.18 358.585 1328.1ZM370.271 1303.2V1337.06L381.215 1325.92H388.063L375.199 1338.72L390.495 1356H383.711L371.615 1342.3L370.271 1343.65V1356H365.151V1303.2H370.271ZM128.04 1408.4L123.752 1411.15C121.832 1407.82 119.528 1405.9 115.432 1405.9C111.144 1405.9 107.432 1408.98 107.432 1413.39C107.432 1417.55 111.72 1419.47 114.984 1420.94L118.184 1422.35C124.456 1425.1 129.768 1428.24 129.768 1435.92C129.768 1444.37 122.984 1450.83 114.6 1450.83C106.856 1450.83 101.096 1445.84 99.56 1438.35L104.808 1436.88C105.512 1441.81 109.288 1445.84 114.472 1445.84C119.656 1445.84 124.392 1441.87 124.392 1436.43C124.392 1430.8 119.976 1428.88 115.496 1426.83L112.552 1425.55C106.92 1422.99 102.056 1420.11 102.056 1413.2C102.056 1405.71 108.392 1400.91 115.56 1400.91C120.936 1400.91 125.48 1403.66 128.04 1408.4ZM141.71 1424.66V1450H136.59V1424.66H133.454V1419.92H136.59V1409.1H141.71V1419.92H147.086V1424.66H141.71ZM155.165 1419.92V1436.69C155.165 1441.74 155.741 1446.1 161.949 1446.1C168.157 1446.1 168.733 1441.74 168.733 1436.69V1419.92H173.853V1437.26C173.853 1445.26 170.845 1450.83 161.949 1450.83C153.053 1450.83 150.045 1445.26 150.045 1437.26V1419.92H155.165ZM155.677 1404.88C157.597 1404.88 159.133 1406.42 159.133 1408.34C159.133 1410.26 157.597 1411.79 155.677 1411.79C153.757 1411.79 152.221 1410.26 152.221 1408.34C152.221 1406.42 153.757 1404.88 155.677 1404.88ZM168.285 1404.88C170.205 1404.88 171.741 1406.42 171.741 1408.34C171.741 1410.26 170.205 1411.79 168.285 1411.79C166.365 1411.79 164.829 1410.26 164.829 1408.34C164.829 1406.42 166.365 1404.88 168.285 1404.88ZM204.235 1422.1V1428.88H204.107C201.739 1425.87 198.795 1423.82 194.763 1423.82C188.555 1423.82 184.139 1428.94 184.139 1434.96C184.139 1440.91 188.235 1446.1 194.507 1446.1C198.795 1446.1 201.803 1444.18 204.299 1440.91H204.427V1447.76C201.483 1449.74 198.475 1450.83 194.891 1450.83C185.803 1450.83 178.891 1444.05 178.891 1434.96C178.891 1426 186.123 1419.09 194.955 1419.09C198.219 1419.09 201.547 1420.18 204.235 1422.1ZM215.92 1397.2V1431.06L226.864 1419.92H233.712L220.848 1432.72L236.144 1450H229.36L217.264 1436.3L215.92 1437.65V1450H210.8V1397.2H215.92ZM256.287 1424.66L251.999 1426.9C251.295 1425.3 249.759 1423.82 247.903 1423.82C246.111 1423.82 244.191 1425.23 244.191 1427.15C244.191 1429.9 247.647 1430.93 251.167 1432.4C254.687 1433.87 258.143 1435.98 258.143 1441.04C258.143 1446.74 253.535 1450.83 247.967 1450.83C242.911 1450.83 238.943 1447.95 237.343 1443.22L241.887 1441.3C243.167 1444.11 244.639 1446.1 248.031 1446.1C250.783 1446.1 252.895 1444.24 252.895 1441.49C252.895 1434.77 239.327 1437.07 239.327 1427.6C239.327 1422.54 243.423 1419.09 248.287 1419.09C251.743 1419.09 254.943 1421.52 256.287 1424.66ZM290.298 1436.05H266.682C266.746 1441.62 270.714 1446.1 276.538 1446.1C280.89 1446.1 283.706 1443.47 285.69 1439.89L290.042 1442.38C287.162 1447.76 282.298 1450.83 276.154 1450.83C267.194 1450.83 261.434 1443.98 261.434 1435.34C261.434 1426.45 266.618 1419.09 276.026 1419.09C285.69 1419.09 290.81 1427.09 290.298 1436.05ZM266.938 1431.7H284.922C284.218 1427.34 280.57 1423.82 276.09 1423.82C271.674 1423.82 267.578 1427.34 266.938 1431.7ZM301.021 1397.2V1450H295.901V1397.2H301.021ZM315.329 1419.92V1450H310.209V1419.92H315.329ZM312.769 1404.94C314.753 1404.94 316.417 1406.61 316.417 1408.59C316.417 1410.64 314.753 1412.24 312.769 1412.24C310.785 1412.24 309.121 1410.64 309.121 1408.59C309.121 1406.61 310.785 1404.94 312.769 1404.94ZM336.879 1423.82C330.927 1423.82 327.087 1429.01 327.087 1434.64C327.087 1440.53 330.543 1446.1 336.943 1446.1C343.535 1446.1 346.991 1440.78 346.991 1434.7C346.991 1428.69 343.215 1423.82 336.879 1423.82ZM351.855 1419.92V1448.53C351.855 1453.33 351.855 1457.49 348.783 1461.46C345.967 1465.04 341.615 1466.77 337.135 1466.77C328.751 1466.77 322.543 1461.46 322.351 1452.94H327.471C327.535 1458.51 331.567 1462.03 337.071 1462.03C345.007 1462.03 346.735 1456.21 346.735 1449.42V1445.84H346.607C344.175 1448.98 340.207 1450.83 336.175 1450.83C327.407 1450.83 321.839 1443.47 321.839 1435.09C321.839 1426.64 327.471 1419.09 336.367 1419.09C340.527 1419.09 344.175 1420.94 346.607 1424.21H346.735V1419.92H351.855ZM365.428 1397.2V1431.06L376.372 1419.92H383.22L370.356 1432.72L385.652 1450H378.868L366.772 1436.3L365.428 1437.65V1450H360.308V1397.2H365.428ZM415.523 1436.05H391.907C391.971 1441.62 395.939 1446.1 401.763 1446.1C406.115 1446.1 408.931 1443.47 410.915 1439.89L415.267 1442.38C412.387 1447.76 407.523 1450.83 401.379 1450.83C392.419 1450.83 386.659 1443.98 386.659 1435.34C386.659 1426.45 391.843 1419.09 401.251 1419.09C410.915 1419.09 416.035 1427.09 415.523 1436.05ZM392.163 1431.7H410.147C409.443 1427.34 405.795 1423.82 401.315 1423.82C396.899 1423.82 392.803 1427.34 392.163 1431.7ZM427.334 1419.92V1450H422.214V1419.92H427.334ZM424.774 1404.94C426.758 1404.94 428.422 1406.61 428.422 1408.59C428.422 1410.64 426.758 1412.24 424.774 1412.24C422.79 1412.24 421.126 1410.64 421.126 1408.59C421.126 1406.61 422.79 1404.94 424.774 1404.94ZM442.1 1424.66V1450H436.98V1424.66H433.844V1419.92H436.98V1409.1H442.1V1419.92H447.476V1424.66H442.1Z" fill="#0000FF"/>
<path d="M677 399.5C677 369.362 671.064 339.518 659.53 311.674C647.997 283.83 631.092 258.53 609.781 237.219C588.47 215.908 563.17 199.003 535.326 187.47C507.482 175.936 477.638 170 447.5 170C417.362 170 387.518 175.936 359.674 187.47C331.83 199.003 306.53 215.908 285.219 237.219C263.908 258.53 247.003 283.83 235.47 311.674C223.936 339.518 218 369.362 218 399.5L447.5 399.5H677Z" fill="#0000FF"/>
<path d="M218 399.5C218 429.638 223.936 459.482 235.47 487.326C247.003 515.17 263.908 540.47 285.219 561.781L447.5 399.5L218 399.5Z" fill="#004A28"/>
<path d="M285.219 561.781C306.53 583.092 331.83 599.997 359.674 611.53C387.518 623.064 417.362 629 447.5 629L447.5 399.5L285.219 561.781Z" fill="#EDEDED"/>
<path d="M447.5 629C508.367 629 566.741 604.821 609.781 561.781C652.821 518.741 677 460.367 677 399.5L447.5 399.5L447.5 629Z" fill="white"/>
<circle cx="447.5" cy="399.5" r="229" stroke="black"/>
<path d="M239.208 370.768H241.056L240.192 375.424H243.168L244.008 370.768H245.904L245.064 375.424H247.272V377.344H244.704L244.056 381.04H246.48V382.96H243.672L242.76 388H240.936L241.824 382.96H238.872L237.912 388H236.112L237 382.96H234.6V381.04H237.36L238.008 377.344H235.488V375.424H238.344L239.208 370.768ZM239.88 377.344L239.232 381.04H242.184L242.832 377.344H239.88ZM256.251 388.384C251.595 388.384 249.939 382.648 249.939 378.952C249.939 375.232 251.571 369.52 256.251 369.52C260.931 369.52 262.563 375.232 262.563 378.952C262.563 382.648 260.907 388.384 256.251 388.384ZM256.251 371.44C253.011 371.44 252.099 376.432 252.099 378.928C252.099 381.424 253.011 386.368 256.251 386.368C259.491 386.368 260.403 381.424 260.403 378.928C260.403 376.432 259.491 371.44 256.251 371.44ZM271.566 388.384C266.91 388.384 265.254 382.648 265.254 378.952C265.254 375.232 266.886 369.52 271.566 369.52C276.246 369.52 277.878 375.232 277.878 378.952C277.878 382.648 276.222 388.384 271.566 388.384ZM271.566 371.44C268.326 371.44 267.414 376.432 267.414 378.928C267.414 381.424 268.326 386.368 271.566 386.368C274.806 386.368 275.718 381.424 275.718 378.928C275.718 376.432 274.806 371.44 271.566 371.44ZM286.881 388.384C282.225 388.384 280.569 382.648 280.569 378.952C280.569 375.232 282.201 369.52 286.881 369.52C291.561 369.52 293.193 375.232 293.193 378.952C293.193 382.648 291.537 388.384 286.881 388.384ZM286.881 371.44C283.641 371.44 282.729 376.432 282.729 378.928C282.729 381.424 283.641 386.368 286.881 386.368C290.121 386.368 291.033 381.424 291.033 378.928C291.033 376.432 290.121 371.44 286.881 371.44ZM302.196 388.384C297.54 388.384 295.884 382.648 295.884 378.952C295.884 375.232 297.516 369.52 302.196 369.52C306.876 369.52 308.508 375.232 308.508 378.952C308.508 382.648 306.852 388.384 302.196 388.384ZM302.196 371.44C298.956 371.44 298.044 376.432 298.044 378.928C298.044 381.424 298.956 386.368 302.196 386.368C305.436 386.368 306.348 381.424 306.348 378.928C306.348 376.432 305.436 371.44 302.196 371.44ZM321.039 371.968H314.535V377.056H320.823V379.12H314.535V388H312.279V369.904H321.039V371.968ZM333.846 371.968H327.342V377.056H333.63V379.12H327.342V388H325.086V369.904H333.846V371.968Z" fill="white"/>
<path d="M273.64 531.693L274.947 530.386L277.628 534.289L279.732 532.185L277.034 528.299L278.375 526.958L281.073 530.844L282.634 529.283L283.992 530.64L282.176 532.456L284.331 535.528L286.045 533.814L287.403 535.172L285.417 537.157L288.336 541.366L287.047 542.656L284.111 538.464L282.023 540.551L284.908 544.794L283.636 546.067L280.7 541.875L279.003 543.572L277.645 542.214L279.597 540.263L277.441 537.191L275.659 538.973L274.302 537.615L276.321 535.596L273.64 531.693ZM278.765 535.867L280.92 538.939L283.008 536.852L280.852 533.78L278.765 535.867ZM298.148 532.098C294.855 535.39 289.628 532.505 287.015 529.892C284.384 527.261 281.499 522.068 284.809 518.759C288.118 515.45 293.311 518.335 295.941 520.965C298.555 523.579 301.44 528.806 298.148 532.098ZM286.166 520.117C283.875 522.408 286.76 526.582 288.525 528.347C290.29 530.112 294.431 532.963 296.722 530.672C299.013 528.381 296.162 524.24 294.397 522.475C292.632 520.711 288.457 517.826 286.166 520.117ZM308.977 521.268C305.685 524.561 300.458 521.676 297.844 519.062C295.214 516.432 292.329 511.239 295.638 507.93C298.947 504.62 304.14 507.505 306.771 510.136C309.384 512.749 312.269 517.976 308.977 521.268ZM296.996 509.287C294.705 511.578 297.59 515.753 299.355 517.518C301.119 519.283 305.26 522.134 307.551 519.843C309.842 517.552 306.991 513.411 305.226 511.646C303.461 509.881 299.287 506.996 296.996 509.287ZM319.331 503.855L320.79 502.395L322.182 503.787L320.723 505.246L322.589 507.113L321.062 508.64L319.195 506.773L312.882 513.087L309.251 493.774L319.331 503.855ZM317.804 505.382L312.526 500.104L312.492 500.138L314.172 509.014L317.804 505.382ZM331.162 492.126L325.29 497.998L327.038 502.664L325.324 504.378L318.094 484.93L337.543 492.16L335.829 493.874L331.162 492.126ZM329.04 491.328L321.59 488.426L324.492 495.876L329.04 491.328ZM340.82 485.963L345.979 480.804L347.439 482.264L339.174 490.528L337.901 478.055C337.782 476.884 337.596 475.476 336.747 474.627C335.406 473.286 333.115 473.371 331.792 474.695C330.485 476.002 330.468 478.123 331.673 479.498L330.078 481.093C328.058 478.564 328.007 475.56 330.332 473.235C332.504 471.063 335.983 470.809 338.207 473.032C339.157 473.982 339.751 475.289 339.887 476.613L340.82 485.963ZM348.17 469.585C346.881 470.874 346.745 473.114 348.102 474.472C349.392 475.762 351.734 475.66 352.99 474.404C354.246 473.148 354.348 470.806 353.058 469.517C351.7 468.159 349.46 468.295 348.17 469.585ZM346.575 475.999C345.201 474.625 344.657 472.69 345.523 470.908C343.877 471.367 342.231 470.976 340.975 469.72C338.887 467.633 339.04 464.527 341.077 462.491C343.113 460.454 346.219 460.302 348.306 462.389C349.562 463.645 349.952 465.291 349.494 466.937C351.276 466.072 353.211 466.615 354.585 467.989C356.961 470.365 356.588 473.658 354.416 475.83C352.243 478.002 348.951 478.375 346.575 475.999ZM342.434 463.849C341.28 465.003 341.246 467.005 342.468 468.227C343.487 469.245 345.744 469.296 346.813 468.227C347.882 467.158 347.831 464.901 346.813 463.882C345.591 462.661 343.588 462.695 342.434 463.849Z" fill="white"/>
<path d="M416.768 609.792L416.768 607.944L421.424 608.808L421.424 605.832L416.768 604.992L416.768 603.096L421.424 603.936L421.424 601.728L423.344 601.728L423.344 604.296L427.04 604.944L427.04 602.52L428.96 602.52L428.96 605.328L434 606.24L434 608.064L428.96 607.176L428.96 610.128L434 611.088L434 612.888L428.96 612L428.96 614.4L427.04 614.4L427.04 611.64L423.344 610.992L423.344 613.512L421.424 613.512L421.424 610.656L416.768 609.792ZM423.344 609.12L427.04 609.768L427.04 606.816L423.344 606.168L423.344 609.12ZM434 597.957L415.904 597.957L415.904 588.237L417.968 588.237L417.968 595.701L423.032 595.701L423.032 588.453L425.096 588.453L425.096 595.701L431.936 595.701L431.936 588.237L434 588.237L434 597.957ZM434 584.193L415.904 584.193L415.904 580.449C415.904 574.905 418.832 570.297 424.856 570.297C431.024 570.297 434 574.809 434 580.521L434 584.193ZM417.968 581.937L431.936 581.937L431.936 581.145C431.936 576.537 430.208 572.553 424.952 572.553C419.672 572.553 417.968 576.537 417.968 581.145L417.968 581.937ZM434 566.6L415.904 566.6L415.904 556.88L417.968 556.88L417.968 564.344L423.032 564.344L423.032 557.096L425.096 557.096L425.096 564.344L431.936 564.344L431.936 556.88L434 556.88L434 566.6ZM434 552.837L415.904 552.837L415.904 549.093C415.904 543.549 418.832 538.941 424.856 538.941C431.024 538.941 434 543.453 434 549.165L434 552.837ZM417.968 550.581L431.936 550.581L431.936 549.789C431.936 545.181 430.208 541.197 424.952 541.197C419.672 541.197 417.968 545.181 417.968 549.789L417.968 550.581ZM434 535.244L415.904 535.244L415.904 525.524L417.968 525.524L417.968 532.988L423.032 532.988L423.032 525.74L425.096 525.74L425.096 532.988L431.936 532.988L431.936 525.524L434 525.524L434 535.244ZM434 521.48L415.904 521.48L415.904 517.736C415.904 512.192 418.832 507.584 424.856 507.584C431.024 507.584 434 512.096 434 517.808L434 521.48ZM417.968 519.224L431.936 519.224L431.936 518.432C431.936 513.824 430.208 509.84 424.952 509.84C419.672 509.84 417.968 513.824 417.968 518.432L417.968 519.224Z" fill="#004A28"/>
<path d="M654.792 432.232L652.944 432.232L653.808 427.576L650.832 427.576L649.992 432.232L648.096 432.232L648.936 427.576L646.728 427.576L646.728 425.656L649.296 425.656L649.944 421.96L647.52 421.96L647.52 420.04L650.328 420.04L651.24 415L653.064 415L652.176 420.04L655.128 420.04L656.088 415L657.888 415L657 420.04L659.4 420.04L659.4 421.96L656.64 421.96L655.992 425.656L658.512 425.656L658.512 427.576L655.656 427.576L654.792 432.232ZM654.12 425.656L654.768 421.96L651.816 421.96L651.168 425.656L654.12 425.656ZM634.221 431.032L640.725 431.032L640.725 425.944L634.437 425.944L634.437 423.88L640.725 423.88L640.725 415L642.981 415L642.981 433.096L634.221 433.096L634.221 431.032ZM621.414 431.032L627.918 431.032L627.918 425.944L621.63 425.944L621.63 423.88L627.918 423.88L627.918 415L630.174 415L630.174 433.096L621.414 433.096L621.414 431.032ZM608.607 431.032L615.111 431.032L615.111 425.944L608.823 425.944L608.823 423.88L615.111 423.88L615.111 415L617.367 415L617.367 433.096L608.607 433.096L608.607 431.032ZM595.799 431.032L602.303 431.032L602.303 425.944L596.015 425.944L596.015 423.88L602.303 423.88L602.303 415L604.559 415L604.559 433.096L595.799 433.096L595.799 431.032ZM582.992 431.032L589.496 431.032L589.496 425.944L583.208 425.944L583.208 423.88L589.496 423.88L589.496 415L591.752 415L591.752 433.096L582.992 433.096L582.992 431.032ZM570.185 431.032L576.689 431.032L576.689 425.944L570.401 425.944L570.401 423.88L576.689 423.88L576.689 415L578.945 415L578.945 433.096L570.185 433.096L570.185 431.032Z" fill="#004A28"/>
</g>
</svg>
