<svg width="681" height="1297" viewBox="0 0 681 1297" fill="none" xmlns="http://www.w3.org/2000/svg">
<path d="M5.076 651.648C4.5 651.648 4.176 651.144 3.744 650.244L2.376 647.22C1.44 645.204 1.08 644.736 1.08 644.124C1.08 643.62 1.476 643.296 1.836 643.296C2.34 643.296 2.844 643.872 3.132 644.16C5.868 647.112 9.072 649.416 13.356 649.416C17.208 649.416 19.296 647.58 19.296 644.772C19.296 641.424 16.38 640.38 11.808 639.012C7.128 637.608 2.088 636.132 2.088 631.164C2.088 627.744 5.076 625.008 9.36 625.008C12.312 625.008 13.86 625.908 14.652 625.908C15.516 625.908 15.444 624.864 16.272 624.864C16.92 624.864 17.28 625.548 18 626.736L19.008 628.428C20.16 630.372 20.412 631.056 20.412 631.488C20.412 631.812 20.124 632.136 19.764 632.136C19.296 632.136 18.9 631.74 18.432 631.272C15.84 628.608 13.068 627.096 9.72 627.096C7.128 627.096 5.436 628.428 5.436 630.516C5.436 633.252 8.172 634.08 12.816 635.484C17.748 636.96 22.716 638.616 22.716 644.196C22.716 648.732 19.008 651.504 13.68 651.504C10.08 651.504 7.812 650.388 6.948 650.388C6.048 650.388 5.904 651.648 5.076 651.648ZM33.6322 651.648C28.9522 651.648 24.9202 648.372 24.9202 642.396C24.9202 636.6 28.9882 632.676 33.9562 632.676C37.5922 632.676 40.5802 634.836 40.5802 636.312C40.5802 636.996 40.2202 638.112 39.1042 639.48C38.7442 639.876 38.4922 640.128 38.1322 640.128C37.6642 640.128 37.4122 639.732 37.3042 639.048C36.8362 636.456 35.9362 634.476 33.3082 634.476C30.4642 634.476 28.3762 637.176 28.3762 641.28C28.3762 645.852 31.2922 649.164 34.9282 649.164C36.8002 649.164 38.4202 648.372 39.6082 646.86C39.9322 646.464 40.1842 646.32 40.4722 646.32C40.8682 646.32 41.1562 646.608 41.1562 647.112C41.1562 647.4 41.0122 647.724 40.8322 648.048C39.7522 649.956 36.9082 651.648 33.6322 651.648ZM60.8071 646.788C61.2751 650.172 63.4351 648.984 63.4351 650.424C63.4351 650.892 63.0031 651.108 62.4631 651.108C61.4911 651.108 60.7711 651 59.3311 651C57.8191 651 57.2071 651.108 56.2351 651.108C55.5871 651.108 55.1911 650.784 55.1911 650.352C55.1911 649.056 57.6031 649.92 57.6031 647.724C57.6031 647.436 57.5671 647.076 57.5311 646.788L56.6671 640.524C56.3791 638.688 55.6951 635.664 52.8871 635.664C50.7271 635.664 48.3871 637.392 48.3871 641.064V647.148C48.3871 650.064 50.6911 649.02 50.6911 650.388C50.6911 650.712 50.4751 651.108 49.9351 651.108C49.1431 651.108 48.0631 651 46.7671 651C45.5071 651 44.4991 651.108 43.7071 651.108C43.1311 651.108 42.8791 650.712 42.8791 650.388C42.8791 649.02 45.1471 650.064 45.1471 647.148V629.076C45.1471 626.844 42.5911 628.068 42.5911 626.664C42.5911 626.088 43.2031 625.656 45.1111 624.756C46.9471 623.892 47.3071 623.784 47.7031 623.784C48.2071 623.784 48.3871 624.216 48.3871 624.72V636.42C49.5391 634.548 51.4111 632.928 54.1471 632.928C58.5031 632.928 59.5111 637.104 59.9071 640.056L60.8071 646.788ZM76.6699 632.892C78.1819 632.892 79.2259 633.648 79.2259 634.548C79.2259 635.088 79.0099 635.988 78.5779 637.572C78.3979 638.184 78.1099 638.544 77.6059 638.544C77.1379 638.544 76.9219 638.148 76.7059 637.572C76.2379 636.456 75.7699 635.916 75.0139 635.916C73.2859 635.916 70.2979 638.688 70.2979 643.728V647.148C70.2979 650.064 73.1059 648.912 73.1059 650.388C73.1059 650.712 72.8539 651.108 72.3139 651.108C71.4139 651.108 70.1539 651 68.6779 651C67.4179 651 66.4099 651.108 65.6539 651.108C65.0419 651.108 64.7899 650.712 64.7899 650.388C64.7899 649.02 67.0579 650.064 67.0579 647.148V638.328C67.0579 636.096 64.5019 637.32 64.5019 635.916C64.5019 635.34 65.1499 634.944 67.0219 634.044C68.8579 633.144 69.2539 633.036 69.5419 633.036C70.1179 633.036 70.2979 633.504 70.2979 634.296V638.004C71.4859 634.944 74.1139 632.892 76.6699 632.892ZM83.8066 629.184C82.8346 629.184 81.8986 628.536 81.8986 627.348C81.8986 625.98 83.2666 624.468 85.0666 624.468C86.1466 624.468 87.0826 625.152 87.0826 626.304C87.0826 627.672 85.6066 629.184 83.8066 629.184ZM81.7906 651.108C81.1786 651.108 80.9266 650.712 80.9266 650.388C80.9266 649.02 83.1946 650.064 83.1946 647.148V638.328C83.1946 636.096 80.6386 637.32 80.6386 635.916C80.6386 635.34 81.2866 634.944 83.1586 634.044C84.9946 633.144 85.3906 633.036 85.6786 633.036C86.2546 633.036 86.4346 633.504 86.4346 634.296V647.148C86.4346 650.064 88.7746 649.02 88.7746 650.388C88.7746 650.712 88.5226 651.108 87.9826 651.108C87.1906 651.108 86.1106 651 84.8146 651C83.5546 651 82.5466 651.108 81.7906 651.108ZM97.3868 625.476C96.2348 625.476 95.2628 626.376 95.2628 627.924C95.2628 629.724 96.2708 631.236 96.6308 633.324H100.879C101.311 633.324 101.527 633.504 101.527 633.828C101.527 634.08 101.455 634.44 101.419 634.656C101.311 635.052 101.131 635.232 100.735 635.232H96.7748V647.148C96.7748 650.064 99.7268 648.912 99.7268 650.388C99.7268 650.712 99.4748 651.108 98.9348 651.108C97.9988 651.108 96.7388 651 95.2628 651C93.9308 651 92.8868 651.108 92.0947 651.108C91.5188 651.108 91.2668 650.712 91.2668 650.388C91.2668 649.02 93.5348 650.064 93.5348 647.148V635.232H91.1588C90.7988 635.232 90.5828 635.052 90.5108 634.656C90.4748 634.44 90.4028 634.08 90.4028 633.828C90.4028 633.504 90.6188 633.324 91.0148 633.324H93.4268C93.1388 631.632 92.3828 630.372 92.3828 628.5C92.3828 625.368 94.7228 623.604 97.6388 623.604C99.9428 623.604 102.499 624.72 102.499 626.268C102.499 627.132 102.103 627.924 101.527 629.04C101.311 629.472 100.987 629.832 100.591 629.832C100.123 629.832 99.8348 629.508 99.7628 628.968C99.4028 626.592 98.7188 625.476 97.3868 625.476ZM114.989 647.184C115.421 647.184 115.709 647.544 115.709 647.976C115.709 648.408 115.457 648.876 114.989 649.38C113.693 650.748 111.929 651.396 109.985 651.396C107.213 651.396 105.269 649.848 105.269 648.012C105.269 647.256 105.341 644.484 105.341 642V635.232H103.001C102.353 635.232 101.957 634.944 101.957 634.404C101.957 633.936 102.317 633.648 102.893 633.396C105.053 632.496 106.025 631.2 106.853 627.924C107.177 626.988 107.393 626.556 107.933 626.556C108.329 626.556 108.581 626.844 108.581 627.492V633.324H114.737C115.133 633.324 115.349 633.504 115.349 633.828C115.349 634.08 115.277 634.44 115.241 634.656C115.169 635.052 114.953 635.232 114.593 635.232H108.581V645.672C108.581 648.336 109.625 649.128 111.101 649.128C112.577 649.128 113.405 648.264 114.125 647.652C114.341 647.436 114.665 647.184 114.989 647.184ZM135.493 648.984C135.889 649.056 136.069 649.236 136.069 649.524C136.069 650.208 134.701 651.288 133.009 651.288C131.533 651.288 130.237 650.424 129.697 648.552C128.293 650.208 125.953 651.396 123.109 651.396C119.401 651.396 116.989 649.2 116.989 646.032C116.989 642.9 119.725 640.38 124.297 640.38C125.881 640.38 127.249 640.668 128.581 641.064L128.509 640.596C127.969 636.6 126.565 635.376 124.189 635.376C122.569 635.376 121.093 636.24 119.797 637.428C119.437 637.716 119.149 637.86 118.897 637.86C118.537 637.86 118.177 637.572 118.177 637.14C118.177 636.78 118.393 636.456 118.753 635.988C119.941 634.332 122.569 632.892 125.269 632.892C129.913 632.892 131.065 636.096 131.569 639.588L132.469 645.636C132.829 648.336 133.621 648.624 135.493 648.984ZM124.189 649.236C126.313 649.236 128.293 647.94 129.337 646.5L128.833 642.936C127.609 642.468 126.277 642.216 125.017 642.216C121.993 642.216 120.409 643.584 120.409 645.744C120.409 647.796 121.957 649.236 124.189 649.236ZM148.916 632.892C150.428 632.892 151.472 633.648 151.472 634.548C151.472 635.088 151.256 635.988 150.824 637.572C150.644 638.184 150.356 638.544 149.852 638.544C149.384 638.544 149.168 638.148 148.952 637.572C148.484 636.456 148.016 635.916 147.26 635.916C145.532 635.916 142.544 638.688 142.544 643.728V647.148C142.544 650.064 145.352 648.912 145.352 650.388C145.352 650.712 145.1 651.108 144.56 651.108C143.66 651.108 142.4 651 140.924 651C139.664 651 138.656 651.108 137.9 651.108C137.288 651.108 137.036 650.712 137.036 650.388C137.036 649.02 139.304 650.064 139.304 647.148V638.328C139.304 636.096 136.748 637.32 136.748 635.916C136.748 635.34 137.396 634.944 139.268 634.044C141.104 633.144 141.5 633.036 141.788 633.036C142.364 633.036 142.544 633.504 142.544 634.296V638.004C143.732 634.944 146.36 632.892 148.916 632.892ZM165.122 647.184C165.554 647.184 165.842 647.544 165.842 647.976C165.842 648.408 165.59 648.876 165.122 649.38C163.826 650.748 162.062 651.396 160.118 651.396C157.346 651.396 155.402 649.848 155.402 648.012C155.402 647.256 155.474 644.484 155.474 642V635.232H153.134C152.486 635.232 152.09 634.944 152.09 634.404C152.09 633.936 152.45 633.648 153.026 633.396C155.186 632.496 156.158 631.2 156.986 627.924C157.31 626.988 157.526 626.556 158.066 626.556C158.462 626.556 158.714 626.844 158.714 627.492V633.324H164.87C165.266 633.324 165.482 633.504 165.482 633.828C165.482 634.08 165.41 634.44 165.374 634.656C165.302 635.052 165.086 635.232 164.726 635.232H158.714V645.672C158.714 648.336 159.758 649.128 161.234 649.128C162.71 649.128 163.538 648.264 164.258 647.652C164.474 647.436 164.798 647.184 165.122 647.184ZM170.83 635.484C172.234 635.484 173.206 636.204 173.206 637.536C173.206 638.796 172.054 639.804 170.506 639.804C169.102 639.804 168.13 639.048 168.13 637.716C168.13 636.42 169.282 635.484 170.83 635.484ZM170.83 646.968C172.234 646.968 173.206 647.724 173.206 649.056C173.206 650.316 172.054 651.288 170.506 651.288C169.102 651.288 168.13 650.568 168.13 649.236C168.13 647.94 169.282 646.968 170.83 646.968ZM186.704 651.108C186.092 651.108 185.804 650.784 185.804 650.388C185.804 648.984 188.216 649.884 188.216 647.472V629.076C188.216 626.664 185.804 627.528 185.804 626.124C185.804 625.764 186.092 625.404 186.74 625.404C187.568 625.404 188.612 625.512 189.98 625.512C191.348 625.512 192.5 625.404 193.292 625.404C193.94 625.404 194.192 625.764 194.192 626.124C194.192 627.528 191.816 626.664 191.816 629.076V647.472C191.816 649.884 194.192 648.984 194.192 650.388C194.192 650.784 193.94 651.108 193.292 651.108C192.5 651.108 191.348 651 189.98 651C188.612 651 187.532 651.108 186.704 651.108ZM215.152 646.788C215.584 650.172 217.78 648.984 217.78 650.388C217.78 650.892 217.348 651.108 216.772 651.108C215.836 651.108 215.08 651 213.64 651C212.164 651 211.516 651.108 210.544 651.108C209.896 651.108 209.536 650.784 209.536 650.352C209.536 649.056 211.948 649.92 211.948 647.688C211.948 647.4 211.876 646.968 211.84 646.608L210.976 640.524C210.688 638.688 210.04 635.664 207.196 635.664C205.036 635.664 202.696 637.392 202.696 641.064V647.148C202.696 650.064 205.036 649.02 205.036 650.388C205.036 650.712 204.784 651.108 204.244 651.108C203.452 651.108 202.372 651 201.076 651C199.816 651 198.808 651.108 198.052 651.108C197.44 651.108 197.188 650.712 197.188 650.388C197.188 649.02 199.456 650.064 199.456 647.148V638.328C199.456 636.096 196.9 637.32 196.9 635.916C196.9 635.34 197.548 634.944 199.42 634.044C201.256 633.144 201.652 633.036 201.94 633.036C202.516 633.036 202.696 633.504 202.696 634.296V636.42C203.848 634.548 205.72 632.928 208.492 632.928C212.776 632.928 213.82 637.104 214.216 640.056L215.152 646.788ZM225.678 623.604C227.982 623.604 230.538 624.72 230.538 626.268C230.538 627.132 230.142 627.924 229.566 629.04C229.35 629.472 229.026 629.832 228.63 629.832C228.162 629.832 227.874 629.508 227.802 628.968C227.442 626.592 226.758 625.476 225.426 625.476C224.274 625.476 223.302 626.376 223.302 627.924C223.302 629.724 224.31 631.236 224.67 633.324H228.918C229.35 633.324 229.566 633.504 229.566 633.828C229.566 634.08 229.494 634.44 229.458 634.656C229.35 635.052 229.17 635.232 228.774 635.232H224.814V647.148C224.814 650.064 227.766 648.912 227.766 650.388C227.766 650.712 227.514 651.108 226.974 651.108C226.038 651.108 224.778 651 223.302 651C221.97 651 220.926 651.108 220.134 651.108C219.558 651.108 219.306 650.712 219.306 650.388C219.306 649.02 221.574 650.064 221.574 647.148V635.232H219.198C218.838 635.232 218.622 635.052 218.55 634.656C218.514 634.44 218.442 634.08 218.442 633.828C218.442 633.504 218.658 633.324 219.054 633.324H221.466C221.178 631.632 220.422 630.372 220.422 628.5C220.422 625.368 222.762 623.604 225.678 623.604ZM233.994 629.184C233.022 629.184 232.086 628.536 232.086 627.348C232.086 625.98 233.454 624.468 235.254 624.468C236.334 624.468 237.27 625.152 237.27 626.304C237.27 627.672 235.794 629.184 233.994 629.184ZM236.622 647.148C236.622 650.064 238.962 649.02 238.962 650.388C238.962 650.712 238.71 651.108 238.17 651.108C237.378 651.108 236.298 651 235.002 651C233.742 651 232.734 651.108 231.978 651.108C231.366 651.108 231.114 650.712 231.114 650.388C231.114 649.02 233.382 650.064 233.382 647.148V638.328C233.382 636.096 230.826 637.32 230.826 635.916C230.826 635.34 231.474 634.944 233.346 634.044C235.182 633.144 235.578 633.036 235.866 633.036C236.442 633.036 236.622 633.504 236.622 634.296V647.148ZM259.238 646.788C259.67 650.172 261.866 648.984 261.866 650.388C261.866 650.892 261.434 651.108 260.858 651.108C259.922 651.108 259.166 651 257.726 651C256.25 651 255.602 651.108 254.63 651.108C253.982 651.108 253.622 650.784 253.622 650.352C253.622 649.056 256.034 649.92 256.034 647.688C256.034 647.4 255.962 646.968 255.926 646.608L255.062 640.524C254.774 638.688 254.126 635.664 251.282 635.664C249.122 635.664 246.782 637.392 246.782 641.064V647.148C246.782 650.064 249.122 649.02 249.122 650.388C249.122 650.712 248.87 651.108 248.33 651.108C247.538 651.108 246.458 651 245.162 651C243.902 651 242.894 651.108 242.138 651.108C241.526 651.108 241.274 650.712 241.274 650.388C241.274 649.02 243.542 650.064 243.542 647.148V638.328C243.542 636.096 240.986 637.32 240.986 635.916C240.986 635.34 241.634 634.944 243.506 634.044C245.342 633.144 245.738 633.036 246.026 633.036C246.602 633.036 246.782 633.504 246.782 634.296V636.42C247.934 634.548 249.806 632.928 252.578 632.928C256.862 632.928 257.906 637.104 258.302 640.056L259.238 646.788ZM266.092 629.184C265.12 629.184 264.184 628.536 264.184 627.348C264.184 625.98 265.552 624.468 267.352 624.468C268.432 624.468 269.368 625.152 269.368 626.304C269.368 627.672 267.892 629.184 266.092 629.184ZM264.076 651.108C263.464 651.108 263.212 650.712 263.212 650.388C263.212 649.02 265.48 650.064 265.48 647.148V638.328C265.48 636.096 262.924 637.32 262.924 635.916C262.924 635.34 263.572 634.944 265.444 634.044C267.28 633.144 267.676 633.036 267.964 633.036C268.54 633.036 268.72 633.504 268.72 634.296V647.148C268.72 650.064 271.06 649.02 271.06 650.388C271.06 650.712 270.808 651.108 270.268 651.108C269.476 651.108 268.396 651 267.1 651C265.84 651 264.832 651.108 264.076 651.108ZM5.076 998.648C4.5 998.648 4.176 998.144 3.744 997.244L2.376 994.22C1.44 992.204 1.08 991.736 1.08 991.124C1.08 990.62 1.476 990.296 1.836 990.296C2.34 990.296 2.844 990.872 3.132 991.16C5.868 994.112 9.072 996.416 13.356 996.416C17.208 996.416 19.296 994.58 19.296 991.772C19.296 988.424 16.38 987.38 11.808 986.012C7.128 984.608 2.088 983.132 2.088 978.164C2.088 974.744 5.076 972.008 9.36 972.008C12.312 972.008 13.86 972.908 14.652 972.908C15.516 972.908 15.444 971.864 16.272 971.864C16.92 971.864 17.28 972.548 18 973.736L19.008 975.428C20.16 977.372 20.412 978.056 20.412 978.488C20.412 978.812 20.124 979.136 19.764 979.136C19.296 979.136 18.9 978.74 18.432 978.272C15.84 975.608 13.068 974.096 9.72 974.096C7.128 974.096 5.436 975.428 5.436 977.516C5.436 980.252 8.172 981.08 12.816 982.484C17.748 983.96 22.716 985.616 22.716 991.196C22.716 995.732 19.008 998.504 13.68 998.504C10.08 998.504 7.812 997.388 6.948 997.388C6.048 997.388 5.904 998.648 5.076 998.648ZM33.6322 998.648C28.9522 998.648 24.9202 995.372 24.9202 989.396C24.9202 983.6 28.9882 979.676 33.9562 979.676C37.5922 979.676 40.5802 981.836 40.5802 983.312C40.5802 983.996 40.2202 985.112 39.1042 986.48C38.7442 986.876 38.4922 987.128 38.1322 987.128C37.6642 987.128 37.4122 986.732 37.3042 986.048C36.8362 983.456 35.9362 981.476 33.3082 981.476C30.4642 981.476 28.3762 984.176 28.3762 988.28C28.3762 992.852 31.2922 996.164 34.9282 996.164C36.8002 996.164 38.4202 995.372 39.6082 993.86C39.9322 993.464 40.1842 993.32 40.4722 993.32C40.8682 993.32 41.1562 993.608 41.1562 994.112C41.1562 994.4 41.0122 994.724 40.8322 995.048C39.7522 996.956 36.9082 998.648 33.6322 998.648ZM60.8071 993.788C61.2751 997.172 63.4351 995.984 63.4351 997.424C63.4351 997.892 63.0031 998.108 62.4631 998.108C61.4911 998.108 60.7711 998 59.3311 998C57.8191 998 57.2071 998.108 56.2351 998.108C55.5871 998.108 55.1911 997.784 55.1911 997.352C55.1911 996.056 57.6031 996.92 57.6031 994.724C57.6031 994.436 57.5671 994.076 57.5311 993.788L56.6671 987.524C56.3791 985.688 55.6951 982.664 52.8871 982.664C50.7271 982.664 48.3871 984.392 48.3871 988.064V994.148C48.3871 997.064 50.6911 996.02 50.6911 997.388C50.6911 997.712 50.4751 998.108 49.9351 998.108C49.1431 998.108 48.0631 998 46.7671 998C45.5071 998 44.4991 998.108 43.7071 998.108C43.1311 998.108 42.8791 997.712 42.8791 997.388C42.8791 996.02 45.1471 997.064 45.1471 994.148V976.076C45.1471 973.844 42.5911 975.068 42.5911 973.664C42.5911 973.088 43.2031 972.656 45.1111 971.756C46.9471 970.892 47.3071 970.784 47.7031 970.784C48.2071 970.784 48.3871 971.216 48.3871 971.72V983.42C49.5391 981.548 51.4111 979.928 54.1471 979.928C58.5031 979.928 59.5111 984.104 59.9071 987.056L60.8071 993.788ZM76.6699 979.892C78.1819 979.892 79.2259 980.648 79.2259 981.548C79.2259 982.088 79.0099 982.988 78.5779 984.572C78.3979 985.184 78.1099 985.544 77.6059 985.544C77.1379 985.544 76.9219 985.148 76.7059 984.572C76.2379 983.456 75.7699 982.916 75.0139 982.916C73.2859 982.916 70.2979 985.688 70.2979 990.728V994.148C70.2979 997.064 73.1059 995.912 73.1059 997.388C73.1059 997.712 72.8539 998.108 72.3139 998.108C71.4139 998.108 70.1539 998 68.6779 998C67.4179 998 66.4099 998.108 65.6539 998.108C65.0419 998.108 64.7899 997.712 64.7899 997.388C64.7899 996.02 67.0579 997.064 67.0579 994.148V985.328C67.0579 983.096 64.5019 984.32 64.5019 982.916C64.5019 982.34 65.1499 981.944 67.0219 981.044C68.8579 980.144 69.2539 980.036 69.5419 980.036C70.1179 980.036 70.2979 980.504 70.2979 981.296V985.004C71.4859 981.944 74.1139 979.892 76.6699 979.892ZM83.8066 976.184C82.8346 976.184 81.8986 975.536 81.8986 974.348C81.8986 972.98 83.2666 971.468 85.0666 971.468C86.1466 971.468 87.0826 972.152 87.0826 973.304C87.0826 974.672 85.6066 976.184 83.8066 976.184ZM81.7906 998.108C81.1786 998.108 80.9266 997.712 80.9266 997.388C80.9266 996.02 83.1946 997.064 83.1946 994.148V985.328C83.1946 983.096 80.6386 984.32 80.6386 982.916C80.6386 982.34 81.2866 981.944 83.1586 981.044C84.9946 980.144 85.3906 980.036 85.6786 980.036C86.2546 980.036 86.4346 980.504 86.4346 981.296V994.148C86.4346 997.064 88.7746 996.02 88.7746 997.388C88.7746 997.712 88.5226 998.108 87.9826 998.108C87.1906 998.108 86.1106 998 84.8146 998C83.5546 998 82.5466 998.108 81.7906 998.108ZM97.3868 972.476C96.2348 972.476 95.2628 973.376 95.2628 974.924C95.2628 976.724 96.2708 978.236 96.6308 980.324H100.879C101.311 980.324 101.527 980.504 101.527 980.828C101.527 981.08 101.455 981.44 101.419 981.656C101.311 982.052 101.131 982.232 100.735 982.232H96.7748V994.148C96.7748 997.064 99.7268 995.912 99.7268 997.388C99.7268 997.712 99.4748 998.108 98.9348 998.108C97.9988 998.108 96.7388 998 95.2628 998C93.9308 998 92.8868 998.108 92.0947 998.108C91.5188 998.108 91.2668 997.712 91.2668 997.388C91.2668 996.02 93.5348 997.064 93.5348 994.148V982.232H91.1588C90.7988 982.232 90.5828 982.052 90.5108 981.656C90.4748 981.44 90.4028 981.08 90.4028 980.828C90.4028 980.504 90.6188 980.324 91.0148 980.324H93.4268C93.1388 978.632 92.3828 977.372 92.3828 975.5C92.3828 972.368 94.7228 970.604 97.6388 970.604C99.9428 970.604 102.499 971.72 102.499 973.268C102.499 974.132 102.103 974.924 101.527 976.04C101.311 976.472 100.987 976.832 100.591 976.832C100.123 976.832 99.8348 976.508 99.7628 975.968C99.4028 973.592 98.7188 972.476 97.3868 972.476ZM114.989 994.184C115.421 994.184 115.709 994.544 115.709 994.976C115.709 995.408 115.457 995.876 114.989 996.38C113.693 997.748 111.929 998.396 109.985 998.396C107.213 998.396 105.269 996.848 105.269 995.012C105.269 994.256 105.341 991.484 105.341 989V982.232H103.001C102.353 982.232 101.957 981.944 101.957 981.404C101.957 980.936 102.317 980.648 102.893 980.396C105.053 979.496 106.025 978.2 106.853 974.924C107.177 973.988 107.393 973.556 107.933 973.556C108.329 973.556 108.581 973.844 108.581 974.492V980.324H114.737C115.133 980.324 115.349 980.504 115.349 980.828C115.349 981.08 115.277 981.44 115.241 981.656C115.169 982.052 114.953 982.232 114.593 982.232H108.581V992.672C108.581 995.336 109.625 996.128 111.101 996.128C112.577 996.128 113.405 995.264 114.125 994.652C114.341 994.436 114.665 994.184 114.989 994.184ZM135.493 995.984C135.889 996.056 136.069 996.236 136.069 996.524C136.069 997.208 134.701 998.288 133.009 998.288C131.533 998.288 130.237 997.424 129.697 995.552C128.293 997.208 125.953 998.396 123.109 998.396C119.401 998.396 116.989 996.2 116.989 993.032C116.989 989.9 119.725 987.38 124.297 987.38C125.881 987.38 127.249 987.668 128.581 988.064L128.509 987.596C127.969 983.6 126.565 982.376 124.189 982.376C122.569 982.376 121.093 983.24 119.797 984.428C119.437 984.716 119.149 984.86 118.897 984.86C118.537 984.86 118.177 984.572 118.177 984.14C118.177 983.78 118.393 983.456 118.753 982.988C119.941 981.332 122.569 979.892 125.269 979.892C129.913 979.892 131.065 983.096 131.569 986.588L132.469 992.636C132.829 995.336 133.621 995.624 135.493 995.984ZM124.189 996.236C126.313 996.236 128.293 994.94 129.337 993.5L128.833 989.936C127.609 989.468 126.277 989.216 125.017 989.216C121.993 989.216 120.409 990.584 120.409 992.744C120.409 994.796 121.957 996.236 124.189 996.236ZM148.916 979.892C150.428 979.892 151.472 980.648 151.472 981.548C151.472 982.088 151.256 982.988 150.824 984.572C150.644 985.184 150.356 985.544 149.852 985.544C149.384 985.544 149.168 985.148 148.952 984.572C148.484 983.456 148.016 982.916 147.26 982.916C145.532 982.916 142.544 985.688 142.544 990.728V994.148C142.544 997.064 145.352 995.912 145.352 997.388C145.352 997.712 145.1 998.108 144.56 998.108C143.66 998.108 142.4 998 140.924 998C139.664 998 138.656 998.108 137.9 998.108C137.288 998.108 137.036 997.712 137.036 997.388C137.036 996.02 139.304 997.064 139.304 994.148V985.328C139.304 983.096 136.748 984.32 136.748 982.916C136.748 982.34 137.396 981.944 139.268 981.044C141.104 980.144 141.5 980.036 141.788 980.036C142.364 980.036 142.544 980.504 142.544 981.296V985.004C143.732 981.944 146.36 979.892 148.916 979.892ZM165.122 994.184C165.554 994.184 165.842 994.544 165.842 994.976C165.842 995.408 165.59 995.876 165.122 996.38C163.826 997.748 162.062 998.396 160.118 998.396C157.346 998.396 155.402 996.848 155.402 995.012C155.402 994.256 155.474 991.484 155.474 989V982.232H153.134C152.486 982.232 152.09 981.944 152.09 981.404C152.09 980.936 152.45 980.648 153.026 980.396C155.186 979.496 156.158 978.2 156.986 974.924C157.31 973.988 157.526 973.556 158.066 973.556C158.462 973.556 158.714 973.844 158.714 974.492V980.324H164.87C165.266 980.324 165.482 980.504 165.482 980.828C165.482 981.08 165.41 981.44 165.374 981.656C165.302 982.052 165.086 982.232 164.726 982.232H158.714V992.672C158.714 995.336 159.758 996.128 161.234 996.128C162.71 996.128 163.538 995.264 164.258 994.652C164.474 994.436 164.798 994.184 165.122 994.184ZM170.83 982.484C172.234 982.484 173.206 983.204 173.206 984.536C173.206 985.796 172.054 986.804 170.506 986.804C169.102 986.804 168.13 986.048 168.13 984.716C168.13 983.42 169.282 982.484 170.83 982.484ZM170.83 993.968C172.234 993.968 173.206 994.724 173.206 996.056C173.206 997.316 172.054 998.288 170.506 998.288C169.102 998.288 168.13 997.568 168.13 996.236C168.13 994.94 169.282 993.968 170.83 993.968ZM205.46 976.184C206.144 977.552 206.396 978.164 206.396 978.632C206.396 979.136 206 979.388 205.676 979.388C205.208 979.388 204.92 979.1 204.416 978.56C201.932 975.896 200.564 974.456 197.648 974.456H194.66C192.068 974.456 191.816 974.924 191.816 976.22V983.528C191.816 984.104 191.996 984.32 192.824 984.32H197.612C199.916 984.32 199.7 981.584 200.96 981.584C201.392 981.584 201.716 981.836 201.716 982.592C201.716 983.456 201.608 984.356 201.608 985.292C201.608 986.228 201.716 987.164 201.716 987.992C201.716 988.748 201.392 989 200.96 989C199.7 989 199.916 986.264 197.612 986.264H192.824C191.996 986.264 191.816 986.48 191.816 987.056V994.472C191.816 996.884 194.732 995.984 194.732 997.388C194.732 997.784 194.48 998.108 193.832 998.108C192.896 998.108 191.528 998 190.016 998C188.612 998 187.532 998.108 186.704 998.108C186.092 998.108 185.804 997.784 185.804 997.388C185.804 995.984 188.216 996.884 188.216 994.472V976.076C188.216 973.664 185.804 974.528 185.804 973.16C185.804 972.728 186.092 972.404 186.812 972.404C187.388 972.404 188.684 972.512 189.98 972.512H200.672C201.716 972.512 201.752 971.756 202.544 971.756C203.192 971.756 203.552 972.224 204.2 973.52L205.46 976.184ZM224.946 993.356C224.946 995.552 227.898 995.012 227.898 996.2C227.898 996.884 227.25 997.244 224.982 997.784C223.398 998.18 222.822 998.288 222.462 998.288C221.814 998.288 221.706 997.64 221.706 997.064V994.976C220.554 996.848 218.718 998.432 215.622 998.432C211.554 998.432 209.61 995.696 209.61 991.448V985.22C209.61 983.06 206.73 983.888 206.73 982.592C206.73 981.944 207.342 981.584 209.466 980.792C211.302 980.108 211.77 980.036 212.022 980.036C212.778 980.036 212.85 980.756 212.85 981.332V990.944C212.85 993.824 213.642 995.804 216.702 995.804C219.186 995.804 221.706 993.968 221.706 990.332V985.22C221.706 983.06 218.538 983.96 218.538 982.592C218.538 981.98 219.186 981.62 221.562 980.756C223.29 980.144 223.902 980.036 224.19 980.036C224.838 980.036 224.946 980.684 224.946 981.332V993.356ZM241.763 994.184C242.195 994.184 242.483 994.544 242.483 994.976C242.483 995.408 242.231 995.876 241.763 996.38C240.467 997.748 238.703 998.396 236.759 998.396C233.987 998.396 232.043 996.848 232.043 995.012C232.043 994.256 232.115 991.484 232.115 989V982.232H229.775C229.127 982.232 228.731 981.944 228.731 981.404C228.731 980.936 229.091 980.648 229.667 980.396C231.827 979.496 232.799 978.2 233.627 974.924C233.951 973.988 234.167 973.556 234.707 973.556C235.103 973.556 235.355 973.844 235.355 974.492V980.324H241.511C241.907 980.324 242.123 980.504 242.123 980.828C242.123 981.08 242.051 981.44 242.015 981.656C241.943 982.052 241.727 982.232 241.367 982.232H235.355V992.672C235.355 995.336 236.399 996.128 237.875 996.128C239.351 996.128 240.179 995.264 240.899 994.652C241.115 994.436 241.439 994.184 241.763 994.184ZM261.403 993.356C261.403 995.552 264.355 995.012 264.355 996.2C264.355 996.884 263.707 997.244 261.439 997.784C259.855 998.18 259.279 998.288 258.919 998.288C258.271 998.288 258.163 997.64 258.163 997.064V994.976C257.011 996.848 255.175 998.432 252.079 998.432C248.011 998.432 246.067 995.696 246.067 991.448V985.22C246.067 983.06 243.187 983.888 243.187 982.592C243.187 981.944 243.799 981.584 245.923 980.792C247.759 980.108 248.227 980.036 248.479 980.036C249.235 980.036 249.307 980.756 249.307 981.332V990.944C249.307 993.824 250.099 995.804 253.159 995.804C255.643 995.804 258.163 993.968 258.163 990.332V985.22C258.163 983.06 254.995 983.96 254.995 982.592C254.995 981.98 255.643 981.62 258.019 980.756C259.747 980.144 260.359 980.036 260.647 980.036C261.295 980.036 261.403 980.684 261.403 981.332V993.356ZM278.256 979.892C279.768 979.892 280.812 980.648 280.812 981.548C280.812 982.088 280.596 982.988 280.164 984.572C279.984 985.184 279.696 985.544 279.192 985.544C278.724 985.544 278.508 985.148 278.292 984.572C277.824 983.456 277.356 982.916 276.6 982.916C274.872 982.916 271.884 985.688 271.884 990.728V994.148C271.884 997.064 274.692 995.912 274.692 997.388C274.692 997.712 274.44 998.108 273.9 998.108C273 998.108 271.74 998 270.264 998C269.004 998 267.996 998.108 267.24 998.108C266.628 998.108 266.376 997.712 266.376 997.388C266.376 996.02 268.644 997.064 268.644 994.148V985.328C268.644 983.096 266.088 984.32 266.088 982.916C266.088 982.34 266.736 981.944 268.608 981.044C270.444 980.144 270.84 980.036 271.128 980.036C271.704 980.036 271.884 980.504 271.884 981.296V985.004C273.072 981.944 275.7 979.892 278.256 979.892ZM300.271 995.984C300.667 996.056 300.847 996.236 300.847 996.524C300.847 997.208 299.479 998.288 297.787 998.288C296.311 998.288 295.015 997.424 294.475 995.552C293.071 997.208 290.731 998.396 287.887 998.396C284.179 998.396 281.767 996.2 281.767 993.032C281.767 989.9 284.503 987.38 289.075 987.38C290.659 987.38 292.027 987.668 293.359 988.064L293.287 987.596C292.747 983.6 291.343 982.376 288.967 982.376C287.347 982.376 285.871 983.24 284.575 984.428C284.215 984.716 283.927 984.86 283.675 984.86C283.315 984.86 282.955 984.572 282.955 984.14C282.955 983.78 283.171 983.456 283.531 982.988C284.719 981.332 287.347 979.892 290.047 979.892C294.691 979.892 295.843 983.096 296.347 986.588L297.247 992.636C297.607 995.336 298.399 995.624 300.271 995.984ZM288.967 996.236C291.091 996.236 293.071 994.94 294.115 993.5L293.611 989.936C292.387 989.468 291.055 989.216 289.795 989.216C286.771 989.216 285.187 990.584 285.187 992.744C285.187 994.796 286.735 996.236 288.967 996.236Z" fill="#FF2E00"/>
<path d="M29.952 696.36C35.584 696.36 40.832 697.512 44.032 698.6L45.312 707.688H45.184C41.024 704.744 36.672 702.696 28.672 702.696C21.312 702.696 10.816 706.984 10.816 719.976C10.816 732.072 18.304 740.2 30.528 740.2C33.216 740.2 36.992 739.368 39.296 738.216L38.208 721.64V721.512H46.464L45.312 740.776C42.688 742.824 37.184 745.64 29.696 745.64C15.04 745.64 4.16 736.808 4.16 720.808C4.16 705.512 13.696 696.36 29.952 696.36ZM55.7675 745L56.7275 719.784L55.7675 697H63.5115L62.4235 740.968L82.9675 736.936H83.0955L81.8155 745H55.7675ZM100.91 684.264C103.15 684.264 104.942 685.608 104.942 687.912C104.942 690.344 103.15 691.816 100.91 691.816C98.7975 691.816 96.9415 690.344 96.9415 687.912C96.9415 685.608 98.7975 684.264 100.91 684.264ZM116.014 684.264C118.254 684.264 120.046 685.608 120.046 687.912C120.046 690.344 118.254 691.816 116.014 691.816C113.902 691.816 112.046 690.344 112.046 687.912C112.046 685.608 113.902 684.264 116.014 684.264ZM108.462 740.136C116.014 740.136 121.006 735.016 121.006 724.648L119.854 697H127.598L126.83 724.648C126.83 737.64 120.302 745.64 108.462 745.64C96.6855 745.64 89.9655 737.64 89.9655 724.648L89.1975 697H96.9415L95.7895 724.648C95.7895 735.016 101.038 740.136 108.462 740.136ZM176.255 742.184C174.015 743.528 168.319 745.64 162.431 745.64C148.415 745.64 137.535 736.488 137.535 720.808C137.535 705.512 147.391 696.36 162.815 696.36C168.703 696.36 174.079 697.768 176.703 698.6L177.983 707.688H177.855C173.503 704.616 168.831 702.696 161.471 702.696C154.367 702.696 144.255 706.984 144.255 719.976C144.255 732.008 150.719 740.2 162.559 740.2C167.615 740.2 172.735 738.152 177.407 734.824H177.535L176.255 742.184ZM224.644 745H215.236L197.316 719.72V717.16L209.796 697H218.948V697.128L202.692 717.544L224.644 744.872V745ZM187.268 745L188.228 719.784L187.268 697H195.012L194.052 719.784L195.012 745H187.268ZM237.793 721.192C231.329 716.904 229.729 712.552 229.729 708.776C229.729 701.736 234.657 696.36 244.385 696.36C248.481 696.36 252.833 697.064 254.817 697.64L256.097 706.472H255.969C251.745 703.72 247.905 701.928 243.105 701.928C239.393 701.928 236.513 703.912 236.513 707.688C236.513 710.888 237.921 712.68 242.337 715.688L246.497 718.504C252.385 722.472 256.545 726.44 256.545 732.456C256.545 738.472 252.705 745.64 241.825 745.64C238.177 745.64 233.633 744.552 230.433 743.464L229.153 734.76H229.281C234.657 738.408 238.113 740.456 242.849 740.456C247.393 740.456 249.761 737.512 249.761 733.864C249.761 730.408 248.033 727.912 244.128 725.352L237.793 721.192ZM302.352 704.744L284.56 701.608L285.712 745H278.032L279.184 701.608L261.456 704.744H261.328L262.672 697H301.136L302.48 704.744H302.352ZM328.208 726.76L320.528 705.896L313.04 726.76H328.208ZM334.992 745L329.808 731.048H311.504L306.512 745H298.32V744.872L320.144 695.4H322.384L342.928 744.872V745H334.992ZM349.33 745L350.29 719.784L349.33 697H357.074L355.986 740.968L376.53 736.936H376.658L375.378 745H349.33ZM385.643 745L386.603 719.784L385.643 697H410.539L411.819 703.656H411.691L393.195 700.968L392.491 717.736L409.451 717.16L408.811 723.112L392.491 721.256L393.259 741.224L412.331 737.64H412.458L411.115 745H385.643ZM428.864 719.784L429.824 745H422.08L423.04 719.784L422.08 697H435.008C444.16 697 449.408 701.928 449.408 708.84C449.408 714.92 446.336 719.656 439.36 721.576L454.784 744.872V745H445.568L434.112 722.408V718.824C439.552 718.184 442.816 715.368 442.816 710.376C442.816 706.216 439.872 702.76 433.6 702.76H429.568L428.864 719.784ZM29.696 818.264L12.992 816.408L13.824 839H6.08L7.04 813.784L6.08 791H31.68L33.024 797.4H32.896L13.632 794.84L12.928 812.952L30.336 812.312L29.696 818.264ZM49.114 813.784L50.074 839H42.33L43.29 813.784L42.33 791H55.258C64.41 791 69.658 795.928 69.658 802.84C69.658 808.92 66.586 813.656 59.61 815.576L75.034 838.872V839H65.818L54.362 816.408V812.824C59.802 812.184 63.066 809.368 63.066 804.376C63.066 800.216 60.122 796.76 53.85 796.76H49.818L49.114 813.784ZM82.705 839L83.665 813.784L82.705 791H107.601L108.881 797.656H108.753L90.257 794.968L89.553 811.736L106.513 811.16L105.873 817.112L89.553 815.256L90.321 835.224L109.393 831.64H109.521L108.177 839H82.705ZM138.087 834.136C145.639 834.136 150.631 829.016 150.631 818.648L149.479 791H157.223L156.455 818.648C156.455 831.64 149.927 839.64 138.087 839.64C126.311 839.64 119.591 831.64 119.591 818.648L118.823 791H126.567L125.415 818.648C125.415 829.016 130.663 834.136 138.087 834.136ZM175.864 813.784L176.632 833.624H184.056C194.36 833.624 201.656 826.584 201.656 813.784C201.592 803.096 194.552 796.76 185.208 796.76H176.568L175.864 813.784ZM169.08 839L170.04 813.784L169.08 791H185.144C198.2 791 208.44 798.808 208.44 814.104C208.44 828.248 198.84 839 184.056 839H169.08ZM218.705 839L219.665 813.784L218.705 791H243.601L244.881 797.656H244.753L226.257 794.968L225.553 811.736L242.513 811.16L241.873 817.112L225.553 815.256L226.321 835.224L245.393 831.64H245.521L244.177 839H218.705ZM290.087 839L260.327 803.352L261.927 839H254.503L256.167 791H258.151L288.103 827.032L286.823 791H294.247L292.071 839H290.087ZM312.168 815.192C305.704 810.904 304.104 806.552 304.104 802.776C304.104 795.736 309.032 790.36 318.76 790.36C322.856 790.36 327.208 791.064 329.192 791.64L330.472 800.472H330.344C326.12 797.72 322.28 795.928 317.48 795.928C313.768 795.928 310.888 797.912 310.888 801.688C310.888 804.888 312.296 806.68 316.712 809.688L320.872 812.504C326.76 816.472 330.92 820.44 330.92 826.456C330.92 832.472 327.08 839.64 316.2 839.64C312.552 839.64 308.008 838.552 304.808 837.464L303.528 828.76H303.656C309.032 832.408 312.488 834.456 317.224 834.456C321.768 834.456 324.136 831.512 324.136 827.864C324.136 824.408 322.408 821.912 318.503 819.352L312.168 815.192ZM377.943 836.184C375.703 837.528 370.007 839.64 364.119 839.64C350.103 839.64 339.223 830.488 339.223 814.808C339.223 799.512 349.079 790.36 364.503 790.36C370.391 790.36 375.767 791.768 378.391 792.6L379.671 801.688H379.543C375.191 798.616 370.519 796.696 363.159 796.696C356.055 796.696 345.943 800.984 345.943 813.976C345.943 826.008 352.407 834.2 364.247 834.2C369.303 834.2 374.423 832.152 379.095 828.824H379.223L377.943 836.184ZM420.635 839L421.467 816.408H395.867L396.699 839H388.955L389.915 813.784L388.955 791H396.699L395.803 811.608H421.531L420.635 791H428.379L427.419 813.784L428.379 839H420.635ZM475.462 839L445.702 803.352L447.302 839H439.878L441.542 791H443.526L473.478 827.032L472.198 791H479.622L477.446 839H475.462ZM491.143 839L492.103 813.784L491.143 791H498.887L497.927 813.784L498.887 839H491.143ZM517.802 813.784L518.762 839H511.018L511.978 813.784L511.018 791H523.882C534.25 791 540.01 796.504 540.01 804.12C540.01 812.952 535.018 819.352 523.05 819.736V815.768C529.002 815.384 533.418 812.44 533.418 805.848C533.418 800.216 530.41 796.696 522.154 796.696H518.506L517.802 813.784ZM555.355 815.192C548.891 810.904 547.291 806.552 547.291 802.776C547.291 795.736 552.219 790.36 561.947 790.36C566.043 790.36 570.395 791.064 572.379 791.64L573.659 800.472H573.531C569.307 797.72 565.467 795.928 560.667 795.928C556.955 795.928 554.075 797.912 554.075 801.688C554.075 804.888 555.483 806.68 559.899 809.688L564.059 812.504C569.947 816.472 574.107 820.44 574.107 826.456C574.107 832.472 570.267 839.64 559.387 839.64C555.739 839.64 551.195 838.552 547.995 837.464L546.715 828.76H546.843C552.219 832.408 555.675 834.456 560.411 834.456C564.955 834.456 567.323 831.512 567.323 827.864C567.323 824.408 565.595 821.912 561.691 819.352L555.355 815.192ZM584.33 839L585.29 813.784L584.33 791H609.226L610.506 797.656H610.378L591.882 794.968L591.178 811.736L608.138 811.16L607.498 817.112L591.178 815.256L591.946 835.224L611.018 831.64H611.146L609.802 839H584.33ZM620.768 839L621.728 813.784L620.768 791H628.512L627.424 834.968L647.968 830.936H648.096L646.816 839H620.768ZM6.08 933L7.04 907.784L6.08 885H13.824L12.736 928.968L33.28 924.936H33.408L32.128 933H6.08ZM42.3925 933L43.3525 907.784L42.3925 885H50.1365L49.1765 907.784L50.1365 933H42.3925ZM62.2675 933L63.2275 907.784L62.2675 885H87.1635L88.4435 891.656H88.3155L69.8195 888.968L69.1155 905.736L86.0755 905.16L85.4355 911.112L69.1155 909.256L69.8835 929.224L88.9555 925.64H89.0835L87.7395 933H62.2675ZM98.705 885H111.057C121.233 885 126.481 889.608 126.481 895.944C126.481 901.32 123.217 905.608 117.649 907.08V907.144C124.945 908.808 127.825 913.48 127.825 918.536C127.825 925.704 122.385 933 108.881 933H98.705L99.665 907.784L98.705 885ZM105.489 907.784L106.257 927.624H110.545C117.137 927.624 121.041 924.424 121.041 918.024C121.041 913.032 116.881 909.896 111.377 909.576V905.032C116.689 904.328 120.081 902.088 120.081 897.416C120.081 893.576 117.201 890.696 109.969 890.696H106.193L105.489 907.784ZM137.455 933L138.415 907.784L137.455 885H145.199L144.111 928.968L164.655 924.936H164.783L163.503 933H137.455ZM173.768 933L174.728 907.784L173.768 885H181.512L180.552 907.784L181.512 933H173.768ZM228.587 933L198.827 897.352L200.427 933H193.003L194.667 885H196.651L226.603 921.032L225.323 885H232.747L230.571 933H228.587ZM268.14 884.36C273.772 884.36 279.02 885.512 282.22 886.6L283.5 895.688H283.372C279.212 892.744 274.86 890.696 266.86 890.696C259.5 890.696 249.004 894.984 249.004 907.976C249.004 920.072 256.492 928.2 268.716 928.2C271.404 928.2 275.18 927.368 277.484 926.216L276.396 909.64V909.512H284.652L283.5 928.776C280.876 930.824 275.372 933.64 267.884 933.64C253.228 933.64 242.348 924.808 242.348 908.808C242.348 893.512 251.884 884.36 268.14 884.36ZM300.355 909.192C293.891 904.904 292.291 900.552 292.291 896.776C292.291 889.736 297.219 884.36 306.947 884.36C311.043 884.36 315.395 885.064 317.379 885.64L318.659 894.472H318.531C314.307 891.72 310.467 889.928 305.667 889.928C301.955 889.928 299.075 891.912 299.075 895.688C299.075 898.888 300.483 900.68 304.899 903.688L309.059 906.504C314.947 910.472 319.107 914.44 319.107 920.456C319.107 926.472 315.267 933.64 304.387 933.64C300.739 933.64 296.195 932.552 292.995 931.464L291.715 922.76H291.843C297.219 926.408 300.675 928.456 305.411 928.456C309.955 928.456 312.323 925.512 312.323 921.864C312.323 918.408 310.595 915.912 306.691 913.352L300.355 909.192ZM364.914 892.744L347.122 889.608L348.274 933H340.594L341.746 889.608L324.018 892.744H323.89L325.234 885H363.698L365.042 892.744H364.914ZM371.768 933L372.728 907.784L371.768 885H396.664L397.944 891.656H397.816L379.32 888.968L378.616 905.736L395.576 905.16L394.936 911.112L378.616 909.256L379.384 929.224L398.456 925.64H398.583L397.24 933H371.768ZM408.205 933L409.165 907.784L408.205 885H415.949L414.989 907.784L415.949 933H408.205ZM428.08 933L429.04 907.784L428.08 885H435.824L434.736 928.968L455.28 924.936H455.408L454.128 933H428.08ZM29.632 1067.74H49.728C49.856 1074.27 49.152 1079.65 44.736 1084.77C40.32 1089.89 33.6 1092.83 26.88 1092.83C13.312 1092.83 2.048 1081.57 2.048 1068C2.048 1054.18 13.312 1042.91 27.2 1042.91C35.648 1042.91 42.496 1046.69 47.616 1053.34L43.712 1056.99C39.68 1051.3 34.24 1047.9 27.136 1047.9C16.128 1047.9 7.424 1057.18 7.424 1068.06C7.424 1073.18 9.472 1078.05 13.056 1081.7C16.576 1085.22 21.696 1087.84 26.752 1087.84C35.136 1087.84 43.968 1081.7 43.968 1072.74H29.632V1067.74ZM61.076 1039.2V1092H55.956V1039.2H61.076ZM74.04 1061.92V1078.69C74.04 1083.74 74.616 1088.1 80.824 1088.1C87.032 1088.1 87.608 1083.74 87.608 1078.69V1061.92H92.728V1079.26C92.728 1087.26 89.72 1092.83 80.824 1092.83C71.928 1092.83 68.92 1087.26 68.92 1079.26V1061.92H74.04ZM74.552 1046.88C76.472 1046.88 78.008 1048.42 78.008 1050.34C78.008 1052.26 76.472 1053.79 74.552 1053.79C72.632 1053.79 71.096 1052.26 71.096 1050.34C71.096 1048.42 72.632 1046.88 74.552 1046.88ZM87.16 1046.88C89.08 1046.88 90.616 1048.42 90.616 1050.34C90.616 1052.26 89.08 1053.79 87.16 1053.79C85.24 1053.79 83.704 1052.26 83.704 1050.34C83.704 1048.42 85.24 1046.88 87.16 1046.88ZM123.11 1064.1V1070.88H122.982C120.614 1067.87 117.67 1065.82 113.638 1065.82C107.43 1065.82 103.014 1070.94 103.014 1076.96C103.014 1082.91 107.11 1088.1 113.382 1088.1C117.67 1088.1 120.678 1086.18 123.174 1082.91H123.302V1089.76C120.358 1091.74 117.35 1092.83 113.766 1092.83C104.678 1092.83 97.766 1086.05 97.766 1076.96C97.766 1068 104.998 1061.09 113.83 1061.09C117.094 1061.09 120.422 1062.18 123.11 1064.1ZM134.795 1039.2V1073.06L145.739 1061.92H152.587L139.723 1074.72L155.019 1092H148.235L136.139 1078.3L134.795 1079.65V1092H129.675V1039.2H134.795ZM175.162 1066.66L170.874 1068.9C170.17 1067.3 168.634 1065.82 166.778 1065.82C164.986 1065.82 163.066 1067.23 163.066 1069.15C163.066 1071.9 166.522 1072.93 170.042 1074.4C173.562 1075.87 177.018 1077.98 177.018 1083.04C177.018 1088.74 172.41 1092.83 166.842 1092.83C161.786 1092.83 157.818 1089.95 156.218 1085.22L160.762 1083.3C162.042 1086.11 163.514 1088.1 166.906 1088.1C169.658 1088.1 171.77 1086.24 171.77 1083.49C171.77 1076.77 158.202 1079.07 158.202 1069.6C158.202 1064.54 162.298 1061.09 167.162 1061.09C170.618 1061.09 173.818 1063.52 175.162 1066.66ZM184.149 1061.92L193.045 1082.27L202.389 1059.62L211.797 1082.27L220.757 1061.92H226.581L211.669 1094.11L202.389 1071.71L193.109 1094.11L178.325 1061.92H184.149ZM242.821 1065.82C236.869 1065.82 233.029 1071.01 233.029 1076.64C233.029 1082.53 236.485 1088.1 242.885 1088.1C249.477 1088.1 252.933 1082.78 252.933 1076.7C252.933 1070.69 249.157 1065.82 242.821 1065.82ZM257.797 1061.92V1092H252.677V1087.84H252.549C249.925 1091.17 246.405 1092.83 242.181 1092.83C233.349 1092.83 227.781 1085.34 227.781 1077.02C227.781 1068.45 233.221 1061.09 242.245 1061.09C246.341 1061.09 250.053 1063.01 252.549 1066.21H252.677V1061.92H257.797ZM270.863 1061.92V1065.18H270.991C272.783 1062.82 274.319 1061.09 277.647 1061.09C279.375 1061.09 280.783 1061.66 282.255 1062.5L279.823 1067.17C278.799 1066.46 278.095 1065.82 276.751 1065.82C271.119 1065.82 270.863 1073.06 270.863 1076.96V1092H265.743V1061.92H270.863ZM312.333 1078.05H288.717C288.781 1083.62 292.749 1088.1 298.573 1088.1C302.925 1088.1 305.741 1085.47 307.725 1081.89L312.077 1084.38C309.197 1089.76 304.333 1092.83 298.189 1092.83C289.229 1092.83 283.469 1085.98 283.469 1077.34C283.469 1068.45 288.653 1061.09 298.061 1061.09C307.725 1061.09 312.845 1069.09 312.333 1078.05ZM288.973 1073.7H306.957C306.253 1069.34 302.605 1065.82 298.125 1065.82C293.709 1065.82 289.613 1069.34 288.973 1073.7ZM323.184 1061.92V1065.57H323.312C325.424 1062.69 328.176 1061.09 331.888 1061.09C340.208 1061.09 342.128 1067.1 342.128 1074.14V1092H337.008V1075.04C337.008 1070.18 336.624 1065.82 330.672 1065.82C323.632 1065.82 323.184 1072.35 323.184 1077.73V1092H318.064V1061.92H323.184ZM350.597 1039.2H355.717V1065.44L355.845 1065.57C357.957 1062.69 360.709 1061.09 364.421 1061.09C372.741 1061.09 374.661 1067.1 374.661 1074.14V1092H369.541V1075.04C369.541 1070.18 369.157 1065.82 363.205 1065.82C356.165 1065.82 355.717 1072.35 355.717 1077.73V1092H350.597V1039.2ZM395.609 1065.82C389.657 1065.82 385.817 1071.01 385.817 1076.64C385.817 1082.53 389.273 1088.1 395.673 1088.1C402.265 1088.1 405.721 1082.78 405.721 1076.7C405.721 1070.69 401.945 1065.82 395.609 1065.82ZM410.585 1061.92V1092H405.465V1087.84H405.337C402.713 1091.17 399.193 1092.83 394.969 1092.83C386.137 1092.83 380.569 1085.34 380.569 1077.02C380.569 1068.45 386.009 1061.09 395.033 1061.09C399.129 1061.09 402.841 1063.01 405.337 1066.21H405.465V1061.92H410.585ZM423.522 1061.92V1078.69C423.522 1083.74 424.098 1088.1 430.306 1088.1C436.514 1088.1 437.09 1083.74 437.09 1078.69V1061.92H442.21V1079.26C442.21 1087.26 439.202 1092.83 430.306 1092.83C421.41 1092.83 418.402 1087.26 418.402 1079.26V1061.92H423.522ZM466.704 1066.66L462.416 1068.9C461.712 1067.3 460.176 1065.82 458.32 1065.82C456.528 1065.82 454.608 1067.23 454.608 1069.15C454.608 1071.9 458.064 1072.93 461.584 1074.4C465.104 1075.87 468.56 1077.98 468.56 1083.04C468.56 1088.74 463.952 1092.83 458.384 1092.83C453.328 1092.83 449.36 1089.95 447.76 1085.22L452.304 1083.3C453.584 1086.11 455.056 1088.1 458.448 1088.1C461.2 1088.1 463.312 1086.24 463.312 1083.49C463.312 1076.77 449.744 1079.07 449.744 1069.6C449.744 1064.54 453.84 1061.09 458.704 1061.09C462.16 1061.09 465.36 1063.52 466.704 1066.66ZM29.632 1161.74H49.728C49.856 1168.27 49.152 1173.65 44.736 1178.77C40.32 1183.89 33.6 1186.83 26.88 1186.83C13.312 1186.83 2.048 1175.57 2.048 1162C2.048 1148.18 13.312 1136.91 27.2 1136.91C35.648 1136.91 42.496 1140.69 47.616 1147.34L43.712 1150.99C39.68 1145.3 34.24 1141.9 27.136 1141.9C16.128 1141.9 7.424 1151.18 7.424 1162.06C7.424 1167.18 9.472 1172.05 13.056 1175.7C16.576 1179.22 21.696 1181.84 26.752 1181.84C35.136 1181.84 43.968 1175.7 43.968 1166.74H29.632V1161.74ZM61.076 1133.2V1186H55.956V1133.2H61.076ZM81.784 1159.82C75.832 1159.82 71.992 1165.01 71.992 1170.64C71.992 1176.53 75.448 1182.1 81.848 1182.1C88.44 1182.1 91.896 1176.78 91.896 1170.7C91.896 1164.69 88.12 1159.82 81.784 1159.82ZM96.76 1155.92V1186H91.64V1181.84H91.512C88.888 1185.17 85.368 1186.83 81.144 1186.83C72.312 1186.83 66.744 1179.34 66.744 1171.02C66.744 1162.45 72.184 1155.09 81.208 1155.09C85.304 1155.09 89.016 1157.01 91.512 1160.21H91.64V1155.92H96.76ZM110.082 1155.92V1159.57H110.21C112.322 1156.69 115.074 1155.09 118.786 1155.09C127.106 1155.09 129.026 1161.1 129.026 1168.14V1186H123.906V1169.04C123.906 1164.18 123.522 1159.82 117.57 1159.82C110.53 1159.82 110.082 1166.35 110.082 1171.73V1186H104.962V1155.92H110.082ZM143.638 1181.26H164.374V1186H133.27L154.966 1160.66H137.302V1155.92H165.27L143.638 1181.26ZM185.85 1160.66L181.562 1162.9C180.858 1161.3 179.322 1159.82 177.466 1159.82C175.674 1159.82 173.754 1161.23 173.754 1163.15C173.754 1165.9 177.21 1166.93 180.73 1168.4C184.25 1169.87 187.706 1171.98 187.706 1177.04C187.706 1182.74 183.098 1186.83 177.53 1186.83C172.474 1186.83 168.506 1183.95 166.906 1179.22L171.45 1177.3C172.73 1180.11 174.202 1182.1 177.594 1182.1C180.346 1182.1 182.458 1180.24 182.458 1177.49C182.458 1170.77 168.89 1173.07 168.89 1163.6C168.89 1158.54 172.986 1155.09 177.85 1155.09C181.306 1155.09 184.506 1157.52 185.85 1160.66ZM199.06 1160.66V1186H193.94V1160.66H190.804V1155.92H193.94V1145.1H199.06V1155.92H204.436V1160.66H199.06ZM212.515 1155.92V1172.69C212.515 1177.74 213.091 1182.1 219.299 1182.1C225.507 1182.1 226.083 1177.74 226.083 1172.69V1155.92H231.203V1173.26C231.203 1181.26 228.195 1186.83 219.299 1186.83C210.403 1186.83 207.395 1181.26 207.395 1173.26V1155.92H212.515ZM213.027 1140.88C214.947 1140.88 216.483 1142.42 216.483 1144.34C216.483 1146.26 214.947 1147.79 213.027 1147.79C211.107 1147.79 209.571 1146.26 209.571 1144.34C209.571 1142.42 211.107 1140.88 213.027 1140.88ZM225.635 1140.88C227.555 1140.88 229.091 1142.42 229.091 1144.34C229.091 1146.26 227.555 1147.79 225.635 1147.79C223.715 1147.79 222.179 1146.26 222.179 1144.34C222.179 1142.42 223.715 1140.88 225.635 1140.88ZM261.585 1158.1V1164.88H261.457C259.089 1161.87 256.145 1159.82 252.113 1159.82C245.905 1159.82 241.489 1164.94 241.489 1170.96C241.489 1176.91 245.585 1182.1 251.857 1182.1C256.145 1182.1 259.153 1180.18 261.649 1176.91H261.777V1183.76C258.833 1185.74 255.825 1186.83 252.241 1186.83C243.153 1186.83 236.241 1180.05 236.241 1170.96C236.241 1162 243.473 1155.09 252.305 1155.09C255.569 1155.09 258.897 1156.18 261.585 1158.1ZM273.271 1133.2V1167.06L284.215 1155.92H291.063L278.199 1168.72L293.495 1186H286.711L274.615 1172.3L273.271 1173.65V1186H268.151V1133.2H273.271ZM31.04 1238.4L26.752 1241.15C24.832 1237.82 22.528 1235.9 18.432 1235.9C14.144 1235.9 10.432 1238.98 10.432 1243.39C10.432 1247.55 14.72 1249.47 17.984 1250.94L21.184 1252.35C27.456 1255.1 32.768 1258.24 32.768 1265.92C32.768 1274.37 25.984 1280.83 17.6 1280.83C9.856 1280.83 4.096 1275.84 2.56 1268.35L7.808 1266.88C8.512 1271.81 12.288 1275.84 17.472 1275.84C22.656 1275.84 27.392 1271.87 27.392 1266.43C27.392 1260.8 22.976 1258.88 18.496 1256.83L15.552 1255.55C9.92 1252.99 5.056 1250.11 5.056 1243.2C5.056 1235.71 11.392 1230.91 18.56 1230.91C23.936 1230.91 28.48 1233.66 31.04 1238.4ZM44.71 1254.66V1280H39.59V1254.66H36.454V1249.92H39.59V1239.1H44.71V1249.92H50.086V1254.66H44.71ZM58.165 1249.92V1266.69C58.165 1271.74 58.741 1276.1 64.949 1276.1C71.157 1276.1 71.733 1271.74 71.733 1266.69V1249.92H76.853V1267.26C76.853 1275.26 73.845 1280.83 64.949 1280.83C56.053 1280.83 53.045 1275.26 53.045 1267.26V1249.92H58.165ZM58.677 1234.88C60.597 1234.88 62.133 1236.42 62.133 1238.34C62.133 1240.26 60.597 1241.79 58.677 1241.79C56.757 1241.79 55.221 1240.26 55.221 1238.34C55.221 1236.42 56.757 1234.88 58.677 1234.88ZM71.285 1234.88C73.205 1234.88 74.741 1236.42 74.741 1238.34C74.741 1240.26 73.205 1241.79 71.285 1241.79C69.365 1241.79 67.829 1240.26 67.829 1238.34C67.829 1236.42 69.365 1234.88 71.285 1234.88ZM107.235 1252.1V1258.88H107.107C104.739 1255.87 101.795 1253.82 97.763 1253.82C91.555 1253.82 87.139 1258.94 87.139 1264.96C87.139 1270.91 91.235 1276.1 97.507 1276.1C101.795 1276.1 104.803 1274.18 107.299 1270.91H107.427V1277.76C104.483 1279.74 101.475 1280.83 97.891 1280.83C88.803 1280.83 81.891 1274.05 81.891 1264.96C81.891 1256 89.123 1249.09 97.955 1249.09C101.219 1249.09 104.547 1250.18 107.235 1252.1ZM118.92 1227.2V1261.06L129.864 1249.92H136.712L123.848 1262.72L139.144 1280H132.36L120.264 1266.3L118.92 1267.65V1280H113.8V1227.2H118.92ZM159.287 1254.66L154.999 1256.9C154.295 1255.3 152.759 1253.82 150.903 1253.82C149.111 1253.82 147.191 1255.23 147.191 1257.15C147.191 1259.9 150.647 1260.93 154.167 1262.4C157.687 1263.87 161.143 1265.98 161.143 1271.04C161.143 1276.74 156.535 1280.83 150.967 1280.83C145.911 1280.83 141.943 1277.95 140.343 1273.22L144.887 1271.3C146.167 1274.11 147.639 1276.1 151.031 1276.1C153.783 1276.1 155.895 1274.24 155.895 1271.49C155.895 1264.77 142.327 1267.07 142.327 1257.6C142.327 1252.54 146.423 1249.09 151.287 1249.09C154.743 1249.09 157.943 1251.52 159.287 1254.66ZM193.298 1266.05H169.682C169.746 1271.62 173.714 1276.1 179.538 1276.1C183.89 1276.1 186.706 1273.47 188.69 1269.89L193.042 1272.38C190.162 1277.76 185.298 1280.83 179.154 1280.83C170.194 1280.83 164.434 1273.98 164.434 1265.34C164.434 1256.45 169.618 1249.09 179.026 1249.09C188.69 1249.09 193.81 1257.09 193.298 1266.05ZM169.938 1261.7H187.922C187.218 1257.34 183.57 1253.82 179.09 1253.82C174.674 1253.82 170.578 1257.34 169.938 1261.7ZM204.021 1227.2V1280H198.901V1227.2H204.021ZM218.329 1249.92V1280H213.209V1249.92H218.329ZM215.769 1234.94C217.753 1234.94 219.417 1236.61 219.417 1238.59C219.417 1240.64 217.753 1242.24 215.769 1242.24C213.785 1242.24 212.121 1240.64 212.121 1238.59C212.121 1236.61 213.785 1234.94 215.769 1234.94ZM239.879 1253.82C233.927 1253.82 230.087 1259.01 230.087 1264.64C230.087 1270.53 233.543 1276.1 239.943 1276.1C246.535 1276.1 249.991 1270.78 249.991 1264.7C249.991 1258.69 246.215 1253.82 239.879 1253.82ZM254.855 1249.92V1278.53C254.855 1283.33 254.855 1287.49 251.783 1291.46C248.967 1295.04 244.615 1296.77 240.135 1296.77C231.751 1296.77 225.543 1291.46 225.351 1282.94H230.471C230.535 1288.51 234.567 1292.03 240.071 1292.03C248.007 1292.03 249.735 1286.21 249.735 1279.42V1275.84H249.607C247.175 1278.98 243.207 1280.83 239.175 1280.83C230.407 1280.83 224.839 1273.47 224.839 1265.09C224.839 1256.64 230.471 1249.09 239.367 1249.09C243.527 1249.09 247.175 1250.94 249.607 1254.21H249.735V1249.92H254.855ZM268.428 1227.2V1261.06L279.372 1249.92H286.22L273.356 1262.72L288.652 1280H281.868L269.772 1266.3L268.428 1267.65V1280H263.308V1227.2H268.428ZM318.523 1266.05H294.907C294.971 1271.62 298.939 1276.1 304.763 1276.1C309.115 1276.1 311.931 1273.47 313.915 1269.89L318.267 1272.38C315.387 1277.76 310.523 1280.83 304.379 1280.83C295.419 1280.83 289.659 1273.98 289.659 1265.34C289.659 1256.45 294.843 1249.09 304.251 1249.09C313.915 1249.09 319.035 1257.09 318.523 1266.05ZM295.163 1261.7H313.147C312.443 1257.34 308.795 1253.82 304.315 1253.82C299.899 1253.82 295.803 1257.34 295.163 1261.7ZM330.334 1249.92V1280H325.214V1249.92H330.334ZM327.774 1234.94C329.758 1234.94 331.422 1236.61 331.422 1238.59C331.422 1240.64 329.758 1242.24 327.774 1242.24C325.79 1242.24 324.126 1240.64 324.126 1238.59C324.126 1236.61 325.79 1234.94 327.774 1234.94ZM345.1 1254.66V1280H339.98V1254.66H336.844V1249.92H339.98V1239.1H345.1V1249.92H350.476V1254.66H345.1Z" fill="#0000FF"/>
<path d="M580 229.5C580 199.362 574.064 169.518 562.53 141.674C550.997 113.83 534.092 88.53 512.781 67.219C491.47 45.9079 466.17 29.0031 438.326 17.4696C410.482 5.93619 380.638 -1.31739e-06 350.5 0C320.362 1.31739e-06 290.518 5.9362 262.674 17.4697C234.83 29.0031 209.53 45.908 188.219 67.219C166.908 88.5301 150.003 113.83 138.47 141.674C126.936 169.518 121 199.362 121 229.5L350.5 229.5H580Z" fill="#0000FF"/>
<path d="M121 229.5C121 259.638 126.936 289.482 138.47 317.326C150.003 345.17 166.908 370.47 188.219 391.781L350.5 229.5L121 229.5Z" fill="#004A28"/>
<path d="M188.219 391.781C209.53 413.092 234.83 429.997 262.674 441.53C290.518 453.064 320.362 459 350.5 459L350.5 229.5L188.219 391.781Z" fill="#EDEDED"/>
<path d="M350.5 459C411.367 459 469.741 434.821 512.781 391.781C555.821 348.741 580 290.367 580 229.5L350.5 229.5L350.5 459Z" fill="white"/>
<circle cx="350.5" cy="229.5" r="229" stroke="black"/>
<path d="M142.208 200.768H144.056L143.192 205.424H146.168L147.008 200.768H148.904L148.064 205.424H150.272V207.344H147.704L147.056 211.04H149.48V212.96H146.672L145.76 218H143.936L144.824 212.96H141.872L140.912 218H139.112L140 212.96H137.6V211.04H140.36L141.008 207.344H138.488V205.424H141.344L142.208 200.768ZM142.88 207.344L142.232 211.04H145.184L145.832 207.344H142.88ZM159.251 218.384C154.595 218.384 152.939 212.648 152.939 208.952C152.939 205.232 154.571 199.52 159.251 199.52C163.931 199.52 165.563 205.232 165.563 208.952C165.563 212.648 163.907 218.384 159.251 218.384ZM159.251 201.44C156.011 201.44 155.099 206.432 155.099 208.928C155.099 211.424 156.011 216.368 159.251 216.368C162.491 216.368 163.403 211.424 163.403 208.928C163.403 206.432 162.491 201.44 159.251 201.44ZM174.566 218.384C169.91 218.384 168.254 212.648 168.254 208.952C168.254 205.232 169.886 199.52 174.566 199.52C179.246 199.52 180.878 205.232 180.878 208.952C180.878 212.648 179.222 218.384 174.566 218.384ZM174.566 201.44C171.326 201.44 170.414 206.432 170.414 208.928C170.414 211.424 171.326 216.368 174.566 216.368C177.806 216.368 178.718 211.424 178.718 208.928C178.718 206.432 177.806 201.44 174.566 201.44ZM189.881 218.384C185.225 218.384 183.569 212.648 183.569 208.952C183.569 205.232 185.201 199.52 189.881 199.52C194.561 199.52 196.193 205.232 196.193 208.952C196.193 212.648 194.537 218.384 189.881 218.384ZM189.881 201.44C186.641 201.44 185.729 206.432 185.729 208.928C185.729 211.424 186.641 216.368 189.881 216.368C193.121 216.368 194.033 211.424 194.033 208.928C194.033 206.432 193.121 201.44 189.881 201.44ZM205.196 218.384C200.54 218.384 198.884 212.648 198.884 208.952C198.884 205.232 200.516 199.52 205.196 199.52C209.876 199.52 211.508 205.232 211.508 208.952C211.508 212.648 209.852 218.384 205.196 218.384ZM205.196 201.44C201.956 201.44 201.044 206.432 201.044 208.928C201.044 211.424 201.956 216.368 205.196 216.368C208.436 216.368 209.348 211.424 209.348 208.928C209.348 206.432 208.436 201.44 205.196 201.44ZM224.039 201.968H217.535V207.056H223.823V209.12H217.535V218H215.279V199.904H224.039V201.968ZM236.846 201.968H230.342V207.056H236.63V209.12H230.342V218H228.086V199.904H236.846V201.968Z" fill="white"/>
<path d="M176.64 361.693L177.947 360.386L180.628 364.289L182.732 362.185L180.034 358.299L181.375 356.958L184.073 360.844L185.634 359.283L186.992 360.64L185.176 362.456L187.331 365.528L189.045 363.814L190.403 365.172L188.417 367.157L191.336 371.366L190.047 372.656L187.111 368.464L185.023 370.551L187.908 374.794L186.636 376.067L183.7 371.875L182.003 373.572L180.645 372.214L182.597 370.263L180.441 367.191L178.659 368.973L177.302 367.615L179.321 365.596L176.64 361.693ZM181.765 365.867L183.92 368.939L186.008 366.852L183.852 363.78L181.765 365.867ZM201.148 362.098C197.855 365.39 192.628 362.505 190.015 359.892C187.384 357.261 184.499 352.068 187.809 348.759C191.118 345.45 196.311 348.335 198.941 350.965C201.555 353.579 204.44 358.806 201.148 362.098ZM189.166 350.117C186.875 352.408 189.76 356.582 191.525 358.347C193.29 360.112 197.431 362.963 199.722 360.672C202.013 358.381 199.162 354.24 197.397 352.475C195.632 350.711 191.457 347.826 189.166 350.117ZM211.977 351.268C208.685 354.561 203.458 351.676 200.844 349.062C198.214 346.432 195.329 341.239 198.638 337.93C201.947 334.62 207.14 337.505 209.771 340.136C212.384 342.749 215.269 347.976 211.977 351.268ZM199.996 339.287C197.705 341.578 200.59 345.753 202.355 347.518C204.119 349.283 208.26 352.134 210.551 349.843C212.842 347.552 209.991 343.411 208.226 341.646C206.461 339.881 202.287 336.996 199.996 339.287ZM222.331 333.855L223.79 332.395L225.182 333.787L223.723 335.246L225.589 337.113L224.062 338.64L222.195 336.773L215.882 343.087L212.251 323.774L222.331 333.855ZM220.804 335.382L215.526 330.104L215.492 330.138L217.172 339.014L220.804 335.382ZM234.162 322.126L228.29 327.998L230.038 332.664L228.324 334.378L221.094 314.93L240.543 322.16L238.829 323.874L234.162 322.126ZM232.04 321.328L224.59 318.426L227.492 325.876L232.04 321.328ZM243.82 315.963L248.979 310.804L250.439 312.264L242.174 320.528L240.901 308.055C240.782 306.884 240.596 305.476 239.747 304.627C238.406 303.286 236.115 303.371 234.792 304.695C233.485 306.002 233.468 308.123 234.673 309.498L233.078 311.093C231.058 308.564 231.007 305.56 233.332 303.235C235.504 301.063 238.983 300.809 241.207 303.032C242.157 303.982 242.751 305.289 242.887 306.613L243.82 315.963ZM251.17 299.585C249.881 300.874 249.745 303.114 251.102 304.472C252.392 305.762 254.734 305.66 255.99 304.404C257.246 303.148 257.348 300.806 256.058 299.517C254.7 298.159 252.46 298.295 251.17 299.585ZM249.575 305.999C248.201 304.625 247.657 302.69 248.523 300.908C246.877 301.367 245.231 300.976 243.975 299.72C241.887 297.633 242.04 294.527 244.077 292.491C246.113 290.454 249.219 290.302 251.306 292.389C252.562 293.645 252.952 295.291 252.494 296.937C254.276 296.072 256.211 296.615 257.585 297.989C259.961 300.365 259.588 303.658 257.416 305.83C255.243 308.002 251.951 308.375 249.575 305.999ZM245.434 293.849C244.28 295.003 244.246 297.005 245.468 298.227C246.487 299.245 248.744 299.296 249.813 298.227C250.882 297.158 250.831 294.901 249.813 293.882C248.591 292.661 246.588 292.695 245.434 293.849Z" fill="white"/>
<path d="M319.768 439.792L319.768 437.944L324.424 438.808L324.424 435.832L319.768 434.992L319.768 433.096L324.424 433.936L324.424 431.728L326.344 431.728L326.344 434.296L330.04 434.944L330.04 432.52L331.96 432.52L331.96 435.328L337 436.24L337 438.064L331.96 437.176L331.96 440.128L337 441.088L337 442.888L331.96 442L331.96 444.4L330.04 444.4L330.04 441.64L326.344 440.992L326.344 443.512L324.424 443.512L324.424 440.656L319.768 439.792ZM326.344 439.12L330.04 439.768L330.04 436.816L326.344 436.168L326.344 439.12ZM337 427.957L318.904 427.957L318.904 418.237L320.968 418.237L320.968 425.701L326.032 425.701L326.032 418.453L328.096 418.453L328.096 425.701L334.936 425.701L334.936 418.237L337 418.237L337 427.957ZM337 414.193L318.904 414.193L318.904 410.449C318.904 404.905 321.832 400.297 327.856 400.297C334.024 400.297 337 404.809 337 410.521L337 414.193ZM320.968 411.937L334.936 411.937L334.936 411.145C334.936 406.537 333.208 402.553 327.952 402.553C322.672 402.553 320.968 406.537 320.968 411.145L320.968 411.937ZM337 396.6L318.904 396.6L318.904 386.88L320.968 386.88L320.968 394.344L326.032 394.344L326.032 387.096L328.096 387.096L328.096 394.344L334.936 394.344L334.936 386.88L337 386.88L337 396.6ZM337 382.837L318.904 382.837L318.904 379.093C318.904 373.549 321.832 368.941 327.856 368.941C334.024 368.941 337 373.453 337 379.165L337 382.837ZM320.968 380.581L334.936 380.581L334.936 379.789C334.936 375.181 333.208 371.197 327.952 371.197C322.672 371.197 320.968 375.181 320.968 379.789L320.968 380.581ZM337 365.244L318.904 365.244L318.904 355.524L320.968 355.524L320.968 362.988L326.032 362.988L326.032 355.74L328.096 355.74L328.096 362.988L334.936 362.988L334.936 355.524L337 355.524L337 365.244ZM337 351.48L318.904 351.48L318.904 347.736C318.904 342.192 321.832 337.584 327.856 337.584C334.024 337.584 337 342.096 337 347.808L337 351.48ZM320.968 349.224L334.936 349.224L334.936 348.432C334.936 343.824 333.208 339.84 327.952 339.84C322.672 339.84 320.968 343.824 320.968 348.432L320.968 349.224Z" fill="#004A28"/>
<path d="M557.792 262.232L555.944 262.232L556.808 257.576L553.832 257.576L552.992 262.232L551.096 262.232L551.936 257.576L549.728 257.576L549.728 255.656L552.296 255.656L552.944 251.96L550.52 251.96L550.52 250.04L553.328 250.04L554.24 245L556.064 245L555.176 250.04L558.128 250.04L559.088 245L560.888 245L560 250.04L562.4 250.04L562.4 251.96L559.64 251.96L558.992 255.656L561.512 255.656L561.512 257.576L558.656 257.576L557.792 262.232ZM557.12 255.656L557.768 251.96L554.816 251.96L554.168 255.656L557.12 255.656ZM537.221 261.032L543.725 261.032L543.725 255.944L537.437 255.944L537.437 253.88L543.725 253.88L543.725 245L545.981 245L545.981 263.096L537.221 263.096L537.221 261.032ZM524.414 261.032L530.918 261.032L530.918 255.944L524.63 255.944L524.63 253.88L530.918 253.88L530.918 245L533.174 245L533.174 263.096L524.414 263.096L524.414 261.032ZM511.607 261.032L518.111 261.032L518.111 255.944L511.823 255.944L511.823 253.88L518.111 253.88L518.111 245L520.367 245L520.367 263.096L511.607 263.096L511.607 261.032ZM498.799 261.032L505.303 261.032L505.303 255.944L499.015 255.944L499.015 253.88L505.303 253.88L505.303 245L507.559 245L507.559 263.096L498.799 263.096L498.799 261.032ZM485.992 261.032L492.496 261.032L492.496 255.944L486.208 255.944L486.208 253.88L492.496 253.88L492.496 245L494.752 245L494.752 263.096L485.992 263.096L485.992 261.032ZM473.185 261.032L479.689 261.032L479.689 255.944L473.401 255.944L473.401 253.88L479.689 253.88L479.689 245L481.945 245L481.945 263.096L473.185 263.096L473.185 261.032Z" fill="#004A28"/>
</svg>
