<?xml version="1.0" encoding="utf-8"?>
<svg width="198" height="196" viewBox="-9.615 22.775 188.978 159.757" fill="none" xmlns="http://www.w3.org/2000/svg">
  <g style="">
    <path d="M102.317 126.559L106.221 131.941C108.538 135.04 109.616 136.173 109.849 137.374C110.098 138.669 109.483 139.455 108.372 139.665C107.447 139.843 106.274 139.204 105.171 138.458C98.1262 133.677 90.8803 130.848 84.0435 132.155C77.9465 133.321 74.8129 137.458 75.6243 141.707C76.6141 146.88 81.9071 147.016 90.6894 147.351C100.074 147.855 110.695 148.797 112.448 157.938C113.792 164.954 108.664 171.679 99.3315 173.462C94.159 174.451 89.8668 173.546 88.3871 173.828C86.8189 174.128 87.1693 175.974 85.4163 176.311C83.8448 176.609 82.7498 175.384 81.3968 173.824L77.3919 169.419C76.0559 167.95 74.6689 166.206 74.4735 165.191C74.2611 164.083 74.9515 163.186 75.876 163.008C76.7995 162.833 77.991 163.561 79.077 164.215C84.6209 167.657 91.5919 170.059 97.597 168.91C102.493 167.976 105.066 164.901 104.41 161.482C103.507 156.772 98.9709 156.587 89.399 156.115C79.3287 155.549 69.3762 154.576 67.4825 144.697C65.8725 136.292 72.3325 129.508 82.9571 127.479C89.2409 126.28 93.8797 127.501 95.3562 127.218C97.1124 126.883 96.8552 124.539 98.8869 124.152C100.367 123.87 101.406 125.3 102.317 126.559Z" fill="#FBFF33"/>
    <path d="M54.1667 92.8002C55.7985 92.0718 59.8334 94.1899 61.6318 98.2238C63.2042 101.746 62.5186 105.754 58.6272 109.033C64.0749 110.622 69.3978 114.944 72.4258 121.727C76.3707 130.573 73.6988 138.662 66.1367 142.027C58.6619 145.355 49.7363 141.506 44.8703 130.6C43.1833 126.822 42.4142 123.251 41.9414 119.655L40.9008 120.324C31.9404 125.858 30.5136 130.509 33.0403 136.178C34.7638 140.043 38.397 142.646 42.6123 144.474C43.6845 145.026 44.3347 145.561 44.6003 146.161C44.9837 147.019 44.6806 148.185 43.647 148.644C42.789 149.027 41.7838 148.855 40.2858 148.495C35.0706 147.421 28.8367 142.681 25.963 136.242C21.0198 125.164 27.4406 119.01 35.2389 114.098L48.7136 105.525C54.7745 101.799 54.617 99.6024 53.486 94.7536C53.2353 93.7307 53.4758 93.1115 54.1613 92.8056L54.1667 92.8002ZM54.1163 112.073L46.1455 117.062C46.3314 120.479 47.1481 123.925 48.4891 126.93C51.7078 134.146 56.6574 136.471 61.8126 134.172C66.7103 131.992 68.4991 126.768 66.1234 121.443C63.8623 116.375 58.6642 113.031 54.1141 112.069L54.1163 112.073Z" fill="#FBFF33"/>
    <path d="M63.8953 42.4857C65.8107 44.6851 61.5663 47.2575 63.3855 52.7788L77.3747 95.5949C80.3548 104.598 79.7907 111.822 74.6134 116.328C72.4136 118.241 69.8728 119.332 68.3602 119.028C66.1938 118.544 61.0947 115.128 59.4884 113.284C58.5603 112.221 58.3859 110.874 59.3075 110.074C60.0884 109.396 60.8131 109.513 62.2558 109.877C67.0919 111.277 70.0852 111.419 71.9294 109.814C74.3408 107.714 74.1994 102.974 72.0371 96.6265L71.5353 95.1914L34.6418 78.0467C29.1525 75.4674 26.1627 79.1945 24.2474 76.9952C23.4426 76.0727 23.7813 75.0289 24.7029 74.2283C26.5472 72.6237 28.648 71.1706 31.6974 68.5123C34.3935 66.167 36.1928 64.2243 37.7513 62.8684C38.8845 61.8812 40.028 61.7599 40.8929 62.7522C42.9316 65.0922 38.0151 67.752 40.8597 71.0112C41.3554 71.5783 42.9341 72.8202 45.3213 73.9866L68.8122 85.3406L60.4288 60.8367C59.4703 58.3045 58.915 56.6687 57.9879 55.6023C55.4534 52.6953 51.8694 57.3114 49.8306 54.9714C48.9658 53.9791 49.2412 52.8645 50.3787 51.8751C51.7976 50.6392 53.8984 49.1861 55.7427 47.5815C57.7276 45.8536 59.2456 44.1575 61.0189 42.6161C62.0114 41.7522 63.1549 41.6309 63.8964 42.4825L63.8953 42.4857Z" fill="#FBFF33"/>
    <path d="M124.603 113.901C123.953 114.937 122.698 114.817 121.503 114.067C119.351 112.718 117.906 111.484 114.714 109.484C111.366 107.388 109.86 106.777 107.707 105.431C106.273 104.531 105.845 103.267 106.443 102.311C108.24 99.4442 112.386 104.7 115.43 99.8405C115.831 99.2049 116.25 98.3562 116.57 97.6694L123.339 82.6077C125.248 78.1451 127.925 70.5035 121.704 66.612C116.921 63.6186 109.342 64.1961 104.249 72.3224L95.815 85.7872C91.7711 92.2415 98.3218 93.1238 96.4253 96.1527C95.9769 96.8697 94.9485 97.4453 93.7525 96.6977C91.9975 95.5999 89.756 93.8626 86.8866 92.0652C84.0944 90.3181 81.7116 89.1602 79.9567 88.0624C78.6802 87.2636 78.6713 86.0387 79.1198 85.3217C81.0163 82.2928 84.5938 87.7487 88.6334 81.2966L113.687 41.2998C116.783 36.3599 109.422 35.5238 111.369 32.4178C112.168 31.1424 114.123 31.0364 119.597 31.6882C124.862 32.3221 125.809 32.5829 126.686 33.1296C127.8 33.8292 127.603 35.034 126.903 36.1508L110.681 62.0429C115.827 59.4971 122.22 58.506 128.281 62.3025C137.931 68.3417 134.374 78.9827 131.158 86.0652L123.818 102.21C120.163 110.347 126.594 110.713 124.599 113.9L124.603 113.901Z" fill="#FBFF33"/>
    <path d="M108.152 101.928C111.675 102.543 107.971 107.907 115.48 109.215L138.186 113.17C143.932 114.172 141.924 107.048 145.54 107.675C147.024 107.934 147.753 109.777 149.231 114.997C150.725 120.125 150.829 121.19 150.7 121.932C150.442 123.412 149.158 123.667 147.12 123.311L114.032 117.547C106.525 116.24 108.164 122.727 104.644 122.116C103.809 121.971 102.902 121.145 103.144 119.753C103.5 117.716 104.26 114.987 104.842 111.653C105.405 108.411 105.579 105.769 105.918 103.826C106.192 102.251 107.323 101.781 108.157 101.926L108.152 101.928ZM167.031 114.764C170.554 115.379 173.831 119.576 173.026 124.207C172.542 126.986 170.364 129.086 167.399 128.569C163.876 127.954 160.645 123.481 161.45 118.851C161.884 116.35 163.974 114.232 167.031 114.764Z" fill="#FBFF33"/>
  </g>
</svg>