<?xml version="1.0" encoding="utf-8"?>
<svg width="89" height="91" viewBox="0 0 89 91" fill="none" xmlns="http://www.w3.org/2000/svg">
  <path d="M83.3779 61.0984C76.1508 72.8104 63.6827 76.9619 57.6021 78.9906C51.409 81.0506 44.9087 82.0022 38.255 81.8244H37.8864L37.5896 82.0545C33.3004 85.5472 28.2026 88.0569 22.8489 89.2803C18.1912 90.3574 13.2981 90.4725 8.5893 89.6359L19.9519 76.9096L18.9078 76.2403C13.595 72.8627 4.20804 65.344 1.0654 52.9314C-4.0529 32.7074 10.0531 12.4624 26.6467 4.56727C32.717 1.68111 39.3298 0.321686 45.9119 0.321686C61.6251 0.321686 77.0926 8.05995 84.2378 21.2045C90.8916 33.4498 90.5435 49.4806 83.3779 61.0984Z" style="fill: rgb(255, 46, 0);"/>
  <path d="M48.2238 14.656C64.0958 14.656 75.3598 24.128 75.3598 38.208C75.3598 49.472 68.0638 57.28 59.9358 57.28C55.4558 57.28 52.9598 55.04 52.3838 50.752C49.9518 54.08 45.9198 56.576 41.1198 56.576C35.0398 56.576 29.9838 51.712 29.9838 43.904C29.9838 34.048 36.6398 26.56 45.8558 26.56C50.7838 26.56 52.8958 28.992 54.5598 28.992C56.3518 28.992 57.8238 27.072 59.1678 27.072C60.1278 27.072 60.7038 27.776 60.5758 28.928L58.7198 46.144C58.5918 47.552 58.3998 49.024 58.3998 49.6C58.3998 51.264 59.1038 52.736 60.8958 52.736C65.0558 52.736 68.7038 46.784 68.7038 38.656C68.7038 26.56 60.0638 18.816 47.4558 18.816C33.6318 18.816 22.6238 29.056 22.6238 44.16C22.6238 55.232 30.6878 63.232 44.2558 63.232C52.1918 63.232 55.3918 61.248 56.8638 61.248C57.4398 61.248 58.3358 61.696 58.3358 62.72C58.3358 63.872 57.5678 64.64 55.5838 65.536C53.0238 66.624 48.0958 67.648 42.6558 67.648C26.3358 67.648 15.3918 58.304 15.3918 44.736C15.3918 27.264 29.5358 14.656 48.2238 14.656ZM44.7678 51.456C48.3518 51.456 51.8718 48.448 52.4478 43.136C52.5758 41.536 52.8318 39.744 52.8318 38.848C52.8318 34.176 49.8238 30.336 45.7278 30.336C40.2878 30.336 37.5358 36.224 37.5358 41.792C37.5358 47.936 40.7998 51.456 44.7678 51.456Z" style="fill: rgb(255, 255, 255);"/>
</svg>