<svg width="52" height="41" viewBox="0 0 52 41" fill="none" xmlns="http://www.w3.org/2000/svg">
<g clip-path="url(#clip0_759_92)">
<path d="M24.3268 0.0531856C22.9351 0.0910841 21.5434 0.136562 20.1517 0.155512C20.1593 0.155512 20.1631 0.151722 20.1669 0.144142C19.9849 0.151722 19.7953 0.155512 19.6057 0.159301C19.4123 0.166881 19.2189 0.166881 19.0255 0.166881C18.8966 0.166881 18.7714 0.166881 18.6425 0.166881C18.3884 0.166881 18.1306 0.166881 17.8765 0.159301C17.7665 0.155512 17.6528 0.155512 17.5428 0.151722C17.4328 0.147932 17.3191 0.144142 17.2129 0.144142C15.734 0.110033 14.5054 0.0266567 13.474 0.00391759C13.4626 0.00012774 13.4512 0.00012774 13.4436 0.00391759C13.2957 -0.00366211 13.1478 -0.00366211 13.0075 -0.00366211C12.0444 -0.00366211 11.5893 0.564815 11.5893 1.1295C11.5893 3.51332 15.7871 1.98222 15.7871 5.77965L15.7985 10.6534L15.8174 19.9537L15.825 22.7051L15.8326 25.7673L15.844 31.5847C15.844 34.7379 14.3613 36.9928 11.9116 37.6674C11.4073 37.8077 10.865 37.8797 10.2848 37.8797C8.28644 37.8797 6.83788 37.1255 5.87091 35.3405C5.1618 34.033 4.71055 32.1759 4.4944 29.6557C4.38064 28.6362 3.87251 28.1246 3.13306 28.1246C2.51116 28.1246 1.88548 28.6931 1.60107 29.5988C0.410371 33.1158 0.012207 35.2723 0.012207 36.178C0.012207 37.2127 0.721319 38.1487 1.87789 38.9105C2.69697 39.4525 3.74737 39.9072 4.92669 40.2521C6.5459 40.7296 8.41158 40.9987 10.2848 40.9987C11.9913 40.9987 13.5953 40.7827 15.0211 40.3279C18.9117 39.0924 21.5207 36.106 21.5207 30.9632L21.5093 25.7673L21.5017 22.7051L21.4638 5.77965V5.74933C21.4865 1.9898 25.2634 3.33519 25.2634 1.1295C25.2634 0.663351 24.9942 0.1972 24.3268 0.0493958V0.0531856Z" fill="#ACD2ED"/>
<path d="M39.0096 34.4497L38.8655 34.0897L29.5902 11.0853C28.5132 8.30356 27.3794 5.41191 26.5831 3.20243C26.5717 3.17211 26.5641 3.14558 26.5565 3.11905C25.9157 1.26202 25.6123 0.416888 24.8653 0.0379028C24.6871 0.0416927 24.505 0.0492724 24.3268 0.0530622C22.9351 0.0909607 21.5435 0.136439 20.1518 0.155388C19.4995 0.591221 19.181 1.46668 18.5819 3.20243C17.8993 5.25653 16.8679 7.90184 15.8592 10.4979C15.8402 10.5509 15.8175 10.604 15.7985 10.6571L15.8175 19.9574L15.8592 19.855L21.4638 5.753L21.5321 5.58245L21.5435 5.61277L28.0582 21.9167C28.2288 22.3677 28.0013 22.7088 27.3225 22.7088H15.8251L15.8326 25.771H28.4564C29.3627 25.771 29.6471 25.9984 29.9315 26.7942L32.9385 34.1655C33.223 34.8477 33.3367 35.3555 33.3367 35.8671C33.3367 36.2575 33.1926 36.5493 32.9613 36.7843C32.0133 37.7431 29.5902 37.6976 29.5902 39.1567C29.5902 39.8313 30.0452 40.2217 30.8491 40.3202C34.8801 40.0701 38.4825 39.0582 41.4896 37.402C40.6402 36.9131 39.6808 36.1703 39.0096 34.4497ZM12.7459 38.0501C12.4994 37.9099 12.2075 37.7886 11.9117 37.6711C11.4073 37.8113 10.8651 37.8833 10.2849 37.8833C8.28648 37.8833 6.83792 37.1292 5.87095 35.3441C4.44135 37.9705 2.18509 37.4665 1.87793 38.9142C2.69701 39.4561 3.74741 39.9109 4.92673 40.2558C5.53346 40.2141 6.23499 40.1762 7.06165 40.1762C8.87804 40.1762 10.3531 40.3467 11.8282 40.3467C12.1809 40.3467 12.4843 40.305 12.7308 40.2217C13.2465 40.0473 13.5309 39.6911 13.5309 39.1567C13.5309 38.6224 13.2048 38.3116 12.7459 38.0501Z" fill="#ACD2ED"/>
<path d="M27.6638 5.66943e-06C26.731 5.66943e-06 25.7981 0.0151651 24.8653 0.0379042C24.6871 0.041694 24.5051 0.0492737 24.3268 0.0530636C22.9351 0.0909621 21.5435 0.13644 20.1518 0.155389C19.9698 0.159179 19.7878 0.162969 19.6057 0.159179C19.4123 0.166759 19.2189 0.166759 19.0256 0.166759C18.8966 0.166759 18.7715 0.166759 18.6426 0.166759C18.3885 0.166759 18.1306 0.166759 17.8766 0.159179C17.7666 0.155389 17.6528 0.155389 17.5429 0.1516C17.4329 0.14781 17.3191 0.14402 17.213 0.14402C15.681 0.0947519 14.3007 -0.00378418 13.6484 -0.00378418C13.5878 -0.00378418 13.5309 -0.00378418 13.474 0.00379552C13.4626 5.66943e-06 13.4512 5.66943e-06 13.4437 0.00379552C12.4577 0.0606433 12.0596 0.549534 12.0596 1.18623C12.0596 3.34265 15.8592 1.9821 15.8592 5.77953V34.6468C15.8592 37.4172 13.8418 37.4172 12.7459 38.0463C12.3402 38.2775 12.0596 38.5996 12.0596 39.1833C12.0596 39.638 12.2605 40.017 12.7308 40.2179C12.9659 40.3202 13.2692 40.3771 13.6484 40.3771C13.9594 40.3771 14.4372 40.3543 15.0212 40.3278C16.0298 40.2747 17.3457 40.2065 18.6426 40.2065C22.044 40.2065 25.4493 40.3771 28.8545 40.3771C29.5295 40.3771 30.1969 40.3581 30.8491 40.3164C34.8801 40.0663 38.4825 39.0544 41.4896 37.3982C47.4242 34.1314 51.0418 28.3443 51.0418 20.9238C51.0418 9.01606 41.9636 5.66943e-06 27.6638 5.66943e-06ZM38.8655 34.0897C37.216 35.3517 35.2403 36.2689 32.9613 36.7843C31.5696 37.0988 30.068 37.2618 28.4564 37.2618H26.6969C22.6697 37.2618 21.5359 36.5796 21.5359 34.4801V5.89701C21.5359 5.79848 21.5397 5.70373 21.5435 5.61277C21.6459 3.81259 22.7797 3.13421 26.5565 3.11905H27.6069C38.5584 3.11905 44.8001 10.604 44.8001 20.3022C44.8001 26.2864 42.7296 31.1336 38.8655 34.0897Z" fill="#ACD2ED"/>
</g>
<defs>
<clipPath id="clip0_759_92">
<rect width="51.0295" height="41.0024" fill="white" transform="translate(0.012207)"/>
</clipPath>
</defs>
</svg>
