<svg width="864" height="1223" viewBox="0 0 864 1223" fill="none" xmlns="http://www.w3.org/2000/svg">
<rect width="864" height="1223" fill="#0000FF"/>
<path d="M368.04 702.201C365.289 703.48 362.67 704.502 360.051 704.886C357.431 705.269 354.681 705.653 351.538 705.653C344.727 705.653 339.489 703.48 335.56 699.133C331.631 694.787 329.797 689.546 329.797 683.411H329.273C324.951 690.697 318.534 696.449 310.021 700.795C301.508 705.141 291.948 707.314 281.339 707.314C272.826 707.314 265.361 706.036 258.944 703.48C252.526 700.923 247.157 697.472 242.835 693.253C238.644 689.035 235.37 684.305 233.274 678.937C231.048 673.568 230 668.071 230 662.575C230 657.973 230.786 653.115 232.488 647.874C234.191 642.761 237.072 637.904 241.132 633.685C245.192 629.339 250.693 625.632 257.503 622.564C264.313 619.497 272.826 617.707 283.042 617.068L328.487 614.511V603.902C328.487 600.322 328.095 596.488 327.178 592.397C326.261 588.434 324.166 584.855 320.891 581.787C318.272 579.486 315.129 577.697 311.331 576.291C307.533 574.885 302.556 574.245 296.4 574.245C289.459 574.245 283.959 575.012 279.637 576.674C275.315 578.336 271.91 580.381 269.29 582.81C264.313 587.667 261.956 593.42 261.956 600.322H237.465C237.596 593.675 238.906 587.795 241.132 582.938C243.359 578.08 246.502 573.734 250.431 569.899C255.539 564.658 262.218 560.824 270.338 558.267C278.458 555.71 287.233 554.432 296.4 554.432C310.938 554.432 322.463 557.117 330.976 562.357C339.489 567.598 345.513 574.245 349.049 582.299C352.062 588.818 353.502 596.36 353.502 604.669V675.102C353.502 678.937 354.288 681.493 355.729 682.899C357.169 684.305 359.265 684.945 361.753 684.945C362.932 684.945 364.242 684.817 365.813 684.433C366.599 684.433 367.385 684.433 368.171 684.178V702.329L368.04 702.201ZM328.226 633.43L288.15 635.731C284.351 635.986 280.553 636.498 276.624 637.648C272.695 638.671 269.159 640.205 266.016 642.25C262.873 644.295 260.253 646.852 258.42 650.175C256.455 653.499 255.408 657.334 255.408 661.936C255.408 668.455 257.634 674.207 262.218 679.32C266.671 684.433 274.267 686.99 284.875 686.99C290.638 686.99 296.139 686.095 301.508 684.178C306.878 682.26 311.593 679.32 315.522 675.23C320.106 670.883 323.249 665.77 325.213 660.018C327.178 654.266 328.226 648.258 328.226 642.122V633.43Z" fill="white"/>
<path d="M514.877 654.777C514.353 662.702 512.519 669.605 509.507 675.485C506.626 681.493 502.566 686.862 497.458 691.591C492.219 696.577 485.933 700.412 478.861 703.224C471.788 706.036 463.668 707.442 454.37 707.442C440.88 707.442 429.617 704.758 420.973 699.517C412.198 694.276 405.257 687.757 399.887 680.087C395.958 674.335 392.946 667.432 390.719 659.379C388.493 651.326 387.445 641.866 387.445 630.873C387.445 619.88 388.493 610.421 390.719 602.368C392.946 594.314 395.958 587.412 399.887 581.659C405.126 573.99 412.198 567.47 420.842 562.23C429.486 556.989 440.618 554.304 454.108 554.304C463.013 554.304 471.003 555.71 478.075 558.395C485.278 561.079 491.433 564.914 496.541 569.899C501.649 574.757 505.709 580.125 508.721 586.133C511.733 592.141 513.567 599.172 514.222 607.225H488.814C488.29 602.24 486.98 597.894 485.147 594.187C483.313 590.48 480.956 587.284 478.206 584.599C475.193 581.915 471.657 579.742 467.597 578.08C463.537 576.418 458.954 575.651 453.977 575.651C448.214 575.651 443.368 576.546 439.308 578.336C435.248 580.125 431.45 582.426 428.176 585.111C422.283 590.096 418.354 596.743 416.258 604.924C414.163 613.233 413.115 621.797 413.115 630.745C413.115 639.693 414.163 648.386 416.258 656.567C418.354 664.875 422.283 671.395 428.176 676.38C431.45 679.064 435.248 681.365 439.308 683.155C443.499 684.944 448.345 685.839 453.977 685.839C459.084 685.839 463.799 684.944 468.252 683.283C472.705 681.621 476.372 679.192 479.253 676.124C482.004 673.44 484.23 670.372 485.933 666.921C487.635 663.469 488.683 659.379 489.338 654.521H514.746L514.877 654.777Z" fill="white"/>
<path d="M633.087 701.69C629.813 702.585 625.622 703.48 620.907 704.375C616.061 705.269 610.299 705.653 603.357 705.653C595.237 705.653 588.689 704.502 583.319 702.201C577.95 699.901 573.89 696.96 570.747 693.253C567.734 689.674 565.508 685.456 564.329 680.599C563.02 675.741 562.365 671.011 562.365 666.282V579.103H533.421V558.139H562.365V521.069L587.379 515.317V558.139H631.646V579.103H587.379V663.597C587.379 670.756 588.951 675.869 592.225 678.937C595.499 682.005 600.476 683.539 607.417 683.539C610.168 683.539 613.049 683.411 615.93 683.155C618.812 682.899 621.562 682.516 624.181 682.132C627.194 682.005 630.075 681.621 632.956 680.982V701.69H633.087Z" fill="white"/>
</svg>
