<svg width="864" height="815" viewBox="0 0 864 815" fill="none" xmlns="http://www.w3.org/2000/svg">
<rect width="864" height="815" fill="#DAD8CC"/>
<path d="M271.066 441.715V436.671H279.111V441.149C279.111 442.019 279.401 442.294 280.256 442.294H290.938C291.808 442.294 292.083 442.005 292.083 441.149V436.337C292.083 435.076 291.634 434.728 290.127 434.38L279.444 432.09C274.4 431.003 271.168 428.989 271.168 423.814V417.625C271.168 412.161 273.762 409.581 279.212 409.581H291.619C297.084 409.581 299.664 412.161 299.664 417.625V422.22H291.619V418.205C291.619 417.35 291.33 417.06 290.474 417.06H280.604C279.734 417.06 279.459 417.35 279.459 418.205V422.568C279.459 423.829 279.908 424.176 281.415 424.524L292.098 426.814C297.156 427.916 300.374 429.916 300.374 435.091V441.744C300.374 447.208 297.794 449.788 292.33 449.788H279.125C273.661 449.788 271.081 447.208 271.081 441.744" fill="#B45F26"/>
<path d="M308.984 441.715V417.611C308.984 412.146 311.564 409.566 317.028 409.566H330.349C335.798 409.566 338.393 412.146 338.393 417.611V424.148H330.117V418.292C330.117 417.422 329.827 417.147 328.972 417.147H318.405C317.536 417.147 317.26 417.437 317.26 418.292V441.033C317.26 441.903 317.536 442.179 318.405 442.179H328.972C329.841 442.179 330.117 441.903 330.117 441.033V435.178H338.393V441.729C338.393 447.194 335.798 449.774 330.349 449.774H317.028C311.564 449.774 308.984 447.194 308.984 441.729" fill="#B45F26"/>
<path d="M347.22 409.566H355.496V425.409H369.73V409.566H378.006V449.745H369.73V432.989H355.496V449.745H347.22V409.566Z" fill="#B45F26"/>
<path d="M386.036 409.566H394.646L400.907 439.077L408.314 409.566H415.315L422.721 439.077L428.983 409.566H437.259L427.142 449.745H418.416L411.821 423.568L405.212 449.745H396.081L386.036 409.566Z" fill="#B45F26"/>
<path d="M461.204 433.453L456.435 416.567L451.666 433.453H461.189H461.204ZM463.334 441.033H449.55L447.086 449.759H438.361L450.594 409.566H462.653L474.886 449.759H465.813L463.349 441.033H463.334Z" fill="#B45F26"/>
<path d="M502.933 442.28C503.788 442.28 504.078 441.99 504.078 441.135V433.902C504.078 433.033 503.788 432.757 502.933 432.757H491.106V442.294H502.933V442.28ZM502.469 425.64C503.339 425.64 503.615 425.351 503.615 424.495V418.176C503.615 417.306 503.325 417.031 502.469 417.031H491.106V425.64H502.469ZM482.83 409.566H503.846C509.296 409.566 511.876 412.146 511.876 417.611V423.002C511.876 425.698 510.905 427.771 508.267 429.206C511.137 430.467 512.34 432.699 512.34 435.41V441.729C512.34 447.194 509.76 449.774 504.296 449.774H482.83V409.581V409.566Z" fill="#B45F26"/>
<path d="M521.225 409.566H548.257V417.132H529.487V425.467H544.706V432.931H529.487V442.179H548.257V449.745H521.225V409.566Z" fill="#B45F26"/>
<path d="M557.055 409.566H565.665L580.884 435.453V409.566H588.914V449.745H580.884L565.085 422.944V449.745H557.055V409.566Z" fill="#B45F26"/>
<path d="M309.477 491.43V467.326C309.477 461.862 312.057 459.282 317.521 459.282H331.349C336.813 459.282 339.393 461.862 339.393 467.326V472.602H331.131V468.007C331.131 467.138 330.841 466.862 329.986 466.862H318.898C318.028 466.862 317.753 467.152 317.753 468.007V490.749C317.753 491.619 318.028 491.894 318.898 491.894H329.986C330.856 491.894 331.131 491.604 331.131 490.749V484.545H323.551V477.313H339.393V491.43C339.393 496.895 336.813 499.475 331.349 499.475H317.521C312.057 499.475 309.477 496.895 309.477 491.43Z" fill="#B45F26"/>
<path d="M368.657 483.168L363.888 466.283L359.12 483.168H368.643H368.657ZM370.788 490.749H357.004L354.54 499.475H345.814L358.047 459.282H370.107L382.34 499.475H373.266L370.802 490.749H370.788Z" fill="#B45F26"/>
<path d="M389.935 459.282H398.211V491.894H415.532V499.475H389.935V459.282Z" fill="#B45F26"/>
<path d="M424.548 459.282H451.594V466.862H432.824V475.182H448.029V482.647H432.824V491.894H451.594V499.475H424.548V459.282Z" fill="#B45F26"/>
<path d="M481.713 477.95C482.583 477.95 482.858 477.661 482.858 476.805V467.906C482.858 467.051 482.583 466.761 481.713 466.761H470.176V477.95H481.713ZM492.396 499.475H483.496L476.829 485.285H470.176V499.475H461.899V459.282H483.09C488.555 459.282 491.135 461.862 491.135 467.326V477.023C491.135 481.56 489.352 484.14 485.569 484.835L492.396 499.475Z" fill="#B45F26"/>
<path d="M510.847 459.282H502.571V499.475H510.847V459.282Z" fill="#B45F26"/>
<path d="M521.225 459.282H548.257V466.862H529.487V475.182H544.706V482.647H529.487V491.894H548.257V499.475H521.225V459.282Z" fill="#B45F26"/>
<path d="M631.122 398.29V405.261H680.272L655.414 454.426L680.272 503.591H631.122V510.549H691.592L663.227 454.426L691.592 398.29H631.122Z" fill="#B45F26"/>
<path d="M173.084 398.29L201.464 454.426L173.084 510.549H233.541V503.591H184.405L209.262 454.426L184.405 405.261H233.541V398.29H173.084Z" fill="#B45F26"/>
<path d="M383.021 367.126V358.285L395.501 345.052V353.893L383.021 367.126ZM395.501 327.368V336.21L383.021 349.443V340.602L395.501 327.368ZM364.164 353.879V345.037L376.644 358.27V367.112L364.164 353.879ZM364.164 327.368L376.644 340.602V349.443L364.164 336.21V327.368ZM401.878 375.954V296.408H395.501V318.512L383.021 331.746V283.146H376.644V331.746L364.164 318.512V296.408H357.786V375.954H364.164V363.083L376.644 375.954H383.021L395.501 363.083V375.954H401.878Z" fill="#B45F26"/>
<path d="M488.874 367.126V358.285L501.353 345.052V353.893L488.874 367.126ZM501.353 327.368V336.21L488.874 349.443V340.602L501.353 327.368ZM470.016 353.879V345.037L482.496 358.27V367.112L470.016 353.879ZM470.016 327.368L482.496 340.602V349.443L470.016 336.21V327.368ZM507.731 375.954V296.408H501.353V318.512L488.874 331.746V283.146H482.511V331.746L470.031 318.512V296.408H463.653V375.954H470.031V363.083L482.511 375.954H488.874L501.353 363.083V375.954H507.731Z" fill="#B45F26"/>
<path d="M448.434 300.873L435.955 314.106V305.279L448.434 292.046V300.887V300.873ZM448.434 318.556L435.955 331.789V322.948L448.434 309.714V318.556ZM448.434 336.224L435.955 349.458V340.616L448.434 327.745V336.21V336.224ZM448.434 353.908L435.955 367.141V358.299L448.434 345.066V353.908ZM429.577 314.106L417.098 300.873V292.031L429.577 305.264V314.092V314.106ZM429.577 331.789L417.098 318.556V309.714L429.577 322.948V331.789ZM429.577 349.458L417.098 336.224V327.76L429.577 340.631V349.472V349.458ZM429.577 367.141L417.098 353.908V345.066L429.577 358.299V367.141ZM448.434 261.086V283.19L435.955 296.423V247.823H429.577V296.423L417.098 283.19V261.086H410.72V375.983H417.098V363.112L429.577 375.983H435.955L448.434 363.112V375.983H454.812V261.086H448.434Z" fill="#B45F26"/>
<path d="M615.424 517.172H249.252V391.68H615.424V517.172ZM242.382 524.043H622.294V384.81H242.382V524.043Z" fill="#B45F26"/>
<path d="M320.565 557.728C320.565 558.786 320.826 559.583 321.347 560.134C321.869 560.684 322.579 560.974 323.449 560.974C324.145 560.974 324.696 560.8 325.101 560.453C325.507 560.105 325.71 559.626 325.71 559.003C325.71 558.38 325.435 557.873 324.87 557.51C324.304 557.148 323.435 556.728 322.232 556.249C321.188 555.829 320.173 555.409 319.202 555.003C318.231 554.582 317.376 554.09 316.637 553.524C315.898 552.959 315.318 552.278 314.883 551.495C314.448 550.712 314.231 549.727 314.231 548.538C314.231 547.35 314.492 546.35 314.999 545.509C315.506 544.668 316.202 543.972 317.043 543.436C317.898 542.9 318.869 542.509 319.941 542.262C321.029 542.016 322.145 541.885 323.304 541.885C324.986 541.885 326.391 542.103 327.537 542.537C328.667 542.972 329.595 543.552 330.29 544.262C330.986 544.973 331.494 545.784 331.798 546.668C332.102 547.567 332.262 548.466 332.262 549.35H325.435C325.435 547.451 324.681 546.494 323.174 546.494C322.608 546.494 322.116 546.639 321.695 546.929C321.275 547.219 321.072 547.669 321.072 548.306C321.072 548.901 321.333 549.393 321.855 549.785C322.377 550.176 323.174 550.567 324.217 550.93C325.203 551.278 326.189 551.654 327.189 552.046C328.189 552.437 329.087 552.915 329.885 553.495C330.682 554.061 331.32 554.756 331.812 555.582C332.305 556.409 332.552 557.394 332.552 558.583C332.552 559.771 332.334 560.815 331.899 561.757C331.465 562.699 330.841 563.496 330.03 564.12C329.218 564.757 328.232 565.236 327.073 565.584C325.913 565.917 324.609 566.091 323.159 566.091C321.71 566.091 320.42 565.902 319.26 565.526C318.101 565.149 317.101 564.627 316.289 563.917C315.463 563.221 314.839 562.351 314.39 561.308C313.941 560.264 313.723 559.076 313.723 557.713H320.55L320.565 557.728Z" fill="#B45F26"/>
<path d="M345.292 548.35H340.552V542.509H356.83V548.35H352.119V565.468H345.292V548.35Z" fill="#B45F26"/>
<path d="M365.135 542.509H371.962V557.438C371.962 558.22 372.223 558.902 372.745 559.467C373.266 560.032 373.933 560.322 374.716 560.322C375.542 560.322 376.223 560.032 376.731 559.467C377.252 558.902 377.499 558.22 377.499 557.438V542.509H384.326V557.496C384.326 558.742 384.108 559.902 383.673 560.945C383.238 562.003 382.601 562.917 381.76 563.67C380.934 564.439 379.919 565.033 378.745 565.453C377.557 565.888 376.223 566.105 374.716 566.105C373.208 566.105 371.889 565.888 370.715 565.453C369.541 565.033 368.527 564.439 367.701 563.67C366.86 562.902 366.237 561.989 365.787 560.945C365.352 559.902 365.135 558.757 365.135 557.496V542.509Z" fill="#B45F26"/>
<path d="M397.327 548.35H392.587V542.509H408.865V548.35H404.154V565.468H397.327V548.35Z" fill="#B45F26"/>
<path d="M422.156 548.35H417.431V542.509H433.708V548.35H428.983V565.468H422.156V548.35Z" fill="#B45F26"/>
<path d="M453.594 552.742H466.523V557.235H464.32C464.103 558.539 463.697 559.742 463.088 560.844C462.479 561.931 461.711 562.873 460.74 563.656C459.783 564.439 458.624 565.033 457.276 565.453C455.928 565.888 454.42 566.106 452.725 566.106C450.753 566.106 449.014 565.787 447.492 565.134C445.97 564.482 444.695 563.612 443.651 562.525C442.607 561.424 441.825 560.148 441.288 558.67C440.752 557.191 440.477 555.641 440.477 554.003C440.477 552.365 440.752 550.915 441.303 549.451C441.854 547.988 442.651 546.712 443.695 545.581C444.753 544.451 446.028 543.567 447.536 542.9C449.057 542.233 450.768 541.9 452.696 541.9C454.362 541.9 455.87 542.132 457.218 542.581C458.566 543.045 459.74 543.668 460.725 544.451C461.711 545.234 462.479 546.147 463.074 547.19C463.653 548.234 464.001 549.336 464.103 550.481H456.566C456.493 550.162 456.363 549.828 456.189 549.495C456 549.162 455.754 548.872 455.421 548.611C455.087 548.35 454.696 548.132 454.217 547.973C453.754 547.799 453.217 547.727 452.623 547.727C451.71 547.727 450.913 547.915 450.261 548.277C449.608 548.64 449.072 549.118 448.652 549.698C448.231 550.292 447.941 550.973 447.739 551.727C447.536 552.495 447.449 553.278 447.449 554.09C447.449 554.988 447.565 555.829 447.796 556.597C448.014 557.365 448.376 558.047 448.84 558.626C449.304 559.206 449.898 559.656 450.594 559.989C451.29 560.308 452.116 560.482 453.058 560.482C454.348 560.482 455.348 560.163 456.058 559.554C456.768 558.931 457.218 558.163 457.392 557.235H453.58V552.742H453.594Z" fill="#B45F26"/>
<path d="M483.945 549.393L481.699 557.235H486.192L483.945 549.393ZM488.569 565.468L487.598 562.192H480.264L479.293 565.468H471.901L480.365 542.494H487.511L496.179 565.468H488.569Z" fill="#B45F26"/>
<path d="M514.108 554.322C515.021 554.322 515.761 554.003 516.326 553.365C516.877 552.727 517.167 551.973 517.167 551.075C517.167 550.176 516.891 549.408 516.34 548.77C515.79 548.132 515.065 547.828 514.152 547.828H511.296V554.322H514.123H514.108ZM504.47 542.509H515.5C516.804 542.509 517.993 542.741 519.051 543.19C520.109 543.654 521.022 544.277 521.776 545.045C522.53 545.828 523.109 546.741 523.515 547.77C523.921 548.814 524.124 549.901 524.124 551.06C524.124 552.626 523.747 554.075 523.008 555.394C522.269 556.713 521.24 557.742 519.921 558.481L524.515 565.468H516.471L512.557 559.598H511.282V565.468H504.455V542.494L504.47 542.509Z" fill="#B45F26"/>
<path d="M536.894 548.35H532.168V542.509H548.431V548.35H543.72V565.468H536.894V548.35Z" fill="#B45F26"/>
</svg>
