<svg width="191" height="35" viewBox="0 0 191 35" fill="none" xmlns="http://www.w3.org/2000/svg">
<path d="M9.63608 12.5656C9.87159 12.5656 10.0875 12.7422 10.0875 13.0562C10.0875 13.3702 9.93046 13.7235 9.81271 14.0375L9.12582 15.6664C9.00807 15.9215 8.83144 16.4121 8.39968 16.4121C7.98755 16.4121 7.90904 16 7.39878 16H2.88494C2.06067 16 1.37378 16.0589 1.0009 16.0589C0.549512 16.0589 0.333632 15.843 0.333632 15.5486C0.333632 15.3524 0.451385 15.1757 0.569137 14.9991L6.31939 7.48257H4.5531C3.43445 7.48257 2.66906 7.95358 1.80554 8.9741C1.58966 9.22923 1.3934 9.38623 1.17753 9.38623C0.961646 9.38623 0.745766 9.2096 0.745766 8.91522C0.745766 8.60122 0.902769 8.28721 1.02052 7.99283L1.62891 6.54055C1.74666 6.26579 1.88404 5.87328 2.27655 5.87328C2.70831 5.87328 2.74756 6.28542 3.23819 6.28542H7.04553C7.9483 6.28542 8.55668 6.22654 8.92957 6.22654C9.40058 6.22654 9.59683 6.42279 9.59683 6.71718C9.59683 6.8938 9.51833 7.05081 9.40058 7.18819L3.6307 14.7832H5.57362C7.04553 14.7832 7.98755 14.2337 8.96882 12.9973C9.16507 12.7618 9.36133 12.5656 9.63608 12.5656ZM21.2008 13.2132C21.2008 14.43 22.7709 14.2141 22.7709 14.901C22.7709 15.3524 22.3587 15.5486 20.9064 15.8626C19.9252 16.0981 19.5719 16.157 19.356 16.157C18.9635 16.157 18.8458 15.7841 18.8458 15.4309V14.3318C18.2178 15.372 17.1384 16.2355 15.4898 16.2355C13.3507 16.2355 12.1535 14.8225 12.1535 12.4478V9.22923C12.1535 8.01245 10.6423 8.42459 10.6423 7.67882C10.6423 7.26669 11.0545 7.05081 12.389 6.5798C13.5469 6.16766 13.802 6.12841 13.9787 6.12841C14.4497 6.12841 14.5086 6.56017 14.5086 6.95268V11.8983C14.5086 13.4879 14.9992 14.4103 16.4318 14.4103C17.629 14.4103 18.8458 13.5468 18.8458 11.5843V9.22923C18.8458 8.01245 17.158 8.46384 17.158 7.67882C17.158 7.26669 17.5897 7.07043 19.0813 6.56017C20.1803 6.18729 20.5336 6.12841 20.6906 6.12841C21.1419 6.12841 21.2008 6.56017 21.2008 6.95268V13.2132ZM38.876 13.1347C38.876 14.3515 40.2694 13.9393 40.2694 14.7243C40.2694 15.1365 39.8572 15.3524 38.562 15.7841C37.4629 16.1766 37.1882 16.2355 37.0312 16.2355C36.5405 16.2355 36.5209 15.7252 36.5209 15.4112V14.3907C35.7948 15.4701 34.5976 16.2748 32.9491 16.2748C30.5352 16.2748 28.4941 14.43 28.4941 11.2899C28.4941 8.18908 30.6922 5.99104 33.5575 5.99104C34.8331 5.99104 35.8144 6.40317 36.5209 7.05081V4.24437C36.5209 3.0276 34.9705 3.67524 34.9705 2.79209C34.9705 2.43883 35.4023 2.20333 36.7172 1.63419C37.8358 1.16318 38.1891 1.08468 38.3657 1.08468C38.7778 1.08468 38.876 1.47719 38.876 1.90895V13.1347ZM33.9696 14.587C35.2453 14.587 36.5209 13.5664 36.5209 11.7217V10.7404C36.5209 8.64047 35.049 7.22744 33.5967 7.22744C31.9874 7.22744 30.9865 8.60122 30.9865 10.5834C30.9865 13.0758 32.4781 14.587 33.9696 14.587ZM50.5421 13.3113C50.8168 13.3113 50.9934 13.5664 50.9934 13.802C50.9934 13.9393 50.9346 14.0963 50.7972 14.2926C50.1103 15.3131 48.3636 16.3729 46.3226 16.3729C43.4573 16.3729 41.2004 14.43 41.2004 11.1918C41.2004 8.01245 43.5947 5.89291 46.3422 5.89291C48.9328 5.89291 50.6009 7.8162 50.6009 9.73949C50.6009 10.2301 50.4439 10.3479 50.1103 10.446L44.0068 12.2908C44.5955 13.7038 45.7927 14.744 47.3235 14.744C48.3833 14.744 49.286 14.2926 49.9729 13.6449C50.228 13.4094 50.3654 13.3113 50.5421 13.3113ZM46.0086 7.20781C44.6348 7.20781 43.6143 8.40496 43.6143 10.289C43.6143 10.5834 43.6339 10.8581 43.6732 11.1329L47.6571 9.87687C47.9907 9.77874 48.1085 9.66099 48.1085 9.30773C48.1085 8.36571 47.245 7.20781 46.0086 7.20781ZM62.549 13.5861C62.7845 15.3916 63.9031 14.8028 63.9031 15.5879C63.9031 15.8822 63.648 16.0589 63.2947 16.0589C62.7845 16.0589 62.3723 16 61.4696 16C60.5276 16 60.1547 16.0589 59.6248 16.0589C59.193 16.0589 58.9771 15.843 58.9771 15.5682C58.9771 14.8617 60.2135 15.2346 60.2135 14.0963C60.2135 13.9197 60.1743 13.6449 60.135 13.3506L59.7229 10.4264C59.5463 9.24886 59.1341 7.91433 57.8192 7.91433C56.7987 7.91433 55.6801 8.71897 55.6801 10.7011V13.802C55.6801 15.3131 56.8969 14.8225 56.8969 15.5879C56.8969 15.8037 56.7202 16.0589 56.3473 16.0589C55.896 16.0589 55.3464 16 54.5025 16C53.6587 16 53.1288 16.0589 52.6774 16.0589C52.2849 16.0589 52.1279 15.8234 52.1279 15.5879C52.1279 14.8225 53.325 15.3131 53.325 13.802V9.32736C53.325 8.09096 51.9709 8.69934 51.9709 7.87508C51.9709 7.52182 52.383 7.26669 53.5998 6.71718C54.7381 6.18729 54.9736 6.12841 55.1502 6.12841C55.5427 6.12841 55.6801 6.44242 55.6801 6.93306V7.9732C56.3081 6.95268 57.3679 6.04991 58.879 6.04991C61.0574 6.04991 61.8032 8.07133 62.0387 9.91612L62.549 13.5861ZM75.2626 1.9482C79.4035 1.9482 81.6212 3.79299 81.6212 6.8153C81.6212 9.54324 79.8549 11.5254 75.2233 11.5254C73.5355 11.5254 73.3982 11.3488 73.3982 11.8002V13.8608C73.3982 15.215 74.9682 14.7047 74.9682 15.5879C74.9682 15.8234 74.8112 16.0589 74.3794 16.0589C73.8495 16.0589 73.1038 16 72.0832 16C71.1609 16 70.6113 16.0589 70.1403 16.0589C69.7086 16.0589 69.5516 15.8234 69.5516 15.5879C69.5516 14.7832 70.8076 15.2346 70.8076 13.8805V4.1855C70.8076 2.83134 69.5516 3.28273 69.5516 2.47809C69.5516 2.24258 69.7478 2.00707 70.1796 2.00707C70.6506 2.00707 71.1609 2.06595 72.0832 2.06595C72.8879 2.06595 74.2224 1.9482 75.2626 1.9482ZM74.9486 10.2105C77.6372 10.2105 78.7559 8.93485 78.7559 6.8153C78.7559 4.46025 77.3625 3.28273 75.0467 3.28273C73.3982 3.28273 73.3982 3.87149 73.3982 4.24437V9.40586C73.3982 10.0142 73.9084 10.2105 74.9486 10.2105ZM89.6834 6.04991C90.6254 6.04991 91.2731 6.56017 91.2731 7.14894C91.2731 7.58069 91.0964 8.18908 90.7628 9.11148C90.6451 9.48436 90.4684 9.70024 90.1544 9.70024C89.86 9.70024 89.7227 9.44511 89.5657 9.1311C89.2713 8.48346 88.9769 8.13021 88.5059 8.13021C87.662 8.13021 86.249 9.40586 86.249 11.9768V13.802C86.249 15.3131 87.7012 14.7636 87.7012 15.5879C87.7012 15.8037 87.5442 16.0589 87.1517 16.0589C86.6611 16.0589 86.0135 16 85.0714 16C84.2276 16 83.6977 16.0589 83.2463 16.0589C82.8538 16.0589 82.6968 15.8234 82.6968 15.5879C82.6968 14.8225 83.8939 15.3131 83.8939 13.802V9.32736C83.8939 8.09096 82.5398 8.69934 82.5398 7.87508C82.5398 7.52182 82.9519 7.26669 84.1687 6.71718C85.3069 6.18729 85.5425 6.12841 85.7191 6.12841C86.1116 6.12841 86.249 6.44242 86.249 6.93306V8.71897C86.877 7.16856 88.2704 6.04991 89.6834 6.04991ZM97.2128 16.3729C93.955 16.3729 91.8355 14.1945 91.8355 11.231C91.8355 8.16946 94.2298 5.89291 97.5072 5.89291C100.745 5.89291 102.865 8.07133 102.865 11.0544C102.865 14.1356 100.431 16.3729 97.2128 16.3729ZM97.6838 15.0972C99.352 15.0972 100.333 13.7627 100.333 11.8002C100.333 9.58249 99.0184 7.16856 97.0362 7.16856C95.368 7.16856 94.3868 8.50309 94.3868 10.4853C94.3868 12.6833 95.682 15.0972 97.6838 15.0972ZM105.79 4.38175C105.084 4.38175 104.534 3.94999 104.534 3.2631C104.534 2.39958 105.437 1.45756 106.595 1.45756C107.301 1.45756 107.91 1.90895 107.91 2.61546C107.91 3.47898 106.948 4.38175 105.79 4.38175ZM105.299 17.8252C105.299 17.3542 105.221 16.8439 105.221 16.1766V9.32736C105.221 8.09096 103.886 8.69934 103.886 7.87508C103.886 7.52182 104.318 7.26669 105.515 6.71718C106.654 6.18729 106.889 6.12841 107.066 6.12841C107.458 6.12841 107.576 6.44242 107.576 6.93306V16.0785C107.576 18.4336 105.79 19.7681 103.945 19.7681C103.042 19.7681 102.787 19.4148 102.768 18.6691C102.748 17.8448 102.925 17.0009 103.455 17.0009C103.671 17.0009 103.769 17.1383 103.906 17.3934C104.259 18.0999 104.534 18.4139 104.868 18.4139C105.103 18.4139 105.299 18.2373 105.299 17.8252ZM118.886 13.3113C119.161 13.3113 119.337 13.5664 119.337 13.802C119.337 13.9393 119.279 14.0963 119.141 14.2926C118.454 15.3131 116.708 16.3729 114.667 16.3729C111.801 16.3729 109.544 14.43 109.544 11.1918C109.544 8.01245 111.939 5.89291 114.686 5.89291C117.277 5.89291 118.945 7.8162 118.945 9.73949C118.945 10.2301 118.788 10.3479 118.454 10.446L112.351 12.2908C112.94 13.7038 114.137 14.744 115.667 14.744C116.727 14.744 117.63 14.2926 118.317 13.6449C118.572 13.4094 118.709 13.3113 118.886 13.3113ZM114.353 7.20781C112.979 7.20781 111.958 8.40496 111.958 10.289C111.958 10.5834 111.978 10.8581 112.017 11.1329L116.001 9.87687C116.335 9.77874 116.452 9.66099 116.452 9.30773C116.452 8.36571 115.589 7.20781 114.353 7.20781ZM130.657 14.3907C131.168 15.1954 132.012 14.9991 132.012 15.6271C132.012 15.9019 131.776 16.0589 131.482 16.0589C130.971 16.0589 130.383 16 129.46 16C128.616 16 128.106 16.0589 127.635 16.0589C127.223 16.0589 126.988 15.9019 126.988 15.5879C126.988 14.9402 127.91 15.1954 127.91 14.4692C127.91 14.2926 127.812 14.0767 127.616 13.7823L125.79 10.8581L123.808 12.5067V13.802C123.808 15.3131 125.025 14.8225 125.025 15.5879C125.025 15.8037 124.848 16.0589 124.475 16.0589C124.024 16.0589 123.475 16 122.631 16C121.787 16 121.257 16.0589 120.825 16.0589C120.413 16.0589 120.256 15.8234 120.256 15.5879C120.256 14.8225 121.453 15.3131 121.453 13.802V4.28362C121.453 3.06685 120.099 3.67524 120.099 2.85097C120.099 2.47809 120.531 2.24258 121.728 1.67344C122.866 1.14356 123.102 1.08468 123.318 1.08468C123.69 1.08468 123.808 1.39869 123.808 1.77157V11.0151L126.929 8.28721C127.243 8.01245 127.439 7.83583 127.439 7.58069C127.439 7.09006 126.595 7.30594 126.595 6.67793C126.595 6.36392 126.811 6.20692 127.223 6.20692C127.616 6.20692 128.302 6.26579 128.832 6.26579C129.362 6.26579 130.324 6.20692 130.756 6.20692C131.07 6.20692 131.305 6.38354 131.305 6.6583C131.305 7.36481 130.186 7.16856 129.284 7.93395L127.459 9.46474L130.657 14.3907ZM139.124 13.7431C139.418 13.7431 139.595 13.9786 139.595 14.2337C139.595 14.5085 139.418 14.8225 139.143 15.0972C138.457 15.8037 137.475 16.2355 136.259 16.2355C134.669 16.2355 133.511 15.3327 133.511 14.2533C133.511 13.8412 133.57 12.33 133.57 10.9759V7.52182H132.392C132.019 7.52182 131.764 7.32556 131.764 7.01156C131.764 6.67793 131.98 6.5013 132.333 6.32467C133.57 5.73591 134.139 5.06864 134.688 3.49861C135.003 2.89022 135.16 2.61546 135.493 2.61546C135.748 2.61546 135.925 2.79209 135.925 3.22385V6.28542H138.967C139.242 6.28542 139.379 6.40317 139.379 6.6583C139.379 6.79568 139.34 7.01156 139.32 7.12931C139.281 7.40407 139.143 7.52182 138.888 7.52182H135.925V12.8207C135.925 14.2926 136.455 14.7047 137.181 14.7047C137.829 14.7047 138.221 14.3515 138.633 14.0178C138.751 13.9001 138.928 13.7431 139.124 13.7431ZM149.551 13.3113C149.826 13.3113 150.002 13.5664 150.002 13.802C150.002 13.9393 149.943 14.0963 149.806 14.2926C149.119 15.3131 147.372 16.3729 145.331 16.3729C142.466 16.3729 140.209 14.43 140.209 11.1918C140.209 8.01245 142.603 5.89291 145.351 5.89291C147.941 5.89291 149.61 7.8162 149.61 9.73949C149.61 10.2301 149.453 10.3479 149.119 10.446L143.015 12.2908C143.604 13.7038 144.801 14.744 146.332 14.744C147.392 14.744 148.295 14.2926 148.982 13.6449C149.237 13.4094 149.374 13.3113 149.551 13.3113ZM145.017 7.20781C143.644 7.20781 142.623 8.40496 142.623 10.289C142.623 10.5834 142.643 10.8581 142.682 11.1329L146.666 9.87687C146.999 9.77874 147.117 9.66099 147.117 9.30773C147.117 8.36571 146.254 7.20781 145.017 7.20781ZM161.558 13.5861C161.793 15.3916 162.912 14.8028 162.912 15.5879C162.912 15.8822 162.657 16.0589 162.303 16.0589C161.793 16.0589 161.381 16 160.478 16C159.536 16 159.163 16.0589 158.633 16.0589C158.202 16.0589 157.986 15.843 157.986 15.5682C157.986 14.8617 159.222 15.2346 159.222 14.0963C159.222 13.9197 159.183 13.6449 159.144 13.3506L158.732 10.4264C158.555 9.24886 158.143 7.91433 156.828 7.91433C155.807 7.91433 154.689 8.71897 154.689 10.7011V13.802C154.689 15.3131 155.906 14.8225 155.906 15.5879C155.906 15.8037 155.729 16.0589 155.356 16.0589C154.905 16.0589 154.355 16 153.511 16C152.667 16 152.137 16.0589 151.686 16.0589C151.294 16.0589 151.137 15.8234 151.137 15.5879C151.137 14.8225 152.334 15.3131 152.334 13.802V9.32736C152.334 8.09096 150.98 8.69934 150.98 7.87508C150.98 7.52182 151.392 7.26669 152.608 6.71718C153.747 6.18729 153.982 6.12841 154.159 6.12841C154.551 6.12841 154.689 6.44242 154.689 6.93306V7.9732C155.317 6.95268 156.377 6.04991 157.888 6.04991C160.066 6.04991 160.812 8.07133 161.047 9.91612L161.558 13.5861Z" fill="#FF2E00"/>
<path d="M189 25L-2.32458e-06 25" stroke="#FF2E00" stroke-width="2.19048"/>
<path d="M182.333 17L188.256 23.346C189.238 24.398 189.238 26.0305 188.256 27.0825L182.333 33.4286" stroke="#FF2E00" stroke-width="2.19048"/>
</svg>
