<svg width="864" height="815" viewBox="0 0 864 815" fill="none" xmlns="http://www.w3.org/2000/svg">
<rect width="864" height="815" fill="white"/>
<g clip-path="url(#clip0_523_2678)">
<path d="M512.586 315.236L512.67 331.255L492.211 312.791L492.155 297.813V296.801L512.586 315.264V315.236ZM512.726 346.008L512.782 356.069L492.324 337.606L492.239 321.644L512.698 340.107V345.98L512.726 346.008ZM539.367 296.548V301.073L539.452 312.566L519.19 331.226L519.105 315.236L539.367 296.576V296.548ZM539.564 337.381L519.302 356.041L519.218 340.079L539.48 321.419L539.564 337.381ZM485.579 282.047L485.692 305.063V306.918L485.86 340.556L485.945 356.575V364.725H492.492L492.408 346.486L512.614 364.725H519.583L539.648 346.261L539.733 364.725H546.252V356.294L546.14 340.275L546.028 313.691L545.915 291.293L545.859 281.766L545.747 254.76H539.227L539.367 287.752L519.105 306.412L518.796 237.87H512.277L512.586 306.44L492.155 287.977L491.987 255.013H485.467L485.579 282.047Z" fill="#1D1D1B"/>
<path d="M234.428 455.917V449.425H244.741V455.186C244.741 456.282 245.107 456.648 246.231 456.648H259.945C261.041 456.648 261.434 456.282 261.434 455.186V449.004C261.434 447.374 260.844 446.952 258.933 446.503L245.219 443.552C238.727 442.147 234.596 439.561 234.596 432.929V424.976C234.596 417.979 237.912 414.663 244.91 414.663H260.844C267.842 414.663 271.158 417.979 271.158 424.976V430.878H260.844V425.707C260.844 424.611 260.479 424.217 259.383 424.217H246.709C245.613 424.217 245.247 424.583 245.247 425.707V431.299C245.247 432.929 245.837 433.351 247.748 433.8L261.462 436.751C267.954 438.156 272.085 440.742 272.085 447.374V455.917C272.085 462.915 268.769 466.231 261.771 466.231H244.826C237.828 466.231 234.512 462.915 234.512 455.917" fill="#1D1D1B"/>
<path d="M281.725 455.917V424.948C281.725 417.951 285.041 414.635 292.038 414.635H309.153C316.15 414.635 319.466 417.951 319.466 424.948V433.351H308.843V425.819C308.843 424.723 308.478 424.358 307.354 424.358H293.781C292.685 424.358 292.319 424.723 292.319 425.819V455.018C292.319 456.114 292.685 456.479 293.781 456.479H307.354C308.45 456.479 308.843 456.114 308.843 455.018V447.486H319.466V455.889C319.466 462.886 316.15 466.203 309.153 466.203H292.038C285.041 466.203 281.725 462.886 281.725 455.889" fill="#1D1D1B"/>
<path d="M329.47 414.635H340.092V434.981H358.359V414.635H368.982V466.231H358.359V444.704H340.092V466.231H329.47V414.635Z" fill="#1D1D1B"/>
<path d="M377.891 414.635H388.963L397 452.517L406.499 414.635H415.492L425.018 452.517L433.056 414.635H443.678L430.695 466.231H419.482L410.995 432.62L402.536 466.231H390.818L377.891 414.635Z" fill="#1D1D1B"/>
<path d="M473.074 445.294L466.948 423.627L460.821 445.294H473.046H473.074ZM475.8 455.018H458.095L454.92 466.231H443.707L459.416 414.606H474.901L490.61 466.231H478.947L475.772 455.018H475.8Z" fill="#1D1D1B"/>
<path d="M525.26 456.648C526.356 456.648 526.749 456.282 526.749 455.186V445.885C526.749 444.789 526.384 444.423 525.26 444.423H510.085V456.676H525.26V456.648ZM524.67 435.262C525.766 435.262 526.131 434.896 526.131 433.8V425.679C526.131 424.583 525.766 424.218 524.67 424.218H510.057V435.262H524.67ZM499.462 414.606H526.44C533.438 414.606 536.754 417.923 536.754 424.92V431.861C536.754 435.318 535.489 437.988 532.117 439.814C535.798 441.444 537.344 444.311 537.344 447.767V455.861C537.344 462.858 534.028 466.174 527.03 466.174H499.462V414.578V414.606Z" fill="#1D1D1B"/>
<path d="M547.377 414.635H582.083V424.358H557.972V435.037H577.531V444.62H557.972V456.507H582.083V466.231H547.377V414.635Z" fill="#1D1D1B"/>
<path d="M592.003 414.635H603.075L622.606 447.88V414.635H632.92V466.231H622.606L602.317 431.805V466.231H592.003V414.635Z" fill="#1D1D1B"/>
<path d="M287.767 615.848C287.767 617.506 288.216 618.799 289.116 619.726C290.015 620.654 291.195 621.131 292.656 621.131C293.781 621.131 294.736 620.794 295.523 620.148C296.282 619.502 296.675 618.63 296.675 617.534C296.675 616.916 296.563 616.41 296.31 615.989C296.057 615.567 295.72 615.202 295.298 614.865C294.877 614.555 294.371 614.274 293.781 614.022C293.19 613.769 292.572 613.516 291.898 613.263C290.493 612.729 289.172 612.223 287.907 611.689C286.643 611.155 285.547 610.537 284.619 609.778C283.692 609.047 282.933 608.148 282.399 607.08C281.837 606.04 281.556 604.748 281.556 603.202C281.556 601.797 281.865 600.561 282.455 599.493C283.045 598.425 283.832 597.525 284.844 596.795C285.828 596.064 286.98 595.53 288.272 595.165C289.565 594.799 290.914 594.631 292.319 594.631C294.118 594.631 295.72 594.884 297.097 595.418C298.474 595.952 299.598 596.654 300.497 597.554C301.396 598.453 302.071 599.493 302.52 600.645C302.97 601.825 303.195 603.062 303.195 604.354H296.113C296.113 602.977 295.776 601.909 295.129 601.123C294.483 600.336 293.528 599.942 292.319 599.942C291.308 599.942 290.436 600.195 289.706 600.729C288.975 601.263 288.61 602.05 288.61 603.09C288.61 604.13 289.003 604.916 289.818 605.507C290.605 606.097 291.673 606.631 292.994 607.108C294.258 607.558 295.523 608.008 296.787 608.542C298.08 609.047 299.204 609.666 300.244 610.424C301.256 611.155 302.099 612.082 302.745 613.122C303.392 614.19 303.729 615.483 303.729 617C303.729 618.518 303.448 619.979 302.886 621.188C302.324 622.424 301.537 623.436 300.497 624.279C299.485 625.094 298.277 625.74 296.872 626.162C295.467 626.583 293.921 626.808 292.235 626.808C290.549 626.808 289.087 626.555 287.682 626.078C286.277 625.6 285.041 624.897 284.001 623.97C282.961 623.042 282.146 621.89 281.584 620.541C280.994 619.192 280.713 617.647 280.713 615.904H287.795L287.767 615.848Z" fill="#1D1D1B"/>
<path d="M321.349 601.516H314.436V595.39H335.372V601.516H328.431V625.993H321.349V601.516Z" fill="#1D1D1B"/>
<path d="M346.781 595.39H353.863V615.483C353.863 616.185 353.975 616.832 354.2 617.478C354.425 618.096 354.762 618.658 355.184 619.108C355.605 619.586 356.111 619.951 356.701 620.232C357.291 620.513 357.938 620.654 358.668 620.654C359.399 620.654 360.045 620.513 360.664 620.232C361.254 619.951 361.76 619.586 362.181 619.108C362.603 618.658 362.94 618.096 363.165 617.478C363.39 616.86 363.502 616.185 363.502 615.483V595.39H370.584V615.539C370.584 617.113 370.303 618.574 369.741 619.951C369.179 621.328 368.392 622.508 367.352 623.52C366.312 624.532 365.076 625.319 363.586 625.909C362.125 626.499 360.467 626.78 358.64 626.78C356.814 626.78 355.156 626.499 353.694 625.909C352.233 625.319 350.996 624.532 349.957 623.52C348.917 622.508 348.13 621.328 347.568 619.951C347.006 618.574 346.753 617.113 346.753 615.539V595.39H346.781Z" fill="#1D1D1B"/>
<path d="M388.907 601.516H382.021V595.39H402.93V601.516H395.988V625.993H388.907V601.516Z" fill="#1D1D1B"/>
<path d="M420.409 601.516H413.496V595.39H434.432V601.516H427.491V625.993H420.409V601.516Z" fill="#1D1D1B"/>
<path d="M462.732 609.806H478.582V615.089H475.434C475.125 616.832 474.563 618.434 473.776 619.839C472.989 621.272 471.949 622.48 470.685 623.52C469.392 624.532 467.903 625.347 466.16 625.909C464.418 626.471 462.479 626.752 460.287 626.752C457.73 626.752 455.453 626.33 453.458 625.431C451.463 624.56 449.777 623.38 448.428 621.918C447.079 620.457 446.039 618.743 445.336 616.804C444.634 614.865 444.269 612.813 444.269 610.677C444.269 608.542 444.634 606.574 445.365 604.635C446.095 602.696 447.163 600.982 448.54 599.493C449.917 598.003 451.603 596.823 453.599 595.924C455.594 595.024 457.814 594.575 460.315 594.575C462.338 594.575 464.165 594.856 465.851 595.418C467.537 595.98 468.971 596.767 470.207 597.75C471.416 598.734 472.399 599.858 473.13 601.151C473.86 602.443 474.282 603.82 474.451 605.282H466.891C466.779 604.663 466.554 604.101 466.188 603.539C465.851 602.977 465.373 602.5 464.811 602.078C464.249 601.657 463.575 601.319 462.816 601.066C462.057 600.813 461.214 600.701 460.287 600.701C458.826 600.701 457.561 600.982 456.493 601.544C455.425 602.106 454.498 602.837 453.767 603.764C453.036 604.692 452.474 605.759 452.109 606.968C451.744 608.176 451.575 609.413 451.575 610.705C451.575 612.083 451.772 613.375 452.137 614.584C452.531 615.792 453.093 616.86 453.852 617.787C454.61 618.715 455.594 619.445 456.774 619.979C457.954 620.513 459.331 620.794 460.905 620.794C461.973 620.794 462.957 620.654 463.8 620.345C464.643 620.036 465.373 619.614 465.992 619.108C466.61 618.574 467.088 617.984 467.481 617.31C467.846 616.635 468.099 615.904 468.212 615.146H462.788V609.862L462.732 609.806Z" fill="#1D1D1B"/>
<path d="M501.288 604.13L497.523 616.719H504.942L501.26 604.13H501.288ZM507.893 625.965L506.712 622.256H495.837L494.656 625.965H487.097L498.029 595.39H504.548L515.593 625.965H507.893Z" fill="#1D1D1B"/>
<path d="M538.917 611.745C539.648 611.745 540.322 611.605 540.941 611.296C541.559 611.015 542.065 610.621 542.486 610.143C542.908 609.666 543.245 609.104 543.47 608.457C543.695 607.811 543.807 607.136 543.807 606.434C543.807 605.731 543.695 605.057 543.47 604.411C543.245 603.764 542.908 603.202 542.486 602.724C542.065 602.247 541.531 601.853 540.941 601.572C540.322 601.291 539.648 601.151 538.917 601.151H534.056V611.717H538.917V611.745ZM527.002 595.39H539.845C541.531 595.39 543.077 595.699 544.425 596.289C545.802 596.879 546.955 597.694 547.938 598.706C548.922 599.717 549.653 600.87 550.186 602.219C550.72 603.567 550.973 604.973 550.973 606.462C550.973 608.626 550.439 610.565 549.371 612.335C548.304 614.106 546.814 615.427 544.903 616.326L551.03 625.993H542.824L537.4 617.506H534.084V625.993H527.002V595.418V595.39Z" fill="#1D1D1B"/>
<path d="M568.538 601.516H561.625V595.39H582.561V601.516H575.62V625.993H568.538V601.516Z" fill="#1D1D1B"/>
<path d="M288.356 524.543V493.574C288.356 486.577 291.673 483.261 298.67 483.261H316.431C323.428 483.261 326.744 486.577 326.744 493.574V500.347H316.122V494.446C316.122 493.35 315.756 492.984 314.66 492.984H300.441C299.345 492.984 298.979 493.35 298.979 494.446V523.644C298.979 524.74 299.345 525.105 300.441 525.105H314.66C315.756 525.105 316.122 524.74 316.122 523.644V515.691H306.398V506.389H326.744V524.515C326.744 531.513 323.428 534.829 316.431 534.829H298.67C291.673 534.829 288.356 531.513 288.356 524.515" fill="#1D1D1B"/>
<path d="M363.193 513.949L357.067 492.282L350.941 513.949H363.165H363.193ZM365.919 523.672H348.215L345.039 534.885H333.826L349.535 483.261H365.02L380.729 534.885H369.067L365.891 523.672H365.919Z" fill="#1D1D1B"/>
<path d="M389.609 483.261H400.204V525.133H422.489V534.885H389.609V483.261Z" fill="#1D1D1B"/>
<path d="M431.763 483.261H466.497V493.012H442.385V503.691H461.917V513.274H442.385V525.133H466.497V534.885H431.763V483.261Z" fill="#1D1D1B"/>
<path d="M501.851 507.232C502.947 507.232 503.34 506.867 503.34 505.771V494.333C503.34 493.237 502.975 492.872 501.851 492.872H487.041V507.26H501.851V507.232ZM515.565 534.885H504.127L495.584 516.675H487.041V534.885H476.418V483.261H503.621C510.619 483.261 513.935 486.577 513.935 493.574V506.024C513.935 511.841 511.658 515.157 506.797 516.056L515.565 534.857V534.885Z" fill="#1D1D1B"/>
<path d="M535.854 483.261H525.231V534.885H535.854V483.261Z" fill="#1D1D1B"/>
<path d="M546.843 483.261H581.577V493.012H557.465V503.691H576.997V513.274H557.465V525.133H581.577V534.885H546.843V483.261Z" fill="#1D1D1B"/>
<path d="M782.594 547.953H701.8V539.634H769.077L734.933 472.104L769.077 404.602H701.8V396.284H782.594L744.263 472.104L782.594 547.953Z" fill="#1D1D1B"/>
<path d="M162.795 547.953H82L120.332 472.104L82 396.284H162.795V404.602H95.5173L129.662 472.104L95.5173 539.634H162.795V547.953Z" fill="#1D1D1B"/>
<path d="M437.665 266.366L437.749 282.385L417.319 263.921L417.234 247.903L437.693 266.366H437.665ZM437.861 307.199L417.403 288.736L417.319 272.773L437.777 291.237L437.861 307.199ZM437.946 322.009L438.002 332.013L417.543 313.55L417.459 297.588L437.918 316.051V321.981L437.946 322.009ZM438.114 356.856L417.656 338.393L417.572 322.43L438.002 340.894L438.086 356.856H438.114ZM464.475 247.678V248.774L464.559 263.696L444.297 282.356L444.213 266.338L464.475 247.678ZM464.671 288.511L444.409 307.171L444.353 297.082V291.209L464.587 272.549L464.671 288.511ZM464.784 313.325L444.522 331.985L444.437 316.023L464.699 297.363L464.784 313.325ZM464.896 338.14L444.634 356.8L444.578 346.739V340.866L464.812 322.206L464.896 338.168V338.14ZM410.771 258.048L410.939 291.686L411.052 316.445L411.136 332.463L411.277 364.697H417.796L417.712 347.217L437.046 364.697H445.73L464.952 346.992L465.037 364.697H471.556L471.416 332.154L471.331 316.136L471.163 282.497L471.079 266.479L471.022 255.968L470.798 205.833H464.278L464.446 238.826L444.185 257.486L443.875 188.944H437.356L437.665 257.514L417.206 239.051L417.066 206.114H410.546L410.799 258.02L410.771 258.048Z" fill="#1D1D1B"/>
<path d="M359.849 315.236L359.933 331.255L339.475 312.791L339.419 297.813V296.801L359.849 315.264V315.236ZM359.99 346.008L360.046 356.069L339.587 337.606L339.503 321.644L359.962 340.107V345.98L359.99 346.008ZM386.631 296.548V297.785L386.715 312.566L366.453 331.227L366.369 315.236L386.631 296.576V296.548ZM386.827 337.381L366.566 356.041L366.481 340.079L386.743 321.419L386.827 337.381ZM332.843 282.047L332.955 305.063V306.918L333.124 340.557L333.208 356.575V364.725H339.756L339.672 346.486L359.877 364.725H366.847L386.912 346.261L386.996 364.725H393.516L393.403 340.275L393.235 306.637V304.979L392.982 254.732H386.462L386.603 287.724L366.341 306.384L366.032 237.842H359.512L359.821 306.412L339.391 287.949L339.222 254.985H332.702L332.815 282.019L332.843 282.047Z" fill="#1D1D1B"/>
<path d="M185.529 386.083H685.219V558.098H185.529V386.083ZM693.425 377.905H177.323V566.304H693.397V377.905H693.425Z" fill="#1D1D1B"/>
</g>
<defs>
<clipPath id="clip0_523_2678">
<rect width="700.594" height="437.78" fill="white" transform="translate(82 189)"/>
</clipPath>
</defs>
</svg>
