<svg width="864" height="815" viewBox="0 0 864 815" fill="none" xmlns="http://www.w3.org/2000/svg">
<rect width="864" height="815" fill="#75246C"/>
<g clip-path="url(#clip0_502_791)">
<path d="M221.051 454.903V407.299H236.148V414.215C238.223 409.464 243.155 406.036 249.77 406.036C258.251 406.036 262.611 409.795 264.686 414.817C267.243 409.674 272.866 406.036 279.903 406.036C293.526 406.036 296.774 415.418 296.774 425.402V454.933H281.557V428.169C281.557 421.553 279.091 418.786 274.46 418.786C269.829 418.786 266.461 421.463 266.461 430.454V454.933H251.244V428.079C251.244 421.463 248.868 418.786 244.237 418.786C239.606 418.786 236.148 421.463 236.148 430.454V454.933H221.051V454.903Z" fill="white"/>
<path d="M342.875 431.086C342.875 423.868 338.634 418.726 331.507 418.726C324.38 418.726 320.14 423.868 320.14 431.086C320.14 438.303 324.29 443.446 331.507 443.446C338.725 443.446 342.875 438.303 342.875 431.086ZM305.043 431.086C305.043 416.561 315.118 406.005 331.507 406.005C347.897 406.005 357.881 416.561 357.881 431.086C357.881 445.611 347.807 456.166 331.507 456.166C315.208 456.166 305.043 445.611 305.043 431.086Z" fill="white"/>
<path d="M366.421 454.903V407.299H381.518V414.215C384.284 408.893 389.728 406.036 396.915 406.036C408.463 406.036 414.297 412.561 414.297 425.493V454.933H399.08V430.454C399.08 422.455 396.795 418.786 390.69 418.786C384.585 418.786 381.518 422.726 381.518 430.033V454.933H366.421V454.903Z" fill="white"/>
<path d="M473.57 425.462V454.903H458.353V430.424C458.353 422.425 456.068 418.756 449.963 418.756C443.858 418.756 440.791 422.696 440.791 430.003V454.903H425.694V385.767H440.791V414.215C443.557 408.892 449 406.035 456.188 406.035C467.736 406.035 473.57 412.561 473.57 425.492" fill="white"/>
<path d="M516.964 425.853C516.874 419.538 513.326 416.17 506.89 416.17C500.455 416.17 496.425 420.019 496.335 425.853H516.964ZM531.489 435.236H496.335C496.635 441.461 500.785 444.799 507.492 444.799C512.123 444.799 515.1 443.506 516.393 440.559H531.189C529.715 449.941 520.122 456.166 507.492 456.166C491.283 456.166 481.329 446.994 481.329 431.086C481.329 415.177 491.493 406.005 507.01 406.005C522.528 406.005 531.88 415.177 531.88 428.62C531.88 431.086 531.79 432.559 531.489 435.236Z" fill="white"/>
<path d="M541.353 407.299H556.36V454.903H541.353V407.299ZM539.579 393.976C539.579 388.834 543.428 384.684 548.872 384.684C554.315 384.684 558.254 388.834 558.254 393.976C558.254 399.119 554.315 403.149 548.872 403.149C543.428 403.149 539.579 398.999 539.579 393.976Z" fill="white"/>
<path d="M567.817 454.903V407.299H582.913V414.215C584.988 409.464 589.92 406.036 596.536 406.036C605.017 406.036 609.377 409.795 611.452 414.817C614.008 409.674 619.662 406.036 626.669 406.036C640.292 406.036 643.389 415.418 643.389 425.402V454.933H628.353V428.169C628.353 421.553 625.887 418.786 621.256 418.786C616.625 418.786 613.256 421.463 613.256 430.454V454.933H598.04V428.079C598.04 421.463 595.664 418.786 591.033 418.786C586.402 418.786 582.943 421.463 582.943 430.454V454.933H567.847L567.817 454.903Z" fill="white"/>
<path d="M221.051 547.707V500.102H236.148V507.019C238.223 502.267 243.155 498.809 249.77 498.809C258.251 498.809 262.611 502.568 264.686 507.59C267.243 502.448 272.866 498.809 279.903 498.809C293.526 498.809 296.774 508.192 296.774 518.176V547.707H281.557V520.942C281.557 514.326 279.091 511.56 274.46 511.56C269.829 511.56 266.461 514.236 266.461 523.228V547.707H251.244V520.852C251.244 514.236 248.868 511.56 244.237 511.56C239.606 511.56 236.148 514.236 236.148 523.228V547.707H221.051Z" fill="white"/>
<path d="M307.72 500.102H322.726V547.707H307.72V500.102ZM305.946 486.78C305.946 481.638 309.795 477.488 315.238 477.488C320.681 477.488 324.621 481.638 324.621 486.78C324.621 491.923 320.681 495.952 315.238 495.952C309.795 495.952 305.946 491.802 305.946 486.78Z" fill="white"/>
<path d="M364.376 535.678V547.737C362.211 548.128 358.633 548.519 354.302 548.519C347.205 548.519 337.401 546.925 337.401 531.047V512.071H329.883V500.132H337.401V485.998H352.498V500.132H363.264V512.071H352.498V527.859C352.498 534.866 355.355 535.949 359.114 535.949C360.798 535.949 362.963 535.858 364.346 535.648" fill="white"/>
<path d="M403.471 535.678V547.737C401.305 548.128 397.727 548.519 393.396 548.519C386.299 548.519 376.496 546.925 376.496 531.047V512.071H368.978V500.132H376.496V485.998H391.592V500.132H402.358V512.071H391.592V527.859C391.592 534.866 394.449 535.949 398.208 535.949C399.892 535.949 402.057 535.858 403.441 535.648" fill="white"/>
<path d="M443.648 518.687C443.557 512.372 440.009 509.004 433.573 509.004C427.138 509.004 423.108 512.853 423.018 518.687H443.648ZM458.173 528.07H423.018C423.319 534.295 427.469 537.663 434.175 537.663C438.806 537.663 441.783 536.37 443.076 533.422H457.872C456.398 542.805 446.805 549.03 434.175 549.03C417.966 549.03 408.012 539.858 408.012 523.95C408.012 508.041 418.176 498.869 433.694 498.869C449.211 498.869 458.564 508.041 458.564 521.484C458.564 523.95 458.473 525.423 458.173 528.1" fill="white"/>
<path d="M433.002 367.934H432.22C378.511 367.813 335.387 354.521 308.652 343.395L303.991 341.47V285.956C303.991 284.062 301.405 281.926 297.706 281.926C294.308 281.926 291.421 283.761 291.421 285.956V324.93C291.421 335.486 281.828 344.056 270.039 344.056C258.251 344.056 248.658 335.636 248.658 324.93V285.956C248.658 284.062 246.072 281.926 242.373 281.926C238.974 281.926 236.088 283.761 236.088 285.956V343.936H221.051V285.956C221.051 275.25 230.434 266.83 242.433 266.83C254.432 266.83 263.814 275.401 263.814 285.956V324.93C263.814 327.125 266.701 328.96 270.099 328.96C273.798 328.96 276.385 326.825 276.385 324.93V285.956C276.385 275.22 285.767 266.83 297.766 266.83C309.765 266.83 319.148 275.401 319.148 285.956V331.305C344.83 341.47 384.074 352.687 432.28 352.807C470.984 352.837 509.025 345.68 545.353 331.305V285.956C545.353 275.22 554.735 266.83 566.734 266.83C578.733 266.83 588.116 275.401 588.116 285.956V324.93C588.116 327.125 591.003 328.96 594.401 328.96C597.799 328.96 600.686 327.125 600.686 324.93V285.956C600.686 275.22 610.069 266.83 622.068 266.83C634.067 266.83 643.449 275.401 643.449 285.956V343.936H628.353V285.956C628.353 284.062 625.767 281.926 622.068 281.926C618.67 281.926 615.783 283.761 615.783 285.956V324.93C615.783 335.666 606.4 344.056 594.401 344.056C582.402 344.056 573.02 335.636 573.02 324.93V285.956C573.02 284.062 570.433 281.926 566.734 281.926C563.336 281.926 560.449 283.761 560.449 285.956V341.44L555.788 343.365C516.453 359.634 475.134 367.904 433.002 367.904" fill="white"/>
</g>
<defs>
<clipPath id="clip0_502_791">
<rect width="422.338" height="282.17" fill="white" transform="translate(221.051 266.83)"/>
</clipPath>
</defs>
</svg>
