<svg width="149" height="66" viewBox="0 0 149 66" fill="none" xmlns="http://www.w3.org/2000/svg">
<path d="M146 48H3.99351e-06" stroke="#FF2E00" stroke-width="4"/>
<path d="M130.5 32L144.498 43.7278C146.859 45.7059 146.887 49.3275 144.557 51.3423L130.5 63.5" stroke="#FF2E00" stroke-width="4"/>
<path d="M31.212 27.572C31.68 30.884 33.804 29.804 33.804 31.28C33.804 31.784 33.3 32.108 32.616 32.108C31.644 32.108 30.888 32 29.268 32C27.504 32 26.892 32.108 25.884 32.108C25.128 32.108 24.696 31.712 24.696 31.208C24.696 29.912 26.964 30.596 26.964 28.508C26.964 28.148 26.892 27.608 26.856 27.14L26.064 21.704C25.812 20.084 25.416 17.168 22.824 17.168C20.988 17.168 19.26 18.572 19.26 22.064V27.968C19.26 30.74 21.564 29.84 21.564 31.244C21.564 31.64 21.24 32.108 20.556 32.108C19.728 32.108 18.684 32 17.1 32C15.552 32 14.616 32.108 13.788 32.108C13.068 32.108 12.744 31.676 12.744 31.244C12.744 29.84 14.94 30.74 14.94 27.968V21.704C14.94 19.508 14.364 17.168 11.808 17.168C9.936 17.168 7.848 18.608 7.848 22.244V27.968C7.848 30.74 10.08 29.84 10.08 31.244C10.08 31.64 9.756 32.108 9.072 32.108C8.244 32.108 7.236 32 5.688 32C4.14 32 3.204 32.108 2.34 32.108C1.656 32.108 1.332 31.676 1.332 31.244C1.332 29.84 3.528 30.74 3.528 27.968V19.76C3.528 17.492 1.044 18.608 1.044 17.096C1.044 16.448 1.8 15.98 3.996 14.972C6.12 13.964 6.516 13.892 6.876 13.892C7.632 13.892 7.848 14.504 7.848 15.368V17.276C8.964 15.404 10.98 13.748 13.716 13.748C16.38 13.748 17.928 15.296 18.684 17.348C19.728 15.368 21.564 13.748 24.372 13.748C28.332 13.748 29.736 17.096 30.276 20.84L31.212 27.572ZM51.8254 27.068C52.3294 27.068 52.6534 27.536 52.6534 27.968C52.6534 28.22 52.5454 28.508 52.2934 28.868C51.0334 30.74 47.8294 32.684 44.0854 32.684C38.8294 32.684 34.6894 29.12 34.6894 23.18C34.6894 17.348 39.0814 13.46 44.1214 13.46C48.8734 13.46 51.9334 16.988 51.9334 20.516C51.9334 21.416 51.6454 21.632 51.0334 21.812L39.8374 25.196C40.9174 27.788 43.1134 29.696 45.9214 29.696C47.8654 29.696 49.5214 28.868 50.7814 27.68C51.2494 27.248 51.5014 27.068 51.8254 27.068ZM43.5094 15.872C40.9894 15.872 39.1174 18.068 39.1174 21.524C39.1174 22.064 39.1534 22.568 39.2254 23.072L46.5334 20.768C47.1454 20.588 47.3614 20.372 47.3614 19.724C47.3614 17.996 45.7774 15.872 43.5094 15.872ZM73.4543 27.572C73.8863 30.884 75.9743 29.804 75.9743 31.28C75.9743 31.784 75.5063 32.108 74.8223 32.108C73.8863 32.108 73.1303 32 71.4743 32C69.7463 32 69.0623 32.108 68.1263 32.108C67.3343 32.108 66.9023 31.712 66.9023 31.208C66.9023 29.912 69.1703 30.56 69.1703 28.616C69.1703 28.22 69.1343 27.86 69.0983 27.572L68.2703 21.776C67.9463 19.616 67.1903 17.168 64.7783 17.168C62.9063 17.168 60.8543 18.644 60.8543 22.28V27.968C60.8543 30.74 63.0863 29.84 63.0863 31.244C63.0863 31.64 62.7623 32.108 62.0783 32.108C61.2503 32.108 60.2423 32 58.6943 32C57.1463 32 56.1743 32.108 55.3823 32.108C54.6263 32.108 54.3383 31.676 54.3383 31.244C54.3383 29.84 56.5343 30.74 56.5343 27.968V10.508C56.5343 8.276 54.0503 9.392 54.0503 7.88C54.0503 7.196 54.8423 6.764 57.0383 5.72C59.1263 4.748 59.5583 4.64 59.9543 4.64C60.6383 4.64 60.8543 5.216 60.8543 5.9V17.276C62.0063 15.404 63.9503 13.748 66.7223 13.748C70.7543 13.748 72.0863 17.456 72.5543 20.84L73.4543 27.572ZM90.0855 13.748C91.8135 13.748 93.0015 14.684 93.0015 15.764C93.0015 16.556 92.6775 17.672 92.0655 19.364C91.8495 20.048 91.5255 20.444 90.9495 20.444C90.4095 20.444 90.1575 19.976 89.8695 19.4C89.3295 18.212 88.7895 17.564 87.9255 17.564C86.3775 17.564 83.7855 19.904 83.7855 24.62V27.968C83.7855 30.74 86.4495 29.732 86.4495 31.244C86.4495 31.64 86.1615 32.108 85.4415 32.108C84.5415 32.108 83.3535 32 81.6255 32C80.0775 32 79.1055 32.108 78.2775 32.108C77.5575 32.108 77.2695 31.676 77.2695 31.244C77.2695 29.84 79.4655 30.74 79.4655 27.968V19.76C79.4655 17.492 76.9815 18.608 76.9815 17.096C76.9815 16.448 77.7375 15.98 79.9695 14.972C82.0575 14 82.4895 13.892 82.8135 13.892C83.5335 13.892 83.7855 14.468 83.7855 15.368V18.644C84.9375 15.8 87.4935 13.748 90.0855 13.748Z" fill="#FF2E00"/>
</svg>
