<svg width="149" height="66" viewBox="0 0 149 66" fill="none" xmlns="http://www.w3.org/2000/svg">
<path d="M3 48H149" stroke="#FF2E00" stroke-width="4"/>
<path d="M18.5 32L4.50227 43.7278C2.1414 45.7059 2.11302 49.3275 4.4426 51.3423L18.5 63.5" stroke="#FF2E00" stroke-width="4"/>
<path d="M87.212 27.572C87.68 30.884 89.804 29.804 89.804 31.28C89.804 31.784 89.3 32.108 88.616 32.108C87.644 32.108 86.888 32 85.268 32C83.504 32 82.892 32.108 81.884 32.108C81.128 32.108 80.696 31.712 80.696 31.208C80.696 29.912 82.964 30.596 82.964 28.508C82.964 28.148 82.892 27.608 82.856 27.14L82.064 21.704C81.812 20.084 81.416 17.168 78.824 17.168C76.988 17.168 75.26 18.572 75.26 22.064V27.968C75.26 30.74 77.564 29.84 77.564 31.244C77.564 31.64 77.24 32.108 76.556 32.108C75.728 32.108 74.684 32 73.1 32C71.552 32 70.616 32.108 69.788 32.108C69.068 32.108 68.744 31.676 68.744 31.244C68.744 29.84 70.94 30.74 70.94 27.968V21.704C70.94 19.508 70.364 17.168 67.808 17.168C65.936 17.168 63.848 18.608 63.848 22.244V27.968C63.848 30.74 66.08 29.84 66.08 31.244C66.08 31.64 65.756 32.108 65.072 32.108C64.244 32.108 63.236 32 61.688 32C60.14 32 59.204 32.108 58.34 32.108C57.656 32.108 57.332 31.676 57.332 31.244C57.332 29.84 59.528 30.74 59.528 27.968V19.76C59.528 17.492 57.044 18.608 57.044 17.096C57.044 16.448 57.8 15.98 59.996 14.972C62.12 13.964 62.516 13.892 62.876 13.892C63.632 13.892 63.848 14.504 63.848 15.368V17.276C64.964 15.404 66.98 13.748 69.716 13.748C72.38 13.748 73.928 15.296 74.684 17.348C75.728 15.368 77.564 13.748 80.372 13.748C84.332 13.748 85.736 17.096 86.276 20.84L87.212 27.572ZM107.825 27.068C108.329 27.068 108.653 27.536 108.653 27.968C108.653 28.22 108.545 28.508 108.293 28.868C107.033 30.74 103.829 32.684 100.085 32.684C94.8294 32.684 90.6894 29.12 90.6894 23.18C90.6894 17.348 95.0814 13.46 100.121 13.46C104.873 13.46 107.933 16.988 107.933 20.516C107.933 21.416 107.645 21.632 107.033 21.812L95.8374 25.196C96.9174 27.788 99.1134 29.696 101.921 29.696C103.865 29.696 105.521 28.868 106.781 27.68C107.249 27.248 107.501 27.068 107.825 27.068ZM99.5094 15.872C96.9894 15.872 95.1174 18.068 95.1174 21.524C95.1174 22.064 95.1534 22.568 95.2254 23.072L102.533 20.768C103.145 20.588 103.361 20.372 103.361 19.724C103.361 17.996 101.777 15.872 99.5094 15.872ZM129.454 27.572C129.886 30.884 131.974 29.804 131.974 31.28C131.974 31.784 131.506 32.108 130.822 32.108C129.886 32.108 129.13 32 127.474 32C125.746 32 125.062 32.108 124.126 32.108C123.334 32.108 122.902 31.712 122.902 31.208C122.902 29.912 125.17 30.56 125.17 28.616C125.17 28.22 125.134 27.86 125.098 27.572L124.27 21.776C123.946 19.616 123.19 17.168 120.778 17.168C118.906 17.168 116.854 18.644 116.854 22.28V27.968C116.854 30.74 119.086 29.84 119.086 31.244C119.086 31.64 118.762 32.108 118.078 32.108C117.25 32.108 116.242 32 114.694 32C113.146 32 112.174 32.108 111.382 32.108C110.626 32.108 110.338 31.676 110.338 31.244C110.338 29.84 112.534 30.74 112.534 27.968V10.508C112.534 8.276 110.05 9.392 110.05 7.88C110.05 7.196 110.842 6.764 113.038 5.72C115.126 4.748 115.558 4.64 115.954 4.64C116.638 4.64 116.854 5.216 116.854 5.9V17.276C118.006 15.404 119.95 13.748 122.722 13.748C126.754 13.748 128.086 17.456 128.554 20.84L129.454 27.572ZM146.086 13.748C147.814 13.748 149.002 14.684 149.002 15.764C149.002 16.556 148.678 17.672 148.066 19.364C147.85 20.048 147.526 20.444 146.95 20.444C146.41 20.444 146.158 19.976 145.87 19.4C145.33 18.212 144.79 17.564 143.926 17.564C142.378 17.564 139.786 19.904 139.786 24.62V27.968C139.786 30.74 142.45 29.732 142.45 31.244C142.45 31.64 142.162 32.108 141.441 32.108C140.542 32.108 139.354 32 137.626 32C136.078 32 135.106 32.108 134.278 32.108C133.558 32.108 133.27 31.676 133.27 31.244C133.27 29.84 135.466 30.74 135.466 27.968V19.76C135.466 17.492 132.982 18.608 132.982 17.096C132.982 16.448 133.738 15.98 135.97 14.972C138.058 14 138.49 13.892 138.814 13.892C139.534 13.892 139.786 14.468 139.786 15.368V18.644C140.938 15.8 143.494 13.748 146.086 13.748Z" fill="#FF2E00"/>
</svg>
