<?xml version="1.0" encoding="utf-8"?>
<!-- Generator: Adobe Illustrator 28.1.0, SVG Export Plug-In . SVG Version: 6.00 Build 0)  -->
<svg version="1.1" id="Ebene_1" xmlns="http://www.w3.org/2000/svg" xmlns:xlink="http://www.w3.org/1999/xlink" x="0px" y="0px"
	 viewBox="0 0 864 815" style="enable-background:new 0 0 864 815;" xml:space="preserve">
<style type="text/css">
	.st0{fill:#D9D9D9;}
	.st1{fill:#D9D9D9;filter:url(#Adobe_OpacityMaskFilter);stroke:#000000;}
	.st2{mask:url(#mask0_502_475_00000055668494502583685590000018188243511529486242_);}
	.st3{fill:none;stroke:#0A210F;stroke-width:4.91;stroke-miterlimit:10;}
	.st4{fill:none;stroke:#0A210F;stroke-width:4.9;stroke-miterlimit:10;}
	.st5{fill:none;stroke:#0A210F;stroke-width:4.46;stroke-miterlimit:10;}
	.st6{fill:#0A210F;}
</style>
<rect class="st0" width="864" height="815"/>
<defs>
	<filter id="Adobe_OpacityMaskFilter" filterUnits="userSpaceOnUse" x="134.9" y="145.5" width="594.9" height="524.2">
		<feColorMatrix  type="matrix" values="1 0 0 0 0  0 1 0 0 0  0 0 1 0 0  0 0 0 1 0"/>
	</filter>
</defs>
<mask maskUnits="userSpaceOnUse" x="134.9" y="145.5" width="594.9" height="524.2" id="mask0_502_475_00000055668494502583685590000018188243511529486242_">
	<rect x="0.5" y="0.5" class="st1" width="863" height="814"/>
</mask>
<g class="st2">
	<path class="st3" d="M727.3,492.3H432v175.1h295.3V492.3z"/>
	<path class="st4" d="M432,148H137.6v175.1H432V148z"/>
	<path class="st5" d="M727.3,323.1H137.2v169.2h590.2V323.1z"/>
	<path class="st6" d="M622.4,371.3c-0.5-0.9-1.3-1.4-2.3-1.4h-1.8l-1.7-15.6c-0.2,0.3-0.4,0.6-0.6,0.9c-0.2,0.3-0.4,0.5-0.5,0.8
		c-0.1,0-0.1,0.1-0.1,0.1c-0.1,0.1-0.2,0.3-0.2,0.4c-0.3,0.6-0.5,1.2-0.6,1.8c-0.1,0.3-0.1,0.5-0.2,0.8c-0.1,0.3-0.1,0.6-0.1,0.9
		c-0.2,1.5,0,3.2,0.1,5.1c0.1,1.2,0.2,2.4,0.2,3.6c0,0.8,0,1.6-0.1,2.4c0,0.2,0,0.5-0.1,0.7c0,0.3-0.1,0.6-0.2,0.9
		c-0.1,0.6-0.3,1.3-0.5,2c-0.1,0.3-0.2,0.7-0.4,1c0,0,0,0.1,0,0.1c2.1,0,4,0,5.2,0c1,1.7,2.3,3.3,3.6,4.8l3.7-4.1
		C624.6,374.8,623.4,373.1,622.4,371.3 M637.7,385l1.8-14.9l1.2-9.8l-6.1,6.7l-0.2,2.1l-0.2-1.6l-4.7,5.2l0.9,7.6
		c-1.5-1.2-2.9-2.5-4.2-3.9c-1.4-1.6-2.7-3.3-3.6-5.1c-0.5-0.9-1.3-1.4-2.3-1.4h-1.8l-1.7-15.6c-0.2,0.3-0.4,0.6-0.6,0.9
		c-0.2,0.3-0.4,0.5-0.5,0.8c-0.1,0-0.1,0.1-0.1,0.1c-0.1,0.1-0.2,0.3-0.2,0.4c-0.3,0.6-0.5,1.2-0.6,1.8c-0.1,0.3-0.1,0.5-0.2,0.8
		c-0.1,0.3-0.1,0.6-0.1,0.9c-0.2,1.5,0,3.2,0.1,5.1c0.1,1.2,0.2,2.4,0.2,3.6c0,0.8,0,1.6-0.1,2.4c0,0.2,0,0.5,0,0.7
		c-0.1,0.3-0.1,0.6-0.2,0.9c-0.1,0.6-0.3,1.3-0.5,2c-0.1,0.3-0.2,0.7-0.4,1c0,0,0,0.1,0,0.1c2.1,0,4,0,5.2,0c1,1.7,2.3,3.3,3.6,4.8
		c1.2,1.4,2.6,2.7,4.1,4c5.3,4.4,12,7.7,19.5,9.6c0.6-2,0.9-3.9,1-5.8C643.7,387.5,640.5,386.4,637.7,385 M637.7,385l1.8-14.9
		l1.2-9.8l-6.1,6.7l-0.2,2.1l-0.2-1.6l-4.7,5.2l0.9,7.6c-1.5-1.2-2.9-2.5-4.2-3.9c-1.4-1.6-2.7-3.3-3.6-5.1
		c-0.5-0.9-1.3-1.4-2.3-1.4h-1.8l-1.7-15.6c-0.2,0.3-0.4,0.6-0.6,0.9c-0.2,0.3-0.4,0.5-0.5,0.8c-0.1,0-0.1,0.1-0.1,0.1
		c-0.1,0.1-0.2,0.3-0.2,0.4c-0.3,0.6-0.5,1.2-0.6,1.8c-0.1,0.3-0.1,0.5-0.2,0.8c-0.1,0.3-0.1,0.6-0.1,0.9c-0.2,1.5,0,3.2,0.1,5.1
		c0.1,1.2,0.2,2.4,0.2,3.6c0,0.8,0,1.6-0.1,2.4c0,0.2,0,0.5,0,0.7c-0.1,0.3-0.1,0.6-0.2,0.9c-0.1,0.6-0.3,1.3-0.5,2
		c-0.1,0.3-0.2,0.7-0.4,1c0,0,0,0.1,0,0.1c2.1,0,4,0,5.2,0c1,1.7,2.3,3.3,3.6,4.8c1.2,1.4,2.6,2.7,4.1,4c5.3,4.4,12,7.7,19.5,9.6
		c0.6-2,0.9-3.9,1-5.8C643.7,387.5,640.5,386.4,637.7,385 M638.9,352.4c-1.4-0.2-2.8,0.9-3,2.5l-1.4,12.1l6.1-6.7l0.2-1.7l1.2,0.2
		l0,0c1.4-1.6,2.6-3.4,3.4-5.3L638.9,352.4L638.9,352.4z M637.7,385l1.8-14.9l1.2-9.8l-6.1,6.7l-0.2,2.1l-0.2-1.6l-4.7,5.2l0.9,7.6
		c-1.5-1.2-2.9-2.5-4.2-3.9c-1.4-1.6-2.7-3.3-3.6-5.1c-0.5-0.9-1.3-1.4-2.3-1.4h-1.8l-1.7-15.6c-0.2,0.3-0.4,0.6-0.6,0.9
		c-0.2,0.3-0.4,0.5-0.5,0.8c-0.1,0-0.1,0.1-0.1,0.1c-0.1,0.1-0.2,0.3-0.2,0.4c-0.3,0.6-0.5,1.2-0.6,1.8c-0.1,0.3-0.1,0.5-0.2,0.8
		c-0.1,0.3-0.1,0.6-0.1,0.9c-0.2,1.5,0,3.2,0.1,5.1c0.1,1.2,0.2,2.4,0.2,3.6c0,0.8,0,1.6-0.1,2.4c0,0.2,0,0.5,0,0.7
		c-0.1,0.3-0.1,0.6-0.2,0.9c-0.1,0.6-0.3,1.3-0.5,2c-0.1,0.3-0.2,0.7-0.4,1c0,0,0,0.1,0,0.1c2.1,0,4,0,5.2,0c1,1.7,2.3,3.3,3.6,4.8
		c1.2,1.4,2.6,2.7,4.1,4c5.3,4.4,12,7.7,19.5,9.6c0.6-2,0.9-3.9,1-5.8C643.7,387.5,640.5,386.3,637.7,385 M638.9,352.4
		c-1.4-0.2-2.8,0.9-3,2.5l-1.4,12l6.1-6.7l0.2-1.7l1.2,0.2l0,0c1.4-1.6,2.6-3.4,3.4-5.3L638.9,352.4L638.9,352.4z M637.7,385
		l1.8-14.9l1.2-9.8l-6.1,6.7l-0.2,2.1l-0.2-1.6l-4.7,5.2l0.9,7.6c-1.5-1.2-2.9-2.5-4.2-3.9c-1.4-1.6-2.7-3.3-3.6-5.1
		c-0.5-0.9-1.3-1.4-2.3-1.4h-1.8l-1.7-15.6c-0.2,0.3-0.4,0.6-0.6,0.9c-0.2,0.3-0.4,0.5-0.5,0.8c-0.1,0-0.1,0.1-0.1,0.1
		c-0.1,0.1-0.2,0.3-0.2,0.4c-0.3,0.6-0.5,1.2-0.6,1.8c-0.1,0.3-0.1,0.5-0.2,0.8c-0.1,0.3-0.1,0.6-0.1,0.9c-0.2,1.5,0,3.2,0.1,5.1
		c0.1,1.2,0.2,2.4,0.2,3.6c0,0.8,0,1.6-0.1,2.4c0,0.2,0,0.5,0,0.7c-0.1,0.3-0.1,0.6-0.2,0.9c-0.1,0.6-0.3,1.3-0.5,2
		c-0.1,0.3-0.2,0.7-0.4,1c0,0,0,0.1,0,0.1c2.1,0,4,0,5.2,0c1,1.7,2.3,3.3,3.6,4.8c1.2,1.4,2.6,2.7,4.1,4c5.3,4.4,12,7.7,19.5,9.6
		c0.6-2,0.9-3.9,1-5.8C643.7,387.5,640.5,386.3,637.7,385 M638.9,352.4c-1.4-0.2-2.8,0.9-3,2.5l-1.4,12l6.1-6.7l0.2-1.7l1.2,0.2l0,0
		c1.4-1.6,2.6-3.4,3.4-5.3L638.9,352.4L638.9,352.4z M637.7,384.9l1.8-14.9l1.2-9.8l-6.1,6.7l-0.2,2.1l-0.2-1.6l-4.7,5.2l0.9,7.6
		c-1.5-1.2-2.9-2.5-4.2-3.9c-1.4-1.6-2.7-3.3-3.6-5.1c-0.5-0.9-1.3-1.4-2.3-1.4h-1.8l-1.7-15.6l-0.6-5.4c-1-0.4-2.1-0.2-3,0.6
		c-0.8,0.9-1.5,1.8-2,2.7l1.9,17.6h-17.7c-0.8,0-1.6,0.4-2.1,1.1c-0.5,0.6-0.7,1.5-0.5,2.4l1,5.7l1,6.1l3.7,21.4l4.5-4.9l-2.8-16.3
		l-1-6l-0.7-3.7h14.9c2.1,0,4,0,5.2,0c1,1.7,2.3,3.3,3.6,4.8c1.2,1.4,2.6,2.7,4.1,4c5.3,4.4,12,7.7,19.5,9.6c0.6-2,0.9-3.9,1-5.8
		C643.6,387.5,640.5,386.3,637.7,384.9 M638.9,352.4c-1.4-0.2-2.8,0.9-3,2.5l-1.4,12l6.1-6.7l0.2-1.7l1.2,0.2l0,0
		c1.4-1.6,2.6-3.4,3.4-5.3L638.9,352.4L638.9,352.4z M637.7,384.9l1.8-14.9l1.2-9.8l-6.1,6.7l-0.2,2.1l-0.2-1.6l-4.7,5.2l0.9,7.6
		c-1.5-1.2-2.9-2.5-4.2-3.9c-1.4-1.6-2.7-3.3-3.6-5.1c-0.5-0.9-1.3-1.4-2.3-1.4h-1.8l-1.7-15.6l-0.6-5.4c-1-0.4-2.1-0.2-3,0.6
		c-0.8,0.9-1.5,1.8-2,2.7l1.9,17.6h-17.7c-0.8,0-1.6,0.4-2.1,1.1c-0.5,0.6-0.7,1.5-0.5,2.4l1,5.7l1,6.1l3.7,21.4l4.5-4.9l-2.8-16.3
		l-1-6l-0.7-3.7h14.9c2.1,0,4,0,5.2,0c1,1.7,2.3,3.3,3.6,4.8c1.2,1.4,2.6,2.7,4.1,4c5.3,4.4,12,7.7,19.5,9.6c0.6-2,0.9-3.9,1-5.8
		C643.6,387.5,640.5,386.3,637.7,384.9 M638.9,352.4c-1.4-0.2-2.8,0.9-3,2.5l-1.4,12l6.1-6.7l0.2-1.7l1.2,0.2l0,0
		c1.4-1.6,2.6-3.4,3.4-5.3L638.9,352.4L638.9,352.4z M637.6,384.9l1.8-14.9l1.2-9.8l-6.1,6.7l-0.2,2.1l-0.2-1.6l-4.7,5.2l0.8,7.6
		c-1.5-1.2-2.9-2.5-4.2-3.9c-1.4-1.6-2.6-3.3-3.6-5.1c-0.5-0.9-1.3-1.4-2.3-1.4h-1.8l-1.7-15.6l-0.6-5.4c-1-0.4-2.1-0.2-3,0.6
		c-0.8,0.9-1.5,1.8-2,2.7l1.9,17.6h-17.7c-0.8,0-1.6,0.4-2.1,1.1c-0.5,0.6-0.7,1.5-0.5,2.4l1,5.7l1,6.1l3.7,21.4l4.5-4.9l-2.8-16.3
		l-1-6l-0.7-3.7h14.9c2.1,0,4,0,5.2,0c1,1.7,2.3,3.3,3.6,4.8c1.2,1.4,2.6,2.7,4.1,4c5.3,4.4,12,7.7,19.5,9.6c0.6-2,0.9-3.9,1-5.8
		C643.6,387.5,640.5,386.3,637.6,384.9 M638.9,352.4c-1.4-0.2-2.8,0.9-3,2.5l-1.4,12l6.1-6.7l0.2-1.7l1.2,0.2l0,0
		c1.4-1.6,2.6-3.4,3.4-5.3L638.9,352.4L638.9,352.4z M637.6,384.9l1.8-14.9l1.2-9.8l-6.1,6.7l-0.2,2.1l-0.2-1.6l-4.7,5.2l0.9,7.6
		c-1.5-1.2-2.9-2.5-4.2-3.9c-1.4-1.6-2.6-3.3-3.6-5.1c-0.5-0.9-1.3-1.4-2.3-1.4h-1.8l-1.7-15.6l-0.6-5.4c-1-0.4-2.1-0.2-3,0.6
		c-0.8,0.9-1.5,1.8-2,2.7l1.9,17.6h-17.7c-0.8,0-1.6,0.4-2.1,1.1c-0.5,0.6-0.7,1.5-0.5,2.4l1,5.7l1,6.1l3.7,21.4l4.5-4.9l-2.8-16.3
		l-1-6l-0.7-3.7h14.9c2.1,0,4,0,5.2,0c1,1.7,2.3,3.3,3.6,4.8c1.2,1.4,2.6,2.7,4.1,4c5.3,4.4,12,7.7,19.5,9.6c0.6-2,0.9-3.9,1-5.8
		C643.6,387.5,640.5,386.3,637.6,384.9 M638.9,352.4c-1.4-0.2-2.8,0.9-3,2.5l-1.4,12l6.1-6.7l0.2-1.7l1.2,0.2l0,0
		c1.4-1.6,2.6-3.4,3.4-5.3L638.9,352.4L638.9,352.4z M703.9,486.5c-0.2,1.4-1.3,2.4-2.6,2.4h-80.8c-1.2,0-2.3-1-2.6-2.4l-5-28.9
		l-1.3-7.3l-7.2-41.6l-1.3-7.1l-2.8-16.3l-1-6l-0.7-3.7h14.9c2.1,0,4,0,5.2,0c1,1.7,2.3,3.3,3.6,4.8c1.2,1.4,2.6,2.7,4.1,4
		c5.3,4.4,12,7.7,19.5,9.6c1.8,0.5,3.6,0.8,5.4,1.1c0.8,0.1,1.6,0.3,2.5,0.3h0.2c2.3,0.3,4.5,0.4,6.9,0.4h0.2c6,0,11.7-0.9,17.1-2.5
		c0,0,0.1,0,0.1,0c10.9-3.3,19.8-9.5,24.8-17.8c4.2,0,14.7,0,20.1,0L703.9,486.5L703.9,486.5z M626.1,344l3.1,28.7l0.9,7.6
		c-1.5-1.2-2.9-2.5-4.2-3.9c-1.4-1.6-2.7-3.3-3.6-5.1c-0.5-0.9-1.3-1.4-2.3-1.4h-1.8l-1.7-15.6l-0.6-5.4l-0.4-3.4L626.1,344
		L626.1,344z M640.8,358.5l1.2,0.2l4.5,0.7l0.4,2.4l1.4,9.4l2.6,18c-1.3-0.3-2.6-0.5-3.9-0.9c-3.3-0.8-6.4-2-9.3-3.4l1.8-14.9
		l1.2-9.8L640.8,358.5L640.8,358.5z M658.7,332.4l4.5,31.7l-4.4,26c-0.9,0-1.8-0.1-2.7-0.2l-4.8-33.9l-0.3-2.1l-2.8-19.6l1.7-0.3
		L658.7,332.4L658.7,332.4z M668.4,364.9L668.4,364.9l6.4-38.1l10.3,2.1l-1.5,9h-0.1c-0.7-0.1-1.4,0.1-1.9,0.6
		c-0.5,0.5-0.9,1.2-1,1.9l-5.8,48c-3.4,0.9-7,1.5-10.7,1.7L668.4,364.9L668.4,364.9z M695.9,345.5l-0.7,5.5l-3.5,0.5
		c-0.7,0.1-1.4,0.5-1.8,1.1c-0.4,0.6-0.6,1.4-0.5,2.1l2.7,25.1c-3.3,2.7-7.2,5-11.6,6.7l5.1-42.5L695.9,345.5L695.9,345.5z
		 M705.4,355.6l1.5,14.2h-5.3c-0.9,0-1.8,0.6-2.3,1.4c-0.7,1.3-1.6,2.6-2.5,3.8l-1.9-18.1L705.4,355.6L705.4,355.6z M728.4,370.9
		c-0.5-0.7-1.2-1.1-2.1-1.1h-14.1l-1.9-17.7c-0.2-1.6-1.4-2.7-2.9-2.6l-6.7,0.9l0.8-6.9c0.2-1.6-0.8-3-2.3-3.3l-10.3-1.5l1.9-11.6
		c0.3-1.6-0.7-3.1-2.1-3.4l-15.6-3.2c-0.7-0.1-1.4,0-1.9,0.5c-0.6,0.4-1,1.1-1.1,1.9l-4,24.2l-2.7-18.4c-0.1-0.8-0.5-1.4-1-1.9
		c-0.6-0.5-1.3-0.6-2-0.5l-13.8,2.4l-1.8,0.3c-1.4,0.2-2.4,1.7-2.2,3.3l0.1,0.6l2.8,20l0.1,0.5l-0.3,0l-6.5-0.9
		c-1.4-0.2-2.8,0.9-3,2.5l-1.4,12.1l-0.2,2.1l-0.2-1.6l-3-27c-0.2-1.6-1.5-2.7-2.9-2.5l-15.7,2.1c-0.7,0.1-1.3,0.5-1.8,1.1
		c-0.4,0.6-0.6,1.4-0.5,2.1l1,9l1.9,17.6h-17.7c-0.8,0-1.6,0.4-2.1,1.1c-0.5,0.6-0.7,1.5-0.5,2.4l1,5.7l1,6.1l3.7,21.4l1.2,7.2
		l7.2,41.4l1.3,7.2l4.4,25.3c0.7,4.1,4,7.1,7.7,7.1h80.8c3.8,0,7-3,7.7-7.1l19.9-114.4C729,372.4,728.8,371.5,728.4,370.9
		 M638.8,352.4c-1.4-0.2-2.8,0.9-3,2.5l-1.4,12l6.1-6.7l0.2-1.7l1.2,0.2l0,0c1.4-1.6,2.6-3.4,3.4-5.3L638.8,352.4L638.8,352.4z
		 M637.6,385l1.8-14.9l1.2-9.8l-6.1,6.7l-0.2,2.1l-0.2-1.6l-4.7,5.2l0.9,7.6c-1.5-1.2-2.9-2.5-4.2-3.9c-1.4-1.6-2.6-3.3-3.6-5.1
		c-0.5-0.9-1.3-1.4-2.3-1.4h-1.8l-1.7-15.6l-0.6-5.4c-1-0.4-2.1-0.2-3,0.6c-0.8,0.9-1.5,1.8-2,2.7l1.9,17.6h-17.7
		c-0.8,0-1.6,0.4-2.1,1.1c-0.5,0.6-0.7,1.5-0.5,2.4l1,5.7l1,6.1l3.7,21.4l4.5-4.9l-2.8-16.3l-1-6l-0.7-3.7h14.9c2.1,0,4,0,5.2,0
		c1,1.7,2.3,3.3,3.6,4.8c1.2,1.4,2.6,2.7,4.1,4c5.3,4.4,12,7.7,19.5,9.6c0.6-2,0.9-3.9,1-5.8C643.5,387.5,640.4,386.3,637.6,385
		 M638.8,352.4c-1.4-0.2-2.8,0.9-3,2.5l-1.4,12l6.1-6.7l0.2-1.7l1.2,0.2l0,0c1.4-1.6,2.6-3.4,3.4-5.3L638.8,352.4L638.8,352.4z
		 M637.6,385l1.8-14.9l1.2-9.8l-6.1,6.7l-0.2,2.1l-0.2-1.6l-4.7,5.2l0.9,7.6c-1.5-1.2-2.9-2.5-4.2-3.9c-1.4-1.6-2.6-3.3-3.6-5.1
		c-0.5-0.9-1.3-1.4-2.3-1.4h-1.8l-1.7-15.6l-0.6-5.4c-1-0.4-2.1-0.2-3,0.6c-0.8,0.9-1.5,1.8-2,2.7l1.9,17.6h-17.7
		c-0.8,0-1.6,0.4-2.1,1.1c-0.5,0.6-0.7,1.5-0.5,2.4l1,5.7l1,6.1l3.7,21.4l4.5-4.9l-2.8-16.3l-1-6l-0.7-3.7h14.9c2.1,0,4,0,5.2,0
		c1,1.7,2.3,3.3,3.6,4.8c1.2,1.4,2.6,2.7,4.1,4c5.3,4.4,12,7.7,19.5,9.6c0.6-2,0.9-3.9,1-5.8C643.5,387.5,640.4,386.3,637.6,385
		 M638.8,352.4c-1.4-0.2-2.8,0.9-3,2.5l-1.4,12l6.1-6.7l0.2-1.7l1.2,0.2l0,0c1.4-1.6,2.6-3.4,3.4-5.3L638.8,352.4L638.8,352.4z
		 M637.5,385l1.8-14.9l1.2-9.8l-6.1,6.7l-0.2,2.1l-0.2-1.6l-4.7,5.2l0.9,7.6c-1.5-1.2-2.9-2.5-4.2-3.9c-1.4-1.6-2.7-3.3-3.6-5.1
		c-0.5-0.9-1.3-1.4-2.3-1.4h-1.8l-1.7-15.6l-0.6-5.4c-1-0.4-2.1-0.2-3,0.6c-0.8,0.9-1.5,1.8-2,2.7l1.9,17.6h-17.7
		c-0.8,0-1.6,0.4-2.1,1.1c-0.5,0.6-0.7,1.5-0.5,2.4l1,5.7l1,6.1l3.7,21.4l4.5-4.9l-2.8-16.3l-1-6l-0.7-3.7h14.9c2.1,0,4,0,5.2,0
		c1,1.7,2.3,3.3,3.6,4.8c1.2,1.4,2.6,2.7,4.1,4c5.3,4.4,12,7.7,19.5,9.6c0.6-2,0.9-3.9,1-5.8C643.5,387.5,640.4,386.3,637.5,385
		 M638.8,352.4c-1.4-0.2-2.8,0.9-3,2.5l-1.4,12l6.1-6.7l0.2-1.7l1.2,0.2l0,0c1.4-1.6,2.6-3.4,3.4-5.3L638.8,352.4L638.8,352.4z
		 M637.5,385l1.8-14.9l1.2-9.8l-6.1,6.7l-0.2,2.1l-0.2-1.6l-4.7,5.2l0.9,7.6c-1.5-1.2-2.9-2.5-4.2-3.9c-1.4-1.6-2.6-3.3-3.6-5.1
		c-0.5-0.9-1.3-1.4-2.3-1.4h-1.8l-1.7-15.6l-0.6-5.4c-1-0.4-2.1-0.2-3,0.6c-0.8,0.9-1.5,1.8-2,2.7l1.9,17.6h-17.7
		c-0.8,0-1.6,0.4-2.1,1.1c-0.5,0.6-0.7,1.5-0.5,2.4l1,5.7l1,6.1l3.7,21.4l4.5-4.9l-2.8-16.3l-1-6l-0.7-3.7h14.9c2.1,0,4,0,5.2,0
		c1,1.7,2.3,3.3,3.6,4.8c1.2,1.4,2.6,2.7,4.1,4c5.3,4.4,12,7.7,19.5,9.6c0.6-2,0.9-3.9,1-5.8C643.5,387.5,640.4,386.3,637.5,385
		 M638.8,352.4c-1.4-0.2-2.8,0.9-3,2.5l-1.4,12l6.1-6.7l0.2-1.7l1.2,0.2l0,0c1.4-1.6,2.6-3.4,3.4-5.3L638.8,352.4L638.8,352.4z
		 M637.5,385l1.8-14.9l1.2-9.8l-6.1,6.7l-0.2,2.1l-0.2-1.6l-4.7,5.2l0.9,7.6c-1.5-1.2-2.9-2.5-4.2-3.9c-1.4-1.6-2.7-3.3-3.6-5.1
		c-0.5-0.9-1.3-1.4-2.3-1.4h-1.8l-1.7-15.6l-0.6-5.4c-1-0.4-2.1-0.2-3,0.6c-0.8,0.9-1.5,1.8-2,2.7l1.9,17.6h-17.7
		c-0.8,0-1.6,0.4-2.1,1.1c-0.5,0.6-0.7,1.5-0.5,2.4l1,5.7l1,6.1l3.7,21.4l4.5-4.9l-2.8-16.3l-1-6l-0.7-3.7h14.9c2.1,0,4,0,5.2,0
		c1,1.7,2.3,3.3,3.6,4.8c1.2,1.4,2.6,2.7,4.1,4c5.3,4.4,12,7.7,19.5,9.6c0.6-2,0.9-3.9,1-5.8C643.5,387.5,640.4,386.3,637.5,385
		 M638.7,352.4c-1.4-0.2-2.8,0.9-3,2.5l-1.4,12l6.1-6.7l0.2-1.7l1.2,0.2l0,0c1.4-1.6,2.6-3.4,3.4-5.3L638.7,352.4L638.7,352.4z
		 M637.5,385l1.8-14.9l1.2-9.8l-6.1,6.7l-0.2,2.1l-0.2-1.6l-4.7,5.2l0.9,7.6c-1.5-1.2-2.9-2.5-4.2-3.9c-1.4-1.6-2.7-3.3-3.6-5.1
		c-0.5-0.9-1.3-1.4-2.3-1.4h-1.8l-1.7-15.6c-0.2,0.3-0.4,0.6-0.6,0.9c-0.2,0.3-0.4,0.5-0.5,0.8c-0.1,0-0.1,0.1-0.1,0.1
		c-0.1,0.1-0.2,0.3-0.2,0.4c-0.3,0.6-0.5,1.2-0.6,1.8c-0.1,0.3-0.1,0.5-0.2,0.8c-0.1,0.3-0.1,0.6-0.1,0.9c-0.2,1.5,0,3.2,0.1,5.1
		c0.1,1.2,0.2,2.4,0.2,3.6c0,0.8,0,1.6-0.1,2.4c0,0.2,0,0.5,0,0.7c-0.1,0.3-0.1,0.6-0.2,0.9c-0.1,0.6-0.3,1.3-0.5,2
		c-0.1,0.3-0.2,0.7-0.4,1c0,0,0,0.1,0,0.1c2.1,0,4,0,5.2,0c1,1.7,2.3,3.3,3.6,4.8c1.2,1.4,2.6,2.7,4.1,4c5.3,4.4,12,7.7,19.5,9.6
		c0.6-2,0.9-3.9,1-5.8C643.5,387.5,640.4,386.3,637.5,385 M638.7,352.4c-1.4-0.2-2.8,0.9-3,2.5l-1.4,12l6.1-6.7l0.2-1.7l1.2,0.2l0,0
		c1.4-1.6,2.6-3.4,3.4-5.3L638.7,352.4L638.7,352.4z M637.5,384.9l1.8-14.9l1.2-9.8l-6.1,6.7l-0.2,2.1l-0.2-1.6l-4.7,5.2l0.9,7.6
		c-1.5-1.2-2.9-2.5-4.2-3.9c-1.4-1.6-2.7-3.3-3.6-5.1c-0.5-0.9-1.3-1.4-2.3-1.4h-1.8l-1.7-15.6c-0.2,0.3-0.4,0.6-0.6,0.9
		c-0.2,0.3-0.4,0.5-0.5,0.8c-0.1,0-0.1,0.1-0.1,0.1c-0.1,0.1-0.2,0.3-0.2,0.4c-0.3,0.6-0.5,1.2-0.6,1.8c-0.1,0.3-0.1,0.5-0.2,0.8
		c-0.1,0.3-0.1,0.6-0.1,0.9c-0.2,1.5,0,3.2,0.1,5.1c0.1,1.2,0.2,2.4,0.2,3.6c0,0.8,0,1.6-0.1,2.4c0,0.2,0,0.5,0,0.7
		c-0.1,0.3-0.1,0.6-0.2,0.9c-0.1,0.6-0.3,1.3-0.5,2c-0.1,0.3-0.2,0.7-0.4,1c0,0,0,0.1,0,0.1c2.1,0,4,0,5.2,0c1,1.7,2.3,3.3,3.6,4.8
		c1.2,1.4,2.6,2.7,4.1,4c5.3,4.4,12,7.7,19.5,9.6c0.6-2,0.9-3.9,1-5.8C643.5,387.5,640.4,386.3,637.5,384.9 M637.5,384.9l1.8-14.9
		l1.2-9.8l-6.1,6.7l-0.2,2.1l-0.2-1.6l-4.7,5.2l0.9,7.6c-1.5-1.2-2.9-2.5-4.2-3.9c-1.4-1.6-2.7-3.3-3.6-5.1
		c-0.5-0.9-1.3-1.4-2.3-1.4h-1.8l-1.7-15.6c-0.2,0.3-0.4,0.6-0.6,0.9c-0.2,0.3-0.4,0.5-0.5,0.8c-0.1,0-0.1,0.1-0.1,0.1
		c-0.1,0.1-0.2,0.3-0.2,0.4c-0.3,0.6-0.5,1.2-0.6,1.8c-0.1,0.3-0.1,0.5-0.2,0.8c-0.1,0.3-0.1,0.6-0.1,0.9c-0.2,1.5,0,3.2,0.1,5.1
		c0.1,1.2,0.2,2.4,0.2,3.6c0,0.8,0,1.6-0.1,2.4c0,0.2,0,0.5,0,0.7c-0.1,0.3-0.1,0.6-0.2,0.9c-0.1,0.6-0.3,1.3-0.5,2
		c-0.1,0.3-0.2,0.7-0.4,1c0,0,0,0.1,0,0.1c2.1,0,4,0,5.2,0c1,1.7,2.3,3.3,3.6,4.8c1.2,1.4,2.6,2.7,4.1,4c5.3,4.4,12,7.7,19.5,9.6
		c0.6-2,0.9-3.9,1-5.8C643.5,387.5,640.4,386.3,637.5,384.9 M637.5,384.9l1.8-14.9l1.2-9.8l-6.1,6.7l-0.2,2.1l-0.2-1.6l-4.7,5.2
		l0.9,7.6c-1.5-1.2-2.9-2.5-4.2-3.9c-1.4-1.6-2.7-3.3-3.6-5.1c-0.5-0.9-1.3-1.4-2.3-1.4h-1.8l-1.7-15.6c-0.2,0.3-0.4,0.6-0.6,0.9
		c-0.2,0.3-0.4,0.5-0.5,0.8c-0.1,0-0.1,0.1-0.1,0.1c-0.1,0.1-0.2,0.3-0.2,0.4c-0.3,0.6-0.5,1.2-0.6,1.8c-0.1,0.3-0.1,0.5-0.2,0.8
		c-0.1,0.3-0.1,0.6-0.1,0.9c-0.2,1.5,0,3.2,0.1,5.1c0.1,1.2,0.2,2.4,0.2,3.6c0,0.8,0,1.6-0.1,2.4c0,0.2,0,0.5-0.1,0.7
		c0,0.3-0.1,0.6-0.2,0.9c-0.1,0.6-0.3,1.3-0.5,2c-0.1,0.3-0.2,0.7-0.4,1c0,0,0,0.1,0,0.1c2.1,0,4,0,5.2,0c1,1.7,2.3,3.3,3.6,4.8
		c1.2,1.4,2.6,2.7,4.1,4c5.3,4.4,12,7.7,19.5,9.6c0.6-2,0.9-3.9,1-5.8C643.5,387.4,640.4,386.3,637.5,384.9 M622.3,371.2
		c-0.5-0.9-1.3-1.4-2.3-1.4h-1.8l-1.7-15.6c-0.2,0.3-0.4,0.6-0.6,0.9c-0.2,0.3-0.4,0.5-0.5,0.8c-0.1,0-0.1,0.1-0.1,0.1
		c-0.1,0.1-0.2,0.3-0.2,0.4c-0.3,0.6-0.5,1.2-0.6,1.8c-0.1,0.3-0.1,0.5-0.2,0.8c-0.1,0.3-0.1,0.6-0.1,0.9c-0.2,1.5,0,3.2,0.1,5.1
		c0.1,1.2,0.2,2.4,0.2,3.6c0,0.8,0,1.6-0.1,2.4c0,0.2,0,0.5-0.1,0.7c0,0.3-0.1,0.6-0.2,0.9c-0.1,0.6-0.3,1.3-0.5,2
		c-0.1,0.3-0.2,0.7-0.4,1c0,0,0,0.1,0,0.1c2.1,0,4,0,5.2,0c1,1.7,2.3,3.3,3.6,4.8l3.7-4.1C624.5,374.7,623.2,373,622.3,371.2"/>
	<path class="st6" d="M660.9,462.8c-18.5,0-34.2-9.3-34.2-20.3c0-0.4,0-0.8,0.1-1.2c0.5-4.4,3.5-8.5,8.1-11.8
		c6.3-4.5,15.7-7.3,26-7.3c18.5,0,34.2,9.3,34.2,20.3C695.2,453.5,679.5,462.8,660.9,462.8z M660.9,416.3c-7.5,0-14.6,1.3-20.5,3.7
		c-3.8,1.4-7.2,3.4-10,5.6c-4.3,3.4-7.2,7.5-8.4,12.1c-0.4,1.5-0.6,3.1-0.6,4.7s0.2,3.2,0.7,4.8c3.3,12.3,19.1,21.4,38.8,21.4
		c22.1,0,39.5-11.4,39.5-26.1C700.4,427.8,683.1,416.3,660.9,416.3"/>
	<path class="st6" d="M223.9,354.6v43.5c1.8,0,3.5-0.2,5.3-0.4V354C227.4,354.2,225.7,354.5,223.9,354.6z M260.6,419.6h-31.4v-91.2
		c6.7,2.7,12.7,7.1,17.6,12.6c1.4,1.5,2.6,3.1,3.8,4.9c6.3,9,10,20.2,10,32.1V419.6L260.6,419.6z M255.2,342.9
		c-1.2-1.7-2.4-3.3-3.7-4.9c-6.4-7.6-14.7-13.4-24.2-16.4c-0.8-0.3-1.6-0.1-2.3,0.4c-0.7,0.6-1,1.4-1,2.3v120.4
		c1.8-0.1,3.5-0.3,5.2-0.6v-18.7h15.7v13.8c1.8-0.9,3.5-1.8,5.2-2.8v-11h13.1c1,0,1.8-0.6,2.3-1.5c0.2-0.4,0.3-0.9,0.3-1.4v-44.6
		C265.8,365,261.9,352.8,255.2,342.9 M223.9,354.6v43.5c1.8,0,3.5-0.2,5.3-0.4V354C227.4,354.3,225.7,354.5,223.9,354.6z
		 M223.9,354.6v43.5c1.8,0,3.5-0.2,5.3-0.4V354C227.4,354.3,225.7,354.5,223.9,354.6z M244.9,484.8v1.2c0,1.6-1.2,2.9-2.6,2.9h-10.5
		c-0.8,0-1.5-0.3-1.9-0.9c-1.9,0.2-3.7,0.4-5.6,0.5c0.7,2.7,2.6,5,5.1,5.8c0.7,0.3,1.6,0.4,2.4,0.4h10.5c3,0,5.7-1.9,7-4.7
		c0.5-1.2,0.9-2.5,0.9-3.9v-2.9C248.3,483.7,246.6,484.3,244.9,484.8"/>
	<path class="st6" d="M197.8,376.4c0,4.8-3.5,8.6-7.9,8.6h-41.9c-4.3,0-7.9-3.9-7.9-8.6v-49.1h57.6L197.8,376.4L197.8,376.4z
		 M200.4,321.5h-62.8c-1.4,0-2.6,1.3-2.6,2.9v51.9c0,7.9,5.8,14.4,13.1,14.4h18.3V432c1.6-0.9,3.4-1.5,5.2-1.7v-39.5h18.3
		c7.2,0,13.1-6.5,13.1-14.4v-51.9C203,322.8,201.8,321.5,200.4,321.5z M176.9,477.6v11.2h-15.7v-21.5c-2.3-2.2-4.1-5-5.2-8.2v29.7
		c0,3.2,2.3,5.8,5.2,5.8h15.7c2.9,0,5.2-2.6,5.2-5.8v-8.7C180.3,479.4,178.6,478.6,176.9,477.6 M155.9,442.7v1.7
		c0.9-2.7,2.3-5.1,4.2-7.2l0.1-0.1C157.7,437.5,155.9,439.8,155.9,442.7z"/>
	<path class="st6" d="M182.1,341.7v28.8c0,1.6-1.2,2.9-2.6,2.9c-1.4,0-2.6-1.3-2.6-2.9v-28.8c0-0.6,0.2-1.1,0.4-1.6
		c0.5-0.8,1.3-1.3,2.2-1.3C180.9,338.8,182.1,340.1,182.1,341.7"/>
	<path class="st6" d="M161.1,341.7v28.8c0,1.6-1.2,2.9-2.6,2.9c-0.2,0-0.3,0-0.4,0c-1.2-0.2-2.2-1.4-2.2-2.8v-28.8
		c0-0.7,0.2-1.4,0.6-1.9c0.5-0.6,1.2-1,2-1C160,338.8,161.1,340.1,161.1,341.7z"/>
	<path class="st6" d="M183.8,390.8h-12.2v0.8c15.3,8.7,31.6,13,48,13c1.4,0,2.9,0,4.3-0.1v-6.3C210.4,398.9,196.8,396.4,183.8,390.8
		 M183.8,390.8h-12.2v0.8c15.3,8.7,31.6,13,48,13c1.4,0,2.9,0,4.3-0.1v-6.3C210.4,398.9,196.8,396.4,183.8,390.8 M183.8,390.8h-12.2
		v0.8c15.3,8.7,31.6,13,48,13c1.4,0,2.9,0,4.3-0.1v-6.3C210.4,398.9,196.8,396.4,183.8,390.8 M183.8,390.8h-12.2v0.8
		c15.3,8.7,31.6,13,48,13c1.4,0,2.9,0,4.3-0.1v-6.3C210.4,398.9,196.8,396.4,183.8,390.8 M183.8,390.8h-12.2v0.8
		c15.3,8.7,31.6,13,48,13c1.4,0,2.9,0,4.3-0.1v-6.3C210.4,398.9,196.8,396.4,183.8,390.8 M183.8,390.8h-12.2v0.8
		c15.3,8.7,31.6,13,48,13c1.4,0,2.9,0,4.3-0.1v-6.3C210.4,398.9,196.8,396.5,183.8,390.8 M183.8,390.8h-12.2v0.8
		c15.3,8.7,31.6,13,48,13c1.4,0,2.9,0,4.3-0.1v-6.3C210.4,399,196.8,396.5,183.8,390.8 M183.8,390.9h-12.2v0.8
		c15.3,8.7,31.6,13,48,13c1.4,0,2.9,0,4.3-0.1v-6.3C210.4,399,196.8,396.5,183.8,390.9 M223.9,398.2v6.3c1.8,0,3.5-0.2,5.3-0.4v-6.3
		C227.4,398,225.7,398.2,223.9,398.2z M223.9,404.5c1.8,0,3.5-0.2,5.3-0.4v-6.3c-1.8,0.2-3.5,0.3-5.3,0.4V404.5z M284.7,344.7
		c-0.5-0.7-1.1-1.4-1.7-2l-0.6-0.7l1.3-11.5l11.6,12.8L284.7,344.7L284.7,344.7z M303.4,343.3l-4.4-4.9l-15.3-16.9
		c-0.7-0.9-1.9-1.2-2.9-0.8c-1,0.4-1.7,1.4-1.9,2.6l-1.6,14.1c-7.8-5.1-17.7-5-25.8,0.7c0,0,0,0,0,0c-1.5,1.1-3.1,2.1-4.6,2.9
		c1.4,1.5,2.6,3.1,3.8,4.9c1.3-0.8,2.6-1.6,3.9-2.5c0.2-0.2,0.5-0.3,0.7-0.4c7.5-4.9,16.9-3.7,22.9,3l1,1.1
		c3.9,4.4,5.9,10.4,5.4,16.5c-0.5,6.1-3.5,11.6-8,15.1c-3.5,2.6-7,4.9-10.6,7c-1.7,1-3.5,2-5.2,2.8v6.8c1.8-0.8,3.5-1.7,5.2-2.6
		c4.7-2.6,9.3-5.5,13.8-8.9c6-4.5,9.8-11.7,10.5-19.6c0.4-4.8-0.4-9.4-2.1-13.6l11-1.5l2.8-0.4c1-0.1,1.9-0.9,2.3-2.1
		c0.1-0.3,0.2-0.6,0.2-1C304.2,344.7,303.9,343.9,303.4,343.3 M223.9,398.2v6.3c1.8,0,3.5-0.2,5.3-0.4v-6.3
		C227.4,398,225.7,398.2,223.9,398.2z M135.8,343.3c-0.5,0.6-0.8,1.4-0.8,2.2c0,0.3,0,0.7,0.2,1c0.4,1.1,1.2,1.9,2.3,2.1l2.8,0.4
		v-10.5L135.8,343.3L135.8,343.3z M155.9,369v1.7c0,1.4,0.9,2.6,2.2,2.8C157.2,372.1,156.5,370.6,155.9,369z M160.4,323.3
		c-0.1-0.6-0.4-1.2-0.7-1.7c-0.3-0.4-0.7-0.7-1.2-0.9c-1-0.4-2.1-0.1-2.9,0.8l-0.1,0.1l-5.2,5.8h10.6L160.4,323.3z M158.5,338.9
		c-0.8,0-1.5,0.4-2,1l0.2,2l-0.6,0.7c-0.1,0.1-0.2,0.2-0.2,0.3v11.3c0.9-2.7,2.3-5.1,4.2-7.2l1-1.1v-4.1
		C161.2,340.2,160,338.9,158.5,338.9 M179.5,338.9c-0.9,0-1.7,0.6-2.2,1.3c1.6,0.3,3.3,0.9,4.8,1.6
		C182.1,340.2,180.9,338.9,179.5,338.9 M224,398.2c-13.5,0.7-27.2-1.8-40.1-7.4c-3.9-1.6-7.6-3.6-11.4-5.8h-11
		c3.3,2.4,6.7,4.6,10.2,6.6c15.3,8.7,31.6,13,48,13c1.4,0,2.9,0,4.3-0.1c1.8,0,3.5-0.2,5.3-0.4v-6.3
		C227.5,398,225.7,398.2,224,398.2 M183.9,390.9h-12.2v0.8c15.3,8.7,31.6,13,48,13c1.4,0,2.9,0,4.3-0.1v-6.3
		C210.4,399,196.8,396.5,183.9,390.9 M224,348.4c-7,0.6-14.1-0.2-20.9-2.5c-1.8-0.6-3.5-1.2-5.2-2.1v6.7c1.7,0.7,3.5,1.3,5.2,1.8
		c6.9,2.1,13.9,2.9,20.9,2.3c1.8-0.1,3.5-0.3,5.3-0.6v-6.4C227.5,348.1,225.7,348.3,224,348.4 M183.9,390.9h-12.2v0.8
		c15.3,8.7,31.6,13,48,13c1.4,0,2.9,0,4.3-0.1v-6.3C210.4,399,196.8,396.5,183.9,390.9 M183.9,390.9h-12.2v0.8
		c15.3,8.7,31.6,13,48,13c1.4,0,2.9,0,4.3-0.1v-6.3C210.4,399,196.8,396.5,183.9,390.9 M183.9,390.9h-12.2v0.8
		c15.3,8.7,31.6,13,48,13c1.4,0,2.9,0,4.3-0.1v-6.3C210.4,399,196.8,396.5,183.9,390.9 M183.9,390.9h-12.2v0.8
		c15.3,8.7,31.6,13,48,13c1.4,0,2.9,0,4.3-0.1v-6.3C210.4,399,196.8,396.5,183.9,390.9 M183.9,390.9h-12.2v0.8
		c15.3,8.7,31.6,13,48,13c1.4,0,2.9,0,4.3-0.1v-6.3C210.4,399,196.8,396.5,183.9,390.9 M183.9,390.9h-12.2v0.8
		c15.3,8.7,31.6,13,48,13c1.4,0,2.9,0,4.3-0.1v-6.3C210.4,399,196.8,396.6,183.9,390.9 M183.9,390.9h-12.2v0.8
		c15.3,8.7,31.6,13,48,13c1.4,0,2.9,0,4.3-0.1v-6.3C210.4,399,196.8,396.6,183.9,390.9 M183.9,390.9h-12.2v0.8
		c15.3,8.7,31.6,13,48,13c1.4,0,2.9,0,4.3-0.1v-6.3C210.4,399.1,196.8,396.6,183.9,390.9 M183.9,391h-12.2v0.8
		c15.3,8.7,31.6,13,48,13c1.4,0,2.9,0,4.3-0.1v-6.3C210.4,399.1,196.8,396.6,183.9,391"/>
	<path class="st6" d="M229.1,437.8v6.3c5.3-0.9,10.6-2.6,15.7-5v-6.9C239.8,435,234.5,436.8,229.1,437.8z M229.1,437.8v6.3
		c5.3-0.9,10.6-2.6,15.7-5v-6.9C239.8,435,234.5,436.8,229.1,437.8z M229.1,437.8v6.3c5.3-0.9,10.6-2.6,15.7-5v-6.9
		C239.8,435,234.5,436.8,229.1,437.8z M284.7,434.8c-0.5-0.7-1.1-1.4-1.7-2l-0.6-0.7l1.3-11.5l11.6,12.8L284.7,434.8L284.7,434.8z
		 M284.5,453.6c-0.5,6.1-3.5,11.6-8,15.1c-8.4,6.3-17.2,11.1-26.3,14.4c-1.7,0.6-3.5,1.2-5.2,1.7c-5,1.5-10,2.5-15,3.1
		c-1.9,0.2-3.7,0.4-5.6,0.5c-14.2,0.8-28.6-2-42.2-8.2c-1.8-0.7-3.5-1.6-5.2-2.5c-4.8-2.5-9.5-5.5-14-8.9c-0.6-0.4-1.2-0.9-1.7-1.4
		c-2.3-2.2-4.1-5-5.2-8.2c-0.6-1.7-1-3.6-1.2-5.4c-0.3-3.2,0.1-6.4,1.2-9.3c0.9-2.7,2.3-5.1,4.2-7.2l0.1-0.1l0.9-1
		c1.6-1.7,3.3-3.1,5.3-4c1.6-0.9,3.4-1.5,5.2-1.7c0.9-0.1,1.7-0.2,2.6-0.2c3.6,0,7.3,1.1,10.5,3.4c12.2,8.5,25.8,12.3,39.2,11.2
		c1.8-0.1,3.5-0.3,5.2-0.6c5.3-0.9,10.6-2.6,15.7-5c1.8-0.9,3.5-1.8,5.2-2.8c1.5-0.9,3-1.9,4.4-2.8c7.7-5.4,17.4-4.3,23.6,2.5l1,1.1
		C283,441.5,285,447.5,284.5,453.6 M143.9,433.3l11.6-12.8l1.3,11.5l-0.6,0.7c-0.6,0.6-1.1,1.3-1.7,2L143.9,433.3L143.9,433.3z
		 M303.4,433.4l-19.8-21.8c-0.7-0.8-1.9-1.1-2.9-0.7c-1,0.4-1.8,1.4-1.9,2.6l-1.6,14.1c-3.6-2.4-7.7-3.6-11.8-3.7
		c-2.8,0-5.7,0.4-8.5,1.5c-1.9,0.7-3.8,1.7-5.5,2.9c-0.5,0.3-0.9,0.6-1.4,0.9c-1.7,1.2-3.5,2.2-5.2,3.1c-5.1,2.7-10.3,4.5-15.7,5.5
		c-1.7,0.3-3.5,0.6-5.2,0.7c-12.3,1.1-24.9-2.4-36.1-10.2c-5-3.5-10.7-4.9-16.2-4.2c-1.8,0.2-3.5,0.6-5.2,1.3
		c-1.6,0.6-3,1.3-4.4,2.2l-1.6-14.1c-0.2-1.2-0.9-2.2-1.9-2.6c-1-0.4-2.1-0.1-2.9,0.7l-19.7,21.8c-0.8,0.8-1,2.1-0.7,3.2
		c0.3,1.1,1.2,1.9,2.3,2.1l13.8,1.9c-1.7,4.2-2.5,8.9-2.1,13.6c0.5,6.2,3,11.9,6.8,16.2c1.1,1.3,2.3,2.4,3.7,3.4
		c0.5,0.4,1,0.7,1.5,1.1c5.1,3.7,10.3,6.9,15.7,9.6c1.7,0.8,3.5,1.6,5.2,2.4c12.2,5.2,24.9,7.8,37.5,7.8c3.3,0,6.5-0.2,9.8-0.6
		c6.7-0.7,13.3-2.1,19.8-4.3c10.5-3.4,20.7-8.8,30.4-16c6-4.5,9.8-11.7,10.5-19.6c0.4-4.7-0.4-9.4-2.1-13.6l11-1.5l2.8-0.4
		c1-0.1,1.9-0.9,2.3-2.1c0.1-0.3,0.2-0.6,0.2-1C304.2,434.8,303.9,433.9,303.4,433.4 M161.2,467.2v7.7c5.1,3.7,10.3,6.9,15.7,9.6
		v-6.9c-4.8-2.5-9.5-5.5-14-8.9C162.3,468.2,161.7,467.8,161.2,467.2z M229.2,437.8v6.3c5.3-0.9,10.6-2.6,15.7-5v-6.9
		C239.8,434.9,234.5,436.8,229.2,437.8z M231.8,488.8h10.5c1.4,0,2.6-1.3,2.6-2.9v-1.2c-5,1.5-10,2.5-15,3.1
		C230.3,488.4,231,488.8,231.8,488.8z M229.2,437.8v6.3c5.3-0.9,10.6-2.6,15.7-5v-6.9C239.8,434.9,234.5,436.8,229.2,437.8z
		 M229.2,437.8v6.3c5.3-0.9,10.6-2.6,15.7-5v-6.9C239.8,434.9,234.5,436.8,229.2,437.8z"/>
	<path class="st6" d="M599.3,379.4l1,6c-1.5,0.1-2.9,0-4.2-0.1c-0.4,0-0.8,0-1.2-0.1c-3.4-0.2-6.2-0.1-8.9,2.9
		c-3,3.3-2.8,6.7-2.5,11.1c0.3,4.7,0.6,10.5-4.1,15.7c-4.8,5.3-10.1,4.9-14.3,4.5c-4-0.3-7.1-0.5-10.1,2.8c-3,3.3-2.8,6.7-2.5,11.1
		c0.3,4.7,0.7,10.5-4.1,15.8c-4.8,5.2-10.1,4.9-14.3,4.5c-4-0.3-7.1-0.5-10.1,2.8c-0.2,0.2-0.3,0.3-0.4,0.4c-0.5,0.3-1,0.5-1.5,0.5
		c-0.7,0-1.4-0.3-1.9-0.9c-1.1-1.2-1.1-3.1,0-4.2c2.6-2.8,5.3-4,7.9-4.5c2.2-0.4,4.4-0.2,6.3-0.1c4,0.3,7.1,0.5,10.1-2.8
		c3-3.3,2.8-6.7,2.5-11.1c-0.3-4.7-0.6-10.5,4.1-15.7c4.7-5.3,10-4.9,14.3-4.5c4,0.3,7.1,0.5,10.1-2.8c3-3.3,2.8-6.7,2.5-11.1
		c-0.3-4.7-0.6-10.5,4.1-15.8c3.9-4.2,8-4.8,11.7-4.7c0.9,0,1.8,0.1,2.6,0.2C597.4,379.3,598.4,379.4,599.3,379.4"/>
	<path class="st6" d="M616.7,354.3c-0.3,0.3-0.5,0.6-0.6,0.9c-0.2,0.3-0.4,0.5-0.5,0.8c-0.1,0-0.1,0.1-0.1,0.1
		c-0.1,0.1-0.2,0.3-0.2,0.4c-0.3,0.6-0.5,1.2-0.6,1.8c-0.1,0.3-0.1,0.5-0.2,0.8c-0.1,0.3-0.1,0.6-0.1,0.9c-0.2,1.5,0,3.2,0.1,5.1
		c0.1,1.2,0.2,2.4,0.2,3.6c0,0.8,0,1.6-0.1,2.4c0,0.2,0,0.5,0,0.7h0c0,0.3-0.1,0.6-0.2,0.9c-0.1,0.6-0.3,1.3-0.5,2
		c-0.1,0.3-0.2,0.7-0.4,1c0,0,0,0.1,0,0.1h-6.3c1.4-1.9,1.9-3.7,2-5.8c0.1-1.4,0-2.9-0.1-4.5c-0.2-3.9-0.5-8.5,2.1-13
		c0.5-0.9,1.2-1.9,2-2.7c0.8-0.9,1.9-1.1,3-0.6L616.7,354.3L616.7,354.3z"/>
	<path class="st6" d="M634.1,367.5l0.2,1.6l0.2-2.1L634.1,367.5L634.1,367.5z M626,376.4l-3.7,4.1c1.2,1.4,2.6,2.7,4.1,4l3.8-4.2
		C628.7,379.1,627.3,377.8,626,376.4 M634.5,367l-0.2,2.1l-0.2-1.6l-4.7,5.2l0.9,7.6l9.3-10.2l1.2-9.8L634.5,367L634.5,367z
		 M497.6,413.4c-0.4,0.9-0.7,1.8-1.1,2.7c-0.4,1-0.7,2.1-1,3.1h5.8c0-0.2,0.2-0.5,0.2-0.7c0.7-1.7,1.4-3.4,2.1-5.1H497.6z
		 M626.1,376.4l-3.7,4.1c1.2,1.4,2.6,2.7,4.1,4l3.8-4.2C628.7,379.1,627.3,377.8,626.1,376.4 M634.6,367l-0.2,2.1l-0.2-1.6l-4.7,5.2
		l0.9,7.6l9.3-10.2l1.2-9.8L634.6,367L634.6,367z M497.6,413.4c-0.4,0.9-0.7,1.9-1.1,2.7c-0.4,1-0.7,2.1-1,3.1h5.8
		c0-0.2,0.2-0.5,0.2-0.7c0.7-1.7,1.4-3.4,2.1-5.1H497.6z M497.6,413.4c-0.4,0.9-0.7,1.9-1.1,2.7c-0.4,1-0.7,2.1-1,3.1h5.8
		c0-0.2,0.2-0.5,0.2-0.7c0.7-1.7,1.4-3.4,2.1-5.1H497.6z M626.1,376.4l-3.7,4.1c1.2,1.4,2.6,2.7,4.1,4l3.8-4.2
		C628.7,379.1,627.3,377.8,626.1,376.4 M611.7,450.3c-1.5,1.7-3,3.3-4.5,4.8c-13.2,13.6-28.2,24.8-43.4,32c-8.6,4.1-17.2,3-22.4-2.7
		l-2.7-3l61.3-67.6l4.5-5l-1.3-7.1l-4.5,4.9L528.5,484c-6.6,7.3-17.5,7.3-24.2,0c-0.8-0.9-1.6-1.9-2.2-3c-1-1.7-1.8-3.5-2.2-5.4
		c-1.6,1.2-3.1,2.3-4.8,3.4c0.5,1.9,1.3,3.6,2.3,5.2c0.9,1.5,1.9,2.8,3,4.1c4.4,4.9,10.2,7.3,15.9,7.3c5.8,0,11.5-2.4,15.9-7.3
		l2.4-2.6l2.7,3c4.2,4.5,9.8,6.9,16,6.9c4,0,8.2-0.9,12.4-2.9c15-7.1,29.6-17.6,42.6-30.3c1.6-1.5,3-3.1,4.5-4.7L611.7,450.3
		L611.7,450.3z M634.6,367l-0.4,0.5l-4.7,5.2l0.9,7.6l9.3-10.2l1.2-9.8L634.6,367L634.6,367z M497.6,413.4c-0.4,0.9-0.7,1.9-1.1,2.7
		c-0.4,1-0.7,2.1-1,3.1h5.8c0-0.2,0.2-0.5,0.2-0.7c0.7-1.7,1.4-3.4,2.1-5.1H497.6z M634.2,367.5l0.2,1.6l0.2-2.1L634.2,367.5
		L634.2,367.5z M497.6,413.4c-0.4,0.9-0.7,1.9-1.1,2.7c-0.4,1-0.7,2.1-1,3.1h5.8c0-0.2,0.2-0.5,0.2-0.7c0.7-1.7,1.4-3.4,2.1-5.1
		H497.6z M634.2,367.5l0.2,1.6l0.2-2.1L634.2,367.5L634.2,367.5z M497.6,413.4c-0.4,0.9-0.7,1.9-1.1,2.7c-0.4,1-0.7,2.1-1,3.1h5.8
		c0-0.2,0.2-0.5,0.2-0.7c0.7-1.7,1.4-3.4,2.1-5.1H497.6z M634.2,367.5l0.2,1.6l0.2-2.1L634.2,367.5L634.2,367.5z M497.6,413.4
		c-0.4,0.9-0.7,1.9-1.1,2.7c-0.4,1-0.7,2.1-1,3.1h5.8c0-0.2,0.2-0.5,0.2-0.7c0.7-1.7,1.4-3.4,2.1-5.1H497.6z M634.2,367.5l0.2,1.6
		l0.2-2.1L634.2,367.5L634.2,367.5z M497.6,413.4c-0.4,0.9-0.7,1.9-1.1,2.7c-0.4,1-0.7,2.1-1,3.1h5.8c0-0.2,0.2-0.5,0.2-0.7
		c0.7-1.7,1.4-3.4,2.1-5.1H497.6z M634.2,367.5l0.2,1.6l0.2-2.1L634.2,367.5L634.2,367.5z M497.6,413.4c-0.4,0.9-0.7,1.9-1.1,2.7
		c-0.4,1-0.7,2.1-1,3.1h5.8c0-0.2,0.2-0.5,0.2-0.7c0.7-1.7,1.4-3.4,2.1-5.1H497.6z M634.2,367.5l0.2,1.6l0.2-2.1L634.2,367.5
		L634.2,367.5z M496.5,416.1c-0.4,1-0.7,2.1-1,3.1h5.8c0-0.2,0.2-0.5,0.2-0.7c0.7-1.7,1.4-3.4,2.1-5.1h-6
		C497.2,414.3,496.9,415.2,496.5,416.1z M634.4,369.1l0.2-2.1l-0.4,0.5L634.4,369.1L634.4,369.1z M648.4,334.3l1.7-0.3
		c-0.9-1.9-1.9-3.7-3.3-5.3c-0.2-0.3-0.5-0.6-0.8-0.9c-8.8-9.7-23.1-9.7-31.9,0l-2.4,2.6l-2.7-3c-6.8-7.5-17.7-9-28.4-4
		c-26.8,12.6-52.1,36.2-69.5,63.8c-1.2,1.9-2.4,3.9-3.5,5.8h6.6c1.2-2,2.4-3.9,3.7-5.8c16.8-25.2,40.4-46.8,64.8-58.3
		c8.6-4,17.2-3,22.4,2.7l2.7,3L535,415l-5.6,6.2c-0.3,3.5-0.9,7-1.6,10.3l6.6-7.3l83.6-92.2c3.3-3.6,7.7-5.5,12.1-5.5
		c4.4,0,8.8,1.9,12.1,5.5c0.3,0.3,0.5,0.6,0.7,0.9c2.8,3.4,4.3,7.8,4.3,12.4c0,2.7-0.5,5.2-1.4,7.5c0,0.1-0.1,0.3-0.2,0.4
		c-0.8,2-1.9,3.7-3.4,5.3l0,0l4.5,0.7l0.4,2.4c1.9-2.3,3.3-5,4.2-7.9L648.4,334.3L648.4,334.3z M634.2,367.5l0.2,1.6l0.2-2.1
		L634.2,367.5L634.2,367.5z M497.6,413.4c-0.4,0.9-0.7,1.8-1.1,2.7c-0.4,1-0.7,2.1-1,3.1h5.8c0-0.2,0.2-0.5,0.2-0.7
		c0.7-1.7,1.4-3.4,2.1-5.1H497.6z M634.2,367.5l0.2,1.6l0.2-2.1L634.2,367.5L634.2,367.5z M497.6,413.4c-0.4,0.9-0.7,1.8-1.1,2.7
		c-0.4,1-0.7,2.1-1,3.1h5.8c0-0.2,0.2-0.5,0.2-0.7c0.7-1.7,1.4-3.4,2.1-5.1H497.6z M634.2,367.5l0.2,1.6l0.2-2.1L634.2,367.5
		L634.2,367.5z M497.6,413.4c-0.4,0.9-0.7,1.8-1.1,2.7c-0.4,1-0.7,2.1-1,3.1h5.8c0-0.2,0.2-0.5,0.2-0.7c0.7-1.7,1.4-3.4,2.1-5.1
		H497.6z M634.2,367.5l0.2,1.6l0.2-2.1L634.2,367.5L634.2,367.5z M497.6,413.4c-0.4,0.9-0.7,1.8-1.1,2.7c-0.4,1-0.7,2.1-1,3.1h5.8
		c0-0.2,0.2-0.5,0.2-0.7c0.7-1.7,1.4-3.4,2.1-5.1H497.6z M634.2,367.5l0.2,1.6l0.2-2.1L634.2,367.5L634.2,367.5z M497.6,413.4
		c-0.4,0.9-0.7,1.8-1.1,2.7c-0.4,1-0.7,2.1-1,3.1h5.8c0-0.2,0.2-0.5,0.2-0.7c0.7-1.7,1.4-3.4,2.1-5.1H497.6z M634.2,367.5l0.2,1.6
		l0.2-2.1L634.2,367.5L634.2,367.5z M497.6,413.4c-0.4,0.9-0.7,1.8-1.1,2.7c-0.4,1-0.7,2.1-1,3.1h5.8c0-0.2,0.2-0.5,0.2-0.7
		c0.7-1.7,1.4-3.4,2.1-5.1H497.6z M634.2,367.5l0.2,1.6l0.2-2.1L634.2,367.5L634.2,367.5z M497.6,413.4c-0.4,0.9-0.7,1.8-1.1,2.7
		c-0.4,1-0.7,2.1-1,3.1h5.8c0-0.2,0.2-0.5,0.2-0.7c0.7-1.7,1.4-3.4,2.1-5.1H497.6z M648.4,371.2l2.6,18c-1.3-0.3-2.6-0.5-3.9-0.9
		c-0.1,1.9-0.5,3.8-1,5.8c1.8,0.5,3.6,0.8,5.4,1.1C653.8,386.3,652.6,377.6,648.4,371.2z M630.6,425.6c-2.6,4.2-5.4,8.2-8.4,12.1
		c-0.4,1.5-0.6,3.1-0.6,4.7c0,1.6,0.2,3.2,0.7,4.8c1.6-2,3.1-3.9,4.7-6c0.5-4.4,3.5-8.5,8.1-11.8c1.9-3.1,3.8-6.2,5.6-9.4
		C636.7,421.5,633.4,423.4,630.6,425.6 M497.7,413.4c-0.4,0.9-0.7,1.8-1.1,2.7c-0.4,1-0.7,2.1-1,3.1h5.8c0-0.2,0.2-0.5,0.2-0.7
		c0.7-1.7,1.4-3.4,2.1-5.1H497.7z M497.7,413.4c-0.4,0.9-0.7,1.8-1.1,2.7c-0.4,1-0.7,2.1-1,3.1h5.8c0-0.2,0.2-0.5,0.2-0.7
		c0.7-1.7,1.4-3.4,2.1-5.1H497.7z M626.1,376.4l-3.7,4.1c1.2,1.4,2.6,2.7,4.1,4l3.8-4.2C628.8,379.1,627.4,377.8,626.1,376.4
		 M634.6,367l-0.2,2.1l-0.2-1.6l-4.7,5.2l0.9,7.6l9.3-10.2l1.2-9.8L634.6,367L634.6,367z"/>
	<path class="st6" d="M497.6,413.4c-0.4,0.9-0.7,1.9-1.1,2.7c-0.4,1-0.7,2.1-1,3.1h5.8c0-0.2,0.2-0.5,0.2-0.7
		c0.7-1.7,1.4-3.4,2.1-5.1H497.6z M400.6,413.4c-0.5,2-1.1,3.9-1.7,5.8h96.5c0.3-1,0.7-2.1,1-3.1c0.4-0.9,0.7-1.9,1.1-2.7H400.6
		L400.6,413.4z M400.6,413.4c-0.5,2-1.1,3.9-1.7,5.8h96.5c0.3-1,0.7-2.1,1-3.1c0.4-0.9,0.7-1.9,1.1-2.7H400.6L400.6,413.4z
		 M400.6,413.4c-0.5,2-1.1,3.9-1.7,5.8h96.5c0.3-1,0.7-2.1,1-3.1c0.4-0.9,0.7-1.9,1.1-2.7H400.6L400.6,413.4z M400.6,413.4
		c-0.5,2-1.1,3.9-1.7,5.8h96.5c0.3-1,0.7-2.1,1-3.1c0.4-0.9,0.7-1.9,1.1-2.7H400.6L400.6,413.4z M400.6,413.4
		c-0.5,2-1.1,3.9-1.7,5.8h96.5c0.3-1,0.7-2.1,1-3.1c0.4-0.9,0.7-1.9,1.1-2.7H400.6L400.6,413.4z M400.6,413.4
		c-0.5,2-1.1,3.9-1.7,5.8h96.5c0.3-1,0.7-2.1,1-3.1c0.4-0.9,0.7-1.9,1.1-2.7H400.6L400.6,413.4z M400.6,413.4
		c-0.5,2-1.1,3.9-1.7,5.8h96.5c0.3-1,0.7-2.1,1-3.1c0.4-0.9,0.7-1.9,1.1-2.7H400.6L400.6,413.4z M400.6,413.4
		c-0.5,2-1.1,3.9-1.7,5.8h96.5c0.3-1,0.7-2.1,1-3.1c0.4-0.9,0.7-1.9,1.1-2.7H400.6L400.6,413.4z M400.6,413.4
		c-0.5,2-1.1,3.9-1.7,5.8h96.5c0.3-1,0.7-2.1,1-3.1c0.4-0.9,0.7-1.9,1.1-2.7H400.6L400.6,413.4z M400.6,413.4
		c-0.5,2-1.1,3.9-1.7,5.8h96.5c0.3-1,0.7-2.1,1-3.1c0.4-0.9,0.7-1.9,1.1-2.7H400.6L400.6,413.4z M535,413.4V396
		c0-4.8-3.5-8.7-7.9-8.7H406c-0.2,2-0.4,3.9-0.7,5.8h121.8c1.4,0,2.6,1.3,2.6,2.9v17.4H400.6c-0.5,2-1.1,3.9-1.7,5.8h130.6
		c0,0.7-0.1,1.4-0.2,2c-0.3,3.5-0.9,7-1.6,10.3c-4.1,18.2-14.2,33.8-27.8,44c-1.6,1.2-3.1,2.3-4.8,3.4c-10,6.3-21.6,9.9-33.9,9.9
		c-28.2,0-52.5-19-63-46c-1.2-3.3-2.3-6.6-3.1-10.1c-0.9,3.7-1.7,7.3-2.3,10.8c1.2,3.2,2.5,6.4,4,9.3c12.6,25,36.8,41.9,64.4,41.9
		c13.2,0,25.5-3.8,36.2-10.5c1.6-0.9,3.1-2,4.7-3.1c8.6-6.4,15.9-14.6,21.5-24.3c1.7-2.9,3.2-6,4.5-9.1c3.1-7.3,5.3-15.1,6.2-23.4
		c0.3-2.5,0.5-5,0.6-7.5c0-0.1,0.1-0.3,0.1-0.4c0-0.1,0-0.2-0.1-0.3c0-0.3,0-0.6,0-1C534.9,414.5,534.9,413.9,535,413.4
		 M400.5,413.4c-0.5,2-1.1,3.9-1.7,5.8h96.5c0.3-1,0.7-2.1,1-3.1c0.4-0.9,0.7-1.8,1.1-2.7H400.5L400.5,413.4z M400.5,413.4
		c-0.5,2-1.1,3.9-1.7,5.8h96.5c0.3-1,0.7-2.1,1-3.1c0.4-0.9,0.7-1.8,1.1-2.7H400.5L400.5,413.4z M400.5,413.4
		c-0.5,2-1.1,3.9-1.7,5.8h96.5c0.3-1,0.7-2.1,1-3.1c0.4-0.9,0.7-1.8,1.1-2.7H400.5L400.5,413.4z M400.5,413.4
		c-0.5,2-1.1,3.9-1.7,5.8h96.5c0.3-1,0.7-2.1,1-3.1c0.4-0.9,0.7-1.8,1.1-2.7H400.5L400.5,413.4z M400.5,413.4
		c-0.5,2-1.1,3.9-1.7,5.8h96.5c0.3-1,0.7-2.1,1-3.1c0.4-0.9,0.7-1.8,1.1-2.7H400.5L400.5,413.4z M400.5,413.4
		c-0.5,2-1.1,3.9-1.7,5.8h96.5c0.3-1,0.7-2.1,1-3.1c0.4-0.9,0.7-1.8,1.1-2.7H400.5L400.5,413.4z M400.5,413.4
		c-0.5,2-1.1,3.9-1.7,5.8h96.5c0.3-1,0.7-2.1,1-3.1c0.4-0.9,0.7-1.8,1.1-2.7H400.5L400.5,413.4z M400.5,413.4
		c-0.5,2-1.1,3.9-1.7,5.8h96.5c0.3-1,0.7-2.1,1-3.1c0.4-0.9,0.7-1.8,1.1-2.7H400.5L400.5,413.4z M400.5,413.4
		c-0.5,2-1.1,3.9-1.7,5.8h96.5c0.3-1,0.7-2.1,1-3.1c0.4-0.9,0.7-1.8,1.1-2.7H400.5L400.5,413.4z M400.5,413.4
		c-0.5,2-1.1,3.9-1.7,5.8h96.5c0.3-1,0.7-2.1,1-3.1c0.4-0.9,0.7-1.8,1.1-2.7H400.5L400.5,413.4z"/>
	<path class="st6" d="M459.7,364.7c-2.8,2.3-6.3,5.2-6.3,11c0,1.6,1.2,2.9,2.6,2.9c1.5,0,2.6-1.3,2.6-2.9c0-2.8,1.5-4.2,4.2-6.4
		c2.8-2.3,6.3-5.2,6.3-11c0-5.8-3.5-8.7-6.3-11c-2.7-2.2-4.2-3.6-4.2-6.4s1.5-4.2,4.2-6.4c2.8-2.3,6.3-5.2,6.3-11
		c0-1.6-1.2-2.9-2.6-2.9c-1.5,0-2.6,1.3-2.6,2.9c0,2.8-1.5,4.2-4.2,6.4c-2.8,2.3-6.3,5.2-6.3,11s3.5,8.7,6.3,11
		c2.7,2.2,4.2,3.6,4.2,6.4C463.9,361,462.4,362.4,459.7,364.7"/>
	<path class="st6" d="M483.4,364.7c-2.8,2.3-6.3,5.2-6.3,11c0,1.6,1.2,2.9,2.6,2.9c1.5,0,2.6-1.3,2.6-2.9c0-2.8,1.5-4.2,4.2-6.4
		c2.8-2.3,6.3-5.2,6.3-11c0-5.8-3.5-8.7-6.3-11c-2.7-2.2-4.2-3.6-4.2-6.4s1.5-4.2,4.2-6.4c2.8-2.3,6.3-5.2,6.3-11
		c0-1.6-1.2-2.9-2.6-2.9c-1.5,0-2.6,1.3-2.6,2.9c0,2.8-1.5,4.2-4.2,6.4c-2.8,2.3-6.3,5.2-6.3,11s3.5,8.7,6.3,11
		c2.7,2.2,4.2,3.6,4.2,6.4C487.6,361,486.1,362.4,483.4,364.7"/>
	<path class="st6" d="M436,364.7c-2.8,2.3-6.3,5.2-6.3,11c0,1.6,1.2,2.9,2.6,2.9c1.5,0,2.6-1.3,2.6-2.9c0-2.8,1.5-4.2,4.2-6.4
		c2.8-2.3,6.3-5.2,6.3-11c0-5.8-3.5-8.7-6.3-11c-2.7-2.2-4.2-3.6-4.2-6.4s1.5-4.2,4.2-6.4c2.8-2.3,6.3-5.2,6.3-11
		c0-1.6-1.2-2.9-2.6-2.9c-1.5,0-2.6,1.3-2.6,2.9c0,2.8-1.5,4.2-4.2,6.4c-2.8,2.3-6.3,5.2-6.3,11s3.5,8.7,6.3,11
		c2.7,2.2,4.2,3.6,4.2,6.4C440.2,361,438.7,362.4,436,364.7"/>
	<path class="st6" d="M354.2,378.6v5.8c1.9,0,3.7-0.1,5.3-0.3v-5.8C357.9,378.5,356.2,378.6,354.2,378.6z M354.2,378.6v5.8
		c1.9,0,3.7-0.1,5.3-0.3v-5.8C357.9,378.5,356.2,378.6,354.2,378.6z M354.2,378.6v5.8c1.9,0,3.7-0.1,5.3-0.3v-5.8
		C357.9,378.5,356.2,378.6,354.2,378.6z M354.2,378.6v5.8c1.9,0,3.7-0.1,5.3-0.3v-5.8C357.9,378.5,356.2,378.6,354.2,378.6z
		 M354.2,378.6v5.8c1.9,0,3.7-0.1,5.3-0.3v-5.8C357.9,378.5,356.2,378.6,354.2,378.6z M354.2,378.6v5.8c1.9,0,3.7-0.1,5.3-0.3v-5.8
		C357.9,378.5,356.2,378.6,354.2,378.6z M354.2,378.6v5.8c1.9,0,3.7-0.1,5.3-0.3v-5.8C357.9,378.5,356.2,378.6,354.2,378.6z
		 M354.2,378.6v5.8c1.9,0,3.7-0.1,5.3-0.3v-5.8C357.9,378.5,356.2,378.6,354.2,378.6z M354.2,378.6v5.8c1.9,0,3.7-0.1,5.3-0.3v-5.8
		C357.9,378.5,356.2,378.6,354.2,378.6z M354.2,378.6v5.8c1.9,0,3.7-0.1,5.3-0.3v-5.8C357.9,378.5,356.2,378.6,354.2,378.6z
		 M392.5,486.6c-1,1.5-2.6,2.3-4.2,2.3H357c-1.7,0-3.2-0.8-4.2-2.3c-1-1.4-1.3-3.2-0.9-4.9c0.8-3.3,1.4-6.7,1.8-10.2h37.9
		c0.4,3.5,0.9,6.9,1.8,10.2C393.7,483.4,393.4,485.2,392.5,486.6 M404.9,322.4c-0.4-1.2-1.4-1.9-2.5-1.9h-59.7
		c-1.1,0-2.1,0.8-2.5,1.9c-0.4,1.3-0.8,2.6-1.2,3.9h61.5c3.9,12.4,6,27.3,6.2,41.8c-3.2-0.8-6.6-1.2-10.5-1.2
		c-8.7,0-14,1.9-18.5,4.1c-1.3,0.7-2.5,1.3-3.7,2c-0.5,0.3-1,0.5-1.4,0.8c0,2.1,0,4.3-0.2,6.5c1.4-0.6,2.7-1.4,3.9-2.1
		c0.5-0.3,0.9-0.5,1.4-0.7c4.7-2.6,9.5-4.8,18.5-4.8c3.9,0,7.3,0.4,10.5,1.3c-0.1,4.5-0.4,8.9-0.8,13.2c-0.2,2-0.4,3.9-0.7,5.8
		c-0.2,1.6-0.5,3.3-0.8,4.8c-1,5.2-2.4,10.4-3.9,15.5c-0.5,2-1.1,3.9-1.7,5.8c-0.1,0.3-0.2,0.5-0.2,0.7c-0.9,3.2-1.9,6.4-2.8,9.7
		c-0.3,1.1-0.6,2.1-0.8,3.1c-0.9,3.7-1.7,7.3-2.3,10.8c-1.3,7.8-1.9,15.1-1.6,22.1h-37.1c0.4-11-1.1-22.9-4.7-36.1
		c-0.4-1.5-0.9-3-1.3-4.6c-0.5-1.7-0.9-3.4-1.4-5.1c-0.1-0.3-0.2-0.5-0.2-0.7h-5.5c0.2,0.9,0.5,1.7,0.7,2.5c0.3,1.1,0.6,2.2,1,3.3
		c0.6,2.1,1.2,4.2,1.8,6.3c5.2,18.7,6,34.7,2.5,48.9c-0.8,3.5-0.2,7.1,1.8,9.9c2,2.9,5.1,4.6,8.4,4.6h31.2c3.3,0,6.3-1.7,8.4-4.6
		c2-2.9,2.6-6.5,1.8-9.9c-2.1-8.4-2.6-17.5-1.6-27.3c0.3-3.2,0.8-6.6,1.4-10c0.7-3.7,1.6-7.6,2.7-11.6c0.9-3.2,1.8-6.4,2.7-9.5
		c0.2-0.8,0.5-1.7,0.7-2.5c0.5-1.9,1.1-3.9,1.7-5.8c1.3-4.6,2.5-9.4,3.5-14.2c0.4-2,0.7-4,1-6c0.3-1.9,0.5-3.9,0.7-5.8
		c0.5-5,0.8-10.2,0.8-15.4v-0.3C412.1,354.5,409.7,336.8,404.9,322.4 M354.2,378.6v5.8c1.9,0,3.7-0.1,5.3-0.3v-5.8
		C357.9,378.5,356.2,378.6,354.2,378.6z M354.2,378.6v5.8c1.9,0,3.7-0.1,5.3-0.3v-5.8C357.9,378.5,356.2,378.6,354.2,378.6z
		 M354.2,378.6v5.8c1.9,0,3.7-0.1,5.3-0.3v-5.8C357.9,378.5,356.2,378.6,354.2,378.6z M354.2,378.6v5.8c1.9,0,3.7-0.1,5.3-0.3v-5.8
		C357.9,378.5,356.2,378.6,354.2,378.6z M354.2,378.6v5.8c1.9,0,3.7-0.1,5.3-0.3v-5.8C357.9,378.5,356.2,378.6,354.2,378.6z
		 M354.2,378.6v5.8c1.9,0,3.7-0.1,5.3-0.3v-5.8C357.9,378.5,356.2,378.6,354.2,378.6z M354.2,378.6v5.8c1.9,0,3.7-0.1,5.3-0.3v-5.8
		C357.9,378.5,356.2,378.6,354.2,378.6z M354.2,378.6v5.8c1.9,0,3.7-0.1,5.3-0.3v-5.8C357.9,378.5,356.2,378.6,354.2,378.6z
		 M354.2,378.6v5.8c1.9,0,3.7-0.1,5.3-0.3v-5.8C357.9,378.5,356.2,378.6,354.2,378.6z M354.2,378.6v5.8c1.9,0,3.7-0.1,5.3-0.3v-5.8
		C357.9,378.5,356.2,378.6,354.2,378.6z"/>
	<path class="st6" d="M368,418.7l-0.1,0.6h-8.4v-92.9h8.4l0.1,0.5c3.1,15.4,4.7,31.2,4.6,47c0,2.1,0,4.3-0.2,6.5
		C372.1,393.2,370.6,406.1,368,418.7z M354.2,419.2h-50v-90c0-1.6,1.2-2.9,2.7-2.9h47.4L354.2,419.2L354.2,419.2z M320,486
		c0,1.6-1.2,2.9-2.6,2.9h-10.5c-1.5,0-2.7-1.3-2.7-2.9v-61H320V486z M373.3,326.3c0-0.3-0.1-0.5-0.2-0.7l-0.6-2.8
		c-0.3-1.3-1.3-2.3-2.6-2.3h-63.2c-4.4,0-7.9,3.9-7.9,8.7V486c0,4.8,3.5,8.7,7.9,8.7h10.5c4.4,0,7.9-3.9,7.9-8.7v-61H370
		c1.2,0,2.3-0.9,2.6-2.3l0.6-2.8c2.8-13.9,4.4-28.1,4.6-42.4c0.1-2.2,0.1-4.3,0-6.5C377.8,356,376.2,341,373.3,326.3z"/>
	<path class="st6" d="M317.4,343.8c-1.5,0-2.6-1.3-2.6-2.9s1.2-2.9,2.6-2.9c1.5,0,2.6,1.3,2.6,2.9S318.8,343.8,317.4,343.8z
		 M317.4,332.1c-4.4,0-7.9,3.9-7.9,8.7s3.6,8.7,7.9,8.7c4.4,0,7.9-3.9,7.9-8.7S321.8,332.1,317.4,332.1z"/>
	<path class="st6" d="M514.2,578.4c0,15.8-7.3,34.9-32.9,34.9h-22.5v-0.6l4.8-5.1v-55.1l-4.8-5.1v-0.6h22.4
		C503,546.7,514.2,557.2,514.2,578.4L514.2,578.4z M482.8,611.3c9.9,0,13.1-8.1,13.1-31.4c0-23.3-3-31.5-14.3-31.5h-0.5v62.8H482.8z
		"/>
	<path class="st6" d="M560,599.3c-7.6,9.2-14,15.5-17.1,15.5c-14.3,0-25.4-10.3-25.4-26.9c0-23.4,19.5-28.5,24.5-28.5
		c11.3,0,16.6,7.8,17.3,17.7c0,2.8-11.9,8.8-15.6,8.8h-11.5c3.3,8.3,9.7,15.8,18.9,15.8c2.5,0,4.8-0.7,8.4-2.8L560,599.3L560,599.3z
		 M529.6,572.7c0,3.4,0.7,7.4,2.1,11.3h11.7c-0.2-11.4-4-20.1-8.9-20.1C531.9,563.9,529.6,566.8,529.6,572.7z"/>
	<path class="st6" d="M571.8,545c0,4.2,4.9,11,9.3,15.9h10.5v4.2c-4.2,0-7.2-0.3-10.5-1v44.4l4.2,3.8v0.6h-24.1v-0.6l4.1-3.8
		l-0.3-43.7l-5.4-3.4v-0.6h5.4l-0.2-3.1c-1-18.9,16-22.3,18.6-22.3c7.2,0,12.5,3.4,15.9,8l-7.8,14l-0.5-0.1
		c-3.6-9-11-16.8-15.6-16.8C572.8,540.5,571.8,542.6,571.8,545L571.8,545z"/>
	<path class="st6" d="M623.2,601.1c-6.6,9.5-11.4,13.7-14.6,13.7c-7.1,0-10.7-4.7-10.8-15.6l-0.3-34.4l-5.2-3.4v-0.6h6.9l13.1-16.7
		h0.6v16.7h9.7v4.2c-3.9,0-6.8-0.3-9.7-0.9l-0.2,30.8c0,5.1,2,7.7,5.1,7.7c1.4,0,3-0.6,4.9-2.1L623.2,601.1L623.2,601.1z"/>
	<path class="st6" d="M629.4,565.6l-4.1-4.1v-0.6h19.9v4.7l-0.2,43.3l4.1,3.8v0.6h-24.1v-0.6l4.2-3.8L629.4,565.6L629.4,565.6z
		 M629.2,546.7c0-4.7,3.2-7.9,8-7.9c4.7,0,7.6,3.2,7.6,7.9s-3,8.1-7.6,8.1C632.6,554.8,629.2,551.6,629.2,546.7z"/>
	<path class="st6" d="M702.8,565.1c-6.8-0.1-12-1-18-2.7l-0.3,0.6c7.4,3,10.5,8.9,10.5,15.2c0,15.6-18.1,19.1-20.2,19.1
		c-4.7,0-8.9-1.4-12.3-3.8c-0.5,0.7-1,1.8-1,3.6c0,2.4,0.8,6.6,9.5,6.6l13.2,0.1c9.8,0,14.5,5.6,14.5,12.6c0,10.7-11,22.6-26.2,22.6
		c-9.8,0-20-3.3-24.1-11.4c-0.5-1,4.9-6.4,10.8-12.1c-5.2-2.2-8.2-6.6-8.2-11.8c0-1.3,5.7-6.3,10.4-11c-3.8-3.4-6.3-8.2-6.3-13.8
		c0-16.5,19-19.3,19.9-19.3c3.8,0,7.8,1.4,13.5,1.4h14.2L702.8,565.1L702.8,565.1z M667,616.9c-2.4,0-4.7-0.4-6.5-1.1
		c-0.5,0.8-0.8,1.6-0.8,2.6c0,7.5,16.3,9.8,24.3,9.8c6.7,0,11.5-2.1,11.5-5.3c0-2.9-2.9-5.1-11.9-5.4L667,616.9L667,616.9z
		 M680.4,579.2c-3.4-11.1-6.8-16.7-10.5-16.5c-3.2,0.1-4,4.2-0.6,15.3c3.4,10.8,6.9,16.4,10.5,16.4
		C683,594.3,683.9,590.1,680.4,579.2L680.4,579.2z"/>
	<path class="st6" d="M220,206.2l-4.7,5.5v54.3l4.7,5.5v0.6h-26.7v-0.6l4.7-5.5v-25.2h-13.1v25.2l4.6,5.5v0.6h-26.6v-0.6l4.6-5.5
		v-54.3l-4.6-5.5v-0.6h26.6v0.6l-4.6,5.5v27.3h13.1v-27.3l-4.7-5.5v-0.6H220V206.2z"/>
	<path class="st6" d="M266.4,258.2c-7.6,9.2-14,15.5-17.1,15.5c-14.3,0-25.4-10.3-25.4-26.9c0-23.4,19.5-28.5,24.5-28.5
		c11.3,0,16.6,7.8,17.3,17.7c0,2.8-11.9,8.8-15.6,8.8h-11.5c3.3,8.3,9.7,15.8,18.9,15.8c2.5,0,4.8-0.7,8.4-2.8L266.4,258.2
		L266.4,258.2z M236,231.6c0,3.4,0.7,7.4,2.1,11.3h11.7c-0.2-11.4-4-20.1-8.9-20.1C238.2,222.8,236,225.6,236,231.6z"/>
	<path class="st6" d="M276.9,203.9c0,4.2,4.9,11,9.3,15.9h10.5v4.2c-4.2,0-7.2-0.3-10.5-1v44.4l4.2,3.8v0.6h-24.1v-0.6l4.1-3.8
		l-0.3-43.7l-5.4-3.4v-0.6h5.4l-0.2-3.1c-1-18.9,16-22.3,18.6-22.3c7.2,0,12.5,3.4,15.9,8l-7.8,14l-0.5-0.1
		c-3.6-9-11-16.8-15.6-16.8C277.9,199.4,276.9,201.5,276.9,203.9L276.9,203.9z"/>
	<path class="st6" d="M328.3,260c-6.6,9.5-11.4,13.7-14.6,13.7c-7.1,0-10.7-4.7-10.8-15.6l-0.3-34.4l-5.2-3.4v-0.6h6.9l13.1-16.7
		h0.6v16.7h9.7v4.2c-3.9,0-6.8-0.3-9.7-0.9l-0.2,30.8c0,5.1,2,7.7,5.1,7.7c1.4,0,3-0.6,4.9-2.1L328.3,260L328.3,260z"/>
	<path class="st6" d="M334.5,224.5l-4.1-4.1v-0.6h19.9v4.7l-0.2,43.3l4.1,3.8v0.6h-24.1v-0.6l4.2-3.8L334.5,224.5L334.5,224.5z
		 M334.2,205.6c0-4.7,3.2-7.9,8-7.9c4.7,0,7.6,3.1,7.6,7.9c0,4.7-3,8.1-7.6,8.1C337.6,213.7,334.2,210.5,334.2,205.6z"/>
	<path class="st6" d="M407.9,224c-6.8-0.1-12-1-18-2.7l-0.3,0.6c7.4,3,10.5,8.9,10.5,15.2c0,15.6-18.1,19.1-20.2,19.1
		c-4.7,0-8.9-1.4-12.3-3.8c-0.5,0.7-1,1.8-1,3.6c0,2.4,0.8,6.6,9.5,6.6l13.2,0.1c9.8,0,14.5,5.6,14.5,12.6c0,10.6-11,22.6-26.2,22.6
		c-9.8,0-20-3.3-24.1-11.4c-0.4-1,4.9-6.4,10.8-12.1c-5.2-2.2-8.2-6.6-8.2-11.8c0-1.3,5.7-6.3,10.4-11c-3.8-3.4-6.3-8.2-6.3-13.8
		c0-16.5,19-19.3,19.9-19.3c3.8,0,7.8,1.4,13.5,1.4h14.2V224L407.9,224z M372.1,275.8c-2.4,0-4.7-0.4-6.5-1.1
		c-0.5,0.8-0.8,1.6-0.8,2.6c0,7.5,16.3,9.8,24.3,9.8c6.7,0,11.5-2.1,11.5-5.3c0-2.9-2.9-5.1-11.9-5.4L372.1,275.8L372.1,275.8z
		 M385.5,238.1c-3.4-11.1-6.8-16.7-10.5-16.5c-3.2,0.1-4,4.2-0.6,15.3c3.4,10.8,6.9,16.4,10.5,16.4
		C388.1,253.2,388.9,249,385.5,238.1L385.5,238.1z"/>
</g>
</svg>
