<?xml version="1.0" encoding="utf-8"?>
<!-- Generator: Adobe Illustrator 28.1.0, SVG Export Plug-In . SVG Version: 6.00 Build 0)  -->
<svg version="1.1" id="Ebene_1" xmlns="http://www.w3.org/2000/svg" xmlns:xlink="http://www.w3.org/1999/xlink" x="0px" y="0px"
	 viewBox="0 0 864 815" style="enable-background:new 0 0 864 815;" xml:space="preserve">
<style type="text/css">
	.st0{fill:#D9D9D9;}
	.st1{fill:#0A210F;}
</style>
<rect y="0" class="st0" width="864" height="815"/>
<g>
	<path class="st1" d="M181.5,463.4v-56.5h17.9v8.2c2.5-5.7,8.3-9.7,16.1-9.7c10.1,0,15.2,4.5,17.7,10.4c3.1-6.1,9.7-10.4,18-10.4
		c16.1,0,20.1,11.2,20.1,23v35.1h-18v-31.8c0-7.8-3-11.2-8.4-11.2s-9.5,3.2-9.5,13.9v29.1h-18v-31.9c0-7.8-2.8-11-8.3-11
		c-5.5,0-9.6,3.2-9.6,13.9v29.1L181.5,463.4L181.5,463.4z"/>
	<path class="st1" d="M326.1,435.1c0-8.5-5-14.7-13.5-14.7c-8.4,0-13.5,6.1-13.5,14.7c0,8.5,5,14.7,13.5,14.7
		C321.2,449.9,326.1,443.7,326.1,435.1z M281.2,435.1c0-17.2,12-29.8,31.5-29.8c19.5,0,31.3,12.6,31.3,29.8
		c0,17.2-12,29.8-31.3,29.8C293.3,464.9,281.2,452.3,281.2,435.1z"/>
	<path class="st1" d="M354.1,463.4v-56.5H372v8.2c3.3-6.3,9.7-9.7,18.3-9.7c13.6,0,20.7,7.7,20.7,23.1v35h-18.2v-29.1
		c0-9.5-2.7-13.9-10-13.9s-10.9,4.6-10.9,13.4v29.6L354.1,463.4L354.1,463.4z"/>
	<path class="st1" d="M481.2,428.5v35h-18v-29.1c0-9.5-2.7-13.9-10-13.9s-10.9,4.6-10.9,13.4v29.6h-17.9v-82.1h17.9v33.8
		c3.3-6.3,9.7-9.7,18.3-9.7C474.3,405.3,481.2,413.1,481.2,428.5"/>
	<path class="st1" d="M532.7,428.8c-0.1-7.5-4.3-11.5-12-11.5c-7.6,0-12.5,4.6-12.6,11.5H532.7z M549.9,440h-41.8
		c0.4,7.4,5.3,11.4,13.3,11.4c5.5,0,9-1.5,10.6-5h17.6c-1.8,11.2-13.2,18.5-28.1,18.5c-19.2,0-31.1-10.9-31.1-29.8
		c0-18.9,12.1-29.8,30.5-29.8s29.6,10.9,29.6,26.8C550.4,435.1,550.3,436.9,549.9,440z"/>
	<path class="st1" d="M561.7,406.9h17.8v56.6h-17.8V406.9z M559.6,391c0-6.1,4.5-11,11-11c6.5,0,11.2,5,11.2,11
		c0,6.1-4.6,10.9-11.2,10.9C564.1,401.9,559.6,397,559.6,391z"/>
	<path class="st1" d="M593.1,463.4v-56.5h17.9v8.2c2.5-5.7,8.3-9.7,16.1-9.7c10.1,0,15.2,4.5,17.7,10.4c3.1-6.1,9.7-10.4,18-10.4
		c16.1,0,19.8,11.2,19.8,23v35.1H665v-31.8c0-7.8-3-11.2-8.4-11.2c-5.5,0-9.5,3.2-9.5,13.9v29.1h-18v-31.9c0-7.8-2.8-11-8.3-11
		c-5.5,0-9.6,3.2-9.6,13.9v29.1L593.1,463.4L593.1,463.4z"/>
	<path class="st1" d="M181.5,573.7V517h17.9v8.2c2.5-5.7,8.3-9.7,16.1-9.7c10.1,0,15.2,4.5,17.7,10.4c3.1-6.1,9.7-10.4,18-10.4
		c16.1,0,20.1,11.2,20.1,23v35.1h-18v-31.8c0-7.8-3-11.2-8.4-11.2s-9.5,3.2-9.5,13.9v29.1h-18v-31.9c0-7.8-2.8-11-8.3-11
		c-5.5,0-9.6,3.2-9.6,13.9v29.1L181.5,573.7L181.5,573.7z"/>
	<path class="st1" d="M284.4,517.2h17.8v56.6h-17.8V517.2z M282.3,501.2c0-6.1,4.5-11,11-11c6.4,0,11.2,5,11.2,11
		c0,6.1-4.6,10.9-11.2,10.9C286.8,512.2,282.3,507.3,282.3,501.2z"/>
	<path class="st1" d="M351.6,559.4v14.4c-2.6,0.5-6.8,0.9-12,0.9c-8.4,0-20.1-1.9-20.1-20.8v-22.6h-8.9v-14.2h8.9v-16.9h17.9v16.9
		h12.8v14.2h-12.8v18.8c0,8.3,3.4,9.6,7.8,9.6C347.3,559.8,349.9,559.6,351.6,559.4"/>
	<path class="st1" d="M398,559.4v14.4c-2.6,0.5-6.8,0.9-12,0.9c-8.4,0-20.1-1.9-20.1-20.8v-22.6h-8.9v-14.2h8.9v-16.9h17.9v16.9
		h12.8v14.2h-12.8v18.8c0,8.3,3.4,9.6,7.8,9.6C393.7,559.8,396.4,559.6,398,559.4"/>
	<path class="st1" d="M445.7,539.2c-0.1-7.5-4.3-11.5-12-11.5c-7.6,0-12.5,4.6-12.6,11.5H445.7z M462.9,550.4h-41.7
		c0.4,7.4,5.2,11.4,13.3,11.4c5.5,0,9-1.5,10.6-5h17.6c-1.8,11.2-13.2,18.5-28.1,18.5c-19.2,0-31.1-10.9-31.1-29.8
		c0-18.9,12.1-29.8,30.5-29.8s29.6,10.9,29.6,26.8C463.4,545.5,463.3,547.2,462.9,550.4"/>
	<path class="st1" d="M433.1,360.1h-0.9c-63.7-0.1-114.9-15.9-146.7-29.2l-5.6-2.3v-66c0-2.3-3.1-4.7-7.5-4.7c-4,0-7.5,2.1-7.5,4.7
		V309c0,12.6-11.4,22.7-25.4,22.7c-14,0-25.4-10-25.4-22.7v-46.3c0-2.3-3.1-4.7-7.5-4.7c-4,0-7.5,2.1-7.5,4.7v69h-17.8v-69
		c0-12.7,11.2-22.8,25.4-22.8c14.2,0,25.4,10.2,25.4,22.8V309c0,2.6,3.4,4.7,7.5,4.7c4.4,0,7.5-2.5,7.5-4.7v-46.3
		c0-12.7,11.2-22.8,25.4-22.8s25.4,10.2,25.4,22.8v53.9c30.5,12.1,77,25.4,134.2,25.5c45.9,0,91-8.4,134.2-25.5v-53.9
		c0-12.7,11.2-22.8,25.4-22.8c14.2,0,25.4,10.2,25.4,22.8V309c0,2.6,3.4,4.7,7.5,4.7c4,0,7.5-2.1,7.5-4.7v-46.3
		c0-12.7,11.2-22.8,25.4-22.8c14.2,0,25.4,10.2,25.4,22.8v69h-17.9v-69c0-2.3-3.1-4.7-7.5-4.7c-4,0-7.5,2.1-7.5,4.7V309
		c0,12.7-11.2,22.7-25.4,22.7c-14.2,0-25.4-10-25.4-22.7v-46.3c0-2.3-3.1-4.7-7.5-4.7c-4,0-7.5,2.1-7.5,4.7v65.9l-5.6,2.3
		C532.1,350.2,483.1,360,433.1,360.1"/>
</g>
</svg>
