<?xml version="1.0" encoding="utf-8"?>
<!-- Generator: Adobe Illustrator 28.1.0, SVG Export Plug-In . SVG Version: 6.00 Build 0)  -->
<svg version="1.1" id="Ebene_1" xmlns="http://www.w3.org/2000/svg" xmlns:xlink="http://www.w3.org/1999/xlink" x="0px" y="0px"
	 viewBox="0 0 864 815" style="enable-background:new 0 0 864 815;" xml:space="preserve">
<style type="text/css">
	.st0{fill:#D9D9D9;}
	.st1{fill:#0A220F;}
</style>
<rect y="0" class="st0" width="864" height="815"/>
<g>
	<g>
		<path class="st1" d="M276.3,504.7l-4.9,31.6h-11.7l11.4-52.7h5l15.4,34.8l16.3-34.9h5.1l11.1,52.7h-11.7l-5-32l-15.7,32h-0.9
			L276.3,504.7L276.3,504.7z"/>
		<path class="st1" d="M328.2,509.7c0-16.6,11.4-26.9,26.3-26.9c15,0,26.3,10.2,26.3,26.8c0,13.5-10.4,27.3-26.3,27.3
			C338.6,537,328.2,523.6,328.2,509.7L328.2,509.7z M370.5,509.9c-0.1-10.7-6.4-17.6-16-17.5c-9.6-0.2-15.9,7.1-15.9,17.5
			s6.8,18.6,16,18.7C363.7,528.5,370.5,520.3,370.5,509.9L370.5,509.9z"/>
		<path class="st1" d="M384.2,536.2v-1.4l27.3-44.8l-24.8,4.8H386l1.4-11.4h38.2v1.4l-27.4,44.9l26.3-4.9h0.7l-2.1,11.3L384.2,536.2
			L384.2,536.2z"/>
		<path class="st1" d="M462.5,523.8h-18.3l-3.9,12.3h-11.8v-0.7l23-52.7h6.1l21.9,52.7v0.7h-13.1L462.5,523.8L462.5,523.8z
			 M453.2,494.8l-6.9,22.4h14.1L453.2,494.8z"/>
		<path class="st1" d="M486.5,508.4l-1.7-25h12.6l-1.5,25l1.6,27.7H485L486.5,508.4L486.5,508.4z"/>
		<path class="st1" d="M509.2,508.4l-1.7-25h12.6l-1.5,25l1.6,27.7h-12.6L509.2,508.4L509.2,508.4z M539,536l-17.6-28v-2.4
			l13.4-22.4h14v0.7l-18.4,21.3l22.6,30v0.7L539,536L539,536z"/>
		<path class="st1" d="M590,523.6h-18.3l-3.9,12.3H556v-0.7l23-52.7h6.1l21.9,52.7v0.7h-13.1L590,523.6L590,523.6z M580.7,494.6
			l-6.9,22.4h14.1L580.7,494.6z"/>
		<path class="st1" d="M298.5,357.6l39.5,98.6H259L298.5,357.6z M259.4,264.6l39.1-4l39.1-4.4l-39.1,101.3L259.4,264.6z
			 M423.7,340.4c-4.8-14.1-11.9-24.2-21.3-30.3c-9.4-6.1-21.7-9.3-36.9-9.6c-9.8,0-18.8,1.6-26.9,4.8c-8.1,3.2-14,6.5-17.7,10
			c2.9-9.3,7.8-18.6,14.7-27.7c6.9-9.2,15.9-16.8,27.1-23c11.2-6.1,23.7-9,37.5-8.7c14.6,0,26.2,3.1,34.9,9.2
			c8.6,6.1,13.8,14.9,15.3,26.5c1.6,11.6-0.7,25.2-6.8,40.9l-12,31.5L423.7,340.4L423.7,340.4z M431.6,363.9l39.1,92.2h-78.5
			L431.6,363.9z M559.2,340.4c-4.8-14.1-12-24.2-21.5-30.3c-9.6-6.1-21.9-9.3-37.1-9.6c-9.8,0-18.7,1.6-26.5,4.6
			c-7.9,3.1-13.9,6.5-18.1,10.2c2.9-9.3,7.9-18.6,14.9-27.7c7.1-9.2,16.1-16.8,27.1-23c11.1-6.1,23.6-9,37.7-8.8
			c14.6,0,26.2,3.1,34.9,9.2c8.6,6.1,13.8,14.9,15.3,26.3c1.6,11.4-0.7,25.1-6.8,41.1l-12,31.5L559.2,340.4L559.2,340.4z
			 M567.1,363.9l38.7,92.2h-78.5L567.1,363.9z"/>
	</g>
</g>
</svg>
