<?xml version="1.0" encoding="utf-8"?>
<!-- Generator: Adobe Illustrator 28.1.0, SVG Export Plug-In . SVG Version: 6.00 Build 0)  -->
<svg version="1.1" id="Ebene_1" xmlns="http://www.w3.org/2000/svg" xmlns:xlink="http://www.w3.org/1999/xlink" x="0px" y="0px"
	 viewBox="0 0 864 815" style="enable-background:new 0 0 864 815;" xml:space="preserve">
<style type="text/css">
	.st0{fill:#D9D9D9;}
	.st1{fill:#0A210F;}
</style>
<rect class="st0" width="864" height="815"/>
<path class="st1" d="M251.9,460c0-19.1,17.9-26.2,33.2-27.1l40.6-2.4v8.9c0,12.5-3.9,25.1-12.8,34.3c-8,8.4-19.4,12.2-31,12.2
	C260.3,486,251.9,473.4,251.9,460z M246.6,364.7c-7.8,8-12.8,17.9-13.1,31.6h24.8c0-7.5,2.7-13.4,7.5-18.2
	c5.1-5.1,13.7-8.9,27.5-8.9c12.3,0,19.7,3,24.8,7.7c6.9,6.2,7.8,15.5,7.8,22.9v11l-46,2.7c-41.2,2.4-53.8,27.7-53.8,47.1
	c0,23.3,17.3,46.5,52,46.5c21.2,0,40-9.5,48.7-24.7h0.6c0,12.8,8.4,22.9,21.8,22.9c6.3,0,11.3-0.9,16.7-3.6V483c0,0-3.9,0.9-6.6,0.9
	c-5.1,0-8.4-2.1-8.4-10.2v-73.1c0-8.7-1.5-16.4-4.5-23.3c-7.2-16.4-23.9-28.9-53.2-28.9C274.7,348.5,256.7,353.9,246.6,364.7"/>
<path class="st1" d="M399.5,376.9c-8,11.9-12.5,28.3-12.5,51c0,22.7,4.5,39,12.5,51c10.8,15.8,28.1,28.3,55.3,28.3
	c18.5,0,32.8-6,43.6-16.4c10.2-9.8,16.4-22.1,17.6-38.2h-25.7c-1.2,9.8-4.8,16.7-10.2,22.4c-6,6.2-15.3,10.2-25.7,10.2
	c-11.7,0-19.7-4.2-26.3-9.8c-12-10.2-15.3-28.9-15.3-47.4s3.3-37.3,15.3-47.4c6.5-5.7,14.6-9.8,26.3-9.8c9.8,0,18.5,3.6,24.5,9.2
	c5.7,5.7,9.5,13.1,10.8,23.6h25.7c-1.2-16.4-7.8-28.9-17.9-38.8c-10.5-10.1-25.1-16.1-43-16.1C427.4,348.6,410.3,361.1,399.5,376.9"
	/>
<path class="st1" d="M565.6,314v38.5h-29.3v21.8h29.3v90.3c0,20.3,9,40.8,41.5,40.8c14,0,23.3-2.4,30.2-4.2v-21.8
	c0,0-15.3,2.7-26,2.7c-14,0-20.3-5.9-20.3-20.6v-87.3h44.8v-21.8H591V308L565.6,314z"/>
</svg>
