<?xml version="1.0" encoding="utf-8"?>
<!-- Generator: Adobe Illustrator 28.1.0, SVG Export Plug-In . SVG Version: 6.00 Build 0)  -->
<svg version="1.1" id="Ebene_1" xmlns="http://www.w3.org/2000/svg" xmlns:xlink="http://www.w3.org/1999/xlink" x="0px" y="0px"
	 viewBox="0 0 864 815" style="enable-background:new 0 0 864 815;" xml:space="preserve">
<style type="text/css">
	.st0{fill:#D9D9D9;}
	.st1{fill:#0A220F;}
</style>
<rect y="0" class="st0" width="864" height="815"/>
<g>
	<path class="st1" d="M255.3,445.1v-5.5h8.8v4.9c0,1,0.3,1.3,1.3,1.3h11.7c1,0,1.3-0.3,1.3-1.3v-5.3c0-1.4-0.5-1.8-2.1-2.1
		l-11.7-2.5c-5.5-1.2-9.1-3.4-9.1-9.1v-6.8c0-6,2.8-8.8,8.8-8.8h13.6c6,0,8.8,2.8,8.8,8.8v5h-8.8v-4.4c0-0.9-0.3-1.3-1.3-1.3h-10.8
		c-1,0-1.3,0.3-1.3,1.3v4.8c0,1.4,0.5,1.8,2.1,2.1l11.7,2.5c5.6,1.2,9.1,3.4,9.1,9.1v7.3c0,6-2.8,8.8-8.8,8.8h-14.5
		C258.1,454,255.3,451.2,255.3,445.1"/>
	<path class="st1" d="M296.9,445.1v-26.5c0-6,2.8-8.8,8.8-8.8h14.6c6,0,8.8,2.8,8.8,8.8v7.2h-9.1v-6.4c0-1-0.3-1.3-1.3-1.3h-11.6
		c-1,0-1.3,0.3-1.3,1.3v25c0,1,0.3,1.3,1.3,1.3h11.6c1,0,1.3-0.3,1.3-1.3v-6.4h9.1v7.2c0,6-2.8,8.8-8.8,8.8h-14.6
		C299.7,454,296.9,451.1,296.9,445.1"/>
	<path class="st1" d="M338.9,409.8h9.1v17.4h15.6v-17.4h9.1v44.1h-9.1v-18.4H348v18.4h-9.1V409.8z"/>
	<path class="st1" d="M381.5,409.8h9.5l6.9,32.4l8.1-32.4h7.7l8.1,32.4l6.9-32.4h9.1l-11.1,44.1h-9.6l-7.2-28.7l-7.3,28.7h-10
		L381.5,409.8z"/>
	<path class="st1" d="M464,436l-5.2-18.5l-5.2,18.5H464L464,436z M466.4,444.4h-15.1l-2.7,9.6H439l13.4-44.1h13.2l13.4,44.1h-10
		L466.4,444.4L466.4,444.4z"/>
	<path class="st1" d="M509.9,445.7c0.9,0,1.3-0.3,1.3-1.3v-7.9c0-1-0.3-1.3-1.3-1.3h-13v10.5L509.9,445.7L509.9,445.7z M509.3,427.5
		c1,0,1.3-0.3,1.3-1.3v-6.9c0-1-0.3-1.3-1.3-1.3h-12.5v9.5H509.3z M487.8,409.8h23.1c6,0,8.8,2.8,8.8,8.8v5.9c0,3-1.1,5.2-4,6.8
		c3.2,1.4,4.5,3.8,4.5,6.8v6.9c0,6-2.8,8.8-8.8,8.8h-23.6V409.8L487.8,409.8z"/>
	<path class="st1" d="M529.9,409.8h29.7v8.3H539v9.2h16.7v8.2H539v10.2h20.6v8.3h-29.7V409.8z"/>
	<path class="st1" d="M569.3,409.8h9.5l16.7,28.4v-28.4h8.8v44.1h-8.8l-17.3-29.4v29.4h-8.8V409.8z"/>
	<path class="st1" d="M297.4,499.7v-26.5c0-6,2.8-8.8,8.8-8.8h15.2c6,0,8.8,2.8,8.8,8.8v5.8h-9.1v-5c0-1-0.3-1.3-1.3-1.3h-12.2
		c-1,0-1.3,0.3-1.3,1.3v25c0,1,0.3,1.3,1.3,1.3H320c1,0,1.3-0.3,1.3-1.3v-6.8h-8.3v-7.9h17.4v15.5c0,6-2.8,8.8-8.8,8.8h-15.2
		C300.3,508.5,297.4,505.7,297.4,499.7z"/>
	<path class="st1" d="M362.4,490.6l-5.2-18.5l-5.2,18.5H362.4L362.4,490.6z M364.8,499h-15.1l-2.7,9.6h-9.6l13.4-44.1H364l13.4,44.1
		h-10L364.8,499L364.8,499z"/>
	<path class="st1" d="M385.8,464.4h9.1v35.8h19v8.3h-28.1V464.4z"/>
	<path class="st1" d="M423.8,464.4h29.7v8.3h-20.6v9.1h16.7v8.2h-16.7v10.2h20.6v8.3h-29.7V464.4z"/>
	<path class="st1" d="M486.6,484.9c1,0,1.3-0.3,1.3-1.3v-9.8c0-0.9-0.3-1.3-1.3-1.3h-12.7v12.3H486.6z M498.3,508.5h-9.8l-7.3-15.6
		h-7.3v15.6h-9.1v-44.1h23.3c6,0,8.8,2.8,8.8,8.8v10.6c0,5-2,7.8-6.1,8.6L498.3,508.5z"/>
	<path class="st1" d="M518.5,464.4h-9.1v44.1h9.1V464.4z"/>
	<path class="st1" d="M529.9,464.4h29.7v8.3H539v9.1h16.7v8.2H539v10.2h20.6v8.3h-29.7V464.4z"/>
	<path class="st1" d="M650.6,397.4v7.7h54l-27.3,54l27.3,54h-54v7.6H717l-31.1-61.6l31.1-61.6H650.6z"/>
	<path class="st1" d="M147.7,397.4l31.2,61.6l-31.2,61.6h66.4v-7.6h-54l27.3-54l-27.3-54h54v-7.7H147.7z"/>
	<path class="st1" d="M378.2,363.2v-9.7l13.7-14.5v9.7L378.2,363.2z M391.9,319.6v9.7l-13.7,14.5v-9.7L391.9,319.6z M357.5,348.7
		V339l13.7,14.5v9.7L357.5,348.7z M357.5,319.6l13.7,14.5v9.7l-13.7-14.5V319.6z M398.9,372.9v-87.3h-7v24.3l-13.7,14.5V271h-7v53.4
		l-13.7-14.5v-24.3h-7v87.3h7v-14.1l13.7,14.1h7l13.7-14.1v14.1H398.9z"/>
	<path class="st1" d="M494.4,363.2v-9.7l13.7-14.5v9.7L494.4,363.2z M508.1,319.6v9.7l-13.7,14.5v-9.7L508.1,319.6z M473.7,348.7
		V339l13.7,14.5v9.7L473.7,348.7z M473.7,319.6l13.7,14.5v9.7l-13.7-14.5V319.6z M515.1,372.9v-87.3h-7v24.3l-13.7,14.5V271h-7v53.4
		l-13.7-14.5v-24.3h-7v87.3h7v-14.1l13.7,14.1h7l13.7-14.1v14.1H515.1z"/>
	<path class="st1" d="M450,290.5L436.3,305v-9.7l13.7-14.5V290.5L450,290.5z M450,309.9l-13.7,14.5v-9.7l13.7-14.5V309.9z
		 M450,329.3l-13.7,14.5v-9.7L450,320V329.3L450,329.3z M450,348.7l-13.7,14.5v-9.7L450,339V348.7z M429.3,305l-13.7-14.5v-9.7
		l13.7,14.5V305L429.3,305z M429.3,324.4l-13.7-14.5v-9.7l13.7,14.5V324.4z M429.3,343.8l-13.7-14.5V320l13.7,14.1V343.8
		L429.3,343.8z M429.3,363.2l-13.7-14.5V339l13.7,14.5V363.2z M450,246.8v24.3l-13.7,14.5v-53.4h-7v53.4l-13.7-14.5v-24.3h-7v126.2
		h7v-14.1l13.7,14.1h7l13.7-14.1v14.1h7V246.8H450z"/>
	<path class="st1" d="M633.4,528H231.3V390.2h402.1V528z M223.8,535.5h417.1V382.6H223.8V535.5z"/>
	<path class="st1" d="M309.6,572.5c0,1.2,0.3,2,0.9,2.6c0.6,0.6,1.4,0.9,2.3,0.9c0.8,0,1.4-0.2,1.8-0.6c0.4-0.4,0.7-0.9,0.7-1.6
		c0-0.7-0.3-1.2-0.9-1.6c-0.6-0.4-1.6-0.9-2.9-1.4c-1.1-0.5-2.3-0.9-3.3-1.4c-1.1-0.5-2-1-2.8-1.6c-0.8-0.6-1.4-1.4-1.9-2.2
		s-0.7-1.9-0.7-3.2c0-1.3,0.3-2.4,0.8-3.3c0.6-0.9,1.3-1.7,2.2-2.3c0.9-0.6,2-1,3.2-1.3c1.2-0.3,2.4-0.4,3.7-0.4
		c1.8,0,3.4,0.2,4.6,0.7c1.2,0.5,2.3,1.1,3,1.9c0.8,0.8,1.3,1.7,1.7,2.6c0.3,1,0.5,2,0.5,2.9H315c0-2.1-0.8-3.1-2.5-3.1
		c-0.6,0-1.2,0.2-1.6,0.5c-0.5,0.3-0.7,0.8-0.7,1.5c0,0.7,0.3,1.2,0.9,1.6c0.6,0.4,1.4,0.9,2.6,1.3c1.1,0.4,2.2,0.8,3.3,1.2
		c1.1,0.4,2.1,1,3,1.6c0.9,0.6,1.6,1.4,2.1,2.3c0.5,0.9,0.8,2,0.8,3.3c0,1.3-0.2,2.5-0.7,3.5c-0.5,1-1.2,1.9-2.1,2.6
		c-0.9,0.7-2,1.2-3.2,1.6c-1.3,0.4-2.7,0.6-4.3,0.6c-1.6,0-3-0.2-4.3-0.6c-1.3-0.4-2.4-1-3.3-1.8c-0.9-0.8-1.6-1.7-2.1-2.9
		c-0.5-1.1-0.7-2.5-0.7-3.9L309.6,572.5L309.6,572.5z"/>
	<path class="st1" d="M336.8,562.2h-5.2v-6.4h17.9v6.4h-5.2V581h-7.5V562.2z"/>
	<path class="st1" d="M358.5,555.8h7.5v16.4c0,0.9,0.3,1.6,0.9,2.2c0.6,0.6,1.3,0.9,2.2,0.9c0.9,0,1.7-0.3,2.2-0.9
		c0.6-0.6,0.8-1.4,0.8-2.2v-16.4h7.5v16.5c0,1.4-0.2,2.6-0.7,3.8c-0.5,1.2-1.2,2.2-2.1,3c-0.9,0.8-2,1.5-3.3,2
		c-1.3,0.5-2.8,0.7-4.4,0.7c-1.7,0-3.1-0.2-4.4-0.7c-1.3-0.5-2.4-1.1-3.3-2c-0.9-0.8-1.6-1.8-2.1-3c-0.5-1.1-0.7-2.4-0.7-3.8V555.8z
		"/>
	<path class="st1" d="M393.9,562.2h-5.2v-6.4h17.9v6.4h-5.2V581h-7.5V562.2z"/>
	<path class="st1" d="M421.2,562.2H416v-6.4h17.9v6.4h-5.2V581h-7.5V562.2z"/>
	<path class="st1" d="M455.7,567h14.2v4.9h-2.4c-0.2,1.4-0.7,2.8-1.4,4c-0.7,1.2-1.5,2.2-2.6,3.1c-1.1,0.9-2.3,1.5-3.8,2
		c-1.5,0.5-3.1,0.7-5,0.7c-2.2,0-4.1-0.4-5.7-1.1c-1.7-0.7-3.1-1.7-4.2-2.9c-1.1-1.2-2-2.6-2.6-4.2c-0.6-1.6-0.9-3.3-0.9-5.1
		s0.3-3.4,0.9-5c0.6-1.6,1.5-3,2.6-4.2c1.2-1.2,2.6-2.2,4.2-2.9c1.7-0.7,3.5-1.1,5.7-1.1c1.8,0,3.5,0.3,5,0.7
		c1.5,0.5,2.8,1.2,3.9,2.1c1.1,0.9,1.9,1.9,2.6,3c0.6,1.1,1,2.4,1.1,3.6h-8.3c-0.1-0.4-0.2-0.7-0.4-1.1c-0.2-0.4-0.5-0.7-0.8-1
		c-0.4-0.3-0.8-0.5-1.3-0.7c-0.5-0.2-1.1-0.3-1.8-0.3c-1,0-1.9,0.2-2.6,0.6c-0.7,0.4-1.3,0.9-1.8,1.6c-0.5,0.7-0.8,1.4-1,2.2
		c-0.2,0.8-0.3,1.7-0.3,2.6c0,1,0.1,1.9,0.4,2.8c0.2,0.8,0.6,1.6,1.1,2.2c0.5,0.6,1.2,1.1,1.9,1.5c0.8,0.4,1.7,0.5,2.7,0.5
		c1.4,0,2.5-0.4,3.3-1c0.8-0.7,1.3-1.5,1.5-2.5h-4.2L455.7,567L455.7,567z"/>
	<path class="st1" d="M489,563.4l-2.5,8.6h4.9L489,563.4z M494.1,581l-1.1-3.6H485l-1.1,3.6h-8.1l9.3-25.2h7.8l9.5,25.2H494.1z"/>
	<path class="st1" d="M522.1,568.8c1,0,1.8-0.4,2.4-1.1c0.6-0.7,0.9-1.5,0.9-2.5c0-1-0.3-1.8-0.9-2.5c-0.6-0.7-1.4-1-2.4-1H519v7.1
		H522.1L522.1,568.8z M511.5,555.8h12.1c1.4,0,2.7,0.3,3.9,0.7c1.2,0.5,2.2,1.2,3,2c0.8,0.9,1.5,1.9,1.9,3c0.4,1.1,0.7,2.3,0.7,3.6
		c0,1.7-0.4,3.3-1.2,4.8c-0.8,1.4-1.9,2.6-3.4,3.4l5,7.7h-8.8l-4.3-6.4H519v6.4h-7.5L511.5,555.8L511.5,555.8z"/>
	<path class="st1" d="M547.1,562.2H542v-6.4h17.9v6.4h-5.2V581h-7.5V562.2z"/>
</g>
</svg>
