<?xml version="1.0" encoding="utf-8"?>
<!-- Generator: Adobe Illustrator 28.1.0, SVG Export Plug-In . SVG Version: 6.00 Build 0)  -->
<svg version="1.1" id="Ebene_1" xmlns="http://www.w3.org/2000/svg" xmlns:xlink="http://www.w3.org/1999/xlink" x="0px" y="0px"
	 viewBox="0 0 864 815" style="enable-background:new 0 0 864 815;" xml:space="preserve">
<style type="text/css">
	.st0{fill:#D9D9D9;}
	.st1{fill:#AEB6B0;}
	.st2{fill:#738176;}
	.st3{fill:#DDE0DD;}
	.st4{fill:#0A220F;}
</style>
<rect class="st0" width="864" height="815"/>
<g>
	<path class="st1" d="M634,229.8H230v404h404V229.8z"/>
	<path class="st2" d="M272.3,517.3c-13.2,0-24-10.7-24-24c0-13.2,10.7-24,24-24c13.2,0,24,10.7,24,24
		C296.2,506.6,285.5,517.3,272.3,517.3z M324.3,493.6c4.7-1.7,9.3-4.6,13.2-8.6c12.5-12.4,14.2-30.9,3.8-41.2
		c-10.3-10.3-28.8-8.6-41.2,3.8c-1.6,1.6-2.9,3.2-4.1,4.9c1.7-4.2,2.6-8.9,2.6-13.9c0-17.6-11.8-31.9-26.4-31.9
		c-14.6,0-26.4,14.3-26.4,31.9c0,5.1,1,9.9,2.7,14.1c-1.3-1.9-2.8-3.7-4.5-5.4c-4.2-4.2-9-7.1-14.1-8.8v109.8
		c5-1.7,9.9-4.7,14.1-8.9c1.1-1.1,2.2-2.3,3.1-3.6c-0.9,3.2-1.4,6.7-1.4,10.3c0,10.9,4.5,20.5,11.5,26.3c3.3-4.8,8.9-8,15.1-8
		c6.3,0,11.7,3.1,15,7.7c6.8-5.8,11.2-15.3,11.2-26.1c0-3.3-0.4-6.5-1.2-9.6c0.8,1,1.6,1.9,2.6,2.8c12.5,12.5,30.9,14.2,41.2,3.8
		c10.3-10.3,8.6-28.8-3.8-41.2C333.4,498.1,328.9,495.3,324.3,493.6"/>
	<path class="st2" d="M565.1,603.9c-23,0-41.6-18.6-41.6-41.7c0-23,18.6-41.7,41.6-41.7c23,0,41.7,18.6,41.7,41.7
		C606.8,585.2,588.2,603.9,565.1,603.9z M613.6,482.8c-2.7,2.7-5,5.5-7.2,8.5c2.9-7.3,4.6-15.5,4.6-24.2c0-30.6-20.5-55.4-45.9-55.4
		s-45.9,24.8-45.9,55.4c0,8.8,1.7,17.1,4.7,24.5c-2.3-3.3-4.9-6.4-7.8-9.4c-2.8-2.8-5.8-5.3-8.9-7.5c-2.8,1.7-6.1,2.8-9.6,2.8
		c-8.4,0-15.5-5.7-17.7-13.4c-13.3-1.5-26.2,2.2-35.4,11.4c-17.9,17.9-15,50,6.7,71.7c7.1,7.1,15.2,12.1,23.7,15.1
		c-8.4,3-16.6,8.1-23.6,15.1c-16.4,16.4-22.1,38.6-16.2,56.3H634V469C626.7,472.1,619.7,476.8,613.6,482.8"/>
	<path class="st3" d="M531.5,458.3c3-1.1,5.9-3,8.4-5.5c7.9-7.9,9-19.7,2.4-26.3c-6.6-6.6-18.3-5.5-26.3,2.4c-1,1-1.9,2-2.6,3.1
		c1.1-2.7,1.7-5.7,1.7-8.9c0-11.2-7.5-20.3-16.9-20.3c-9.3,0-16.9,9.1-16.9,20.3c0,3.2,0.6,6.3,1.7,9c-0.8-1.2-1.8-2.4-2.9-3.5
		c-7.9-7.9-19.7-9-26.3-2.4c-6.6,6.6-5.5,18.3,2.4,26.3c2.6,2.6,5.6,4.4,8.7,5.6c-3.1,1.1-6.1,3-8.7,5.6c-7.9,7.9-9,19.7-2.4,26.3
		c6.6,6.6,18.3,5.5,26.3-2.4c0.7-0.7,1.4-1.5,2-2.3c-0.6,2.1-0.9,4.3-0.9,6.6c0,11.2,7.5,20.3,16.9,20.3c9.3,0,16.9-9.1,16.9-20.3
		c0-2.1-0.3-4.2-0.8-6.1c0.5,0.6,1,1.2,1.6,1.8c7.9,7.9,19.7,9,26.3,2.4c6.6-6.6,5.5-18.3-2.4-26.3
		C537.4,461.3,534.5,459.4,531.5,458.3 M498.4,473.4c-8.4,0-15.3-6.8-15.3-15.3s6.8-15.3,15.3-15.3c8.4,0,15.3,6.8,15.3,15.3
		S506.8,473.4,498.4,473.4z"/>
	<path class="st4" d="M634,229.8H230v202h404V229.8z"/>
	<path class="st1" d="M601.3,383.9c0-11.2-7-13.5-12-13.5c-7.3,0-11.5,4-14.2,6.4c-1-4.4-1.7-6.4-3-6.4c-0.3,0-0.8,0.1-1.4,0.3
		l-7,2.3c-0.7,0.2-1,0.5-1,1c0,2.1,1.7,1.4,1.7,14.4v27.9c0,1,0.2,1.3,1.3,1.3h9.2c1.1,0,1.3-0.3,1.3-1.3v-32.5
		c1.2-1.1,4.3-3.8,8.2-3.8c4.7,0,5.2,4.3,5.2,7.8v28.5c0,1,0.2,1.3,1.3,1.3h9.2c1.1,0,1.3-0.3,1.3-1.3L601.3,383.9L601.3,383.9z
		 M527.4,389.3c0.3-2.6,0.7-10.4,7.8-10.4c6.4,0,6.6,6.6,6.6,10.4H527.4L527.4,389.3z M550.3,407.2c-0.2-0.4-0.5-0.7-1-0.7
		c-1.3,0-5.1,3.1-11.7,3.1c-8.7,0-10.2-6.4-10.2-11.6h24.9c1.7,0,2.1-0.5,2.1-2.3c0-11.2-2.8-25.2-18.5-25.2
		c-12.4,0-20.3,10.2-20.3,24.9c0,17,8.5,24,20.7,24c7.3,0,16.5-3.1,16.5-5.4c0-0.4-0.1-0.7-0.3-1L550.3,407.2L550.3,407.2z
		 M481.1,352.6c0-1.6-0.2-1.9-0.9-1.9c-0.2,0-1,0.3-1.3,0.3l-7.8,1.6c-1.1,0.3-1.7,0.3-1.7,1.7v51.7c0,1.9,0,3.9-0.4,5.7
		c-0.7,3.1-1.7,4-1.7,4.8c0,0.4,0.5,0.7,0.9,0.7l7.4,1.9c0.4,0.1,0.9,0.2,1.3,0.2c1.4,0,2.3-3.1,2.7-4.1c1.5,1.5,3.5,4.1,8.8,4.1
		c12.4,0,19.1-10,19.1-25.7c0-12-3.6-23.1-16.2-23.1c-5.1,0-8.4,2.7-10.3,4.1L481.1,352.6L481.1,352.6z M481.1,382.8
		c1.2-1,3.2-3.1,6.4-3.1c7,0,8.3,7.1,8.3,14.5s-1.7,15.8-10.1,15.8c-2.5,0-4.1-1.5-4.6-1.9L481.1,382.8L481.1,382.8z M431.5,389.3
		c0.3-2.6,0.7-10.4,7.8-10.4c6.4,0,6.6,6.6,6.6,10.4H431.5L431.5,389.3z M454.4,407.2c-0.2-0.4-0.5-0.7-1-0.7
		c-1.3,0-5.1,3.1-11.7,3.1c-8.7,0-10.2-6.4-10.2-11.6h24.9c1.7,0,2.1-0.5,2.1-2.3c0-11.2-2.8-25.2-18.5-25.2
		c-12.4,0-20.3,10.2-20.3,24.9c0,17,8.5,24,20.7,24c7.3,0,16.5-3.1,16.5-5.4c0-0.4-0.1-0.7-0.3-1L454.4,407.2L454.4,407.2z
		 M413.2,408.3c-0.1-0.4-0.4-0.5-0.7-0.5c-0.5,0-1.7,0.8-3.6,0.8c-2.6,0-2.6-2.6-2.6-5.6v-50.4c0-1.6-0.2-1.9-0.9-1.9
		c-0.2,0-1,0.3-1.3,0.3l-7.8,1.6c-1.1,0.3-1.7,0.3-1.7,1.7v47.2c0,8.5,0,17.9,11.4,17.9c4.4,0,9.3-1.3,9.3-2.6
		c0-0.3-0.1-0.3-0.2-0.7L413.2,408.3L413.2,408.3z M374.2,385.5c1.2-1.3,4.2-4.4,7-4.4c2.1,0,3.8,1,4.3,1c0.4,0,0.7-0.5,0.7-0.8
		l2.9-7.8c0,0,0.2-0.5,0.2-0.9c0-1.2-2.7-2.1-5.4-2.1c-6.3,0-9.7,5.2-11.5,7.3c-0.5-3.1-2.3-7.3-3.4-7.3c-0.4,0-0.8,0.3-1.2,0.4
		l-7,2.9c-0.5,0.2-0.8,0.5-0.8,0.8c0,2.1,2.4,3.8,2.4,14v27.9c0,1,0.2,1.3,1.3,1.3h9.2c1.1,0,1.3-0.3,1.3-1.3L374.2,385.5
		L374.2,385.5z M325.3,389.4c0.3-2.6,0.7-10.4,7.8-10.4c6.4,0,6.7,6.6,6.7,10.4H325.3z M348.2,407.2c-0.2-0.3-0.5-0.7-1-0.7
		c-1.3,0-5.1,3.1-11.8,3.1c-8.7,0-10.2-6.4-10.2-11.6h24.9c1.7,0,2.1-0.5,2.1-2.3c0-11.2-2.8-25.2-18.5-25.2
		c-12.4,0-20.3,10.2-20.3,24.9c0,17,8.5,24,20.7,24c7.3,0,16.5-3.1,16.5-5.4c0-0.4-0.1-0.7-0.3-1L348.2,407.2L348.2,407.2z"/>
	<path class="st1" d="M509.9,291.8c0-16.4-10.2-19.8-17.6-19.8c-10.7,0-16.8,5.8-20.7,9.4c-1.5-6.4-2.6-9.4-4.3-9.4
		c-0.5,0-1.2,0.2-2,0.4l-10.3,3.4c-0.9,0.3-1.5,0.8-1.5,1.5c0,3.1,2.6,2,2.6,21.1v40.9c0,1.5,0.3,1.9,1.9,1.9h13.4
		c1.6,0,1.9-0.4,1.9-1.9v-47.5c1.7-1.6,6.2-5.6,11.9-5.6c6.9,0,7.6,6.2,7.6,11.4v41.7c0,1.5,0.3,1.9,1.9,1.9H508
		c1.6,0,1.9-0.4,1.9-1.9L509.9,291.8L509.9,291.8z M438,339.7c0.9-0.3,1.5-0.8,1.5-1.5c0-3.1-2.6-2-2.6-21.1v-42.3
		c0-2.3-0.3-2.8-0.9-2.8c-0.5,0-1.9,0.4-2.3,0.4l-11.4,2.3c-1.6,0.4-2.6,0.5-2.6,2.4v47.9c-1.7,1.2-6.2,4.2-11.9,4.2
		c-6.9,0-7.6-6.2-7.6-11.4v-43c0-2.3-0.3-2.8-1.1-2.8c-0.4,0-1.7,0.4-2.2,0.4l-11.4,2.3c-1.6,0.4-2.6,0.5-2.6,2.4v46.6
		c0,16.4,10.1,19.8,17.6,19.8c10.7,0,17-4.7,20.7-8c1.5,5.4,2.6,8,4.3,8c0.5,0,1.2-0.2,2-0.4L438,339.7L438,339.7z M431.8,253
		c0-5-4.1-9.4-9.4-9.4c-5.3,0-9.3,4.2-9.3,9.4c0,5.2,4.2,9.3,9.3,9.3C427.5,262.3,431.8,258.1,431.8,253z M407.8,253
		c0-5.1-4.2-9.4-9.3-9.4c-5.1,0-9.3,4.2-9.3,9.4c0,5.2,4.2,9.3,9.3,9.3C403.6,262.3,407.8,258.1,407.8,253z M353,294.1
		c1.7-1.9,6.1-6.5,10.3-6.5c3.1,0,5.6,1.5,6.4,1.5c0.5,0,0.9-0.8,1.1-1.2l4.2-11.4c0.2-0.3,0.3-0.8,0.3-1.4c0-1.7-3.9-3.1-7.8-3.1
		c-9.2,0-14.2,7.6-16.8,10.7c-0.7-4.6-3.4-10.7-5-10.7c-0.5,0-1.2,0.4-1.7,0.5l-10.3,4.2c-0.7,0.3-1.2,0.7-1.2,1.2
		c0,3.1,3.5,5.6,3.5,20.4v40.9c0,1.5,0.3,1.9,1.9,1.9h13.4c1.6,0,1.9-0.4,1.9-1.9L353,294.1L353,294.1z M302.2,322.3
		c-1.4,1.2-4.6,4.6-11.5,4.6c-8.1,0-10.8-7.7-10.8-20c0-13,3.5-20.6,11.7-20.6c6.1,0,8.9,2.7,10.7,4.1V322.3z M318.4,294.8
		c0-10.7,3.8-15.6,3.8-17.3c0-0.5-0.7-0.9-1.2-1.2l-10.6-3.9c-0.4-0.2-0.9-0.3-1.4-0.3c-1.9,0-4.3,5.2-4.7,6.4
		c-2.6-2.2-6.5-6.4-16.1-6.4c-16.1,0-25.6,13.6-25.6,35.3c0,20.3,8,33.1,23.1,33.1c9.2,0,14.4-3.8,16.4-5.1c0,0.9,0.4,4.2,0.4,8.9
		c0,7.6-1.6,11.5-11.1,11.5c-12,0-20.3-5.3-21.9-5.3c-0.7,0-1.2,0.4-1.5,1.4l-2.6,8.3c-0.4,1.2-0.5,1.7-0.5,2.7
		c0,2.8,17.5,7.2,28,7.2c18.8,0,26.1-9.7,26.1-24.5c0-7.6-0.7-21.5-0.7-30.5v-20.2L318.4,294.8z"/>
	<path class="st4" d="M300.8,582.7c2.4-0.9,4.7-2.3,6.7-4.4c6.3-6.3,7.2-15.7,1.9-20.9c-5.2-5.2-14.6-4.4-20.9,1.9
		c-0.8,0.8-1.5,1.6-2.1,2.4c0.9-2.1,1.3-4.5,1.3-7c0-8.9-6-16.2-13.4-16.2c-7.4,0-13.4,7.2-13.4,16.2c0,2.6,0.5,5,1.4,7.1
		c-0.7-1-1.4-1.9-2.3-2.8c-6.3-6.3-15.7-7.2-20.9-1.9c-5.2,5.2-4.4,14.6,1.9,20.9c2.1,2.1,4.4,3.5,6.9,4.4c-2.4,0.9-4.8,2.4-6.9,4.4
		c-6.3,6.3-7.2,15.7-1.9,20.9c5.2,5.2,14.6,4.3,20.9-1.9c0.6-0.6,1.1-1.2,1.6-1.8c-0.5,1.6-0.7,3.4-0.7,5.2c0,8.9,6,16.2,13.4,16.2
		c7.4,0,13.4-7.2,13.4-16.2c0-1.7-0.2-3.3-0.6-4.8c0.4,0.5,0.8,1,1.3,1.4c6.3,6.3,15.7,7.2,20.9,1.9c5.2-5.2,4.4-14.6-1.9-20.9
		C305.5,585,303.2,583.6,300.8,582.7 M274.4,594.7c-6.7,0-12.2-5.4-12.2-12.2s5.4-12.2,12.2-12.2c6.7,0,12.2,5.4,12.2,12.2
		S281.2,594.7,274.4,594.7z"/>
	<path class="st3" d="M363.8,629.3c-11.2,0-20.3-9.1-20.3-20.3s9.1-20.3,20.3-20.3c11.2,0,20.3,9.1,20.3,20.3S375,629.3,363.8,629.3
		z M422.4,567.1c-8.7-8.7-24.4-7.3-35,3.3c-1.3,1.3-2.5,2.7-3.5,4.1c1.4-3.6,2.2-7.6,2.2-11.8c0-14.9-10-27-22.4-27
		c-12.4,0-22.4,12.1-22.4,27c0,4.3,0.8,8.3,2.3,12c-1.1-1.6-2.4-3.1-3.8-4.6c-10.6-10.6-26.2-12-35-3.3c-8.7,8.7-7.3,24.4,3.3,35
		c3.5,3.5,7.4,5.9,11.5,7.4c-4.1,1.5-8.1,3.9-11.5,7.4c-5,5-8,11.2-8.7,17.3h128.2c-0.8-6.1-3.7-12.2-8.7-17.3
		c-3.3-3.3-7.1-5.7-11.1-7.2c4-1.5,7.8-3.9,11.2-7.3C429.7,591.4,431.1,575.8,422.4,567.1"/>
	<path class="st4" d="M441.2,531.4c3.4-1.3,6.8-3.4,9.6-6.3c9.1-9.1,10.3-22.5,2.8-30.1c-7.5-7.5-21-6.3-30,2.8
		c-1.1,1.1-2.1,2.3-3,3.5c1.2-3.1,1.9-6.5,1.9-10.1c0-12.8-8.6-23.2-19.3-23.2c-10.6,0-19.3,10.4-19.3,23.2c0,3.7,0.7,7.2,2,10.3
		c-0.9-1.4-2-2.7-3.3-3.9c-9.1-9.1-22.5-10.3-30-2.8c-7.5,7.5-6.3,21,2.8,30c3,3,6.4,5.1,9.9,6.3c-3.5,1.3-7,3.4-9.9,6.3
		c-9.1,9.1-10.3,22.5-2.8,30.1c7.5,7.5,21,6.3,30.1-2.8c0.9-0.8,1.6-1.7,2.3-2.6c-0.7,2.4-1,4.9-1,7.5c0,12.8,8.6,23.2,19.3,23.2
		c10.6,0,19.3-10.4,19.3-23.2c0-2.4-0.3-4.8-0.9-7c0.6,0.7,1.2,1.4,1.9,2.1c9,9.1,22.5,10.3,30.1,2.8c7.5-7.5,6.3-21-2.8-30.1
		C448,534.8,444.7,532.7,441.2,531.4 M403.3,548.6c-9.6,0-17.5-7.8-17.5-17.5c0-9.7,7.8-17.5,17.5-17.5c9.7,0,17.5,7.8,17.5,17.5
		C420.8,540.8,413,548.6,403.3,548.6z"/>
</g>
</svg>
