<svg width="864" height="1223" viewBox="0 0 864 1223" fill="none" xmlns="http://www.w3.org/2000/svg">
<rect width="864" height="1223" fill="black"/>
<g clip-path="url(#clip0_906_621)">
<path d="M748.951 190H115V1033.53H748.951V190Z" fill="white"/>
<path d="M405.299 314.652C404.152 315.198 403.06 315.634 401.968 315.798C400.875 315.962 399.729 316.126 398.418 316.126C395.578 316.126 393.394 315.198 391.756 313.342C390.117 311.487 389.353 309.249 389.353 306.629H389.135C387.332 309.74 384.657 312.196 381.107 314.052C377.557 315.907 373.571 316.835 369.148 316.835C365.598 316.835 362.486 316.289 359.81 315.198C357.134 314.106 354.895 312.633 353.093 310.832C351.345 309.031 349.98 307.011 349.106 304.719C348.178 302.427 347.741 300.08 347.741 297.733C347.741 295.769 348.069 293.695 348.779 291.457C349.489 289.274 350.69 287.2 352.383 285.399C354.076 283.544 356.369 281.961 359.209 280.651C362.049 279.341 365.598 278.577 369.858 278.304L388.807 277.213V272.683C388.807 271.155 388.643 269.518 388.261 267.771C387.879 266.079 387.005 264.551 385.64 263.241C384.547 262.259 383.237 261.495 381.653 260.895C380.069 260.294 377.994 260.021 375.428 260.021C372.533 260.021 370.24 260.349 368.438 261.058C366.636 261.768 365.216 262.641 364.124 263.678C362.049 265.752 361.066 268.208 361.066 271.155H350.854C350.909 268.317 351.455 265.806 352.383 263.733C353.311 261.659 354.622 259.803 356.26 258.166C358.39 255.928 361.175 254.291 364.561 253.199C367.946 252.108 371.605 251.562 375.428 251.562C381.489 251.562 386.295 252.708 389.844 254.946C393.394 257.183 395.906 260.021 397.38 263.46C398.636 266.243 399.237 269.463 399.237 273.01V303.082C399.237 304.719 399.565 305.811 400.165 306.411C400.766 307.011 401.64 307.284 402.677 307.284C403.169 307.284 403.715 307.23 404.37 307.066C404.698 307.066 405.026 307.066 405.353 306.957V314.707L405.299 314.652ZM388.698 285.29L371.987 286.272C370.404 286.382 368.82 286.6 367.182 287.091C365.544 287.528 364.069 288.183 362.759 289.056C361.448 289.929 360.356 291.021 359.591 292.44C358.772 293.859 358.335 295.496 358.335 297.461C358.335 300.244 359.264 302.7 361.175 304.883C363.032 307.066 366.199 308.158 370.622 308.158C373.025 308.158 375.319 307.775 377.557 306.957C379.796 306.138 381.762 304.883 383.401 303.137C385.312 301.281 386.623 299.098 387.442 296.642C388.261 294.186 388.698 291.621 388.698 289.001V285.29Z" fill="#010101"/>
<path d="M466.624 294.404C466.406 297.788 465.641 300.735 464.385 303.246C463.184 305.811 461.491 308.103 459.361 310.122C457.177 312.251 454.556 313.888 451.607 315.089C448.658 316.289 445.272 316.89 441.395 316.89C435.771 316.89 431.074 315.744 427.47 313.506C423.811 311.268 420.917 308.485 418.678 305.21C417.04 302.754 415.784 299.807 414.855 296.369C413.927 292.931 413.49 288.892 413.49 284.198C413.49 279.505 413.927 275.466 414.855 272.028C415.784 268.59 417.04 265.643 418.678 263.187C420.862 259.912 423.811 257.129 427.415 254.891C431.02 252.653 435.661 251.507 441.286 251.507C444.999 251.507 448.33 252.108 451.279 253.254C454.283 254.4 456.849 256.037 458.979 258.166C461.109 260.24 462.802 262.532 464.058 265.097C465.314 267.662 466.078 270.664 466.351 274.102H455.757C455.539 271.973 454.993 270.118 454.228 268.535C453.464 266.952 452.481 265.588 451.334 264.442C450.078 263.296 448.604 262.368 446.911 261.658C445.218 260.949 443.307 260.622 441.231 260.622C438.829 260.622 436.808 261.004 435.115 261.768C433.422 262.532 431.839 263.514 430.473 264.66C428.016 266.789 426.378 269.627 425.504 273.119C424.63 276.667 424.194 280.324 424.194 284.144C424.194 287.964 424.63 291.675 425.504 295.168C426.378 298.716 428.016 301.499 430.473 303.628C431.839 304.774 433.422 305.756 435.115 306.52C436.863 307.284 438.883 307.666 441.231 307.666C443.361 307.666 445.327 307.284 447.184 306.575C449.04 305.865 450.569 304.828 451.771 303.518C452.918 302.372 453.846 301.063 454.556 299.589C455.266 298.115 455.703 296.369 455.976 294.295H466.57L466.624 294.404Z" fill="#010101"/>
<path d="M515.881 314.434C514.516 314.816 512.769 315.198 510.803 315.58C508.782 315.962 506.379 316.126 503.485 316.126C500.099 316.126 497.369 315.635 495.13 314.652C492.891 313.67 491.198 312.415 489.888 310.832C488.632 309.304 487.703 307.503 487.212 305.429C486.666 303.355 486.393 301.336 486.393 299.316V262.095H474.324V253.145H486.393V237.318L496.823 234.862V253.145H515.281V262.095H496.823V298.17C496.823 301.226 497.478 303.41 498.843 304.719C500.209 306.029 502.284 306.684 505.178 306.684C506.325 306.684 507.526 306.63 508.728 306.52C509.929 306.411 511.076 306.247 512.168 306.084C513.424 306.029 514.625 305.865 515.827 305.593V314.434H515.881Z" fill="#010101"/>
<path d="M190.906 984.903C190.469 985.121 190.032 985.285 189.65 985.339C189.268 985.394 188.776 985.448 188.285 985.448C187.193 985.448 186.373 985.121 185.773 984.411C185.172 983.702 184.844 982.883 184.844 981.901H184.735C184.08 983.102 183.042 984.029 181.677 984.684C180.312 985.394 178.837 985.721 177.145 985.721C175.834 985.721 174.633 985.503 173.595 985.066C172.557 984.63 171.738 984.084 171.083 983.429C170.428 982.774 169.936 981.955 169.554 981.137C169.226 980.264 169.062 979.39 169.062 978.517C169.062 977.753 169.172 976.989 169.445 976.17C169.718 975.352 170.155 974.588 170.81 973.878C171.465 973.169 172.339 972.568 173.377 972.077C174.469 971.586 175.779 971.313 177.363 971.204L184.517 970.767V969.021C184.517 968.421 184.462 967.82 184.298 967.165C184.134 966.51 183.807 965.965 183.315 965.473C182.933 965.091 182.387 964.818 181.786 964.6C181.186 964.382 180.421 964.273 179.438 964.273C178.346 964.273 177.472 964.382 176.817 964.655C176.162 964.928 175.616 965.255 175.179 965.637C174.414 966.401 174.032 967.329 174.032 968.475H170.155C170.155 967.384 170.373 966.456 170.755 965.692C171.083 964.928 171.574 964.218 172.23 963.563C173.049 962.745 174.086 962.09 175.342 961.708C176.598 961.326 178.018 961.053 179.438 961.053C181.732 961.053 183.534 961.489 184.899 962.308C186.264 963.181 187.193 964.218 187.739 965.528C188.23 966.565 188.449 967.766 188.449 969.13V980.482C188.449 981.082 188.558 981.519 188.776 981.737C188.995 981.955 189.322 982.065 189.705 982.065C189.868 982.065 190.087 982.065 190.36 981.955C190.469 981.955 190.633 981.955 190.742 981.955V984.903H190.906ZM184.626 973.824L178.291 974.206C177.691 974.206 177.09 974.315 176.489 974.479C175.889 974.642 175.288 974.915 174.796 975.243C174.305 975.57 173.923 976.007 173.595 976.498C173.267 977.044 173.104 977.644 173.104 978.408C173.104 979.445 173.486 980.373 174.196 981.191C174.906 982.01 176.107 982.447 177.745 982.447C178.619 982.447 179.493 982.283 180.366 982.01C181.24 981.737 181.95 981.246 182.551 980.591C183.261 979.882 183.752 979.063 184.08 978.135C184.408 977.207 184.517 976.225 184.517 975.243V973.878L184.626 973.824Z" fill="#010101"/>
<path d="M216.735 973.387C216.735 975.406 216.408 977.316 215.807 979.063C215.206 980.809 214.333 982.228 213.131 983.374C212.367 984.084 211.438 984.684 210.346 985.066C209.254 985.503 208.053 985.721 206.633 985.721C205.978 985.721 205.322 985.667 204.667 985.503C204.012 985.339 203.356 985.121 202.756 984.848C202.155 984.575 201.554 984.248 201.063 983.811C200.571 983.374 200.134 982.938 199.807 982.392V995.163H195.875V961.653H199.37L199.643 964.709C200.298 963.509 201.336 962.635 202.646 961.981C203.957 961.326 205.322 961.053 206.633 961.053C208.107 961.053 209.363 961.271 210.455 961.708C211.548 962.144 212.476 962.799 213.241 963.563C214.333 964.709 215.206 966.128 215.753 967.82C216.299 969.512 216.626 971.368 216.626 973.278L216.735 973.387ZM212.694 973.387C212.694 972.295 212.585 971.258 212.367 970.167C212.148 969.075 211.821 968.148 211.329 967.274C210.838 966.401 210.128 965.692 209.309 965.2C208.435 964.655 207.343 964.436 206.087 964.436C205.213 964.436 204.503 964.6 203.902 964.873C203.302 965.146 202.756 965.528 202.319 965.965C201.336 966.838 200.626 967.929 200.298 969.239C199.916 970.549 199.752 971.968 199.752 973.442C199.752 974.915 199.916 976.334 200.298 977.644C200.681 978.954 201.336 980.045 202.319 980.918C202.81 981.355 203.302 981.737 203.902 982.01C204.503 982.283 205.268 982.447 206.087 982.447C207.397 982.447 208.49 982.174 209.309 981.683C210.128 981.191 210.838 980.482 211.329 979.609C211.821 978.735 212.148 977.753 212.367 976.716C212.585 975.625 212.694 974.588 212.694 973.496V973.387Z" fill="#010101"/>
<path d="M242.894 973.387C242.894 975.406 242.566 977.316 241.965 979.063C241.365 980.809 240.491 982.228 239.29 983.374C238.525 984.084 237.597 984.684 236.504 985.066C235.412 985.503 234.211 985.721 232.791 985.721C232.136 985.721 231.48 985.667 230.825 985.503C230.17 985.339 229.515 985.121 228.914 984.848C228.313 984.575 227.712 984.248 227.221 983.811C226.73 983.374 226.293 982.938 225.965 982.392V995.163H222.033V961.653H225.528L225.801 964.709C226.456 963.509 227.494 962.635 228.805 961.981C230.115 961.326 231.48 961.053 232.791 961.053C234.266 961.053 235.522 961.271 236.614 961.708C237.706 962.144 238.634 962.799 239.399 963.563C240.491 964.709 241.365 966.128 241.911 967.82C242.457 969.512 242.784 971.368 242.784 973.278L242.894 973.387ZM238.853 973.387C238.853 972.295 238.743 971.258 238.525 970.167C238.307 969.075 237.979 968.148 237.487 967.274C236.996 966.401 236.286 965.692 235.467 965.2C234.593 964.655 233.501 964.436 232.245 964.436C231.371 964.436 230.661 964.6 230.061 964.873C229.46 965.146 228.914 965.528 228.477 965.965C227.494 966.838 226.784 967.929 226.456 969.239C226.074 970.549 225.91 971.968 225.91 973.442C225.91 974.915 226.074 976.334 226.456 977.644C226.839 978.954 227.494 980.045 228.477 980.918C228.968 981.355 229.46 981.737 230.061 982.01C230.661 982.283 231.426 982.447 232.245 982.447C233.556 982.447 234.648 982.174 235.467 981.683C236.286 981.191 236.996 980.482 237.487 979.609C237.979 978.735 238.307 977.753 238.525 976.716C238.743 975.625 238.853 974.588 238.853 973.496V973.387Z" fill="#010101"/>
<path d="M268.232 984.903C267.795 985.121 267.358 985.285 266.976 985.339C266.594 985.394 266.102 985.448 265.611 985.448C264.519 985.448 263.7 985.121 263.099 984.411C262.498 983.702 262.171 982.883 262.171 981.901H262.061C261.406 983.102 260.368 984.029 259.003 984.684C257.638 985.394 256.164 985.721 254.471 985.721C253.16 985.721 251.959 985.503 250.921 985.066C249.884 984.63 249.064 984.084 248.409 983.429C247.754 982.774 247.262 981.955 246.88 981.137C246.552 980.264 246.389 979.39 246.389 978.517C246.389 977.753 246.498 976.989 246.771 976.17C247.044 975.352 247.481 974.588 248.136 973.878C248.791 973.169 249.665 972.568 250.703 972.077C251.795 971.586 253.106 971.313 254.689 971.204L261.843 970.767V969.021C261.843 968.421 261.788 967.82 261.624 967.165C261.461 966.51 261.133 965.965 260.642 965.473C260.259 965.091 259.713 964.818 259.112 964.6C258.512 964.382 257.747 964.273 256.764 964.273C255.672 964.273 254.798 964.382 254.143 964.655C253.488 964.928 252.942 965.255 252.505 965.637C251.74 966.401 251.358 967.329 251.358 968.475H247.481C247.481 967.384 247.699 966.456 248.082 965.692C248.409 964.928 248.901 964.218 249.556 963.563C250.375 962.745 251.413 962.09 252.669 961.708C253.925 961.326 255.344 961.053 256.764 961.053C259.058 961.053 260.86 961.489 262.225 962.308C263.59 963.181 264.519 964.218 265.065 965.528C265.556 966.565 265.775 967.766 265.775 969.13V980.482C265.775 981.082 265.884 981.519 266.102 981.737C266.321 981.955 266.648 982.065 267.031 982.065C267.195 982.065 267.413 982.065 267.686 981.955C267.795 981.955 267.959 981.955 268.068 981.955V984.903H268.232ZM261.952 973.824L255.618 974.206C255.017 974.206 254.416 974.315 253.815 974.479C253.215 974.642 252.614 974.915 252.123 975.243C251.631 975.57 251.249 976.007 250.921 976.498C250.594 977.044 250.43 977.644 250.43 978.408C250.43 979.445 250.812 980.373 251.522 981.191C252.232 982.01 253.433 982.447 255.071 982.447C255.945 982.447 256.819 982.283 257.693 982.01C258.566 981.737 259.276 981.246 259.877 980.591C260.587 979.882 261.078 979.063 261.406 978.135C261.734 977.207 261.843 976.225 261.843 975.243V973.878L261.952 973.824Z" fill="#010101"/>
<path d="M285.98 965.473C285.652 965.419 285.27 965.364 284.888 965.31C284.505 965.31 284.123 965.31 283.795 965.31C282.867 965.31 282.048 965.473 281.283 965.855C280.519 966.237 279.864 966.674 279.372 967.165C278.935 967.602 278.553 968.148 278.225 968.748C277.952 969.348 277.734 970.003 277.57 970.658C277.406 971.313 277.352 972.022 277.297 972.677C277.297 973.387 277.242 974.042 277.242 974.642V985.066H273.311V961.598H276.86L277.188 965.746C277.788 964.273 278.771 963.236 280.027 962.526C281.338 961.817 282.703 961.489 284.178 961.489C284.833 961.489 285.434 961.489 286.034 961.653V965.528L285.98 965.473Z" fill="#010101"/>
<path d="M309.297 974.697H292.696C292.696 975.788 292.915 976.88 293.297 977.917C293.679 978.954 294.28 979.882 294.99 980.591C296.082 981.683 297.556 982.283 299.304 982.283C301.27 982.283 302.69 981.792 303.673 980.755C304 980.427 304.273 980.045 304.492 979.663C304.71 979.281 304.874 978.79 305.038 978.19H308.915C308.751 979.39 308.369 980.482 307.714 981.464C307.058 982.501 306.239 983.32 305.311 983.975C304.492 984.52 303.563 984.957 302.526 985.285C301.488 985.612 300.451 985.721 299.304 985.721C297.611 985.721 296.137 985.394 294.826 984.793C293.515 984.138 292.423 983.32 291.495 982.228C290.512 981.082 289.747 979.772 289.31 978.244C288.819 976.771 288.601 975.133 288.601 973.496C288.601 972.077 288.764 970.713 289.037 969.458C289.31 968.202 289.802 967.056 290.457 965.965C291.276 964.546 292.478 963.345 294.007 962.417C295.536 961.489 297.283 961.053 299.358 961.053C300.887 961.053 302.253 961.326 303.399 961.871C304.601 962.417 305.638 963.127 306.458 964.054C307.441 965.091 308.15 966.347 308.697 967.766C309.243 969.185 309.461 970.713 309.461 972.295V974.642L309.297 974.697ZM305.311 971.313C305.311 970.44 305.202 969.567 304.929 968.693C304.655 967.875 304.328 967.111 303.836 966.51C303.345 965.855 302.69 965.364 301.925 964.982C301.161 964.6 300.232 964.382 299.195 964.382C298.157 964.382 297.229 964.6 296.41 964.982C295.59 965.364 294.935 965.91 294.389 966.565C293.843 967.22 293.461 967.929 293.188 968.748C292.915 969.567 292.751 970.385 292.751 971.258H305.256L305.311 971.313Z" fill="#010101"/>
<path d="M321.966 985.121C321.966 985.121 321.53 985.23 321.256 985.284C320.983 985.284 320.71 985.339 320.383 985.394C320.055 985.394 319.618 985.394 319.181 985.394C317.434 985.394 316.178 984.902 315.413 983.92C314.649 982.938 314.267 981.519 314.267 979.663V951.666H318.198V979.445C318.198 980.263 318.362 980.864 318.635 981.246C318.963 981.628 319.509 981.846 320.328 981.846H321.147C321.147 981.846 321.53 981.846 321.639 981.846H321.966V985.175V985.121Z" fill="#010101"/>
<path d="M356.752 977.207C356.643 978.462 356.37 979.608 355.933 980.536C355.496 981.464 354.841 982.337 354.022 983.156C353.203 983.974 352.22 984.575 351.073 985.011C349.981 985.448 348.67 985.666 347.196 985.666C345.066 985.666 343.319 985.23 341.953 984.411C340.588 983.538 339.496 982.501 338.622 981.3C338.022 980.372 337.53 979.281 337.202 977.971C336.875 976.661 336.711 975.133 336.711 973.387C336.711 971.64 336.875 970.112 337.202 968.802C337.53 967.492 338.022 966.401 338.622 965.473C339.441 964.218 340.534 963.181 341.899 962.362C343.264 961.489 345.011 961.107 347.141 961.107C348.506 961.107 349.817 961.325 350.909 961.762C352.056 962.199 352.984 962.799 353.803 963.617C354.623 964.382 355.223 965.255 355.715 966.237C356.206 967.219 356.479 968.366 356.588 969.621H352.602C352.493 968.802 352.329 968.093 352.001 967.492C351.728 966.892 351.346 966.346 350.909 965.91C350.472 965.473 349.872 965.146 349.216 964.873C348.561 964.6 347.851 964.491 347.087 964.491C346.213 964.491 345.394 964.654 344.793 964.927C344.192 965.2 343.537 965.582 343.046 966.019C342.117 966.837 341.516 967.874 341.189 969.239C340.861 970.549 340.697 971.968 340.697 973.441C340.697 974.915 340.861 976.279 341.189 977.589C341.516 978.899 342.117 979.99 343.046 980.809C343.592 981.246 344.138 981.628 344.793 981.901C345.448 982.173 346.213 982.337 347.087 982.337C347.906 982.337 348.616 982.173 349.326 981.901C350.035 981.628 350.582 981.246 351.073 980.754C351.51 980.318 351.838 979.827 352.111 979.281C352.384 978.735 352.547 978.08 352.657 977.262H356.643L356.752 977.207Z" fill="#010101"/>
<path d="M381.708 973.387C381.708 975.242 381.49 976.989 380.998 978.626C380.507 980.263 379.633 981.737 378.377 982.992C377.503 983.811 376.466 984.52 375.319 985.012C374.117 985.503 372.807 985.776 371.278 985.776C369.749 985.776 368.438 985.503 367.237 985.012C366.035 984.52 364.998 983.865 364.124 982.992C362.813 981.737 361.94 980.263 361.503 978.626C361.066 976.989 360.793 975.242 360.793 973.387C360.793 971.531 361.011 969.785 361.503 968.148C361.94 966.51 362.868 965.037 364.124 963.781C364.998 962.963 366.035 962.308 367.237 961.762C368.438 961.216 369.749 960.998 371.278 960.998C372.807 960.998 374.117 961.271 375.319 961.762C376.52 962.253 377.558 962.908 378.377 963.781C379.688 965.037 380.561 966.51 380.998 968.148C381.435 969.785 381.708 971.531 381.708 973.387ZM377.667 973.387C377.667 972.022 377.503 970.658 377.23 969.348C376.903 968.038 376.356 966.947 375.537 966.128C375.046 965.637 374.445 965.255 373.735 964.928C373.025 964.6 372.206 964.491 371.278 964.491C370.349 964.491 369.53 964.655 368.82 964.928C368.111 965.2 367.51 965.637 367.018 966.128C366.199 967.001 365.599 968.093 365.325 969.348C364.998 970.658 364.889 972.022 364.889 973.387C364.889 974.751 365.052 976.116 365.325 977.425C365.653 978.735 366.199 979.827 367.018 980.645C367.51 981.137 368.111 981.573 368.82 981.846C369.53 982.174 370.349 982.337 371.278 982.337C372.206 982.337 373.025 982.174 373.735 981.846C374.445 981.519 375.046 981.137 375.537 980.645C376.356 979.772 376.957 978.681 377.23 977.425C377.503 976.17 377.667 974.806 377.667 973.387Z" fill="#010101"/>
<path d="M402.132 985.121V970.221C402.132 968.475 401.749 967.056 400.93 966.074C400.111 965.091 398.8 964.6 396.944 964.6C395.797 964.6 394.814 964.928 393.94 965.582C393.067 966.237 392.357 967.111 391.865 968.202C391.483 969.075 391.21 970.058 391.155 971.149C391.101 972.241 391.046 973.278 391.046 974.151V985.066H387.114V961.598H390.555L390.882 965.146C391.21 964.491 391.592 963.891 392.138 963.345C392.684 962.799 393.23 962.417 393.886 962.035C394.541 961.708 395.196 961.435 395.906 961.271C396.616 961.107 397.326 960.998 397.927 960.998C400.603 960.998 402.623 961.762 403.988 963.29C405.353 964.818 406.009 966.947 406.009 969.621V985.066H402.077L402.132 985.121Z" fill="#010101"/>
<path d="M421.081 972.95V969.293H466.788V972.95H421.081Z" fill="#010101"/>
<path d="M495.84 984.793C495.293 984.957 494.693 985.066 493.928 985.23C493.164 985.394 492.235 985.448 491.143 985.448C489.887 985.448 488.795 985.284 487.976 984.902C487.157 984.52 486.502 984.029 486.01 983.483C485.519 982.883 485.191 982.228 484.972 981.464C484.754 980.7 484.645 979.936 484.645 979.172V965.091H480.112V961.707H484.645V955.704L488.577 954.776V961.707H495.512V965.091H488.577V978.735C488.577 979.881 488.85 980.7 489.341 981.191C489.833 981.682 490.652 981.955 491.744 981.955C492.181 981.955 492.618 981.955 493.109 981.901C493.546 981.901 493.983 981.792 494.42 981.737C494.857 981.737 495.348 981.628 495.785 981.573V984.902L495.84 984.793Z" fill="#010101"/>
<path d="M519.158 974.697H502.557C502.557 975.788 502.775 976.88 503.157 977.917C503.54 978.954 504.14 979.882 504.85 980.591C505.942 981.683 507.417 982.283 509.164 982.283C511.13 982.283 512.55 981.792 513.533 980.755C513.861 980.427 514.134 980.045 514.352 979.663C514.57 979.281 514.734 978.79 514.898 978.19H518.775C518.611 979.39 518.229 980.482 517.574 981.464C516.919 982.501 516.099 983.32 515.171 983.975C514.352 984.52 513.424 984.957 512.386 985.285C511.349 985.612 510.311 985.721 509.164 985.721C507.471 985.721 505.997 985.394 504.686 984.793C503.376 984.138 502.284 983.32 501.355 982.228C500.372 981.082 499.608 979.772 499.171 978.244C498.679 976.771 498.461 975.133 498.461 973.496C498.461 972.077 498.625 970.713 498.898 969.458C499.171 968.202 499.662 967.056 500.318 965.965C501.137 964.546 502.338 963.345 503.867 962.417C505.396 961.489 507.144 961.053 509.219 961.053C510.748 961.053 512.113 961.326 513.26 961.871C514.461 962.417 515.499 963.127 516.318 964.054C517.301 965.091 518.011 966.347 518.557 967.766C519.103 969.185 519.321 970.713 519.321 972.295V974.642L519.158 974.697ZM515.171 971.313C515.171 970.44 515.062 969.567 514.789 968.693C514.516 967.875 514.188 967.111 513.697 966.51C513.205 965.855 512.55 965.364 511.785 964.982C511.021 964.6 510.093 964.382 509.055 964.382C508.017 964.382 507.089 964.6 506.27 964.982C505.451 965.364 504.796 965.91 504.249 966.565C503.703 967.22 503.321 967.929 503.048 968.748C502.775 969.567 502.611 970.385 502.611 971.258H515.117L515.171 971.313Z" fill="#010101"/>
<path d="M553.125 985.121V970.167C553.125 968.53 552.797 967.22 552.142 966.128C551.487 965.091 550.231 964.6 548.374 964.6C547.609 964.6 546.954 964.764 546.353 965.037C545.753 965.31 545.261 965.692 544.77 966.183C543.951 967.002 543.404 967.929 543.186 969.075C542.913 970.222 542.804 971.368 542.804 972.623V985.121H538.872V970.167C538.872 969.348 538.817 968.584 538.654 967.875C538.49 967.22 538.271 966.62 537.889 966.128C537.561 965.637 537.07 965.255 536.415 964.982C535.759 964.709 535.049 964.546 534.121 964.546C533.302 964.546 532.537 964.764 531.882 965.146C531.227 965.528 530.626 966.019 530.135 966.674C529.534 967.438 529.152 968.366 528.879 969.458C528.66 970.549 528.551 971.64 528.551 972.623V985.121H524.619V961.653H528.059L528.442 964.982C529.042 963.672 529.971 962.69 531.227 962.035C532.483 961.38 533.739 961.053 535.049 961.053C536.797 961.053 538.271 961.435 539.473 962.199C540.674 962.963 541.548 964.054 542.039 965.528C542.64 964.054 543.623 962.908 544.988 962.199C546.353 961.435 547.773 961.107 549.248 961.107C551.923 961.107 553.944 961.871 555.2 963.454C556.456 965.037 557.111 967.111 557.111 969.73V985.175H553.179L553.125 985.121Z" fill="#010101"/>
<path d="M584.196 973.387C584.196 975.406 583.869 977.316 583.268 979.063C582.667 980.809 581.794 982.228 580.592 983.374C579.828 984.084 578.899 984.684 577.807 985.066C576.715 985.503 575.514 985.721 574.094 985.721C573.439 985.721 572.783 985.667 572.128 985.503C571.473 985.339 570.817 985.121 570.217 984.848C569.616 984.575 569.015 984.248 568.524 983.811C568.032 983.374 567.595 982.938 567.268 982.392V995.163H563.336V961.653H566.831L567.104 964.709C567.759 963.509 568.797 962.635 570.107 961.981C571.418 961.326 572.783 961.053 574.094 961.053C575.568 961.053 576.824 961.271 577.916 961.708C579.009 962.144 579.937 962.799 580.701 963.563C581.794 964.709 582.667 966.128 583.213 967.82C583.76 969.512 584.087 971.368 584.087 973.278L584.196 973.387ZM580.155 973.387C580.155 972.295 580.046 971.258 579.828 970.167C579.609 969.075 579.282 968.148 578.79 967.274C578.299 966.401 577.589 965.692 576.77 965.2C575.896 964.655 574.804 964.436 573.548 964.436C572.674 964.436 571.964 964.6 571.363 964.873C570.763 965.146 570.217 965.528 569.78 965.965C568.797 966.838 568.087 967.929 567.759 969.239C567.377 970.549 567.213 971.968 567.213 973.442C567.213 974.915 567.377 976.334 567.759 977.644C568.142 978.954 568.797 980.045 569.78 980.918C570.271 981.355 570.763 981.737 571.363 982.01C571.964 982.283 572.729 982.447 573.548 982.447C574.858 982.447 575.951 982.174 576.77 981.683C577.589 981.191 578.299 980.482 578.79 979.609C579.282 978.735 579.609 977.753 579.828 976.716C580.046 975.625 580.155 974.588 580.155 973.496V973.387Z" fill="#010101"/>
<path d="M609.207 973.387C609.207 975.242 608.989 976.989 608.497 978.626C608.006 980.263 607.132 981.737 605.876 982.992C605.002 983.811 603.965 984.52 602.818 985.012C601.616 985.503 600.306 985.776 598.777 985.776C597.248 985.776 595.937 985.503 594.736 985.012C593.534 984.52 592.497 983.865 591.623 982.992C590.313 981.737 589.439 980.263 589.002 978.626C588.565 976.989 588.292 975.242 588.292 973.387C588.292 971.531 588.51 969.785 589.002 968.148C589.439 966.51 590.367 965.037 591.623 963.781C592.497 962.963 593.534 962.308 594.736 961.762C595.937 961.216 597.248 960.998 598.777 960.998C600.306 960.998 601.616 961.271 602.818 961.762C604.019 962.253 605.057 962.908 605.876 963.781C607.187 965.037 608.06 966.51 608.497 968.148C608.934 969.785 609.207 971.531 609.207 973.387ZM605.166 973.387C605.166 972.022 605.002 970.658 604.729 969.348C604.402 968.038 603.855 966.947 603.036 966.128C602.545 965.637 601.944 965.255 601.234 964.928C600.524 964.6 599.705 964.491 598.777 964.491C597.848 964.491 597.029 964.655 596.319 964.928C595.61 965.2 595.009 965.637 594.517 966.128C593.698 967.001 593.098 968.093 592.825 969.348C592.497 970.658 592.388 972.022 592.388 973.387C592.388 974.751 592.551 976.116 592.825 977.425C593.152 978.735 593.698 979.827 594.517 980.645C595.009 981.137 595.61 981.573 596.319 981.846C597.029 982.174 597.848 982.337 598.777 982.337C599.705 982.337 600.524 982.174 601.234 981.846C601.944 981.519 602.545 981.137 603.036 980.645C603.855 979.772 604.456 978.681 604.729 977.425C605.002 976.17 605.166 974.806 605.166 973.387Z" fill="#010101"/>
<path d="M627.282 965.473C626.955 965.419 626.573 965.364 626.19 965.31C625.808 965.31 625.426 965.31 625.098 965.31C624.17 965.31 623.351 965.473 622.586 965.855C621.822 966.237 621.166 966.674 620.675 967.165C620.238 967.602 619.856 968.148 619.528 968.748C619.255 969.348 619.037 970.003 618.873 970.658C618.709 971.313 618.654 972.022 618.6 972.677C618.6 973.387 618.545 974.042 618.545 974.642V985.066H614.613V961.598H618.163L618.49 965.746C619.091 964.273 620.074 963.236 621.33 962.526C622.641 961.817 624.006 961.489 625.48 961.489C626.136 961.489 626.736 961.489 627.337 961.653V965.528L627.282 965.473Z" fill="#010101"/>
<path d="M651.693 984.903C651.256 985.121 650.819 985.285 650.437 985.339C650.055 985.394 649.563 985.448 649.072 985.448C647.98 985.448 647.161 985.121 646.56 984.411C645.959 983.702 645.631 982.883 645.631 981.901H645.522C644.867 983.102 643.829 984.029 642.464 984.684C641.099 985.394 639.625 985.721 637.932 985.721C636.621 985.721 635.42 985.503 634.382 985.066C633.345 984.63 632.525 984.084 631.87 983.429C631.215 982.774 630.723 981.955 630.341 981.137C630.013 980.264 629.85 979.39 629.85 978.517C629.85 977.753 629.959 976.989 630.232 976.17C630.505 975.352 630.942 974.588 631.597 973.878C632.252 973.169 633.126 972.568 634.164 972.077C635.256 971.586 636.566 971.313 638.15 971.204L645.304 970.767V969.021C645.304 968.421 645.249 967.82 645.085 967.165C644.922 966.51 644.594 965.965 644.102 965.473C643.72 965.091 643.174 964.818 642.573 964.6C641.973 964.382 641.208 964.273 640.225 964.273C639.133 964.273 638.259 964.382 637.604 964.655C636.949 964.928 636.403 965.255 635.966 965.637C635.201 966.401 634.819 967.329 634.819 968.475H630.942C630.942 967.384 631.16 966.456 631.542 965.692C631.87 964.928 632.362 964.218 633.017 963.563C633.836 962.745 634.874 962.09 636.13 961.708C637.386 961.326 638.805 961.053 640.225 961.053C642.519 961.053 644.321 961.489 645.686 962.308C647.051 963.181 647.98 964.218 648.526 965.528C649.017 966.565 649.236 967.766 649.236 969.13V980.482C649.236 981.082 649.345 981.519 649.563 981.737C649.782 981.955 650.109 982.065 650.492 982.065C650.655 982.065 650.874 982.065 651.147 981.955C651.256 981.955 651.42 981.955 651.529 981.955V984.903H651.693ZM645.413 973.824L639.078 974.206C638.478 974.206 637.877 974.315 637.276 974.479C636.676 974.642 636.075 974.915 635.584 975.243C635.092 975.57 634.71 976.007 634.382 976.498C634.054 977.044 633.891 977.644 633.891 978.408C633.891 979.445 634.273 980.373 634.983 981.191C635.693 982.01 636.894 982.447 638.532 982.447C639.406 982.447 640.28 982.283 641.154 982.01C642.027 981.737 642.737 981.246 643.338 980.591C644.048 979.882 644.539 979.063 644.867 978.135C645.195 977.207 645.304 976.225 645.304 975.243V973.878L645.413 973.824Z" fill="#010101"/>
<path d="M669.441 965.473C669.113 965.419 668.731 965.364 668.349 965.31C667.966 965.31 667.584 965.31 667.256 965.31C666.328 965.31 665.509 965.473 664.744 965.855C663.98 966.237 663.325 966.674 662.833 967.165C662.396 967.602 662.014 968.148 661.686 968.748C661.413 969.348 661.195 970.003 661.031 970.658C660.867 971.313 660.813 972.022 660.758 972.677C660.758 973.387 660.703 974.042 660.703 974.642V985.066H656.771V961.598H660.321L660.649 965.746C661.249 964.273 662.232 963.236 663.488 962.526C664.799 961.817 666.164 961.489 667.639 961.489C668.294 961.489 668.895 961.489 669.495 961.653V965.528L669.441 965.473Z" fill="#010101"/>
<path d="M684.239 989.923C683.693 991.451 682.929 992.652 681.946 993.58C680.963 994.508 679.652 994.944 677.85 994.944C676.867 994.944 676.048 994.89 675.447 994.781C674.846 994.671 674.464 994.562 674.3 994.508V991.015C674.3 991.015 674.846 991.124 675.119 991.179C675.393 991.233 675.666 991.288 675.993 991.342C676.321 991.342 676.703 991.342 677.085 991.342C677.905 991.342 678.614 991.179 679.215 990.851C679.816 990.524 680.253 989.923 680.58 988.995L682.055 985.066L672.662 961.653H677.14L684.075 980.154L690.683 961.653H694.833L684.239 989.923Z" fill="#010101"/>
</g>
<defs>
<clipPath id="clip0_906_621">
<rect width="633.951" height="843.53" fill="white" transform="translate(115 190)"/>
</clipPath>
</defs>
</svg>
