<?xml version="1.0" encoding="utf-8"?>
<!-- Generator: Adobe Illustrator 28.0.0, SVG Export Plug-In . SVG Version: 6.00 Build 0)  -->
<svg version="1.1" id="Ebene_1" xmlns="http://www.w3.org/2000/svg" xmlns:xlink="http://www.w3.org/1999/xlink" x="0px" y="0px"
	 viewBox="0 0 841.9 595.3" style="enable-background:new 0 0 841.9 595.3;" xml:space="preserve">
<style type="text/css">
	.st0{fill:#75246C;}
	.st1{fill:#FFFFFF;}
	.st2{fill:none;stroke:#FFFFFF;stroke-width:0.8772;}
</style>
<rect y="0" class="st0" width="841.9" height="595.3"/>
<g>
	<g>
		<g>
			<path class="st1" d="M78.5,132.2v-16.1h6.1c5.2,0,8.2,3.7,8.2,8.1c0,4.3-3,8-8.2,8C84.6,132.2,78.5,132.2,78.5,132.2z
				 M82.2,129.1h2c3.2,0,4.7-2.4,4.7-4.9s-1.5-4.9-4.7-4.9h-2V129.1z"/>
			<path class="st1" d="M94.1,126.7c0-3.3,2-5.8,5.3-5.8c1.6,0,2.9,0.8,3.5,1.9v-1.6h3.5v11.1h-3.5v-1.6c-0.6,1.1-2,1.9-3.5,1.9
				C96,132.5,94.1,130,94.1,126.7L94.1,126.7z M102.9,126.7c0-1.6-0.9-2.9-2.6-2.9c-1.6,0-2.6,1.2-2.6,2.9c0,1.7,1,2.9,2.6,2.9
				C102.1,129.6,102.9,128.3,102.9,126.7z"/>
			<path class="st1" d="M108.3,128.9h3.5c0,0.8,0.7,1.3,1.8,1.3c0.8,0,1.3-0.4,1.3-1c0-0.5-0.2-0.8-1.2-1l-2.3-0.6
				c-1.8-0.4-2.8-1.6-2.8-3.2c0-2.1,1.9-3.5,4.7-3.5c3.1,0,4.9,1.2,4.9,3.4h-3.5c0-0.8-0.6-1.2-1.5-1.2c-0.8,0-1.3,0.4-1.3,0.9
				s0.3,0.8,1.2,1.1l2.3,0.6c1.8,0.5,2.8,1.5,2.8,3.2c0,2.3-1.9,3.7-4.8,3.7C110.4,132.5,108.3,131,108.3,128.9L108.3,128.9z"/>
			<path class="st1" d="M125.9,118c0-1.2,0.9-2.2,2.2-2.2c1.3,0,2.2,1,2.2,2.2s-0.9,2.1-2.2,2.1C126.8,120.2,125.9,119.2,125.9,118z
				 M126.3,132.2v-11.1h3.5v11.1H126.3z"/>
			<path class="st1" d="M131.8,128.9h3.5c0,0.8,0.7,1.3,1.8,1.3c0.8,0,1.3-0.4,1.3-1c0-0.5-0.2-0.8-1.2-1l-2.3-0.6
				c-1.8-0.4-2.8-1.6-2.8-3.2c0-2.1,1.9-3.5,4.7-3.5c3.1,0,4.9,1.2,4.9,3.4h-3.5c0-0.8-0.6-1.2-1.5-1.2c-0.8,0-1.3,0.4-1.3,0.9
				s0.3,0.8,1.2,1.1l2.4,0.6c1.8,0.5,2.8,1.5,2.8,3.2c0,2.3-1.9,3.7-4.9,3.7C133.9,132.5,131.8,131,131.8,128.9L131.8,128.9z"/>
			<path class="st1" d="M151.1,129.4v2.8c-0.5,0.1-1.3,0.2-2.3,0.2c-1.7,0-3.9-0.4-3.9-4.1v-4.4h-1.8v-2.8h1.8v-3.3h3.5v3.3h2.5v2.8
				h-2.5v3.7c0,1.6,0.7,1.9,1.5,1.9C150.3,129.5,150.8,129.4,151.1,129.4L151.1,129.4z"/>
			<path class="st1" d="M159,132.2v-16.1h4.3l4.3,11.4l4.3-11.4h4.2v16.1h-3.6v-10.4l-3.6,10.4h-2.8l-3.7-10.5v10.5H159L159,132.2z"
				/>
			<path class="st1" d="M178.3,126.7c0-3.4,2.4-5.8,6.2-5.8s6.1,2.5,6.1,5.8c0,3.4-2.4,5.8-6.1,5.8S178.3,130,178.3,126.7z
				 M187.1,126.7c0-1.7-1-2.9-2.6-2.9s-2.6,1.2-2.6,2.9c0,1.7,1,2.9,2.6,2.9S187.1,128.3,187.1,126.7z"/>
			<path class="st1" d="M192.5,132.2v-11.1h3.5v1.6c0.6-1.2,1.9-1.9,3.6-1.9c2.7,0,4.1,1.5,4.1,4.5v6.9h-3.5v-5.7
				c0-1.9-0.5-2.7-1.9-2.7s-2.1,0.9-2.1,2.6v5.8H192.5L192.5,132.2z"/>
			<path class="st1" d="M217.5,125.3v6.8h-3.5v-5.7c0-1.9-0.5-2.7-1.9-2.7s-2.1,0.9-2.1,2.6v5.8h-3.5v-16.1h3.5v6.6
				c0.6-1.2,1.9-1.9,3.6-1.9C216.1,120.8,217.5,122.3,217.5,125.3L217.5,125.3z"/>
			<path class="st1" d="M231.1,127.6h-8.2c0.1,1.5,1,2.2,2.6,2.2c1.1,0,1.8-0.3,2.1-1h3.4c-0.4,2.2-2.6,3.6-5.5,3.6
				c-3.8,0-6.1-2.1-6.1-5.8s2.4-5.8,6-5.8s5.8,2.1,5.8,5.3C231.2,126.7,231.2,127,231.1,127.6z M227.7,125.4c0-1.5-0.9-2.2-2.4-2.2
				s-2.4,0.9-2.5,2.2H227.7L227.7,125.4z"/>
			<path class="st1" d="M232.8,118c0-1.2,0.9-2.2,2.2-2.2s2.2,1,2.2,2.2s-0.9,2.1-2.2,2.1S232.8,119.2,232.8,118z M233.2,132.2
				v-11.1h3.5v11.1H233.2z"/>
			<path class="st1" d="M239.4,132.2v-11.1h3.5v1.6c0.5-1.1,1.6-1.9,3.2-1.9c2,0,3,0.9,3.5,2.1c0.6-1.2,1.9-2.1,3.5-2.1
				c3.2,0,3.9,2.2,3.9,4.5v6.9h-3.5V126c0-1.5-0.6-2.2-1.7-2.2s-1.9,0.6-1.9,2.7v5.7h-3.5V126c0-1.5-0.6-2.2-1.6-2.2
				s-1.9,0.6-1.9,2.7v5.7L239.4,132.2L239.4,132.2z"/>
			<path class="st1" d="M265.7,132.2v-16.1h4.3l4.3,11.4l4.3-11.4h4.2v16.1h-3.6v-10.4l-3.6,10.4h-2.8l-3.7-10.5v10.5H265.7
				L265.7,132.2z"/>
			<path class="st1" d="M285.3,118c0-1.2,0.9-2.2,2.2-2.2s2.2,1,2.2,2.2s-0.9,2.1-2.2,2.1C286.2,120.2,285.3,119.2,285.3,118z
				 M285.7,132.2v-11.1h3.5v11.1H285.7z"/>
			<path class="st1" d="M298.8,129.4v2.8c-0.5,0.1-1.3,0.2-2.4,0.2c-1.7,0-3.9-0.4-3.9-4.1v-4.4h-1.8v-2.8h1.8v-3.3h3.5v3.3h2.5v2.8
				h-2.5v3.7c0,1.6,0.7,1.9,1.5,1.9C298,129.5,298.5,129.4,298.8,129.4L298.8,129.4z"/>
			<path class="st1" d="M307.9,129.4v2.8c-0.5,0.1-1.3,0.2-2.4,0.2c-1.7,0-3.9-0.4-3.9-4.1v-4.4h-1.8v-2.8h1.8v-3.3h3.5v3.3h2.5v2.8
				h-2.5v3.7c0,1.6,0.7,1.9,1.5,1.9C307.1,129.5,307.6,129.4,307.9,129.4L307.9,129.4z"/>
			<path class="st1" d="M320.6,127.6h-8.2c0.1,1.5,1,2.2,2.6,2.2c1.1,0,1.8-0.3,2.1-1h3.5c-0.4,2.2-2.6,3.6-5.5,3.6
				c-3.8,0-6.1-2.1-6.1-5.8s2.4-5.8,6-5.8s5.8,2.1,5.8,5.3C320.7,126.7,320.7,127,320.6,127.6L320.6,127.6z M317.2,125.4
				c0-1.5-0.9-2.2-2.4-2.2s-2.4,0.9-2.5,2.2H317.2z"/>
		</g>
		<g>
			<path class="st1" d="M78.5,185.1V169h9.8v3.1h-6.1v4.4h6.1v3.1h-6.1v5.6H78.5L78.5,185.1z"/>
			<path class="st1" d="M90.4,180.9V174H94v6.1c0,1.5,0.5,2.4,1.8,2.4c1.5,0,2.1-1,2.1-2.5v-6h3.5v11.1H98v-1.6
				c-0.6,1.2-1.8,1.9-3.5,1.9C91.8,185.4,90.4,183.7,90.4,180.9z M91.5,170.8c0-1.1,0.9-1.9,2-1.9s2,0.9,2,1.9s-0.9,1.9-2,1.9
				S91.5,171.9,91.5,170.8z M96.6,170.8c0-1.1,0.9-1.9,2-1.9s2,0.9,2,1.9s-0.9,1.9-2,1.9S96.6,171.9,96.6,170.8z"/>
			<path class="st1" d="M104.2,185.1V174h3.5v1.6c0.6-1.2,1.9-1.9,3.6-1.9c2.7,0,4.1,1.5,4.1,4.5v6.9h-3.5v-5.7
				c0-1.9-0.5-2.7-1.9-2.7s-2.1,0.9-2.1,2.6v5.8L104.2,185.1L104.2,185.1z"/>
			<path class="st1" d="M122.3,172.9v1.1h2.6v2.8h-2.6v8.3h-3.5v-8.3h-2V174h2v-1.1c0-3.4,2.4-4.1,4.1-4.1c0.9,0,1.6,0.1,2,0.2v2.5
				c-0.4,0-0.6-0.1-1-0.1C123.1,171.5,122.3,171.6,122.3,172.9L122.3,172.9z"/>
			<path class="st1" d="M132.6,185.1V169h9.8v3h-6.1v3.7h6.1v2.9h-6.1v3.5h6.1v3C142.4,185.1,132.6,185.1,132.6,185.1z"/>
			<path class="st1" d="M145.2,185.1V169h3.5v16.1H145.2z"/>
			<path class="st1" d="M162.4,180.5h-8.2c0.1,1.4,1,2.2,2.6,2.2c1.1,0,1.8-0.3,2.1-1h3.4c-0.4,2.2-2.6,3.6-5.5,3.6
				c-3.8,0-6.1-2.1-6.1-5.8s2.4-5.8,6-5.8s5.8,2.1,5.8,5.3C162.5,179.5,162.5,179.9,162.4,180.5z M159,178.3c0-1.5-0.8-2.2-2.3-2.2
				s-2.4,0.9-2.5,2.2H159z"/>
			<path class="st1" d="M164.5,185.1V174h3.5v1.6c0.5-1.1,1.6-1.9,3.2-1.9c2,0,3,0.9,3.5,2.1c0.6-1.2,1.9-2.1,3.5-2.1
				c3.2,0,3.9,2.2,3.9,4.5v6.9h-3.5v-6.2c0-1.5-0.6-2.2-1.7-2.2s-1.9,0.6-1.9,2.7v5.7h-3.5v-6.2c0-1.5-0.6-2.2-1.6-2.2
				c-1.1,0-1.9,0.6-1.9,2.7v5.7L164.5,185.1L164.5,185.1z"/>
			<path class="st1" d="M195.8,180.5h-8.2c0.1,1.4,1,2.2,2.6,2.2c1.1,0,1.8-0.3,2.1-1h3.4c-0.4,2.2-2.6,3.6-5.5,3.6
				c-3.8,0-6.1-2.1-6.1-5.8s2.4-5.8,6-5.8s5.8,2.1,5.8,5.3C195.9,179.5,195.8,179.9,195.8,180.5z M192.4,178.3
				c0-1.5-0.9-2.2-2.4-2.2s-2.4,0.9-2.5,2.2H192.4L192.4,178.3z"/>
			<path class="st1" d="M197.9,185.1V174h3.5v1.6c0.6-1.2,1.9-1.9,3.6-1.9c2.7,0,4.1,1.5,4.1,4.5v6.9h-3.5v-5.7
				c0-1.9-0.5-2.7-1.9-2.7s-2.1,0.9-2.1,2.6v5.8L197.9,185.1L197.9,185.1z"/>
			<path class="st1" d="M218.6,182.3v2.8c-0.5,0.1-1.3,0.2-2.4,0.2c-1.7,0-3.9-0.4-3.9-4.1v-4.4h-1.8V174h1.8v-3.3h3.5v3.3h2.5v2.8
				h-2.5v3.7c0,1.6,0.7,1.9,1.5,1.9C217.7,182.3,218.2,182.3,218.6,182.3L218.6,182.3z"/>
			<path class="st1" d="M231.3,180.5h-8.2c0.1,1.4,1,2.2,2.6,2.2c1.1,0,1.8-0.3,2.1-1h3.4c-0.4,2.2-2.6,3.6-5.5,3.6
				c-3.8,0-6.1-2.1-6.1-5.8s2.4-5.8,6-5.8s5.8,2.1,5.8,5.3C231.4,179.5,231.3,179.9,231.3,180.5z M227.9,178.3
				c0-1.5-0.9-2.2-2.4-2.2s-2.4,0.9-2.5,2.2H227.9L227.9,178.3z"/>
			<path class="st1" d="M251.4,179.5c0,3.5-2.1,5.8-5.2,5.8c-1.6,0-3-0.8-3.5-1.9v1.6h-3.5V169h3.5v6.6c0.6-1.1,2-1.9,3.6-1.9
				C249.4,173.7,251.4,176,251.4,179.5L251.4,179.5z M247.9,179.5c0-1.7-1.1-2.9-2.6-2.9s-2.7,1.2-2.7,2.9s1.1,2.9,2.7,2.9
				S247.9,181.2,247.9,179.5z"/>
			<path class="st1" d="M264.5,180.5h-8.2c0.1,1.4,1,2.2,2.6,2.2c1.1,0,1.8-0.3,2.1-1h3.5c-0.4,2.2-2.6,3.6-5.5,3.6
				c-3.8,0-6.1-2.1-6.1-5.8s2.4-5.8,6-5.8c3.6,0,5.8,2.1,5.8,5.3C264.6,179.5,264.5,179.9,264.5,180.5z M261.1,178.3
				c0-1.5-0.9-2.2-2.4-2.2s-2.4,0.9-2.5,2.2H261.1L261.1,178.3z"/>
			<path class="st1" d="M265.8,181.7h3.5c0,0.8,0.7,1.3,1.8,1.3c0.8,0,1.3-0.4,1.3-1c0-0.5-0.2-0.8-1.2-1l-2.3-0.6
				c-1.8-0.4-2.8-1.6-2.8-3.2c0-2.1,1.9-3.5,4.7-3.5c3.1,0,4.9,1.2,4.9,3.4h-3.5c0-0.8-0.6-1.2-1.5-1.2c-0.8,0-1.3,0.4-1.3,0.9
				s0.3,0.8,1.2,1.1l2.4,0.6c1.8,0.5,2.8,1.5,2.8,3.2c0,2.3-1.9,3.7-4.9,3.7C267.9,185.4,265.8,183.9,265.8,181.7L265.8,181.7z"/>
			<path class="st1" d="M285.1,182.3v2.8c-0.5,0.1-1.3,0.2-2.4,0.2c-1.7,0-3.9-0.4-3.9-4.1v-4.4H277V174h1.8v-3.3h3.5v3.3h2.5v2.8
				h-2.5v3.7c0,1.6,0.7,1.9,1.5,1.9C284.2,182.3,284.8,182.3,285.1,182.3L285.1,182.3z"/>
			<path class="st1" d="M286.6,170.9c0-1.2,0.9-2.2,2.2-2.2s2.2,1,2.2,2.2s-0.9,2.1-2.2,2.1C287.5,173,286.6,172.1,286.6,170.9z
				 M287,185.1V174h3.5v11.1H287z"/>
			<path class="st1" d="M293.2,185.1V174h3.5v1.6c0.5-1.1,1.6-1.9,3.2-1.9c2,0,3,0.9,3.5,2.1c0.6-1.2,1.9-2.1,3.5-2.1
				c3.2,0,3.9,2.2,3.9,4.5v6.9h-3.5v-6.2c0-1.5-0.6-2.2-1.7-2.2s-1.9,0.6-1.9,2.7v5.7h-3.5v-6.2c0-1.5-0.6-2.2-1.6-2.2
				c-1.1,0-1.9,0.6-1.9,2.7v5.7L293.2,185.1L293.2,185.1z"/>
			<path class="st1" d="M313.4,185.1V174h3.5v1.6c0.5-1.1,1.6-1.9,3.2-1.9c2,0,3,0.9,3.5,2.1c0.6-1.2,1.9-2.1,3.5-2.1
				c3.2,0,3.9,2.2,3.9,4.5v6.9h-3.5v-6.2c0-1.5-0.6-2.2-1.7-2.2s-1.9,0.6-1.9,2.7v5.7h-3.5v-6.2c0-1.5-0.5-2.2-1.6-2.2
				s-1.9,0.6-1.9,2.7v5.7L313.4,185.1L313.4,185.1z"/>
			<path class="st1" d="M344.7,180.5h-8.2c0.1,1.4,1,2.2,2.6,2.2c1.1,0,1.8-0.3,2.1-1h3.5c-0.4,2.2-2.6,3.6-5.5,3.6
				c-3.8,0-6.1-2.1-6.1-5.8s2.4-5.8,6-5.8s5.8,2.1,5.8,5.3C344.8,179.5,344.7,179.9,344.7,180.5L344.7,180.5z M341.3,178.3
				c0-1.5-0.9-2.2-2.4-2.2s-2.4,0.9-2.5,2.2H341.3z"/>
			<path class="st1" d="M346.8,185.1V174h3.5v1.6c0.6-1.2,1.9-1.9,3.6-1.9c2.7,0,4,1.5,4,4.5v6.9h-3.5v-5.7c0-1.9-0.5-2.7-2-2.7
				s-2.1,0.9-2.1,2.6v5.8L346.8,185.1L346.8,185.1z"/>
			<path class="st1" d="M374.5,169h3.5v16.1h-3.5v-1.6c-0.6,1.1-2,1.9-3.5,1.9c-3.3,0-5.2-2.5-5.2-5.8s2-5.8,5.3-5.8
				c1.6,0,2.9,0.8,3.5,1.9V169L374.5,169z M374.6,179.5c0-1.6-0.9-2.9-2.6-2.9c-1.6,0-2.6,1.2-2.6,2.9s1,2.9,2.6,2.9
				C373.7,182.4,374.6,181.1,374.6,179.5z"/>
			<path class="st1" d="M391.7,180.5h-8.2c0.1,1.4,1,2.2,2.6,2.2c1.1,0,1.8-0.3,2.1-1h3.5c-0.4,2.2-2.6,3.6-5.5,3.6
				c-3.8,0-6.1-2.1-6.1-5.8s2.4-5.8,6-5.8s5.8,2.1,5.8,5.3C391.8,179.5,391.7,179.9,391.7,180.5L391.7,180.5z M388.3,178.3
				c0-1.5-0.9-2.2-2.4-2.2s-2.4,0.9-2.5,2.2H388.3z"/>
			<path class="st1" d="M393.8,185.1V174h3.5v1.6c0.6-1.2,1.9-1.9,3.6-1.9c2.7,0,4,1.5,4,4.5v6.9h-3.5v-5.7c0-1.9-0.5-2.7-2-2.7
				s-2.1,0.9-2.1,2.6v5.8L393.8,185.1L393.8,185.1z"/>
			<path class="st1" d="M412.7,177c0-4.9,3.4-8.5,8.6-8.5c4.7,0,7.8,2.5,8.2,6.3h-4c-0.4-1.8-1.9-3-4.2-3c-3,0-4.8,2-4.8,5.2
				s1.8,5.2,4.8,5.2c2.3,0,3.8-1.1,4.2-3h4c-0.4,3.8-3.5,6.3-8.2,6.3C416.1,185.5,412.7,182,412.7,177L412.7,177z"/>
			<path class="st1" d="M442.8,178.2v6.9h-3.5v-5.7c0-1.9-0.5-2.7-2-2.7s-2.1,0.9-2.1,2.6v5.8h-3.5V169h3.5v6.6
				c0.6-1.2,1.9-1.9,3.6-1.9C441.4,173.7,442.8,175.2,442.8,178.2L442.8,178.2z"/>
			<path class="st1" d="M444.7,179.5c0-3.3,2-5.8,5.3-5.8c1.6,0,2.9,0.8,3.5,1.9V174h3.5v11.1h-3.5v-1.6c-0.6,1.1-2,1.9-3.5,1.9
				C446.6,185.4,444.7,182.9,444.7,179.5L444.7,179.5z M453.6,179.5c0-1.6-0.9-2.9-2.6-2.9c-1.6,0-2.6,1.2-2.6,2.9s1,2.9,2.6,2.9
				C452.7,182.4,453.6,181.1,453.6,179.5z"/>
			<path class="st1" d="M459.7,185.1V174h3.5v2.3c0.4-1.7,1.7-2.5,3.1-2.5c0.4,0,0.6,0,0.9,0.1v3.3c-0.4-0.1-0.6-0.1-1.1-0.1
				c-1.9,0-2.9,1.2-2.9,3.7v4.3H459.7z"/>
			<path class="st1" d="M468.2,179.5c0-3.3,2-5.8,5.3-5.8c1.6,0,2.9,0.8,3.5,1.9V174h3.5v11.1h-3.5v-1.6c-0.6,1.1-2,1.9-3.5,1.9
				C470.1,185.4,468.2,182.9,468.2,179.5L468.2,179.5z M477.1,179.5c0-1.6-0.9-2.9-2.6-2.9c-1.6,0-2.6,1.2-2.6,2.9s1,2.9,2.6,2.9
				C476.2,182.4,477.1,181.1,477.1,179.5z"/>
			<path class="st1" d="M494.5,185.1h-4.3l-3.5-4.8v4.8h-3.5V169h3.5v9.7l3.6-4.7h4.1l-4.4,5.2L494.5,185.1L494.5,185.1z"/>
			<path class="st1" d="M503.5,182.3v2.8c-0.5,0.1-1.3,0.2-2.4,0.2c-1.7,0-3.9-0.4-3.9-4.1v-4.4h-1.8V174h1.8v-3.3h3.5v3.3h2.5v2.8
				h-2.5v3.7c0,1.6,0.7,1.9,1.5,1.9C502.7,182.3,503.2,182.3,503.5,182.3L503.5,182.3z"/>
			<path class="st1" d="M516.2,180.5h-8.2c0.1,1.4,1,2.2,2.6,2.2c1.1,0,1.8-0.3,2.1-1h3.5c-0.3,2.2-2.6,3.6-5.5,3.6
				c-3.8,0-6.1-2.1-6.1-5.8s2.4-5.8,6-5.8s5.8,2.1,5.8,5.3C516.3,179.5,516.3,179.9,516.2,180.5L516.2,180.5z M512.9,178.3
				c0-1.5-0.8-2.2-2.3-2.2s-2.4,0.9-2.5,2.2H512.9z"/>
			<path class="st1" d="M518.4,185.1V174h3.5v2.3c0.4-1.7,1.7-2.5,3.1-2.5c0.4,0,0.6,0,0.9,0.1v3.3c-0.4-0.1-0.6-0.1-1.1-0.1
				c-1.9,0-2.9,1.2-2.9,3.7v4.3H518.4z"/>
			<path class="st1" d="M533.4,180.9V174h3.6v6.1c0,1.5,0.5,2.4,1.8,2.4c1.5,0,2.1-1,2.1-2.5v-6h3.5v11.1H541v-1.6
				c-0.6,1.2-1.8,1.9-3.5,1.9C534.9,185.4,533.4,183.7,533.4,180.9z"/>
			<path class="st1" d="M547.2,185.1V174h3.5v1.6c0.6-1.2,1.9-1.9,3.6-1.9c2.7,0,4,1.5,4,4.5v6.9h-3.5v-5.7c0-1.9-0.5-2.7-2-2.7
				c-1.4,0-2.1,0.9-2.1,2.6v5.8L547.2,185.1L547.2,185.1z"/>
			<path class="st1" d="M569,169h3.5v16.1H569v-1.6c-0.6,1.1-2,1.9-3.5,1.9c-3.3,0-5.2-2.5-5.2-5.8s2.1-5.8,5.3-5.8
				c1.6,0,2.9,0.8,3.5,1.9L569,169L569,169z M569.2,179.5c0-1.6-0.9-2.9-2.6-2.9c-1.6,0-2.6,1.2-2.6,2.9s1,2.9,2.6,2.9
				C568.3,182.4,569.2,181.1,569.2,179.5z"/>
			<path class="st1" d="M589.2,169h3.5v16.1h-3.5v-1.6c-0.6,1.1-2,1.9-3.5,1.9c-3.3,0-5.2-2.5-5.2-5.8s2-5.8,5.3-5.8
				c1.6,0,2.9,0.8,3.5,1.9V169L589.2,169z M589.4,179.5c0-1.6-0.9-2.9-2.6-2.9c-1.6,0-2.6,1.2-2.6,2.9s1,2.9,2.6,2.9
				C588.5,182.4,589.4,181.1,589.4,179.5z"/>
			<path class="st1" d="M595,170.9c0-1.2,0.9-2.2,2.2-2.2s2.2,1,2.2,2.2s-0.9,2.1-2.2,2.1S595,172.1,595,170.9z M595.4,185.1V174
				h3.5v11.1H595.4z"/>
			<path class="st1" d="M612.5,180.5h-8.2c0.1,1.4,1,2.2,2.6,2.2c1.1,0,1.8-0.3,2.1-1h3.5c-0.3,2.2-2.6,3.6-5.5,3.6
				c-3.8,0-6.1-2.1-6.1-5.8s2.4-5.8,6-5.8s5.8,2.1,5.8,5.3C612.6,179.5,612.6,179.9,612.5,180.5L612.5,180.5z M609.2,178.3
				c0-1.5-0.8-2.2-2.3-2.2s-2.4,0.9-2.5,2.2H609.2z"/>
			<path class="st1" d="M620.6,185.1V169h3.7v6.5h5.6V169h3.7v16.1h-3.7v-6.4h-5.6v6.4H620.6z"/>
			<path class="st1" d="M635.8,179.5c0-3.3,2-5.8,5.3-5.8c1.6,0,2.9,0.8,3.5,1.9V174h3.5v11.1h-3.5v-1.6c-0.6,1.1-2,1.9-3.5,1.9
				C637.7,185.4,635.8,182.9,635.8,179.5L635.8,179.5z M644.7,179.5c0-1.6-0.9-2.9-2.6-2.9c-1.6,0-2.6,1.2-2.6,2.9s1,2.9,2.6,2.9
				C643.8,182.4,644.7,181.1,644.7,179.5z"/>
			<path class="st1" d="M650.7,185.1V169h3.5v16.1H650.7z"/>
			<path class="st1" d="M664,182.3v2.8c-0.5,0.1-1.3,0.2-2.3,0.2c-1.7,0-3.9-0.4-3.9-4.1v-4.4H656V174h1.8v-3.3h3.5v3.3h2.5v2.8
				h-2.5v3.7c0,1.6,0.7,1.9,1.5,1.9C663.2,182.3,663.7,182.3,664,182.3L664,182.3z"/>
			<path class="st1" d="M665.8,180.9V174h3.6v6.1c0,1.5,0.5,2.4,1.8,2.4c1.5,0,2.1-1,2.1-2.5v-6h3.5v11.1h-3.5v-1.6
				c-0.6,1.2-1.8,1.9-3.5,1.9C667.2,185.4,665.8,183.7,665.8,180.9z"/>
			<path class="st1" d="M679.5,185.1V174h3.5v1.6c0.6-1.2,1.9-1.9,3.6-1.9c2.7,0,4,1.5,4,4.5v6.9h-3.5v-5.7c0-1.9-0.5-2.7-2-2.7
				s-2.1,0.9-2.1,2.6v5.8L679.5,185.1L679.5,185.1z"/>
			<path class="st1" d="M701.3,174h3.5v10.4c0,2.1-0.8,3.7-2.1,4.7c-1,0.7-2.4,1-4,1s-2.9-0.2-4-0.9c-1.1-0.7-1.9-1.9-2-3.1h3.6
				c0.2,0.9,0.9,1.4,2.3,1.4c1.6,0,2.6-0.7,2.6-2.7v-1.5c-0.5,1.1-2,1.8-3.5,1.8c-3.3,0-5.3-2.4-5.3-5.7s2.1-5.7,5.3-5.7
				c1.5,0,2.9,0.7,3.4,1.9V174L701.3,174z M701.5,179.5c0-1.6-1-2.9-2.7-2.9c-1.6,0-2.6,1.2-2.6,2.9s1,2.9,2.6,2.9
				C700.5,182.4,701.5,181.1,701.5,179.5z"/>
			<path class="st1" d="M716.8,185.1L712,174h3.9l2.5,7l2.5-7h3.9l-4.8,11.1H716.8L716.8,185.1z"/>
			<path class="st1" d="M724.9,179.5c0-3.4,2.3-5.8,6.2-5.8s6.1,2.5,6.1,5.8s-2.3,5.8-6.1,5.8S724.9,182.9,724.9,179.5z
				 M733.7,179.5c0-1.7-1-2.9-2.6-2.9s-2.6,1.2-2.6,2.9s1,2.9,2.6,2.9S733.7,181.2,733.7,179.5z"/>
			<path class="st1" d="M739.2,185.1V174h3.5v1.6c0.6-1.2,1.9-1.9,3.6-1.9c2.7,0,4,1.5,4,4.5v6.9h-3.5v-5.7c0-1.9-0.5-2.7-2-2.7
				s-2.1,0.9-2.1,2.6v5.8L739.2,185.1L739.2,185.1z"/>
		</g>
		<g>
			<path class="st1" d="M78.5,211.5v-16.1h4.3l4.3,11.4l4.3-11.4h4.2v16.1h-3.6v-10.4l-3.6,10.4h-2.8L82.1,201v10.5H78.5L78.5,211.5
				z"/>
			<path class="st1" d="M97.8,206c0-3.4,2.4-5.8,6.2-5.8s6.1,2.5,6.1,5.8s-2.3,5.8-6.1,5.8S97.8,209.4,97.8,206z M106.6,206
				c0-1.7-1-2.9-2.6-2.9s-2.6,1.2-2.6,2.9s1,2.9,2.6,2.9S106.6,207.6,106.6,206z"/>
			<path class="st1" d="M112,211.5v-11.1h3.5v1.6c0.6-1.2,1.9-1.9,3.6-1.9c2.7,0,4.1,1.5,4.1,4.5v6.9h-3.5v-5.7
				c0-1.9-0.5-2.7-1.9-2.7s-2.1,0.9-2.1,2.6v5.8L112,211.5L112,211.5z"/>
			<path class="st1" d="M137,204.7v6.9h-3.5v-5.7c0-1.9-0.5-2.7-1.9-2.7s-2.1,0.9-2.1,2.6v5.8h-3.5v-16.1h3.5v6.6
				c0.6-1.2,1.9-1.9,3.6-1.9C135.6,200.1,137,201.6,137,204.7L137,204.7z"/>
			<path class="st1" d="M150.6,206.9h-8.2c0.1,1.4,1,2.2,2.6,2.2c1.1,0,1.8-0.3,2.1-1h3.4c-0.3,2.2-2.6,3.6-5.5,3.6
				c-3.8,0-6.1-2.1-6.1-5.8s2.4-5.8,6-5.8s5.8,2.1,5.8,5.3C150.7,206,150.6,206.3,150.6,206.9z M147.2,204.8c0-1.5-0.9-2.2-2.4-2.2
				s-2.4,0.9-2.5,2.2H147.2z"/>
			<path class="st1" d="M152.3,197.3c0-1.2,0.9-2.2,2.2-2.2c1.3,0,2.2,1,2.2,2.2s-0.9,2.1-2.2,2.1
				C153.2,199.5,152.3,198.5,152.3,197.3z M152.7,211.5v-11.1h3.5v11.1H152.7z"/>
			<path class="st1" d="M158.9,211.5v-11.1h3.5v1.6c0.5-1.1,1.6-1.9,3.2-1.9c2,0,3,0.9,3.5,2.1c0.6-1.2,1.9-2.1,3.5-2.1
				c3.2,0,3.9,2.2,3.9,4.5v6.9h-3.5v-6.2c0-1.5-0.6-2.2-1.7-2.2c-1.1,0-1.9,0.6-1.9,2.7v5.7h-3.5v-6.2c0-1.5-0.6-2.2-1.6-2.2
				c-1.1,0-1.9,0.6-1.9,2.7v5.7L158.9,211.5L158.9,211.5z"/>
			<path class="st1" d="M185.2,211.5v-16.1h4.3l4.3,11.4l4.3-11.4h4.2v16.1h-3.6v-10.4l-3.6,10.4h-2.8l-3.7-10.5v10.5H185.2
				L185.2,211.5z"/>
			<path class="st1" d="M204.8,197.3c0-1.2,0.9-2.2,2.2-2.2s2.2,1,2.2,2.2s-0.9,2.1-2.2,2.1S204.8,198.5,204.8,197.3z M205.2,211.5
				v-11.1h3.5v11.1H205.2z"/>
			<path class="st1" d="M218.4,208.7v2.8c-0.5,0.1-1.3,0.2-2.4,0.2c-1.7,0-3.9-0.4-3.9-4.1v-4.4h-1.8v-2.8h1.8v-3.3h3.5v3.3h2.5v2.8
				h-2.5v3.7c0,1.6,0.7,1.9,1.5,1.9C217.5,208.8,218,208.8,218.4,208.7L218.4,208.7z"/>
			<path class="st1" d="M227.4,208.7v2.8c-0.5,0.1-1.3,0.2-2.4,0.2c-1.7,0-3.9-0.4-3.9-4.1v-4.4h-1.8v-2.8h1.8v-3.3h3.5v3.3h2.5v2.8
				h-2.5v3.7c0,1.6,0.7,1.9,1.5,1.9C226.6,208.8,227.1,208.8,227.4,208.7L227.4,208.7z"/>
			<path class="st1" d="M240.1,206.9h-8.2c0.1,1.4,1,2.2,2.6,2.2c1.1,0,1.8-0.3,2.1-1h3.4c-0.4,2.2-2.6,3.6-5.5,3.6
				c-3.8,0-6.1-2.1-6.1-5.8s2.4-5.8,6-5.8s5.8,2.1,5.8,5.3C240.2,206,240.2,206.3,240.1,206.9z M236.7,204.8c0-1.5-0.9-2.2-2.4-2.2
				s-2.4,0.9-2.5,2.2H236.7L236.7,204.8z"/>
			<path class="st1" d="M241.8,209.5c0-1.2,1-2.2,2.3-2.2s2.3,1,2.3,2.2s-1,2.2-2.3,2.2S241.8,210.7,241.8,209.5z"/>
			<path class="st1" d="M254,206.3h3.7c0,1.8,1,2.8,2.6,2.8c1.4,0,2.2-0.6,2.2-1.8c0-1-0.5-1.5-1.9-2.1l-2.9-1.1
				c-2.2-0.8-3.3-2.3-3.3-4.4c0-2.8,2.2-4.7,5.7-4.7s5.9,2,5.9,5.1h-3.7c0-1.5-0.8-2.3-2.2-2.3c-1.2,0-1.9,0.6-1.9,1.6
				c0,0.9,0.6,1.4,2.2,2.1l2.7,1.1c2.2,0.9,3.2,2.4,3.2,4.5c0,3-2.4,5-5.9,5C256.4,212,254.1,209.9,254,206.3L254,206.3z"/>
			<path class="st1" d="M267.9,197.3c0-1.2,0.9-2.2,2.2-2.2s2.2,1,2.2,2.2s-0.9,2.1-2.2,2.1C268.8,199.5,267.9,198.5,267.9,197.3z
				 M268.3,211.5v-11.1h3.5v11.1H268.3z"/>
			<path class="st1" d="M285.4,206.9h-8.2c0.1,1.4,1,2.2,2.6,2.2c1.1,0,1.8-0.3,2.1-1h3.5c-0.4,2.2-2.6,3.6-5.5,3.6
				c-3.8,0-6.1-2.1-6.1-5.8s2.4-5.8,6-5.8c3.6,0,5.8,2.1,5.8,5.3C285.5,206,285.5,206.3,285.4,206.9z M282.1,204.8
				c0-1.5-0.9-2.2-2.4-2.2s-2.4,0.9-2.5,2.2H282.1L282.1,204.8z"/>
			<path class="st1" d="M305.6,206c0,3.5-2.1,5.8-5.2,5.8c-1.6,0-3-0.8-3.5-1.9v1.6h-3.5v-16.1h3.5v6.6c0.6-1.1,2-1.9,3.6-1.9
				C303.5,200.1,305.6,202.5,305.6,206L305.6,206z M302,206c0-1.7-1.1-2.9-2.6-2.9c-1.5,0-2.7,1.2-2.7,2.9s1.1,2.9,2.7,2.9
				C301,208.9,302,207.7,302,206z"/>
			<path class="st1" d="M307.2,197.3c0-1.2,0.9-2.2,2.2-2.2s2.2,1,2.2,2.2s-0.9,2.1-2.2,2.1S307.2,198.5,307.2,197.3z M307.6,211.5
				v-11.1h3.5v11.1H307.6z"/>
			<path class="st1" d="M313.8,211.5v-16.1h3.5v16.1H313.8z"/>
			<path class="st1" d="M328.1,195.4h3.5v16.1h-3.5V210c-0.6,1.1-2,1.9-3.5,1.9c-3.3,0-5.2-2.5-5.2-5.8s2-5.8,5.3-5.8
				c1.6,0,2.9,0.8,3.5,1.9V195.4L328.1,195.4z M328.3,206c0-1.6-0.9-2.9-2.6-2.9c-1.6,0-2.6,1.2-2.6,2.9s1,2.9,2.6,2.9
				C327.4,208.9,328.3,207.6,328.3,206z"/>
			<path class="st1" d="M345.3,206.9h-8.2c0.1,1.4,1,2.2,2.6,2.2c1.1,0,1.8-0.3,2.1-1h3.5c-0.4,2.2-2.6,3.6-5.5,3.6
				c-3.8,0-6.1-2.1-6.1-5.8s2.4-5.8,6-5.8s5.8,2.1,5.8,5.3C345.4,206,345.4,206.3,345.3,206.9L345.3,206.9z M341.9,204.8
				c0-1.5-0.9-2.2-2.4-2.2s-2.4,0.9-2.5,2.2H341.9z"/>
			<path class="st1" d="M347.4,211.5v-11.1h3.5v1.6c0.6-1.2,1.9-1.9,3.6-1.9c2.7,0,4,1.5,4,4.5v6.9H355v-5.7c0-1.9-0.5-2.7-2-2.7
				s-2.1,0.9-2.1,2.6v5.8L347.4,211.5L347.4,211.5z"/>
			<path class="st1" d="M375.1,195.4h3.5v16.1h-3.5V210c-0.6,1.1-2,1.9-3.5,1.9c-3.3,0-5.2-2.5-5.2-5.8s2-5.8,5.3-5.8
				c1.6,0,2.9,0.8,3.5,1.9V195.4L375.1,195.4z M375.3,206c0-1.6-0.9-2.9-2.6-2.9c-1.6,0-2.6,1.2-2.6,2.9s1,2.9,2.6,2.9
				C374.4,208.9,375.3,207.6,375.3,206z"/>
			<path class="st1" d="M380.9,197.3c0-1.2,0.9-2.2,2.2-2.2s2.2,1,2.2,2.2s-0.9,2.1-2.2,2.1S380.9,198.5,380.9,197.3z M381.3,211.5
				v-11.1h3.5v11.1H381.3z"/>
			<path class="st1" d="M398.5,206.9h-8.2c0.1,1.4,1,2.2,2.6,2.2c1.1,0,1.8-0.3,2.1-1h3.5c-0.4,2.2-2.6,3.6-5.5,3.6
				c-3.8,0-6.1-2.1-6.1-5.8s2.4-5.8,6-5.8s5.8,2.1,5.8,5.3C398.6,206,398.5,206.3,398.5,206.9L398.5,206.9z M395.1,204.8
				c0-1.5-0.9-2.2-2.4-2.2s-2.4,0.9-2.5,2.2H395.1z"/>
			<path class="st1" d="M410.6,211.5l-5.7-16.1h3.9l3.4,10.7l3.2-10.7h2.9l3.2,10.7l3.4-10.7h3.9l-5.7,16.1h-3l-3.2-10.1l-3.2,10.1
				H410.6L410.6,211.5z"/>
			<path class="st1" d="M439.9,206.9h-8.2c0.1,1.4,1,2.2,2.6,2.2c1.1,0,1.8-0.3,2.1-1h3.5c-0.4,2.2-2.6,3.6-5.5,3.6
				c-3.8,0-6.1-2.1-6.1-5.8s2.4-5.8,6-5.8s5.8,2.1,5.8,5.3C440,206,440,206.3,439.9,206.9L439.9,206.9z M436.5,204.8
				c0-1.5-0.9-2.2-2.4-2.2s-2.4,0.9-2.5,2.2H436.5z"/>
			<path class="st1" d="M442,211.5v-11.1h3.5v2.3c0.4-1.7,1.7-2.5,3.1-2.5c0.4,0,0.6,0,0.9,0.1v3.3c-0.4-0.1-0.6-0.1-1.1-0.1
				c-1.9,0-2.9,1.2-2.9,3.7v4.3H442z"/>
			<path class="st1" d="M458.6,208.7v2.8c-0.5,0.1-1.3,0.2-2.4,0.2c-1.7,0-3.9-0.4-3.9-4.1v-4.4h-1.8v-2.8h1.8v-3.3h3.5v3.3h2.5v2.8
				h-2.5v3.7c0,1.6,0.7,1.9,1.5,1.9C457.8,208.8,458.3,208.8,458.6,208.7L458.6,208.7z"/>
			<path class="st1" d="M471.3,206.9h-8.2c0.1,1.4,1,2.2,2.6,2.2c1.1,0,1.8-0.3,2.1-1h3.5c-0.3,2.2-2.6,3.6-5.5,3.6
				c-3.8,0-6.1-2.1-6.1-5.8s2.4-5.8,6-5.8s5.8,2.1,5.8,5.3C471.4,206,471.4,206.3,471.3,206.9L471.3,206.9z M467.9,204.8
				c0-1.5-0.9-2.2-2.4-2.2s-2.4,0.9-2.5,2.2H467.9z"/>
			<path class="st1" d="M473.3,206.6v-2.8h7.3v2.8H473.3z"/>
			<path class="st1" d="M500.9,203.1v2.8h-1.5c-0.8,3.8-3.7,6.1-8.1,6.1c-5.1,0-8.5-3.6-8.5-8.4c0-4.7,3.1-8.6,8.7-8.6
				c4.3,0,7.3,2.3,7.6,5.4H495c-0.3-1.3-1.6-2.3-3.5-2.3c-3.3,0-4.9,2.4-4.9,5.4c0,3,1.8,5.3,4.7,5.3c2.2,0,3.7-0.9,4.2-2.9h-2.9
				v-2.8L500.9,203.1L500.9,203.1z"/>
			<path class="st1" d="M502.7,211.5v-11.1h3.5v2.3c0.4-1.7,1.7-2.5,3.1-2.5c0.4,0,0.6,0,0.9,0.1v3.3c-0.4-0.1-0.6-0.1-1.1-0.1
				c-1.9,0-2.9,1.2-2.9,3.7v4.3H502.7z"/>
			<path class="st1" d="M511.7,207.3v-6.9h3.6v6.1c0,1.5,0.5,2.4,1.8,2.4c1.5,0,2.1-1,2.1-2.5v-6h3.5v11.1h-3.5v-1.6
				c-0.6,1.2-1.8,1.9-3.5,1.9C513.1,211.8,511.7,210.2,511.7,207.3z"/>
			<path class="st1" d="M525.4,211.5v-11.1h3.5v1.6c0.6-1.2,1.9-1.9,3.6-1.9c2.7,0,4,1.5,4,4.5v6.9h-3.5v-5.7c0-1.9-0.5-2.7-2-2.7
				c-1.4,0-2.1,0.9-2.1,2.6v5.8L525.4,211.5L525.4,211.5z"/>
			<path class="st1" d="M547.3,195.4h3.5v16.1h-3.5V210c-0.6,1.1-2,1.9-3.5,1.9c-3.3,0-5.2-2.5-5.2-5.8s2-5.8,5.3-5.8
				c1.6,0,2.9,0.8,3.5,1.9V195.4L547.3,195.4z M547.4,206c0-1.6-0.9-2.9-2.6-2.9c-1.6,0-2.6,1.2-2.6,2.9s1,2.9,2.6,2.9
				C546.5,208.9,547.4,207.6,547.4,206z"/>
			<path class="st1" d="M553.5,211.5v-16.1h3.5v16.1H553.5z"/>
			<path class="st1" d="M559,206c0-3.3,2.1-5.8,5.3-5.8c1.6,0,2.9,0.8,3.5,1.9v-1.6h3.5v11.1h-3.5V210c-0.6,1.1-2,1.9-3.5,1.9
				C561,211.8,559,209.3,559,206L559,206z M567.9,206c0-1.6-0.9-2.9-2.6-2.9c-1.6,0-2.6,1.2-2.6,2.9s1,2.9,2.6,2.9
				C567,208.9,567.9,207.6,567.9,206z"/>
			<path class="st1" d="M582.1,200.4h3.5v10.4c0,2.1-0.8,3.7-2.1,4.7c-1,0.7-2.4,1-4,1s-2.9-0.2-4-0.9c-1.1-0.7-1.9-1.9-2-3.1h3.6
				c0.2,0.9,0.9,1.4,2.3,1.4c1.6,0,2.6-0.7,2.6-2.7v-1.5c-0.5,1.1-2,1.8-3.5,1.8c-3.3,0-5.3-2.4-5.3-5.7s2.1-5.7,5.3-5.7
				c1.5,0,2.9,0.7,3.4,1.9V200.4L582.1,200.4z M582.2,205.9c0-1.6-1-2.9-2.7-2.9c-1.6,0-2.6,1.2-2.6,2.9s1,2.9,2.6,2.9
				C581.2,208.8,582.2,207.5,582.2,205.9z"/>
			<path class="st1" d="M599.3,206.9h-8.2c0.1,1.4,1,2.2,2.6,2.2c1.1,0,1.8-0.3,2.1-1h3.5c-0.3,2.2-2.6,3.6-5.5,3.6
				c-3.8,0-6.1-2.1-6.1-5.8s2.4-5.8,6-5.8s5.8,2.1,5.8,5.3C599.4,206,599.3,206.3,599.3,206.9L599.3,206.9z M595.9,204.8
				c0-1.5-0.8-2.2-2.3-2.2s-2.4,0.9-2.5,2.2H595.9z"/>
			<path class="st1" d="M615.1,195.4h3.5v16.1h-3.5V210c-0.6,1.1-2,1.9-3.5,1.9c-3.3,0-5.2-2.5-5.2-5.8s2-5.8,5.3-5.8
				c1.6,0,2.9,0.8,3.5,1.9V195.4L615.1,195.4z M615.3,206c0-1.6-0.9-2.9-2.6-2.9c-1.6,0-2.6,1.2-2.6,2.9s1,2.9,2.6,2.9
				C614.4,208.9,615.3,207.6,615.3,206z"/>
			<path class="st1" d="M632.3,206.9h-8.2c0.1,1.4,1,2.2,2.6,2.2c1.1,0,1.8-0.3,2.1-1h3.5c-0.3,2.2-2.6,3.6-5.5,3.6
				c-3.8,0-6.1-2.1-6.1-5.8s2.4-5.8,6-5.8s5.8,2.1,5.8,5.3C632.4,206,632.4,206.3,632.3,206.9L632.3,206.9z M628.9,204.8
				c0-1.5-0.8-2.2-2.3-2.2s-2.4,0.9-2.5,2.2H628.9z"/>
			<path class="st1" d="M633.6,208.2h3.5c0,0.8,0.7,1.3,1.8,1.3c0.8,0,1.3-0.4,1.3-1c0-0.5-0.2-0.8-1.2-1l-2.3-0.6
				c-1.8-0.4-2.8-1.6-2.8-3.2c0-2.1,1.9-3.5,4.7-3.5c3.1,0,4.9,1.2,4.9,3.4h-3.5c0-0.8-0.6-1.2-1.5-1.2c-0.8,0-1.3,0.4-1.3,0.9
				s0.3,0.8,1.2,1.1l2.3,0.6c1.8,0.5,2.8,1.5,2.8,3.2c0,2.3-1.9,3.7-4.8,3.7C635.7,211.8,633.6,210.4,633.6,208.2L633.6,208.2z"/>
			<path class="st1" d="M650.9,203.5c0-4.9,3.4-8.5,8.7-8.5c4.7,0,7.8,2.5,8.2,6.3h-4c-0.4-1.8-1.9-3-4.2-3c-3,0-4.8,2-4.8,5.2
				s1.8,5.2,4.8,5.2c2.3,0,3.8-1.1,4.2-3h4c-0.4,3.8-3.5,6.3-8.2,6.3C654.3,212,650.9,208.4,650.9,203.5L650.9,203.5z"/>
			<path class="st1" d="M669,206c0-3.4,2.3-5.8,6.2-5.8s6.1,2.5,6.1,5.8s-2.3,5.8-6.1,5.8S669,209.4,669,206z M677.8,206
				c0-1.7-1-2.9-2.6-2.9s-2.6,1.2-2.6,2.9s1,2.9,2.6,2.9S677.8,207.6,677.8,206z"/>
			<path class="st1" d="M683.2,211.5v-11.1h3.5v2.3c0.4-1.7,1.7-2.5,3.1-2.5c0.4,0,0.6,0,0.9,0.1v3.3c-0.4-0.1-0.6-0.1-1.1-0.1
				c-1.9,0-2.9,1.2-2.9,3.7v4.3H683.2z"/>
			<path class="st1" d="M704.6,206c0,3.5-2.1,5.8-5.2,5.8c-1.6,0-3-0.8-3.5-1.9v6.2h-3.5v-15.7h3.5v1.6c0.6-1.1,2-1.9,3.6-1.9
				C702.5,200.1,704.6,202.5,704.6,206L704.6,206z M701,206c0-1.7-1.1-2.9-2.6-2.9s-2.7,1.2-2.7,2.9s1.1,2.9,2.7,2.9
				S701,207.7,701,206z"/>
			<path class="st1" d="M705.9,206c0-3.4,2.3-5.8,6.2-5.8s6.1,2.5,6.1,5.8s-2.3,5.8-6.1,5.8S705.9,209.4,705.9,206z M714.7,206
				c0-1.7-1-2.9-2.6-2.9s-2.6,1.2-2.6,2.9s1,2.9,2.6,2.9S714.7,207.6,714.7,206z"/>
			<path class="st1" d="M720.1,211.5v-11.1h3.5v2.3c0.4-1.7,1.7-2.5,3.1-2.5c0.4,0,0.6,0,0.9,0.1v3.3c-0.4-0.1-0.6-0.1-1.1-0.1
				c-1.9,0-2.9,1.2-2.9,3.7v4.3H720.1z"/>
			<path class="st1" d="M728.6,206c0-3.3,2-5.8,5.3-5.8c1.6,0,2.9,0.8,3.5,1.9v-1.6h3.5v11.1h-3.5V210c-0.6,1.1-2,1.9-3.5,1.9
				C730.6,211.8,728.6,209.3,728.6,206L728.6,206z M737.5,206c0-1.6-0.9-2.9-2.6-2.9c-1.6,0-2.6,1.2-2.6,2.9s1,2.9,2.6,2.9
				C736.6,208.9,737.5,207.6,737.5,206z"/>
			<path class="st1" d="M750.6,208.7v2.8c-0.5,0.1-1.3,0.2-2.3,0.2c-1.7,0-3.9-0.4-3.9-4.1v-4.4h-1.8v-2.8h1.8v-3.3h3.5v3.3h2.5v2.8
				h-2.5v3.7c0,1.6,0.7,1.9,1.5,1.9C749.8,208.8,750.3,208.8,750.6,208.7L750.6,208.7z"/>
			<path class="st1" d="M763.3,206.9h-8.2c0.1,1.4,1,2.2,2.6,2.2c1.1,0,1.8-0.3,2.1-1h3.5c-0.3,2.2-2.6,3.6-5.5,3.6
				c-3.8,0-6.1-2.1-6.1-5.8s2.4-5.8,6-5.8s5.8,2.1,5.8,5.3C763.4,206,763.4,206.3,763.3,206.9L763.3,206.9z M759.9,204.8
				c0-1.5-0.8-2.2-2.3-2.2s-2.4,0.9-2.5,2.2H759.9z"/>
		</g>
		<g>
			<path class="st1" d="M78.5,238v-16.1h6.1c5.2,0,8.2,3.7,8.2,8.1s-3,8.1-8.2,8.1C84.6,238,78.5,238,78.5,238z M82.2,234.8h2
				c3.2,0,4.7-2.4,4.7-4.9s-1.5-4.9-4.7-4.9h-2V234.8z"/>
			<path class="st1" d="M105.7,233.4h-8.2c0.1,1.4,1,2.2,2.6,2.2c1.1,0,1.8-0.3,2.1-1h3.5c-0.3,2.2-2.6,3.6-5.5,3.6
				c-3.8,0-6.1-2.1-6.1-5.8s2.4-5.8,6-5.8s5.8,2.1,5.8,5.3C105.8,232.4,105.8,232.8,105.7,233.4z M102.3,231.2
				c0-1.5-0.8-2.2-2.3-2.2s-2.4,0.9-2.5,2.2C97.5,231.2,102.3,231.2,102.3,231.2z"/>
			<path class="st1" d="M107,234.6h3.5c0,0.8,0.7,1.3,1.8,1.3c0.8,0,1.3-0.4,1.3-1c0-0.5-0.2-0.8-1.2-1l-2.3-0.6
				c-1.8-0.4-2.8-1.6-2.8-3.2c0-2.1,1.9-3.5,4.7-3.5c3.1,0,4.9,1.2,4.9,3.4h-3.5c0-0.8-0.6-1.2-1.5-1.2c-0.8,0-1.3,0.4-1.3,0.9
				s0.3,0.8,1.2,1.1l2.4,0.6c1.8,0.5,2.8,1.5,2.8,3.2c0,2.3-1.9,3.7-4.9,3.7C109.1,238.3,107,236.8,107,234.6L107,234.6z"/>
			<path class="st1" d="M118.8,223.8c0-1.2,0.9-2.2,2.2-2.2c1.3,0,2.2,1,2.2,2.2s-0.9,2.1-2.2,2.1
				C119.7,225.9,118.8,225,118.8,223.8z M119.2,238v-11.1h3.5V238H119.2z"/>
			<path class="st1" d="M133.4,226.9h3.5v10.4c0,2.1-0.8,3.7-2.1,4.7c-1,0.7-2.4,1-4,1s-2.9-0.2-4-0.9c-1.1-0.7-1.9-1.9-2-3.1h3.6
				c0.2,0.9,0.9,1.4,2.4,1.4c1.6,0,2.6-0.7,2.6-2.7v-1.5c-0.6,1.1-2,1.8-3.5,1.8c-3.3,0-5.3-2.4-5.3-5.7s2.1-5.7,5.3-5.7
				c1.5,0,2.9,0.7,3.4,1.9L133.4,226.9L133.4,226.9z M133.5,232.4c0-1.6-1-2.9-2.7-2.9c-1.6,0-2.6,1.2-2.6,2.9s1,2.9,2.6,2.9
				C132.6,235.3,133.5,234,133.5,232.4z"/>
			<path class="st1" d="M139.6,238v-11.1h3.5v1.6c0.6-1.2,1.9-1.9,3.6-1.9c2.7,0,4.1,1.5,4.1,4.5v6.9h-3.5v-5.7
				c0-1.9-0.5-2.7-1.9-2.7s-2.1,0.9-2.1,2.6v5.8L139.6,238L139.6,238z"/>
			<path class="st1" d="M152.7,234.6h3.5c0,0.8,0.7,1.3,1.8,1.3c0.8,0,1.3-0.4,1.3-1c0-0.5-0.2-0.8-1.2-1l-2.3-0.6
				c-1.8-0.4-2.8-1.6-2.8-3.2c0-2.1,1.9-3.5,4.7-3.5c3.1,0,4.9,1.2,4.9,3.4h-3.5c0-0.8-0.6-1.2-1.5-1.2c-0.8,0-1.3,0.4-1.3,0.9
				s0.3,0.8,1.2,1.1l2.3,0.6c1.8,0.5,2.8,1.5,2.8,3.2c0,2.3-1.9,3.7-4.8,3.7C154.8,238.3,152.7,236.8,152.7,234.6L152.7,234.6z"/>
			<path class="st1" d="M164.7,235.9c0-1.2,1-2.2,2.3-2.2c1.3,0,2.3,1,2.3,2.2s-1,2.2-2.3,2.2C165.7,238.2,164.7,237.2,164.7,235.9z
				"/>
		</g>
	</g>
	<g>
		<g>
			<path class="st1" d="M542.1,350v-5.3h1.7v1.1c0.2-0.8,0.8-1.2,1.5-1.2c0.2,0,0.3,0,0.4,0v1.6c-0.2,0-0.3,0-0.5,0
				c-0.9,0-1.4,0.6-1.4,1.8v2L542.1,350L542.1,350z"/>
			<path class="st1" d="M551.8,346.8v3.3h-1.7v-2.7c0-0.9-0.3-1.3-0.9-1.3s-1,0.4-1,1.2v2.8h-1.7v-7.7h1.7v3.2
				c0.3-0.6,0.9-0.9,1.7-0.9C551.2,344.6,551.8,345.3,551.8,346.8L551.8,346.8z"/>
			<path class="st1" d="M558.3,347.9h-3.9c0,0.7,0.5,1.1,1.2,1.1c0.5,0,0.8-0.1,1-0.5h1.6c-0.2,1-1.2,1.7-2.6,1.7
				c-1.8,0-2.9-1-2.9-2.8s1.1-2.8,2.9-2.8s2.8,1,2.8,2.5C558.3,347.4,558.3,347.6,558.3,347.9L558.3,347.9z M556.7,346.8
				c0-0.7-0.4-1.1-1.1-1.1c-0.7,0-1.2,0.4-1.2,1.1H556.7L556.7,346.8z"/>
			<path class="st1" d="M559.1,343.3c0-0.6,0.4-1,1-1c0.6,0,1,0.5,1,1s-0.4,1-1,1S559.1,343.8,559.1,343.3z M559.3,350v-5.3h1.7v5.3
				H559.3z"/>
			<path class="st1" d="M562.3,350v-5.3h1.7v0.8c0.3-0.6,0.9-0.9,1.7-0.9c1.3,0,1.9,0.7,1.9,2.2v3.3h-1.7v-2.7
				c0-0.9-0.3-1.3-0.9-1.3s-1,0.4-1,1.2v2.8H562.3L562.3,350z"/>
			<path class="st1" d="M568.7,343.3c0-0.6,0.4-1,1-1c0.6,0,1,0.5,1,1s-0.4,1-1,1C569.1,344.3,568.7,343.8,568.7,343.3z M568.9,350
				v-5.3h1.7v5.3H568.9z"/>
			<path class="st1" d="M571.5,348.5h1.7c0,0.4,0.4,0.6,0.9,0.6c0.4,0,0.6-0.2,0.6-0.5c0-0.2-0.1-0.4-0.6-0.5l-1.1-0.3
				c-0.8-0.2-1.3-0.7-1.3-1.5c0-1,0.9-1.7,2.3-1.7c1.5,0,2.4,0.6,2.4,1.6h-1.7c0-0.4-0.3-0.6-0.7-0.6c-0.4,0-0.6,0.2-0.6,0.4
				c0,0.3,0.2,0.4,0.6,0.5l1.1,0.3c0.8,0.2,1.3,0.7,1.3,1.5c0,1.1-0.9,1.7-2.3,1.7C572.5,350.2,571.5,349.5,571.5,348.5L571.5,348.5
				z"/>
			<path class="st1" d="M577,347.4c0-1.7,1.1-2.8,2.8-2.8c1.6,0,2.6,0.8,2.7,2.1h-1.7c-0.1-0.5-0.4-0.7-1.1-0.7
				c-0.7,0-1.2,0.5-1.2,1.4c0,0.9,0.4,1.4,1.2,1.4c0.6,0,0.9-0.2,1.1-0.7h1.7c-0.1,1.3-1.2,2.1-2.7,2.1
				C578.1,350.2,577,349.1,577,347.4L577,347.4z"/>
			<path class="st1" d="M588.9,346.8v3.3h-1.7v-2.7c0-0.9-0.3-1.3-0.9-1.3s-1,0.4-1,1.2v2.8h-1.7v-7.7h1.7v3.2
				c0.3-0.6,0.9-0.9,1.7-0.9C588.2,344.6,588.9,345.3,588.9,346.8L588.9,346.8z"/>
		</g>
		<g>
			<path class="st1" d="M536.2,357.4v0.5h1.2v1.3h-1.2v4h-1.7v-4h-0.9v-1.3h0.9v-0.5c0-1.6,1.1-2,1.9-2c0.4,0,0.8,0.1,1,0.1v1.2
				c-0.2,0-0.3,0-0.5,0C536.6,356.7,536.2,356.8,536.2,357.4L536.2,357.4z"/>
			<path class="st1" d="M538.2,363.2v-5.3h1.7v1.1c0.2-0.8,0.8-1.2,1.5-1.2c0.2,0,0.3,0,0.4,0v1.6c-0.2,0-0.3,0-0.5,0
				c-0.9,0-1.4,0.6-1.4,1.8v2L538.2,363.2L538.2,363.2z"/>
			<path class="st1" d="M542.3,360.6c0-1.6,1.1-2.8,2.9-2.8c1.8,0,2.9,1.2,2.9,2.8c0,1.6-1.1,2.8-2.9,2.8
				C543.4,363.3,542.3,362.2,542.3,360.6z M543.1,356.4c0-0.5,0.4-0.9,0.9-0.9s1,0.4,1,0.9c0,0.5-0.4,0.9-1,0.9
				S543.1,356.9,543.1,356.4z M546.5,360.6c0-0.8-0.5-1.4-1.3-1.4c-0.8,0-1.3,0.6-1.3,1.4c0,0.8,0.5,1.4,1.3,1.4
				C546,361.9,546.5,361.4,546.5,360.6z M545.5,356.4c0-0.5,0.4-0.9,0.9-0.9s1,0.4,1,0.9c0,0.5-0.4,0.9-1,0.9
				S545.5,356.9,545.5,356.4z"/>
			<path class="st1" d="M554.4,359.9v3.3h-1.7v-2.7c0-0.9-0.3-1.3-0.9-1.3s-1,0.4-1,1.2v2.8h-1.7v-7.7h1.7v3.2
				c0.3-0.6,0.9-0.9,1.7-0.9C553.8,357.8,554.4,358.5,554.4,359.9L554.4,359.9z"/>
			<path class="st1" d="M555.7,363.2v-7.7h1.7v7.7H555.7z"/>
			<path class="st1" d="M558.5,356.4c0-0.6,0.4-1,1-1s1,0.5,1,1s-0.4,1-1,1S558.5,357,558.5,356.4z M558.7,363.2v-5.3h1.7v5.3H558.7
				z"/>
			<path class="st1" d="M561.3,360.6c0-1.7,1.1-2.8,2.8-2.8c1.6,0,2.6,0.8,2.7,2.1h-1.7c-0.1-0.5-0.4-0.7-1.1-0.7
				c-0.7,0-1.2,0.5-1.2,1.4c0,0.9,0.4,1.4,1.2,1.4c0.6,0,0.9-0.2,1.1-0.7h1.7c-0.1,1.3-1.2,2.1-2.7,2.1
				C562.4,363.3,561.3,362.2,561.3,360.6L561.3,360.6z"/>
			<path class="st1" d="M573.2,359.9v3.3h-1.7v-2.7c0-0.9-0.3-1.3-0.9-1.3c-0.7,0-1,0.4-1,1.2v2.8h-1.7v-7.7h1.7v3.2
				c0.3-0.6,0.9-0.9,1.7-0.9C572.6,357.8,573.2,358.5,573.2,359.9L573.2,359.9z"/>
			<path class="st1" d="M577.2,361.2v-3.3h1.7v2.9c0,0.7,0.2,1.1,0.9,1.1c0.7,0,1-0.5,1-1.2v-2.8h1.7v5.3h-1.7v-0.8
				c-0.3,0.6-0.8,0.9-1.6,0.9C577.9,363.3,577.2,362.6,577.2,361.2z"/>
			<path class="st1" d="M583.8,363.2v-5.3h1.7v0.8c0.3-0.6,0.9-0.9,1.7-0.9c1.3,0,1.9,0.7,1.9,2.2v3.3h-1.7v-2.7
				c0-0.9-0.3-1.3-0.9-1.3c-0.7,0-1,0.4-1,1.2v2.8H583.8L583.8,363.2z"/>
			<path class="st1" d="M594.3,355.5h1.7v7.7h-1.7v-0.7c-0.3,0.5-0.9,0.9-1.7,0.9c-1.6,0-2.5-1.2-2.5-2.8c0-1.6,1-2.8,2.5-2.8
				c0.8,0,1.4,0.4,1.7,0.9V355.5L594.3,355.5z M594.3,360.6c0-0.8-0.4-1.4-1.3-1.4c-0.8,0-1.3,0.6-1.3,1.4c0,0.8,0.5,1.4,1.3,1.4
				C593.9,362,594.3,361.3,594.3,360.6z"/>
		</g>
		<g>
			<path class="st1" d="M534.5,373.7c0-1.6,1-2.8,2.5-2.8c0.8,0,1.4,0.4,1.7,0.9v-0.8h1.7v5.3h-1.7v-0.7c-0.3,0.5-0.9,0.9-1.7,0.9
				C535.4,376.5,534.5,375.3,534.5,373.7L534.5,373.7z M538.7,373.7c0-0.8-0.4-1.4-1.3-1.4c-0.8,0-1.3,0.6-1.3,1.4s0.5,1.4,1.3,1.4
				C538.3,375.1,538.7,374.5,538.7,373.7z"/>
			<path class="st1" d="M541.6,374.3v-3.3h1.7v2.9c0,0.7,0.2,1.1,0.9,1.1c0.7,0,1-0.5,1-1.2v-2.8h1.7v5.3h-1.7v-0.8
				c-0.3,0.6-0.8,0.9-1.6,0.9C542.3,376.5,541.6,375.7,541.6,374.3z"/>
			<path class="st1" d="M551.5,375v1.3c-0.2,0-0.6,0.1-1.1,0.1c-0.8,0-1.9-0.2-1.9-1.9v-2.1h-0.8v-1.3h0.8v-1.6h1.7v1.6h1.2v1.3
				h-1.2v1.8c0,0.8,0.3,0.9,0.7,0.9C551.1,375,551.4,375,551.5,375L551.5,375z"/>
			<path class="st1" d="M557.8,373.1v3.3h-1.7v-2.7c0-0.9-0.3-1.3-0.9-1.3s-1,0.4-1,1.2v2.8h-1.7v-7.7h1.7v3.2
				c0.3-0.6,0.9-0.9,1.7-0.9C557.2,370.9,557.8,371.7,557.8,373.1L557.8,373.1z"/>
			<path class="st1" d="M564.3,374.2h-3.9c0,0.7,0.5,1.1,1.2,1.1c0.5,0,0.8-0.1,1-0.5h1.6c-0.2,1-1.2,1.7-2.6,1.7
				c-1.8,0-2.9-1-2.9-2.8s1.1-2.8,2.9-2.8c1.7,0,2.8,1,2.8,2.5C564.3,373.7,564.3,373.9,564.3,374.2L564.3,374.2z M562.7,373.1
				c0-0.7-0.4-1.1-1.1-1.1s-1.2,0.4-1.2,1.1H562.7L562.7,373.1z"/>
			<path class="st1" d="M565.3,376.4v-5.3h1.7v0.8c0.3-0.6,0.9-0.9,1.7-0.9c1.3,0,1.9,0.7,1.9,2.2v3.3H569v-2.7
				c0-0.9-0.3-1.3-0.9-1.3c-0.7,0-1,0.4-1,1.2v2.8H565.3L565.3,376.4z"/>
			<path class="st1" d="M575.2,375v1.3c-0.2,0-0.6,0.1-1.1,0.1c-0.8,0-1.9-0.2-1.9-1.9v-2.1h-0.8v-1.3h0.8v-1.6h1.7v1.6h1.2v1.3
				h-1.2v1.8c0,0.8,0.3,0.9,0.7,0.9C574.8,375,575.1,375,575.2,375L575.2,375z"/>
			<path class="st1" d="M576,369.6c0-0.6,0.4-1,1-1s1,0.5,1,1s-0.4,1-1,1S576,370.2,576,369.6z M576.2,376.4v-5.3h1.7v5.3H576.2z"/>
			<path class="st1" d="M578.8,374.8h1.7c0,0.4,0.4,0.6,0.9,0.6c0.4,0,0.6-0.2,0.6-0.5c0-0.2-0.1-0.4-0.6-0.5l-1.1-0.3
				c-0.8-0.2-1.3-0.7-1.3-1.5c0-1,0.9-1.7,2.3-1.7c1.5,0,2.4,0.6,2.4,1.6h-1.7c0-0.4-0.3-0.6-0.7-0.6c-0.4,0-0.6,0.2-0.6,0.4
				c0,0.3,0.2,0.4,0.6,0.5l1.1,0.3c0.8,0.2,1.3,0.7,1.3,1.5c0,1.1-0.9,1.7-2.3,1.7C579.8,376.5,578.8,375.8,578.8,374.8L578.8,374.8
				z"/>
			<path class="st1" d="M584.3,373.7c0-1.7,1.1-2.8,2.8-2.8c1.6,0,2.6,0.8,2.7,2.1h-1.7c-0.1-0.5-0.4-0.7-1.1-0.7
				c-0.7,0-1.2,0.5-1.2,1.4s0.4,1.4,1.2,1.4c0.6,0,0.9-0.2,1.1-0.7h1.7c-0.1,1.3-1.2,2.1-2.7,2.1
				C585.4,376.5,584.3,375.4,584.3,373.7L584.3,373.7z"/>
			<path class="st1" d="M596.1,373.1v3.3h-1.7v-2.7c0-0.9-0.3-1.3-0.9-1.3c-0.7,0-1,0.4-1,1.2v2.8h-1.7v-7.7h1.7v3.2
				c0.3-0.6,0.9-0.9,1.7-0.9C595.5,370.9,596.2,371.7,596.1,373.1L596.1,373.1z"/>
		</g>
		<path class="st2" d="M565.8,413.3c30,0,54.3-24.3,54.3-54.3s-24.3-54.3-54.3-54.3S511.5,329,511.5,359S535.8,413.3,565.8,413.3z"
			/>
		<g>
			<path class="st1" d="M237.8,349.9c0-0.6,0.4-1,1-1s1,0.5,1,1c0,0.6-0.4,1-1,1C238.2,350.9,237.8,350.4,237.8,349.9z M238,356.6
				v-5.3h1.7v5.3H238z"/>
			<path class="st1" d="M241,356.6v-5.3h1.7v0.8c0.3-0.6,0.9-0.9,1.7-0.9c1.3,0,1.9,0.7,1.9,2.2v3.3h-1.7v-2.7
				c0-0.9-0.3-1.3-0.9-1.3c-0.7,0-1,0.4-1,1.2v2.8H241L241,356.6z"/>
			<path class="st1" d="M251.5,348.9h1.7v7.7h-1.7v-0.7c-0.3,0.5-0.9,0.9-1.7,0.9c-1.6,0-2.5-1.2-2.5-2.8c0-1.6,1-2.8,2.5-2.8
				c0.8,0,1.4,0.4,1.7,0.9V348.9L251.5,348.9z M251.5,354c0-0.8-0.4-1.4-1.3-1.4c-0.8,0-1.3,0.6-1.3,1.4s0.5,1.4,1.3,1.4
				C251.1,355.4,251.5,354.8,251.5,354z"/>
			<path class="st1" d="M254.2,349.9c0-0.6,0.4-1,1-1s1,0.5,1,1c0,0.6-0.4,1-1,1C254.7,350.9,254.2,350.4,254.2,349.9z M254.4,356.6
				v-5.3h1.7v5.3H254.4z"/>
			<path class="st1" d="M259,356.6l-2.3-5.3h1.9l1.2,3.3l1.2-3.3h1.9l-2.3,5.3H259z"/>
			<path class="st1" d="M263.3,349.9c0-0.6,0.4-1,1-1c0.6,0,1,0.5,1,1c0,0.6-0.4,1-1,1C263.7,350.9,263.3,350.4,263.3,349.9z
				 M263.5,356.6v-5.3h1.7v5.3H263.5z"/>
			<path class="st1" d="M270.3,348.9h1.7v7.7h-1.7v-0.7c-0.3,0.5-0.9,0.9-1.7,0.9c-1.6,0-2.5-1.2-2.5-2.8c0-1.6,1-2.8,2.5-2.8
				c0.8,0,1.4,0.4,1.7,0.9V348.9L270.3,348.9z M270.4,354c0-0.8-0.4-1.4-1.3-1.4c-0.8,0-1.3,0.6-1.3,1.4s0.5,1.4,1.3,1.4
				C270,355.4,270.4,354.8,270.4,354z"/>
			<path class="st1" d="M273.3,354.6v-3.3h1.7v2.9c0,0.7,0.2,1.1,0.9,1.1c0.7,0,1-0.5,1-1.2v-2.8h1.7v5.3h-1.7v-0.8
				c-0.3,0.6-0.8,0.9-1.6,0.9C274,356.8,273.3,356,273.3,354.6L273.3,354.6z"/>
			<path class="st1" d="M285.1,354.4h-3.9c0,0.7,0.5,1.1,1.2,1.1c0.5,0,0.8-0.1,1-0.5h1.6c-0.2,1-1.2,1.7-2.6,1.7
				c-1.8,0-2.9-1-2.9-2.8s1.1-2.8,2.9-2.8c1.7,0,2.8,1,2.8,2.5C285.1,354,285.1,354.1,285.1,354.4L285.1,354.4z M283.5,353.4
				c0-0.7-0.4-1.1-1.1-1.1c-0.7,0-1.2,0.4-1.2,1.1H283.5z"/>
			<path class="st1" d="M286.1,356.6v-7.7h1.7v7.7H286.1z"/>
			<path class="st1" d="M289.1,356.6v-7.7h1.7v7.7H289.1z"/>
			<path class="st1" d="M294.9,354.6v-3.3h1.7v2.9c0,0.7,0.2,1.1,0.9,1.1c0.7,0,1-0.5,1-1.2v-2.8h1.7v5.3h-1.7v-0.8
				c-0.3,0.6-0.8,0.9-1.6,0.9C295.6,356.8,294.9,356,294.9,354.6L294.9,354.6z"/>
			<path class="st1" d="M301.5,356.6v-5.3h1.7v0.8c0.3-0.6,0.9-0.9,1.7-0.9c1.3,0,1.9,0.7,1.9,2.2v3.3h-1.7v-2.7
				c0-0.9-0.3-1.3-0.9-1.3c-0.7,0-1,0.4-1,1.2v2.8H301.5L301.5,356.6z"/>
			<path class="st1" d="M311.9,348.9h1.7v7.7h-1.7v-0.7c-0.3,0.5-0.9,0.9-1.7,0.9c-1.6,0-2.5-1.2-2.5-2.8c0-1.6,1-2.8,2.5-2.8
				c0.8,0,1.4,0.4,1.7,0.9V348.9L311.9,348.9z M312,354c0-0.8-0.4-1.4-1.3-1.4c-0.8,0-1.3,0.6-1.3,1.4s0.5,1.4,1.3,1.4
				C311.5,355.4,312,354.8,312,354z"/>
		</g>
		<g>
			<path class="st1" d="M245,363c0-0.6,0.4-1,1-1s1,0.5,1,1c0,0.6-0.4,1-1,1C245.4,364,245,363.6,245,363z M245.2,369.8v-5.3h1.7
				v5.3H245.2z"/>
			<path class="st1" d="M248.1,369.8v-5.3h1.7v0.8c0.3-0.6,0.9-0.9,1.7-0.9c1.3,0,1.9,0.7,1.9,2.2v3.3h-1.7v-2.7
				c0-0.9-0.3-1.3-0.9-1.3c-0.7,0-1,0.4-1,1.2v2.8H248.1L248.1,369.8z"/>
			<path class="st1" d="M254.4,368.2h1.7c0,0.4,0.4,0.6,0.9,0.6c0.4,0,0.6-0.2,0.6-0.5c0-0.2-0.1-0.4-0.6-0.5l-1.1-0.3
				c-0.8-0.2-1.3-0.7-1.3-1.5c0-1,0.9-1.7,2.3-1.7c1.5,0,2.4,0.6,2.4,1.6h-1.7c0-0.4-0.3-0.6-0.7-0.6c-0.4,0-0.6,0.2-0.6,0.4
				c0,0.3,0.1,0.4,0.6,0.5l1.1,0.3c0.8,0.2,1.3,0.7,1.3,1.5c0,1.1-0.9,1.7-2.3,1.7C255.4,369.9,254.4,369.2,254.4,368.2L254.4,368.2
				z"/>
			<path class="st1" d="M266.1,367.1c0,1.7-1,2.8-2.5,2.8c-0.8,0-1.4-0.4-1.7-0.9v2.9h-1.7v-7.5h1.7v0.8c0.3-0.5,0.9-0.9,1.7-0.9
				C265.1,364.4,266.1,365.5,266.1,367.1L266.1,367.1z M264.4,367.1c0-0.8-0.5-1.4-1.2-1.4c-0.7,0-1.3,0.6-1.3,1.4s0.5,1.4,1.3,1.4
				S264.4,368,264.4,367.1z"/>
			<path class="st1" d="M266.9,363c0-0.6,0.4-1,1-1c0.6,0,1,0.5,1,1c0,0.6-0.4,1-1,1C267.3,364,266.9,363.6,266.9,363z M267.1,369.8
				v-5.3h1.7v5.3H267.1z"/>
			<path class="st1" d="M270.1,369.8v-5.3h1.7v1.1c0.2-0.8,0.8-1.2,1.5-1.2c0.2,0,0.3,0,0.4,0v1.6c-0.2,0-0.3,0-0.5,0
				c-0.9,0-1.4,0.6-1.4,1.8v2L270.1,369.8L270.1,369.8z"/>
			<path class="st1" d="M274.2,363c0-0.6,0.4-1,1-1c0.6,0,1,0.5,1,1c0,0.6-0.4,1-1,1C274.6,364,274.2,363.6,274.2,363L274.2,363z
				 M274.4,369.8v-5.3h1.7v5.3H274.4z"/>
			<path class="st1" d="M282.6,367.6h-3.9c0,0.7,0.5,1.1,1.2,1.1c0.5,0,0.8-0.1,1-0.5h1.6c-0.2,1-1.2,1.7-2.6,1.7
				c-1.8,0-2.9-1-2.9-2.8s1.1-2.8,2.9-2.8s2.8,1,2.8,2.5C282.6,367.1,282.6,367.3,282.6,367.6L282.6,367.6z M281,366.6
				c0-0.7-0.4-1.1-1.1-1.1c-0.7,0-1.2,0.4-1.2,1.1H281z"/>
			<path class="st1" d="M283.6,369.8v-5.3h1.7v1.1c0.2-0.8,0.8-1.2,1.5-1.2c0.2,0,0.3,0,0.4,0v1.6c-0.2,0-0.3,0-0.5,0
				c-0.9,0-1.4,0.6-1.4,1.8v2L283.6,369.8L283.6,369.8z"/>
			<path class="st1" d="M293.3,367.6h-3.9c0,0.7,0.5,1.1,1.2,1.1c0.5,0,0.8-0.1,1-0.5h1.6c-0.2,1-1.2,1.7-2.6,1.7
				c-1.8,0-2.9-1-2.9-2.8s1.1-2.8,2.9-2.8s2.8,1,2.8,2.5C293.3,367.1,293.3,367.3,293.3,367.6L293.3,367.6z M291.7,366.6
				c0-0.7-0.4-1.1-1.1-1.1c-0.7,0-1.2,0.4-1.2,1.1H291.7z"/>
			<path class="st1" d="M294.3,369.8v-5.3h1.7v0.8c0.3-0.6,0.9-0.9,1.7-0.9c1.3,0,1.9,0.7,1.9,2.2v3.3h-1.7v-2.7
				c0-0.9-0.3-1.3-0.9-1.3c-0.7,0-1,0.4-1,1.2v2.8H294.3L294.3,369.8z"/>
			<path class="st1" d="M304.8,362.1h1.7v7.7h-1.7V369c-0.3,0.5-0.9,0.9-1.7,0.9c-1.6,0-2.5-1.2-2.5-2.8c0-1.6,1-2.8,2.5-2.8
				c0.8,0,1.4,0.4,1.7,0.9V362.1L304.8,362.1z M304.8,367.1c0-0.8-0.4-1.4-1.3-1.4c-0.8,0-1.3,0.6-1.3,1.4s0.5,1.4,1.3,1.4
				C304.4,368.5,304.8,367.9,304.8,367.1z"/>
		</g>
		<path class="st2" d="M276.1,413.3c30,0,54.3-24.3,54.3-54.3s-24.3-54.3-54.3-54.3c-30,0-54.3,24.3-54.3,54.3
			S246.1,413.3,276.1,413.3L276.1,413.3z"/>
		<path class="st1" d="M108.8,356.8c-0.6,0-1.1-0.1-1.6-0.4c-0.4-0.2-0.8-0.6-1-1c-0.2-0.4-0.4-0.9-0.4-1.4s0.1-1,0.4-1.4
			c0.2-0.4,0.6-0.8,1-1s1-0.4,1.6-0.4c0.6,0,1.1,0.1,1.6,0.4c0.4,0.2,0.8,0.6,1,1c0.2,0.4,0.4,0.9,0.4,1.4s-0.1,1-0.4,1.4
			c-0.2,0.4-0.6,0.8-1,1C110,356.6,109.4,356.8,108.8,356.8L108.8,356.8z M108.8,355.4c0.4,0,0.7-0.1,0.9-0.4c0.2-0.3,0.3-0.6,0.3-1
			s-0.1-0.7-0.3-1c-0.2-0.3-0.5-0.4-0.9-0.4c-0.4,0-0.7,0.1-0.9,0.4c-0.2,0.3-0.3,0.6-0.3,1s0.1,0.7,0.3,1
			C108.1,355.2,108.4,355.4,108.8,355.4L108.8,355.4z M115.6,350.1c-0.2,0-0.4,0-0.6,0.1c-0.1,0.1-0.2,0.3-0.2,0.5v0.5h1.2v1.3h-1.2
			v4h-1.7v-4h-0.9v-1.3h0.9v-0.5c0-0.7,0.2-1.2,0.6-1.5c0.4-0.3,0.8-0.4,1.4-0.4c0.4,0,0.7,0,1,0.1v1.2c-0.1,0-0.1,0-0.2,0
			C115.8,350.1,115.7,350.1,115.6,350.1L115.6,350.1L115.6,350.1z M120,350.1c-0.2,0-0.4,0-0.6,0.1c-0.1,0.1-0.2,0.3-0.2,0.5v0.5
			h1.2v1.3h-1.2v4h-1.7v-4h-0.9v-1.3h0.9v-0.5c0-0.7,0.2-1.2,0.6-1.5c0.4-0.3,0.8-0.4,1.4-0.4c0.4,0,0.7,0,1,0.1v1.2
			c-0.1,0-0.1,0-0.2,0C120.2,350.1,120.1,350.1,120,350.1L120,350.1L120,350.1z M126.5,353.7c0,0.2,0,0.5,0,0.7h-3.9
			c0,0.3,0.1,0.6,0.4,0.8c0.2,0.2,0.5,0.3,0.9,0.3c0.5,0,0.9-0.2,1-0.5h1.6c-0.1,0.5-0.4,0.9-0.9,1.3c-0.5,0.3-1.1,0.5-1.8,0.5
			c-0.9,0-1.6-0.2-2.1-0.7c-0.5-0.5-0.8-1.2-0.8-2.1c0-0.6,0.1-1.1,0.4-1.5c0.2-0.4,0.6-0.7,1-1c0.4-0.2,0.9-0.3,1.5-0.3
			c0.5,0,1,0.1,1.4,0.3c0.4,0.2,0.7,0.5,1,0.9C126.4,352.8,126.5,353.2,126.5,353.7L126.5,353.7L126.5,353.7z M124.9,353.4
			c0-0.4-0.1-0.6-0.3-0.8c-0.2-0.2-0.5-0.3-0.8-0.3c-0.4,0-0.6,0.1-0.9,0.3s-0.3,0.5-0.3,0.8H124.9L124.9,353.4z M127.5,356.6v-5.3
			h1.7v0.8c0.2-0.3,0.4-0.5,0.7-0.7s0.6-0.2,1-0.2c1.3,0,1.9,0.7,1.9,2.2v3.3h-1.7v-2.7c0-0.5-0.1-0.8-0.2-1s-0.4-0.3-0.7-0.3
			s-0.6,0.1-0.8,0.3c-0.2,0.2-0.3,0.5-0.3,0.9v2.8L127.5,356.6L127.5,356.6z M138.9,356.8c-0.6,0-1.1-0.2-1.4-0.6
			c-0.3-0.4-0.5-0.9-0.5-1.6v-3.3h1.7v2.9c0,0.4,0.1,0.6,0.2,0.8c0.1,0.2,0.4,0.3,0.7,0.3c0.3,0,0.6-0.1,0.8-0.3
			c0.2-0.2,0.3-0.5,0.3-0.9v-2.8h1.7v5.3h-1.7v-0.8c-0.1,0.3-0.4,0.5-0.6,0.7S139.3,356.8,138.9,356.8L138.9,356.8L138.9,356.8z
			 M143.5,356.6v-5.3h1.7v0.8c0.2-0.3,0.4-0.5,0.7-0.7s0.6-0.2,1-0.2c1.3,0,1.9,0.7,1.9,2.2v3.3h-1.7v-2.7c0-0.5-0.1-0.8-0.2-1
			c-0.1-0.2-0.4-0.3-0.7-0.3c-0.3,0-0.6,0.1-0.8,0.3c-0.2,0.2-0.3,0.5-0.3,0.9v2.8L143.5,356.6L143.5,356.6z M153.9,348.9h1.7v7.7
			h-1.7v-0.7c-0.1,0.3-0.4,0.5-0.7,0.6c-0.3,0.2-0.6,0.2-1,0.2c-0.5,0-1-0.1-1.3-0.4s-0.7-0.6-0.9-1c-0.2-0.4-0.3-0.9-0.3-1.4
			s0.1-1,0.3-1.4c0.2-0.4,0.5-0.8,0.9-1c0.4-0.2,0.8-0.4,1.3-0.4c0.4,0,0.7,0.1,1,0.2c0.3,0.2,0.5,0.4,0.7,0.7L153.9,348.9
			L153.9,348.9z M152.7,355.4c0.4,0,0.7-0.1,0.9-0.4c0.2-0.3,0.3-0.6,0.3-1c0-0.4-0.1-0.7-0.3-1s-0.5-0.4-0.9-0.4
			c-0.4,0-0.7,0.1-0.9,0.4c-0.2,0.3-0.3,0.6-0.3,1s0.1,0.7,0.3,1C152.1,355.2,152.4,355.4,152.7,355.4L152.7,355.4z"/>
		<g>
			<path class="st1" d="M99.3,362.1h1.7v7.7h-1.7V369c-0.3,0.5-0.9,0.9-1.7,0.9c-1.6,0-2.5-1.2-2.5-2.8c0-1.6,1-2.8,2.5-2.8
				c0.8,0,1.4,0.4,1.7,0.9V362.1L99.3,362.1z M99.4,367.1c0-0.8-0.4-1.4-1.3-1.4c-0.8,0-1.3,0.6-1.3,1.4s0.5,1.4,1.3,1.4
				C99,368.5,99.4,367.9,99.4,367.1z"/>
			<path class="st1" d="M107.5,367.6h-3.9c0,0.7,0.5,1.1,1.2,1.1c0.5,0,0.8-0.1,1-0.5h1.6c-0.2,1-1.2,1.7-2.6,1.7
				c-1.8,0-2.9-1-2.9-2.8s1.1-2.8,2.9-2.8s2.8,1,2.8,2.5C107.6,367.1,107.6,367.3,107.5,367.6L107.5,367.6z M105.9,366.6
				c0-0.7-0.4-1.1-1.1-1.1c-0.7,0-1.2,0.4-1.2,1.1H105.9z"/>
			<path class="st1" d="M108.6,369.8v-5.3h1.7v0.8c0.2-0.5,0.8-0.9,1.5-0.9c0.9,0,1.4,0.4,1.7,1c0.3-0.6,0.9-1,1.7-1
				c1.5,0,1.9,1,1.9,2.1v3.3h-1.7v-3c0-0.7-0.3-1-0.8-1s-0.9,0.3-0.9,1.3v2.7h-1.7v-3c0-0.7-0.3-1-0.8-1s-0.9,0.3-0.9,1.3v2.7H108.6
				L108.6,369.8z"/>
			<path class="st1" d="M117.9,367.1c0-1.6,1.1-2.8,2.9-2.8s2.9,1.2,2.9,2.8s-1.1,2.8-2.9,2.8C119,369.9,117.9,368.7,117.9,367.1z
				 M122.1,367.1c0-0.8-0.5-1.4-1.3-1.4c-0.8,0-1.3,0.6-1.3,1.4s0.5,1.4,1.3,1.4S122.1,367.9,122.1,367.1z"/>
			<path class="st1" d="M130.1,369.8h-2.1l-1.7-2.3v2.3h-1.7v-7.7h1.7v4.6l1.7-2.2h2L128,367L130.1,369.8L130.1,369.8z"/>
			<path class="st1" d="M130.9,369.8v-5.3h1.7v1.1c0.2-0.8,0.8-1.2,1.5-1.2c0.2,0,0.3,0,0.4,0v1.6c-0.2,0-0.3,0-0.5,0
				c-0.9,0-1.4,0.6-1.4,1.8v2L130.9,369.8L130.9,369.8z"/>
			<path class="st1" d="M135,367.1c0-1.6,1-2.8,2.5-2.8c0.8,0,1.4,0.4,1.7,0.9v-0.8h1.7v5.3h-1.7V369c-0.3,0.5-0.9,0.9-1.7,0.9
				C135.9,369.9,135,368.7,135,367.1L135,367.1z M139.2,367.1c0-0.8-0.4-1.4-1.3-1.4c-0.8,0-1.3,0.6-1.3,1.4s0.5,1.4,1.3,1.4
				C138.8,368.5,139.2,367.9,139.2,367.1z"/>
			<path class="st1" d="M145.5,368.4v1.3c-0.2,0-0.6,0.1-1.1,0.1c-0.8,0-1.9-0.2-1.9-1.9v-2.1h-0.8v-1.3h0.8v-1.6h1.7v1.6h1.2v1.3
				h-1.2v1.8c0,0.8,0.3,0.9,0.7,0.9C145.1,368.5,145.4,368.5,145.5,368.4L145.5,368.4z"/>
			<path class="st1" d="M146.3,363c0-0.6,0.4-1,1-1c0.6,0,1,0.5,1,1c0,0.6-0.4,1-1,1C146.7,364,146.3,363.6,146.3,363z M146.4,369.8
				v-5.3h1.7v5.3H146.4z"/>
			<path class="st1" d="M149.1,368.2h1.7c0,0.4,0.4,0.6,0.9,0.6c0.4,0,0.6-0.2,0.6-0.5c0-0.2-0.1-0.4-0.6-0.5l-1.1-0.3
				c-0.8-0.2-1.3-0.7-1.3-1.5c0-1,0.9-1.7,2.3-1.7c1.5,0,2.4,0.6,2.4,1.6h-1.7c0-0.4-0.3-0.6-0.7-0.6c-0.4,0-0.6,0.2-0.6,0.4
				c0,0.3,0.1,0.4,0.6,0.5l1.1,0.3c0.8,0.2,1.3,0.7,1.3,1.5c0,1.1-0.9,1.7-2.3,1.7C150.1,369.9,149.1,369.2,149.1,368.2L149.1,368.2
				z"/>
			<path class="st1" d="M154.6,367.1c0-1.7,1.1-2.8,2.8-2.8c1.6,0,2.6,0.8,2.7,2.1h-1.7c-0.1-0.5-0.4-0.7-1.1-0.7
				c-0.7,0-1.2,0.5-1.2,1.4s0.4,1.4,1.2,1.4c0.6,0,0.9-0.2,1.1-0.7h1.7c-0.1,1.3-1.2,2.1-2.7,2.1
				C155.6,369.9,154.6,368.8,154.6,367.1L154.6,367.1z"/>
			<path class="st1" d="M166.4,366.5v3.3h-1.7v-2.7c0-0.9-0.3-1.3-0.9-1.3c-0.7,0-1,0.4-1,1.2v2.8h-1.7v-7.7h1.7v3.2
				c0.3-0.6,0.9-0.9,1.7-0.9C165.8,364.4,166.4,365.1,166.4,366.5L166.4,366.5z"/>
		</g>
		<path class="st2" d="M131.3,413.3c30,0,54.3-24.3,54.3-54.3s-24.3-54.3-54.3-54.3S77,329,77,359S101.3,413.3,131.3,413.3z"/>
		<g>
			<path class="st1" d="M383.2,356.6h-2.1l-1.7-2.3v2.3h-1.7v-7.7h1.7v4.6l1.7-2.2h2l-2.1,2.5L383.2,356.6L383.2,356.6z"/>
			<path class="st1" d="M383.8,349.9c0-0.6,0.4-1,1-1c0.6,0,1,0.5,1,1c0,0.6-0.4,1-1,1S383.8,350.4,383.8,349.9z M384,356.6v-5.3
				h1.7v5.3H384z"/>
			<path class="st1" d="M387,356.6v-5.3h1.7v0.8c0.3-0.6,0.9-0.9,1.7-0.9c1.3,0,1.9,0.7,1.9,2.2v3.3h-1.7v-2.7
				c0-0.9-0.3-1.3-0.9-1.3c-0.7,0-1,0.4-1,1.2v2.8H387L387,356.6z"/>
			<path class="st1" d="M397.4,348.9h1.7v7.7h-1.7v-0.7c-0.3,0.5-0.9,0.9-1.7,0.9c-1.6,0-2.5-1.2-2.5-2.8c0-1.6,1-2.8,2.5-2.8
				c0.8,0,1.4,0.4,1.7,0.9V348.9L397.4,348.9z M397.5,354c0-0.8-0.4-1.4-1.3-1.4c-0.8,0-1.3,0.6-1.3,1.4s0.5,1.4,1.3,1.4
				C397.1,355.4,397.5,354.8,397.5,354z"/>
			<path class="st1" d="M405.7,354.4h-3.9c0,0.7,0.5,1.1,1.2,1.1c0.5,0,0.8-0.1,1-0.5h1.6c-0.2,1-1.2,1.7-2.6,1.7
				c-1.8,0-2.9-1-2.9-2.8s1.1-2.8,2.9-2.8c1.7,0,2.8,1,2.8,2.5C405.7,354,405.7,354.1,405.7,354.4L405.7,354.4z M404,353.4
				c0-0.7-0.4-1.1-1.1-1.1c-0.7,0-1.2,0.4-1.2,1.1H404z"/>
			<path class="st1" d="M406.7,356.6v-5.3h1.7v1.1c0.2-0.8,0.8-1.2,1.5-1.2c0.2,0,0.3,0,0.4,0v1.6c-0.2,0-0.3,0-0.5,0
				c-0.9,0-1.4,0.6-1.4,1.8v2L406.7,356.6L406.7,356.6z"/>
			<path class="st1" d="M413.4,350.8v0.5h1.2v1.3h-1.2v4h-1.7v-4h-0.9v-1.3h0.9v-0.5c0-1.6,1.1-2,1.9-2c0.4,0,0.8,0.1,1,0.1v1.2
				c-0.2,0-0.3,0-0.5,0C413.8,350.1,413.4,350.2,413.4,350.8L413.4,350.8z"/>
			<path class="st1" d="M415.4,356.6v-5.3h1.7v1.1c0.2-0.8,0.8-1.2,1.5-1.2c0.2,0,0.3,0,0.4,0v1.6c-0.2,0-0.3,0-0.5,0
				c-0.9,0-1.4,0.6-1.4,1.8v2L415.4,356.6L415.4,356.6z"/>
			<path class="st1" d="M425,354.4h-3.9c0,0.7,0.5,1.1,1.2,1.1c0.5,0,0.8-0.1,1-0.5h1.6c-0.2,1-1.2,1.7-2.6,1.7
				c-1.8,0-2.9-1-2.9-2.8s1.1-2.8,2.9-2.8c1.7,0,2.8,1,2.8,2.5C425.1,354,425.1,354.1,425,354.4L425,354.4z M423.4,353.4
				c0-0.7-0.4-1.1-1.1-1.1s-1.2,0.4-1.2,1.1H423.4L423.4,353.4z"/>
			<path class="st1" d="M426,354.6v-3.3h1.7v2.9c0,0.7,0.2,1.1,0.9,1.1c0.7,0,1-0.5,1-1.2v-2.8h1.7v5.3h-1.7v-0.8
				c-0.3,0.6-0.8,0.9-1.6,0.9C426.7,356.8,426,356,426,354.6z"/>
			<path class="st1" d="M432.6,356.6v-5.3h1.7v0.8c0.3-0.6,0.9-0.9,1.7-0.9c1.3,0,1.9,0.7,1.9,2.2v3.3h-1.7v-2.7
				c0-0.9-0.3-1.3-0.9-1.3c-0.7,0-1,0.4-1,1.2v2.8H432.6L432.6,356.6z"/>
			<path class="st1" d="M443,348.9h1.7v7.7H443v-0.7c-0.3,0.5-0.9,0.9-1.7,0.9c-1.6,0-2.5-1.2-2.5-2.8c0-1.6,1-2.8,2.5-2.8
				c0.8,0,1.4,0.4,1.7,0.9V348.9L443,348.9z M443.1,354c0-0.8-0.4-1.4-1.3-1.4c-0.8,0-1.3,0.6-1.3,1.4s0.5,1.4,1.3,1.4
				C442.7,355.4,443.1,354.8,443.1,354z"/>
			<path class="st1" d="M446,356.6v-7.7h1.7v7.7H446z"/>
			<path class="st1" d="M448.8,349.9c0-0.6,0.4-1,1-1c0.6,0,1,0.5,1,1c0,0.6-0.4,1-1,1S448.8,350.4,448.8,349.9z M449,356.6v-5.3
				h1.7v5.3H449z"/>
			<path class="st1" d="M451.6,354c0-1.7,1.1-2.8,2.8-2.8c1.6,0,2.6,0.8,2.7,2.1h-1.7c-0.1-0.5-0.4-0.7-1.1-0.7
				c-0.7,0-1.2,0.5-1.2,1.4s0.4,1.4,1.2,1.4c0.6,0,0.9-0.2,1.1-0.7h1.7c-0.1,1.3-1.2,2.1-2.7,2.1C452.7,356.8,451.6,355.7,451.6,354
				L451.6,354z"/>
			<path class="st1" d="M463.5,353.4v3.3h-1.7v-2.7c0-0.9-0.3-1.3-0.9-1.3c-0.7,0-1,0.4-1,1.2v2.8h-1.7v-7.7h1.7v3.2
				c0.3-0.6,0.9-0.9,1.7-0.9C462.8,351.2,463.5,351.9,463.5,353.4L463.5,353.4z"/>
		</g>
		<g>
			<path class="st1" d="M397.8,367.8v-3.3h1.7v2.9c0,0.7,0.2,1.1,0.9,1.1c0.7,0,1-0.5,1-1.2v-2.8h1.7v5.3h-1.7V369
				c-0.3,0.6-0.8,0.9-1.6,0.9C398.4,369.9,397.8,369.1,397.8,367.8L397.8,367.8z"/>
			<path class="st1" d="M404.3,369.8v-5.3h1.7v0.8c0.3-0.6,0.9-0.9,1.7-0.9c1.3,0,1.9,0.7,1.9,2.2v3.3H408v-2.7
				c0-0.9-0.3-1.3-0.9-1.3c-0.7,0-1,0.4-1,1.2v2.8H404.3L404.3,369.8z"/>
			<path class="st1" d="M414.8,362.1h1.7v7.7h-1.7V369c-0.3,0.5-0.9,0.9-1.7,0.9c-1.6,0-2.5-1.2-2.5-2.8c0-1.6,1-2.8,2.5-2.8
				c0.8,0,1.4,0.4,1.7,0.9V362.1L414.8,362.1z M414.9,367.1c0-0.8-0.4-1.4-1.3-1.4c-0.8,0-1.3,0.6-1.3,1.4s0.5,1.4,1.3,1.4
				C414.4,368.5,414.9,367.9,414.9,367.1z"/>
			<path class="st1" d="M426.4,367.1c0,1.7-1,2.8-2.5,2.8c-0.8,0-1.4-0.4-1.7-0.9v0.7h-1.7v-7.7h1.7v3.1c0.3-0.5,0.9-0.9,1.7-0.9
				C425.5,364.4,426.4,365.5,426.4,367.1L426.4,367.1z M424.7,367.1c0-0.8-0.5-1.4-1.2-1.4s-1.3,0.6-1.3,1.4s0.5,1.4,1.3,1.4
				S424.7,368,424.7,367.1z"/>
			<path class="st1" d="M427.4,367.8v-3.3h1.7v2.9c0,0.7,0.2,1.1,0.9,1.1c0.7,0,1-0.5,1-1.2v-2.8h1.7v5.3H431V369
				c-0.3,0.6-0.8,0.9-1.6,0.9C428.1,369.9,427.4,369.1,427.4,367.8z"/>
			<path class="st1" d="M434,369.8v-5.3h1.7v0.8c0.3-0.6,0.9-0.9,1.7-0.9c1.3,0,1.9,0.7,1.9,2.2v3.3h-1.7v-2.7
				c0-0.9-0.3-1.3-0.9-1.3c-0.7,0-1,0.4-1,1.2v2.8H434L434,369.8z"/>
			<path class="st1" d="M443.9,368.4v1.3c-0.2,0-0.6,0.1-1.1,0.1c-0.8,0-1.9-0.2-1.9-1.9v-2.1H440v-1.3h0.8v-1.6h1.7v1.6h1.2v1.3
				h-1.2v1.8c0,0.8,0.3,0.9,0.7,0.9C443.5,368.5,443.7,368.5,443.9,368.4L443.9,368.4z"/>
		</g>
		<path class="st2" d="M420.9,413.3c30,0,54.3-24.3,54.3-54.3s-24.3-54.3-54.3-54.3S366.7,329,366.7,359S391,413.3,420.9,413.3z"/>
		<g>
			<path class="st1" d="M689.4,356.6l-2.3-5.3h1.9l1.2,3.3l1.2-3.3h1.9l-2.3,5.3H689.4z"/>
			<path class="st1" d="M693.6,349.9c0-0.6,0.4-1,1-1s1,0.5,1,1c0,0.6-0.4,1-1,1S693.6,350.4,693.6,349.9z M693.8,356.6v-5.3h1.7
				v5.3H693.8z"/>
			<path class="st1" d="M702,354.4h-3.9c0,0.7,0.5,1.1,1.2,1.1c0.5,0,0.8-0.1,1-0.5h1.6c-0.2,1-1.2,1.7-2.6,1.7
				c-1.8,0-2.9-1-2.9-2.8s1.1-2.8,2.9-2.8c1.7,0,2.8,1,2.8,2.5C702,354,702,354.1,702,354.4L702,354.4z M700.4,353.4
				c0-0.7-0.4-1.1-1.1-1.1c-0.7,0-1.2,0.4-1.2,1.1H700.4L700.4,353.4z"/>
			<path class="st1" d="M703.1,356.6v-7.7h1.7v7.7H703.1z"/>
			<path class="st1" d="M708.2,350.8v0.5h1.2v1.3h-1.2v4h-1.7v-4h-0.9v-1.3h0.9v-0.5c0-1.6,1.1-2,1.9-2c0.4,0,0.8,0.1,1,0.1v1.2
				c-0.2,0-0.3,0-0.5,0C708.6,350.1,708.2,350.2,708.2,350.8L708.2,350.8z"/>
			<path class="st1" d="M709.9,354c0-1.6,1-2.8,2.5-2.8c0.8,0,1.4,0.4,1.7,0.9v-0.8h1.7v5.3h-1.7v-0.7c-0.3,0.5-0.9,0.9-1.7,0.9
				C710.8,356.8,709.9,355.6,709.9,354L709.9,354z M710.7,349.8c0-0.5,0.4-0.9,0.9-0.9c0.5,0,1,0.4,1,0.9c0,0.5-0.4,0.9-1,0.9
				C711.1,350.7,710.7,350.3,710.7,349.8z M714.1,354c0-0.8-0.4-1.4-1.3-1.4c-0.8,0-1.3,0.6-1.3,1.4s0.5,1.4,1.3,1.4
				C713.7,355.4,714.1,354.8,714.1,354z M713.1,349.8c0-0.5,0.4-0.9,0.9-0.9s1,0.4,1,0.9c0,0.5-0.4,0.9-1,0.9
				S713.1,350.3,713.1,349.8z"/>
			<path class="st1" d="M717,356.6v-7.7h1.7v7.7H717z"/>
			<path class="st1" d="M723.4,355.3v1.3c-0.2,0-0.6,0.1-1.1,0.1c-0.8,0-1.9-0.2-1.9-1.9v-2.1h-0.8v-1.3h0.8v-1.6h1.7v1.6h1.2v1.3
				h-1.2v1.8c0,0.8,0.3,0.9,0.7,0.9C723,355.3,723.2,355.3,723.4,355.3L723.4,355.3z"/>
			<path class="st1" d="M724.1,349.9c0-0.6,0.4-1,1-1c0.6,0,1,0.5,1,1c0,0.6-0.4,1-1,1S724.1,350.4,724.1,349.9z M724.3,356.6v-5.3
				h1.7v5.3H724.3z"/>
			<path class="st1" d="M731.1,351.3h1.7v4.9c0,1-0.4,1.8-1,2.2c-0.5,0.3-1.1,0.5-1.9,0.5c-0.8,0-1.4-0.1-1.9-0.4
				c-0.5-0.3-0.9-0.9-0.9-1.5h1.7c0.1,0.4,0.4,0.7,1.1,0.7c0.8,0,1.2-0.3,1.2-1.3v-0.7c-0.3,0.5-1,0.9-1.7,0.9
				c-1.6,0-2.5-1.1-2.5-2.7s1-2.7,2.5-2.7c0.7,0,1.4,0.4,1.6,0.9V351.3L731.1,351.3z M731.2,353.9c0-0.8-0.5-1.4-1.3-1.4
				c-0.8,0-1.2,0.6-1.2,1.4s0.5,1.4,1.2,1.4C730.7,355.3,731.2,354.7,731.2,353.9z"/>
		</g>
		<g>
			<path class="st1" d="M684.1,367.8v-3.3h1.7v2.9c0,0.7,0.2,1.1,0.9,1.1c0.7,0,1-0.5,1-1.2v-2.8h1.7v5.3h-1.7V369
				c-0.3,0.6-0.8,0.9-1.6,0.9C684.8,369.9,684.1,369.1,684.1,367.8z"/>
			<path class="st1" d="M690.7,369.8v-5.3h1.7v0.8c0.3-0.6,0.9-0.9,1.7-0.9c1.3,0,1.9,0.7,1.9,2.2v3.3h-1.7v-2.7
				c0-0.9-0.3-1.3-0.9-1.3c-0.7,0-1,0.4-1,1.2v2.8H690.7L690.7,369.8z"/>
			<path class="st1" d="M701.1,362.1h1.7v7.7h-1.7V369c-0.3,0.5-0.9,0.9-1.7,0.9c-1.6,0-2.5-1.2-2.5-2.8c0-1.6,1-2.8,2.5-2.8
				c0.8,0,1.4,0.4,1.7,0.9V362.1L701.1,362.1z M701.2,367.1c0-0.8-0.4-1.4-1.3-1.4c-0.8,0-1.3,0.6-1.3,1.4s0.5,1.4,1.3,1.4
				C700.8,368.5,701.2,367.9,701.2,367.1z"/>
			<path class="st1" d="M706.6,368.2h1.7c0,0.4,0.4,0.6,0.9,0.6c0.4,0,0.6-0.2,0.6-0.5c0-0.2-0.1-0.4-0.6-0.5l-1.1-0.3
				c-0.8-0.2-1.3-0.7-1.3-1.5c0-1,0.9-1.7,2.3-1.7c1.5,0,2.4,0.6,2.4,1.6h-1.7c0-0.4-0.3-0.6-0.7-0.6c-0.4,0-0.6,0.2-0.6,0.4
				c0,0.3,0.2,0.4,0.6,0.5l1.1,0.3c0.8,0.2,1.3,0.7,1.3,1.5c0,1.1-0.9,1.7-2.3,1.7C707.5,369.9,706.5,369.2,706.6,368.2L706.6,368.2
				z"/>
			<path class="st1" d="M712.4,369.8v-5.3h1.7v0.8c0.2-0.5,0.8-0.9,1.5-0.9c0.9,0,1.4,0.4,1.7,1c0.3-0.6,0.9-1,1.7-1
				c1.5,0,1.9,1,1.9,2.1v3.3h-1.7v-3c0-0.7-0.3-1-0.8-1s-0.9,0.3-0.9,1.3v2.7h-1.7v-3c0-0.7-0.3-1-0.8-1s-0.9,0.3-0.9,1.3v2.7H712.4
				L712.4,369.8z"/>
			<path class="st1" d="M721.8,367.1c0-1.6,1-2.8,2.5-2.8c0.8,0,1.4,0.4,1.7,0.9v-0.8h1.7v5.3h-1.7V369c-0.3,0.5-0.9,0.9-1.7,0.9
				C722.7,369.9,721.8,368.7,721.8,367.1L721.8,367.1z M726,367.1c0-0.8-0.4-1.4-1.3-1.4c-0.8,0-1.3,0.6-1.3,1.4s0.5,1.4,1.3,1.4
				C725.6,368.5,726,367.9,726,367.1z"/>
			<path class="st1" d="M728.9,369.8v-5.3h1.7v1.1c0.2-0.8,0.8-1.2,1.5-1.2c0.2,0,0.3,0,0.4,0v1.6c-0.2,0-0.3,0-0.5,0
				c-0.9,0-1.4,0.6-1.4,1.8v2L728.9,369.8L728.9,369.8z"/>
			<path class="st1" d="M736.9,368.4v1.3c-0.2,0-0.6,0.1-1.1,0.1c-0.8,0-1.9-0.2-1.9-1.9v-2.1h-0.8v-1.3h0.8v-1.6h1.7v1.6h1.2v1.3
				h-1.2v1.8c0,0.8,0.3,0.9,0.7,0.9C736.5,368.5,736.7,368.5,736.9,368.4L736.9,368.4z"/>
		</g>
		<path class="st2" d="M710.6,413.3c30,0,54.3-24.3,54.3-54.3s-24.3-54.3-54.3-54.3S656.3,329,656.3,359S680.6,413.3,710.6,413.3z"
			/>
	</g>
</g>
</svg>
