<svg width="149" height="66" viewBox="0 0 149 66" fill="none" xmlns="http://www.w3.org/2000/svg">
<path d="M146 48H3.99351e-06" stroke="#FF2E00" stroke-width="4"/>
<path d="M130.5 32L144.498 43.7278C146.859 45.7059 146.887 49.3275 144.557 51.3423L130.5 63.5" stroke="#FF2E00" stroke-width="4"/>
<path d="M31.212 27.572C31.68 30.884 33.804 29.804 33.804 31.28C33.804 31.784 33.3 32.108 32.616 32.108C31.644 32.108 30.888 32 29.268 32C27.504 32 26.892 32.108 25.884 32.108C25.128 32.108 24.696 31.712 24.696 31.208C24.696 29.912 26.964 30.596 26.964 28.508C26.964 28.148 26.892 27.608 26.856 27.14L26.064 21.704C25.812 20.084 25.416 17.168 22.824 17.168C20.988 17.168 19.26 18.572 19.26 22.064V27.968C19.26 30.74 21.564 29.84 21.564 31.244C21.564 31.64 21.24 32.108 20.556 32.108C19.728 32.108 18.684 32 17.1 32C15.552 32 14.616 32.108 13.788 32.108C13.068 32.108 12.744 31.676 12.744 31.244C12.744 29.84 14.94 30.74 14.94 27.968V21.704C14.94 19.508 14.364 17.168 11.808 17.168C9.936 17.168 7.848 18.608 7.848 22.244V27.968C7.848 30.74 10.08 29.84 10.08 31.244C10.08 31.64 9.756 32.108 9.072 32.108C8.244 32.108 7.236 32 5.688 32C4.14 32 3.204 32.108 2.34 32.108C1.656 32.108 1.332 31.676 1.332 31.244C1.332 29.84 3.528 30.74 3.528 27.968V19.76C3.528 17.492 1.044 18.608 1.044 17.096C1.044 16.448 1.8 15.98 3.996 14.972C6.12 13.964 6.516 13.892 6.876 13.892C7.632 13.892 7.848 14.504 7.848 15.368V17.276C8.964 15.404 10.98 13.748 13.716 13.748C16.38 13.748 17.928 15.296 18.684 17.348C19.728 15.368 21.564 13.748 24.372 13.748C28.332 13.748 29.736 17.096 30.276 20.84L31.212 27.572ZM44.5534 32.684C38.5774 32.684 34.6894 28.688 34.6894 23.252C34.6894 17.636 39.0814 13.46 45.0934 13.46C51.0334 13.46 54.9214 17.456 54.9214 22.928C54.9214 28.58 50.4574 32.684 44.5534 32.684ZM45.4174 30.344C48.4774 30.344 50.2774 27.896 50.2774 24.296C50.2774 20.228 47.8654 15.8 44.2294 15.8C41.1694 15.8 39.3694 18.248 39.3694 21.884C39.3694 25.916 41.7454 30.344 45.4174 30.344ZM70.1871 13.748C71.9151 13.748 73.1031 14.684 73.1031 15.764C73.1031 16.556 72.7791 17.672 72.1671 19.364C71.9511 20.048 71.6271 20.444 71.0511 20.444C70.5111 20.444 70.2591 19.976 69.9711 19.4C69.4311 18.212 68.8911 17.564 68.0271 17.564C66.4791 17.564 63.8871 19.904 63.8871 24.62V27.968C63.8871 30.74 66.5511 29.732 66.5511 31.244C66.5511 31.64 66.2631 32.108 65.5431 32.108C64.6431 32.108 63.4551 32 61.7271 32C60.1791 32 59.2071 32.108 58.3791 32.108C57.6591 32.108 57.3711 31.676 57.3711 31.244C57.3711 29.84 59.5671 30.74 59.5671 27.968V19.76C59.5671 17.492 57.0831 18.608 57.0831 17.096C57.0831 16.448 57.8391 15.98 60.0711 14.972C62.1591 14 62.5911 13.892 62.9151 13.892C63.6351 13.892 63.8871 14.468 63.8871 15.368V18.644C65.0391 15.8 67.5951 13.748 70.1871 13.748ZM91.2707 27.068C91.7747 27.068 92.0987 27.536 92.0987 27.968C92.0987 28.22 91.9907 28.508 91.7387 28.868C90.4787 30.74 87.2747 32.684 83.5307 32.684C78.2747 32.684 74.1347 29.12 74.1347 23.18C74.1347 17.348 78.5267 13.46 83.5667 13.46C88.3187 13.46 91.3787 16.988 91.3787 20.516C91.3787 21.416 91.0907 21.632 90.4787 21.812L79.2827 25.196C80.3627 27.788 82.5587 29.696 85.3667 29.696C87.3107 29.696 88.9667 28.868 90.2267 27.68C90.6947 27.248 90.9467 27.068 91.2707 27.068ZM82.9547 15.872C80.4347 15.872 78.5627 18.068 78.5627 21.524C78.5627 22.064 78.5987 22.568 78.6707 23.072L85.9787 20.768C86.5907 20.588 86.8067 20.372 86.8067 19.724C86.8067 17.996 85.2227 15.872 82.9547 15.872Z" fill="#FF2E00"/>
</svg>
