<svg width="149" height="66" viewBox="0 0 149 66" fill="none" xmlns="http://www.w3.org/2000/svg">
<path d="M3 48H149" stroke="#FF2E00" stroke-width="4"/>
<path d="M18.5 32L4.50227 43.7278C2.1414 45.7059 2.11302 49.3275 4.4426 51.3423L18.5 63.5" stroke="#FF2E00" stroke-width="4"/>
<path d="M87.212 27.572C87.68 30.884 89.804 29.804 89.804 31.28C89.804 31.784 89.3 32.108 88.616 32.108C87.644 32.108 86.888 32 85.268 32C83.504 32 82.892 32.108 81.884 32.108C81.128 32.108 80.696 31.712 80.696 31.208C80.696 29.912 82.964 30.596 82.964 28.508C82.964 28.148 82.892 27.608 82.856 27.14L82.064 21.704C81.812 20.084 81.416 17.168 78.824 17.168C76.988 17.168 75.26 18.572 75.26 22.064V27.968C75.26 30.74 77.564 29.84 77.564 31.244C77.564 31.64 77.24 32.108 76.556 32.108C75.728 32.108 74.684 32 73.1 32C71.552 32 70.616 32.108 69.788 32.108C69.068 32.108 68.744 31.676 68.744 31.244C68.744 29.84 70.94 30.74 70.94 27.968V21.704C70.94 19.508 70.364 17.168 67.808 17.168C65.936 17.168 63.848 18.608 63.848 22.244V27.968C63.848 30.74 66.08 29.84 66.08 31.244C66.08 31.64 65.756 32.108 65.072 32.108C64.244 32.108 63.236 32 61.688 32C60.14 32 59.204 32.108 58.34 32.108C57.656 32.108 57.332 31.676 57.332 31.244C57.332 29.84 59.528 30.74 59.528 27.968V19.76C59.528 17.492 57.044 18.608 57.044 17.096C57.044 16.448 57.8 15.98 59.996 14.972C62.12 13.964 62.516 13.892 62.876 13.892C63.632 13.892 63.848 14.504 63.848 15.368V17.276C64.964 15.404 66.98 13.748 69.716 13.748C72.38 13.748 73.928 15.296 74.684 17.348C75.728 15.368 77.564 13.748 80.372 13.748C84.332 13.748 85.736 17.096 86.276 20.84L87.212 27.572ZM100.553 32.684C94.5774 32.684 90.6894 28.688 90.6894 23.252C90.6894 17.636 95.0814 13.46 101.093 13.46C107.033 13.46 110.921 17.456 110.921 22.928C110.921 28.58 106.457 32.684 100.553 32.684ZM101.417 30.344C104.477 30.344 106.277 27.896 106.277 24.296C106.277 20.228 103.865 15.8 100.229 15.8C97.1694 15.8 95.3694 18.248 95.3694 21.884C95.3694 25.916 97.7454 30.344 101.417 30.344ZM126.187 13.748C127.915 13.748 129.103 14.684 129.103 15.764C129.103 16.556 128.779 17.672 128.167 19.364C127.951 20.048 127.627 20.444 127.051 20.444C126.511 20.444 126.259 19.976 125.971 19.4C125.431 18.212 124.891 17.564 124.027 17.564C122.479 17.564 119.887 19.904 119.887 24.62V27.968C119.887 30.74 122.551 29.732 122.551 31.244C122.551 31.64 122.263 32.108 121.543 32.108C120.643 32.108 119.455 32 117.727 32C116.179 32 115.207 32.108 114.379 32.108C113.659 32.108 113.371 31.676 113.371 31.244C113.371 29.84 115.567 30.74 115.567 27.968V19.76C115.567 17.492 113.083 18.608 113.083 17.096C113.083 16.448 113.839 15.98 116.071 14.972C118.159 14 118.591 13.892 118.915 13.892C119.635 13.892 119.887 14.468 119.887 15.368V18.644C121.039 15.8 123.595 13.748 126.187 13.748ZM147.271 27.068C147.775 27.068 148.099 27.536 148.099 27.968C148.099 28.22 147.991 28.508 147.739 28.868C146.479 30.74 143.275 32.684 139.531 32.684C134.275 32.684 130.135 29.12 130.135 23.18C130.135 17.348 134.527 13.46 139.567 13.46C144.319 13.46 147.379 16.988 147.379 20.516C147.379 21.416 147.091 21.632 146.479 21.812L135.283 25.196C136.363 27.788 138.559 29.696 141.367 29.696C143.311 29.696 144.967 28.868 146.227 27.68C146.695 27.248 146.947 27.068 147.271 27.068ZM138.955 15.872C136.435 15.872 134.563 18.068 134.563 21.524C134.563 22.064 134.599 22.568 134.671 23.072L141.979 20.768C142.591 20.588 142.807 20.372 142.807 19.724C142.807 17.996 141.223 15.872 138.955 15.872Z" fill="#FF2E00"/>
</svg>
