<svg width="864" height="815" viewBox="0 0 864 815" fill="none" xmlns="http://www.w3.org/2000/svg">
<rect width="864" height="815" fill="#0000FF"/>
<g clip-path="url(#clip0_903_526)">
<path d="M313.31 479.163L309.599 503.292H300.684L309.369 463H313.196L324.981 489.619L337.454 462.961H341.357L349.813 503.215H340.898L337.072 478.78L325.095 503.215H324.445L313.31 479.124V479.163Z" fill="white"/>
<path d="M352.951 482.954C352.951 470.277 361.637 462.425 373.039 462.425C384.48 462.425 393.166 470.239 393.166 482.916C393.166 493.219 385.245 503.752 373.078 503.79C360.91 503.79 352.951 493.564 352.913 482.954H352.951ZM385.245 483.069C385.169 474.911 380.386 469.588 373.039 469.664C365.693 469.549 360.872 475.064 360.872 483.069C360.872 491.074 366.037 497.241 373.078 497.355C380.041 497.279 385.245 491.074 385.245 483.108V483.069Z" fill="white"/>
<path d="M395.729 503.177V502.143L416.621 467.902L397.642 471.579H397.107L398.178 462.885H427.373V463.919L406.443 498.198L426.569 494.483H427.105L425.498 503.139H395.768L395.729 503.177Z" fill="white"/>
<path d="M455.573 493.717H441.568L438.622 503.139H429.592V502.602L447.155 462.31H451.823L468.544 502.564V503.1H458.557L455.534 493.717H455.573ZM448.456 471.541L443.175 488.623H453.966L448.456 471.541Z" fill="white"/>
<path d="M473.901 481.92L472.638 462.808H482.28L481.132 481.92L482.357 503.1H472.714L473.939 481.958L473.901 481.92Z" fill="white"/>
<path d="M491.234 481.92L489.971 462.808H499.613L498.466 481.92L499.69 503.101H490.048L491.272 481.959L491.234 481.92ZM514 503.062L500.57 481.691V479.852L510.786 462.77H521.5V463.306L507.457 479.584L524.752 502.488V503.024H513.962L514 503.062Z" fill="white"/>
<path d="M552.952 493.602H538.948L536.002 503.024H526.972V502.488L544.534 462.195H549.203L565.924 502.449V502.985H555.937L552.914 493.602H552.952ZM545.835 471.426L540.555 488.508H551.345L545.835 471.426Z" fill="white"/>
<path d="M330.261 366.75L360.412 442.049H300.11L330.261 366.75ZM300.416 295.703L330.261 292.639L360.106 289.307L330.261 366.712L300.416 295.703ZM425.88 353.613C422.245 342.851 416.812 335.114 409.58 330.441C402.387 325.769 392.974 323.318 381.419 323.126C373.919 323.126 367.07 324.352 360.871 326.765C354.673 329.216 350.158 331.744 347.326 334.386C349.546 327.262 353.295 320.215 358.576 313.206C363.856 306.197 370.743 300.375 379.276 295.664C387.809 291.03 397.374 288.809 407.897 289C419.07 289 427.947 291.337 434.528 296.009C441.109 300.682 445.05 307.423 446.236 316.27C447.423 325.118 445.739 335.535 441.071 347.524L431.926 371.615L425.842 353.652L425.88 353.613ZM431.964 371.576L461.81 441.973H401.813L431.964 371.576ZM529.382 353.613C525.747 342.851 520.237 335.114 512.929 330.441C505.621 325.769 496.17 323.318 484.614 323.126C477.115 323.126 470.342 324.313 464.373 326.65C458.366 328.986 453.774 331.59 450.522 334.425C452.741 327.301 456.567 320.253 461.924 313.244C467.319 306.235 474.207 300.414 482.625 295.703C491.081 291.03 500.685 288.809 511.437 289C522.61 289 531.487 291.337 538.068 296.009C544.649 300.682 548.59 307.384 549.776 316.117C551.001 324.85 549.279 335.306 544.611 347.524L535.466 371.615L529.382 353.652V353.613ZM535.466 371.576L565.005 441.973H505.009L535.466 371.576Z" fill="white"/>
</g>
<defs>
<clipPath id="clip0_903_526">
<rect width="267" height="238" fill="white" transform="translate(299 289)"/>
</clipPath>
</defs>
</svg>
