<svg width="864" height="815" viewBox="0 0 864 815" fill="none" xmlns="http://www.w3.org/2000/svg">
<rect width="864" height="815" fill="#F7A500"/>
<path d="M221 454.63V406.967H236.096V413.892C238.171 409.135 243.103 405.703 249.719 405.703C258.2 405.703 262.56 409.466 264.635 414.495C267.191 409.346 272.815 405.703 279.852 405.703C293.475 405.703 296.722 415.097 296.722 425.093V454.66H281.506V427.863C281.506 421.239 279.04 418.469 274.409 418.469C269.778 418.469 266.409 421.149 266.409 430.151V454.66H251.193V427.773C251.193 421.149 248.817 418.469 244.186 418.469C239.555 418.469 236.096 421.149 236.096 430.151V454.66H221V454.63Z" fill="#75236C"/>
<path d="M342.824 430.784C342.824 423.557 338.583 418.409 331.456 418.409C324.329 418.409 320.089 423.557 320.089 430.784C320.089 438.01 324.239 443.159 331.456 443.159C338.674 443.159 342.824 438.01 342.824 430.784ZM304.992 430.784C304.992 416.241 315.067 405.672 331.456 405.672C347.846 405.672 357.83 416.241 357.83 430.784C357.83 445.326 347.755 455.895 331.456 455.895C315.157 455.895 304.992 445.326 304.992 430.784Z" fill="#75236C"/>
<path d="M366.37 454.63V406.967H381.467V413.892C384.233 408.563 389.677 405.703 396.864 405.703C408.412 405.703 414.246 412.236 414.246 425.183V454.66H399.029V430.151C399.029 422.142 396.744 418.469 390.639 418.469C384.534 418.469 381.467 422.413 381.467 429.73V454.66H366.37V454.63Z" fill="#75236C"/>
<path d="M473.518 425.153V454.63H458.302V430.121C458.302 422.112 456.016 418.439 449.912 418.439C443.807 418.439 440.739 422.383 440.739 429.7V454.63H425.643V385.409H440.739V413.892C443.506 408.563 448.949 405.703 456.137 405.703C467.684 405.703 473.518 412.236 473.518 425.183" fill="#75236C"/>
<path d="M516.913 425.545C516.823 419.222 513.274 415.849 506.839 415.849C500.403 415.849 496.374 419.703 496.284 425.545H516.913ZM531.438 434.939H496.284C496.584 441.171 500.734 444.513 507.44 444.513C512.072 444.513 515.049 443.219 516.342 440.268H531.137C529.664 449.662 520.071 455.895 507.44 455.895C491.231 455.895 481.277 446.711 481.277 430.784C481.277 414.856 491.442 405.672 506.959 405.672C522.477 405.672 531.829 414.856 531.829 428.315C531.829 430.784 531.739 432.259 531.438 434.939Z" fill="#75236C"/>
<path d="M541.302 406.967H556.308V454.63H541.302V406.967ZM539.528 393.629C539.528 388.48 543.377 384.325 548.82 384.325C554.263 384.325 558.203 388.48 558.203 393.629C558.203 398.777 554.263 402.812 548.82 402.812C543.377 402.812 539.528 398.657 539.528 393.629Z" fill="#75236C"/>
<path d="M567.766 454.63V406.967H582.862V413.892C584.937 409.135 589.869 405.703 596.485 405.703C604.965 405.703 609.326 409.466 611.401 414.495C613.957 409.346 619.611 405.703 626.617 405.703C640.24 405.703 643.338 415.097 643.338 425.093V454.66H628.302V427.863C628.302 421.239 625.836 418.469 621.204 418.469C616.573 418.469 613.205 421.149 613.205 430.151V454.66H597.988V427.773C597.988 421.149 595.613 418.469 590.982 418.469C586.35 418.469 582.892 421.149 582.892 430.151V454.66H567.796L567.766 454.63Z" fill="#75236C"/>
<path d="M221 547.548V499.885H236.096V506.81C238.171 502.053 243.103 498.59 249.719 498.59C258.2 498.59 262.56 502.354 264.635 507.382C267.191 502.233 272.815 498.59 279.852 498.59C293.475 498.59 296.722 507.984 296.722 517.981V547.548H281.506V520.751C281.506 514.127 279.04 511.356 274.409 511.356C269.778 511.356 266.409 514.036 266.409 523.039V547.548H251.193V520.66C251.193 514.036 248.817 511.356 244.186 511.356C239.555 511.356 236.096 514.036 236.096 523.039V547.548H221Z" fill="#75236C"/>
<path d="M307.669 499.885H322.675V547.548H307.669V499.885ZM305.895 486.546C305.895 481.398 309.744 477.243 315.187 477.243C320.63 477.243 324.57 481.398 324.57 486.546C324.57 491.695 320.63 495.73 315.187 495.73C309.744 495.73 305.895 491.575 305.895 486.546Z" fill="#75236C"/>
<path d="M364.325 535.504V547.578C362.16 547.969 358.582 548.361 354.251 548.361C347.154 548.361 337.35 546.765 337.35 530.867V511.868H329.832V499.915H337.35V485.763H352.447V499.915H363.213V511.868H352.447V527.676C352.447 534.691 355.304 535.775 359.063 535.775C360.747 535.775 362.912 535.685 364.295 535.474" fill="#75236C"/>
<path d="M403.42 535.504V547.578C401.254 547.969 397.676 548.361 393.345 548.361C386.248 548.361 376.445 546.765 376.445 530.867V511.868H368.927V499.915H376.445V485.763H391.541V499.915H402.307V511.868H391.541V527.676C391.541 534.691 394.398 535.775 398.157 535.775C399.841 535.775 402.006 535.685 403.39 535.474" fill="#75236C"/>
<path d="M443.596 518.492C443.506 512.169 439.958 508.797 433.522 508.797C427.087 508.797 423.057 512.651 422.967 518.492H443.596ZM458.121 527.886H422.967C423.267 534.119 427.417 537.491 434.124 537.491C438.755 537.491 441.732 536.197 443.025 533.246H457.821C456.347 542.64 446.754 548.873 434.124 548.873C417.914 548.873 407.96 539.689 407.96 523.761C407.96 507.833 418.125 498.65 433.642 498.65C449.16 498.65 458.512 507.833 458.512 521.292C458.512 523.761 458.422 525.237 458.121 527.916" fill="#75236C"/>
<path d="M432.951 367.554H432.169C378.459 367.434 335.336 354.125 308.601 342.985L303.94 341.058V285.476C303.94 283.579 301.354 281.441 297.655 281.441C294.257 281.441 291.37 283.278 291.37 285.476V324.498C291.37 335.066 281.776 343.647 269.988 343.647C258.2 343.647 248.607 335.217 248.607 324.498V285.476C248.607 283.579 246.02 281.441 242.321 281.441C238.923 281.441 236.036 283.278 236.036 285.476V343.527H221V285.476C221 274.757 230.383 266.326 242.382 266.326C254.38 266.326 263.763 274.908 263.763 285.476V324.498C263.763 326.696 266.65 328.532 270.048 328.532C273.747 328.532 276.333 326.395 276.333 324.498V285.476C276.333 274.727 285.716 266.326 297.715 266.326C309.714 266.326 319.096 274.908 319.096 285.476V330.881C344.778 341.058 384.023 352.289 432.229 352.409C470.932 352.439 508.974 345.273 545.302 330.881V285.476C545.302 274.727 554.684 266.326 566.683 266.326C578.682 266.326 588.065 274.908 588.065 285.476V324.498C588.065 326.696 590.952 328.532 594.35 328.532C597.748 328.532 600.635 326.696 600.635 324.498V285.476C600.635 274.727 610.018 266.326 622.016 266.326C634.015 266.326 643.398 274.908 643.398 285.476V343.527H628.302V285.476C628.302 283.579 625.715 281.441 622.016 281.441C618.618 281.441 615.731 283.278 615.731 285.476V324.498C615.731 335.247 606.349 343.647 594.35 343.647C582.351 343.647 572.968 335.217 572.968 324.498V285.476C572.968 283.579 570.382 281.441 566.683 281.441C563.285 281.441 560.398 283.278 560.398 285.476V341.028L555.737 342.955C516.402 359.244 475.082 367.524 432.951 367.524" fill="#75236C"/>
</svg>
